<?xml version="1.0" encoding="utf-8" standalone="no"?>
<!DOCTYPE svg PUBLIC "-//W3C//DTD SVG 1.1//EN"
  "http://www.w3.org/Graphics/SVG/1.1/DTD/svg11.dtd">
<svg xmlns:xlink="http://www.w3.org/1999/xlink" width="691.634375pt" height="557.95875pt" viewBox="0 0 691.634375 557.95875" xmlns="http://www.w3.org/2000/svg" version="1.1">
 <metadata>
  <rdf:RDF xmlns:dc="http://purl.org/dc/elements/1.1/" xmlns:cc="http://creativecommons.org/ns#" xmlns:rdf="http://www.w3.org/1999/02/22-rdf-syntax-ns#">
   <cc:Work>
    <dc:type rdf:resource="http://purl.org/dc/dcmitype/StillImage"/>
    <dc:date>2025-06-03T18:39:41.688696</dc:date>
    <dc:format>image/svg+xml</dc:format>
    <dc:creator>
     <cc:Agent>
      <dc:title>Matplotlib v3.10.3, https://matplotlib.org/</dc:title>
     </cc:Agent>
    </dc:creator>
   </cc:Work>
  </rdf:RDF>
 </metadata>
 <defs>
  <style type="text/css">*{stroke-linejoin: round; stroke-linecap: butt}</style>
 </defs>
 <g id="figure_1">
  <g id="patch_1">
   <path d="M 0 557.95875 
L 691.634375 557.95875 
L 691.634375 0 
L 0 0 
z
" style="fill: #ffffff"/>
  </g>
  <g id="axes_1">
   <g id="patch_2">
    <path d="M 100.034375 481.69 
L 658.034375 481.69 
L 658.034375 38.17 
L 100.034375 38.17 
z
" style="fill: #ffffff"/>
   </g>
   <g id="PathCollection_1">
    <defs>
     <path id="m755620ae55" d="M 0 -4.472136 
L -4.472136 4.472136 
L 4.472136 4.472136 
z
" style="stroke: #a9a9a9"/>
    </defs>
    <g clip-path="url(#pdffe6dc80a)">
     <use xlink:href="#m755620ae55" x="132.539099" y="179.271306" style="fill: #a9a9a9; stroke: #a9a9a9"/>
     <use xlink:href="#m755620ae55" x="290.72894" y="223.919637" style="fill: #a9a9a9; stroke: #a9a9a9"/>
     <use xlink:href="#m755620ae55" x="354.586613" y="207.810499" style="fill: #a9a9a9; stroke: #a9a9a9"/>
     <use xlink:href="#m755620ae55" x="395.286737" y="186.004349" style="fill: #a9a9a9; stroke: #a9a9a9"/>
     <use xlink:href="#m755620ae55" x="425.225084" y="282.877616" style="fill: #a9a9a9; stroke: #a9a9a9"/>
     <use xlink:href="#m755620ae55" x="448.91878" y="261.071466" style="fill: #a9a9a9; stroke: #a9a9a9"/>
     <use xlink:href="#m755620ae55" x="468.528587" y="282.877616" style="fill: #a9a9a9; stroke: #a9a9a9"/>
     <use xlink:href="#m755620ae55" x="485.257488" y="223.919637" style="fill: #a9a9a9; stroke: #a9a9a9"/>
     <use xlink:href="#m755620ae55" x="499.844534" y="389.39955" style="fill: #a9a9a9; stroke: #a9a9a9"/>
     <use xlink:href="#m755620ae55" x="512.776454" y="389.39955" style="fill: #a9a9a9; stroke: #a9a9a9"/>
     <use xlink:href="#m755620ae55" x="524.390861" y="336.138583" style="fill: #a9a9a9; stroke: #a9a9a9"/>
     <use xlink:href="#m755620ae55" x="534.931567" y="336.138583" style="fill: #a9a9a9; stroke: #a9a9a9"/>
     <use xlink:href="#m755620ae55" x="544.580398" y="307.59939" style="fill: #a9a9a9; stroke: #a9a9a9"/>
     <use xlink:href="#m755620ae55" x="553.476578" y="294.826167" style="fill: #a9a9a9; stroke: #a9a9a9"/>
     <use xlink:href="#m755620ae55" x="561.729077" y="336.138583" style="fill: #a9a9a9; stroke: #a9a9a9"/>
     <use xlink:href="#m755620ae55" x="569.424792" y="336.138583" style="fill: #a9a9a9; stroke: #a9a9a9"/>
     <use xlink:href="#m755620ae55" x="576.634127" y="336.138583" style="fill: #a9a9a9; stroke: #a9a9a9"/>
     <use xlink:href="#m755620ae55" x="583.414924" y="294.826167" style="fill: #a9a9a9; stroke: #a9a9a9"/>
     <use xlink:href="#m755620ae55" x="589.815285" y="307.59939" style="fill: #a9a9a9; stroke: #a9a9a9"/>
     <use xlink:href="#m755620ae55" x="595.875639" y="336.138583" style="fill: #a9a9a9; stroke: #a9a9a9"/>
     <use xlink:href="#m755620ae55" x="601.630296" y="369.893284" style="fill: #a9a9a9; stroke: #a9a9a9"/>
     <use xlink:href="#m755620ae55" x="607.108621" y="336.138583" style="fill: #a9a9a9; stroke: #a9a9a9"/>
     <use xlink:href="#m755620ae55" x="612.33594" y="389.39955" style="fill: #a9a9a9; stroke: #a9a9a9"/>
     <use xlink:href="#m755620ae55" x="617.334251" y="336.138583" style="fill: #a9a9a9; stroke: #a9a9a9"/>
     <use xlink:href="#m755620ae55" x="622.122779" y="464.466667" style="fill: #a9a9a9; stroke: #a9a9a9"/>
     <use xlink:href="#m755620ae55" x="626.718428" y="464.466667" style="fill: #a9a9a9; stroke: #a9a9a9"/>
     <use xlink:href="#m755620ae55" x="631.136135" y="336.138583" style="fill: #a9a9a9; stroke: #a9a9a9"/>
     <use xlink:href="#m755620ae55" x="635.389168" y="336.138583" style="fill: #a9a9a9; stroke: #a9a9a9"/>
     <use xlink:href="#m755620ae55" x="639.489364" y="389.39955" style="fill: #a9a9a9; stroke: #a9a9a9"/>
     <use xlink:href="#m755620ae55" x="643.447328" y="336.138583" style="fill: #a9a9a9; stroke: #a9a9a9"/>
     <use xlink:href="#m755620ae55" x="647.272598" y="464.466667" style="fill: #a9a9a9; stroke: #a9a9a9"/>
     <use xlink:href="#m755620ae55" x="650.973782" y="464.466667" style="fill: #a9a9a9; stroke: #a9a9a9"/>
     <use xlink:href="#m755620ae55" x="654.558679" y="336.138583" style="fill: #a9a9a9; stroke: #a9a9a9"/>
     <use xlink:href="#m755620ae55" x="661.407325" y="411.2057" style="fill: #a9a9a9; stroke: #a9a9a9"/>
     <use xlink:href="#m755620ae55" x="664.683431" y="336.138583" style="fill: #a9a9a9; stroke: #a9a9a9"/>
     <use xlink:href="#m755620ae55" x="667.868099" y="336.138583" style="fill: #a9a9a9; stroke: #a9a9a9"/>
     <use xlink:href="#m755620ae55" x="670.966294" y="411.2057" style="fill: #a9a9a9; stroke: #a9a9a9"/>
     <use xlink:href="#m755620ae55" x="673.982589" y="389.39955" style="fill: #a9a9a9; stroke: #a9a9a9"/>
     <use xlink:href="#m755620ae55" x="676.921203" y="464.466667" style="fill: #a9a9a9; stroke: #a9a9a9"/>
     <use xlink:href="#m755620ae55" x="679.786036" y="464.466667" style="fill: #a9a9a9; stroke: #a9a9a9"/>
     <use xlink:href="#m755620ae55" x="682.580702" y="336.138583" style="fill: #a9a9a9; stroke: #a9a9a9"/>
     <use xlink:href="#m755620ae55" x="685.308557" y="261.071466" style="fill: #a9a9a9; stroke: #a9a9a9"/>
     <use xlink:href="#m755620ae55" x="687.972722" y="464.466667" style="fill: #a9a9a9; stroke: #a9a9a9"/>
     <use xlink:href="#m755620ae55" x="693.121408" y="464.466667" style="fill: #a9a9a9; stroke: #a9a9a9"/>
     <use xlink:href="#m755620ae55" x="698.047778" y="207.810499" style="fill: #a9a9a9; stroke: #a9a9a9"/>
     <use xlink:href="#m755620ae55" x="700.433436" y="464.466667" style="fill: #a9a9a9; stroke: #a9a9a9"/>
     <use xlink:href="#m755620ae55" x="702.770239" y="336.138583" style="fill: #a9a9a9; stroke: #a9a9a9"/>
     <use xlink:href="#m755620ae55" x="705.060145" y="464.466667" style="fill: #a9a9a9; stroke: #a9a9a9"/>
     <use xlink:href="#m755620ae55" x="709.506546" y="389.39955" style="fill: #a9a9a9; stroke: #a9a9a9"/>
     <use xlink:href="#m755620ae55" x="711.666418" y="464.466667" style="fill: #a9a9a9; stroke: #a9a9a9"/>
     <use xlink:href="#m755620ae55" x="713.786167" y="389.39955" style="fill: #a9a9a9; stroke: #a9a9a9"/>
     <use xlink:href="#m755620ae55" x="715.867255" y="464.466667" style="fill: #a9a9a9; stroke: #a9a9a9"/>
     <use xlink:href="#m755620ae55" x="717.911068" y="464.466667" style="fill: #a9a9a9; stroke: #a9a9a9"/>
     <use xlink:href="#m755620ae55" x="721.892048" y="464.466667" style="fill: #a9a9a9; stroke: #a9a9a9"/>
     <use xlink:href="#m755620ae55" x="729.460115" y="464.466667" style="fill: #a9a9a9; stroke: #a9a9a9"/>
     <use xlink:href="#m755620ae55" x="731.276225" y="464.466667" style="fill: #a9a9a9; stroke: #a9a9a9"/>
     <use xlink:href="#m755620ae55" x="733.063883" y="464.466667" style="fill: #a9a9a9; stroke: #a9a9a9"/>
     <use xlink:href="#m755620ae55" x="736.557315" y="464.466667" style="fill: #a9a9a9; stroke: #a9a9a9"/>
     <use xlink:href="#m755620ae55" x="739.946966" y="464.466667" style="fill: #a9a9a9; stroke: #a9a9a9"/>
     <use xlink:href="#m755620ae55" x="744.849814" y="464.466667" style="fill: #a9a9a9; stroke: #a9a9a9"/>
     <use xlink:href="#m755620ae55" x="746.438375" y="464.466667" style="fill: #a9a9a9; stroke: #a9a9a9"/>
     <use xlink:href="#m755620ae55" x="748.005126" y="464.466667" style="fill: #a9a9a9; stroke: #a9a9a9"/>
     <use xlink:href="#m755620ae55" x="749.550655" y="464.466667" style="fill: #a9a9a9; stroke: #a9a9a9"/>
     <use xlink:href="#m755620ae55" x="754.06548" y="464.466667" style="fill: #a9a9a9; stroke: #a9a9a9"/>
     <use xlink:href="#m755620ae55" x="755.531579" y="464.466667" style="fill: #a9a9a9; stroke: #a9a9a9"/>
    </g>
   </g>
   <g id="PathCollection_2">
    <defs>
     <path id="m245713f6a4" d="M -0 4.472136 
L 4.472136 -4.472136 
L -4.472136 -4.472136 
z
" style="stroke: #a9a9a9"/>
    </defs>
    <g clip-path="url(#pdffe6dc80a)">
     <use xlink:href="#m245713f6a4" x="132.539099" y="166.498084" style="fill: #a9a9a9; stroke: #a9a9a9"/>
     <use xlink:href="#m245713f6a4" x="290.72894" y="241.5652" style="fill: #a9a9a9; stroke: #a9a9a9"/>
     <use xlink:href="#m245713f6a4" x="354.586613" y="207.810499" style="fill: #a9a9a9; stroke: #a9a9a9"/>
     <use xlink:href="#m245713f6a4" x="395.286737" y="223.919637" style="fill: #a9a9a9; stroke: #a9a9a9"/>
     <use xlink:href="#m245713f6a4" x="425.225084" y="389.39955" style="fill: #a9a9a9; stroke: #a9a9a9"/>
     <use xlink:href="#m245713f6a4" x="448.91878" y="261.071466" style="fill: #a9a9a9; stroke: #a9a9a9"/>
     <use xlink:href="#m245713f6a4" x="468.528587" y="261.071466" style="fill: #a9a9a9; stroke: #a9a9a9"/>
     <use xlink:href="#m245713f6a4" x="485.257488" y="261.071466" style="fill: #a9a9a9; stroke: #a9a9a9"/>
     <use xlink:href="#m245713f6a4" x="499.844534" y="241.5652" style="fill: #a9a9a9; stroke: #a9a9a9"/>
     <use xlink:href="#m245713f6a4" x="512.776454" y="294.826167" style="fill: #a9a9a9; stroke: #a9a9a9"/>
     <use xlink:href="#m245713f6a4" x="524.390861" y="336.138583" style="fill: #a9a9a9; stroke: #a9a9a9"/>
     <use xlink:href="#m245713f6a4" x="534.931567" y="294.826167" style="fill: #a9a9a9; stroke: #a9a9a9"/>
     <use xlink:href="#m245713f6a4" x="544.580398" y="294.826167" style="fill: #a9a9a9; stroke: #a9a9a9"/>
     <use xlink:href="#m245713f6a4" x="553.476578" y="261.071466" style="fill: #a9a9a9; stroke: #a9a9a9"/>
     <use xlink:href="#m245713f6a4" x="561.729077" y="307.59939" style="fill: #a9a9a9; stroke: #a9a9a9"/>
     <use xlink:href="#m245713f6a4" x="569.424792" y="369.893284" style="fill: #a9a9a9; stroke: #a9a9a9"/>
     <use xlink:href="#m245713f6a4" x="576.634127" y="294.826167" style="fill: #a9a9a9; stroke: #a9a9a9"/>
     <use xlink:href="#m245713f6a4" x="583.414924" y="464.466667" style="fill: #a9a9a9; stroke: #a9a9a9"/>
     <use xlink:href="#m245713f6a4" x="589.815285" y="294.826167" style="fill: #a9a9a9; stroke: #a9a9a9"/>
     <use xlink:href="#m245713f6a4" x="595.875639" y="294.826167" style="fill: #a9a9a9; stroke: #a9a9a9"/>
     <use xlink:href="#m245713f6a4" x="601.630296" y="369.893284" style="fill: #a9a9a9; stroke: #a9a9a9"/>
     <use xlink:href="#m245713f6a4" x="607.108621" y="389.39955" style="fill: #a9a9a9; stroke: #a9a9a9"/>
     <use xlink:href="#m245713f6a4" x="612.33594" y="336.138583" style="fill: #a9a9a9; stroke: #a9a9a9"/>
     <use xlink:href="#m245713f6a4" x="617.334251" y="336.138583" style="fill: #a9a9a9; stroke: #a9a9a9"/>
     <use xlink:href="#m245713f6a4" x="622.122779" y="464.466667" style="fill: #a9a9a9; stroke: #a9a9a9"/>
     <use xlink:href="#m245713f6a4" x="626.718428" y="411.2057" style="fill: #a9a9a9; stroke: #a9a9a9"/>
     <use xlink:href="#m245713f6a4" x="631.136135" y="336.138583" style="fill: #a9a9a9; stroke: #a9a9a9"/>
     <use xlink:href="#m245713f6a4" x="635.389168" y="389.39955" style="fill: #a9a9a9; stroke: #a9a9a9"/>
     <use xlink:href="#m245713f6a4" x="639.489364" y="336.138583" style="fill: #a9a9a9; stroke: #a9a9a9"/>
     <use xlink:href="#m245713f6a4" x="643.447328" y="336.138583" style="fill: #a9a9a9; stroke: #a9a9a9"/>
     <use xlink:href="#m245713f6a4" x="647.272598" y="336.138583" style="fill: #a9a9a9; stroke: #a9a9a9"/>
     <use xlink:href="#m245713f6a4" x="650.973782" y="336.138583" style="fill: #a9a9a9; stroke: #a9a9a9"/>
     <use xlink:href="#m245713f6a4" x="654.558679" y="261.071466" style="fill: #a9a9a9; stroke: #a9a9a9"/>
     <use xlink:href="#m245713f6a4" x="658.034375" y="464.466667" style="fill: #a9a9a9; stroke: #a9a9a9"/>
     <use xlink:href="#m245713f6a4" x="661.407325" y="336.138583" style="fill: #a9a9a9; stroke: #a9a9a9"/>
     <use xlink:href="#m245713f6a4" x="664.683431" y="464.466667" style="fill: #a9a9a9; stroke: #a9a9a9"/>
     <use xlink:href="#m245713f6a4" x="667.868099" y="336.138583" style="fill: #a9a9a9; stroke: #a9a9a9"/>
     <use xlink:href="#m245713f6a4" x="670.966294" y="411.2057" style="fill: #a9a9a9; stroke: #a9a9a9"/>
     <use xlink:href="#m245713f6a4" x="673.982589" y="294.826167" style="fill: #a9a9a9; stroke: #a9a9a9"/>
     <use xlink:href="#m245713f6a4" x="676.921203" y="464.466667" style="fill: #a9a9a9; stroke: #a9a9a9"/>
     <use xlink:href="#m245713f6a4" x="679.786036" y="464.466667" style="fill: #a9a9a9; stroke: #a9a9a9"/>
     <use xlink:href="#m245713f6a4" x="682.580702" y="336.138583" style="fill: #a9a9a9; stroke: #a9a9a9"/>
     <use xlink:href="#m245713f6a4" x="687.972722" y="389.39955" style="fill: #a9a9a9; stroke: #a9a9a9"/>
     <use xlink:href="#m245713f6a4" x="690.576101" y="294.826167" style="fill: #a9a9a9; stroke: #a9a9a9"/>
     <use xlink:href="#m245713f6a4" x="693.121408" y="464.466667" style="fill: #a9a9a9; stroke: #a9a9a9"/>
     <use xlink:href="#m245713f6a4" x="698.047778" y="464.466667" style="fill: #a9a9a9; stroke: #a9a9a9"/>
     <use xlink:href="#m245713f6a4" x="700.433436" y="464.466667" style="fill: #a9a9a9; stroke: #a9a9a9"/>
     <use xlink:href="#m245713f6a4" x="702.770239" y="369.893284" style="fill: #a9a9a9; stroke: #a9a9a9"/>
     <use xlink:href="#m245713f6a4" x="707.305001" y="411.2057" style="fill: #a9a9a9; stroke: #a9a9a9"/>
     <use xlink:href="#m245713f6a4" x="711.666418" y="464.466667" style="fill: #a9a9a9; stroke: #a9a9a9"/>
     <use xlink:href="#m245713f6a4" x="713.786167" y="464.466667" style="fill: #a9a9a9; stroke: #a9a9a9"/>
     <use xlink:href="#m245713f6a4" x="715.867255" y="464.466667" style="fill: #a9a9a9; stroke: #a9a9a9"/>
     <use xlink:href="#m245713f6a4" x="719.918918" y="464.466667" style="fill: #a9a9a9; stroke: #a9a9a9"/>
     <use xlink:href="#m245713f6a4" x="721.892048" y="464.466667" style="fill: #a9a9a9; stroke: #a9a9a9"/>
     <use xlink:href="#m245713f6a4" x="723.831639" y="464.466667" style="fill: #a9a9a9; stroke: #a9a9a9"/>
     <use xlink:href="#m245713f6a4" x="734.823967" y="464.466667" style="fill: #a9a9a9; stroke: #a9a9a9"/>
     <use xlink:href="#m245713f6a4" x="736.557315" y="464.466667" style="fill: #a9a9a9; stroke: #a9a9a9"/>
     <use xlink:href="#m245713f6a4" x="741.604765" y="336.138583" style="fill: #a9a9a9; stroke: #a9a9a9"/>
     <use xlink:href="#m245713f6a4" x="743.238824" y="464.466667" style="fill: #a9a9a9; stroke: #a9a9a9"/>
     <use xlink:href="#m245713f6a4" x="749.550655" y="464.466667" style="fill: #a9a9a9; stroke: #a9a9a9"/>
     <use xlink:href="#m245713f6a4" x="751.075531" y="336.138583" style="fill: #a9a9a9; stroke: #a9a9a9"/>
     <use xlink:href="#m245713f6a4" x="754.06548" y="464.466667" style="fill: #a9a9a9; stroke: #a9a9a9"/>
    </g>
   </g>
   <g id="matplotlib.axis_1">
    <g id="xtick_1">
     <g id="line2d_1">
      <defs>
       <path id="mdc5782a1fb" d="M 0 0 
L 0 3.5 
" style="stroke: #000000; stroke-width: 0.8"/>
      </defs>
      <g>
       <use xlink:href="#mdc5782a1fb" x="132.539099" y="481.69" style="stroke: #000000; stroke-width: 0.8"/>
      </g>
     </g>
     <g id="text_1">
      <!-- $\mathdefault{10^{0}}$ -->
      <g transform="translate(106.139099 511.485313) scale(0.3 -0.3)">
       <defs>
        <path id="DejaVuSans-31" d="M 794 531 
L 1825 531 
L 1825 4091 
L 703 3866 
L 703 4441 
L 1819 4666 
L 2450 4666 
L 2450 531 
L 3481 531 
L 3481 0 
L 794 0 
L 794 531 
z
" transform="scale(0.015625)"/>
        <path id="DejaVuSans-30" d="M 2034 4250 
Q 1547 4250 1301 3770 
Q 1056 3291 1056 2328 
Q 1056 1369 1301 889 
Q 1547 409 2034 409 
Q 2525 409 2770 889 
Q 3016 1369 3016 2328 
Q 3016 3291 2770 3770 
Q 2525 4250 2034 4250 
z
M 2034 4750 
Q 2819 4750 3233 4129 
Q 3647 3509 3647 2328 
Q 3647 1150 3233 529 
Q 2819 -91 2034 -91 
Q 1250 -91 836 529 
Q 422 1150 422 2328 
Q 422 3509 836 4129 
Q 1250 4750 2034 4750 
z
" transform="scale(0.015625)"/>
       </defs>
       <use xlink:href="#DejaVuSans-31" transform="translate(0 0.765625)"/>
       <use xlink:href="#DejaVuSans-30" transform="translate(63.623047 0.765625)"/>
       <use xlink:href="#DejaVuSans-30" transform="translate(128.203125 39.046875) scale(0.7)"/>
      </g>
     </g>
    </g>
    <g id="xtick_2">
     <g id="line2d_2">
      <g>
       <use xlink:href="#mdc5782a1fb" x="395.286737" y="481.69" style="stroke: #000000; stroke-width: 0.8"/>
      </g>
     </g>
     <g id="text_2">
      <!-- $\mathdefault{10^{1}}$ -->
      <g transform="translate(368.886737 511.485313) scale(0.3 -0.3)">
       <use xlink:href="#DejaVuSans-31" transform="translate(0 0.684375)"/>
       <use xlink:href="#DejaVuSans-30" transform="translate(63.623047 0.684375)"/>
       <use xlink:href="#DejaVuSans-31" transform="translate(128.203125 38.965625) scale(0.7)"/>
      </g>
     </g>
    </g>
    <g id="xtick_3">
     <g id="line2d_3">
      <g>
       <use xlink:href="#mdc5782a1fb" x="658.034375" y="481.69" style="stroke: #000000; stroke-width: 0.8"/>
      </g>
     </g>
     <g id="text_3">
      <!-- $\mathdefault{10^{2}}$ -->
      <g transform="translate(631.634375 511.485313) scale(0.3 -0.3)">
       <defs>
        <path id="DejaVuSans-32" d="M 1228 531 
L 3431 531 
L 3431 0 
L 469 0 
L 469 531 
Q 828 903 1448 1529 
Q 2069 2156 2228 2338 
Q 2531 2678 2651 2914 
Q 2772 3150 2772 3378 
Q 2772 3750 2511 3984 
Q 2250 4219 1831 4219 
Q 1534 4219 1204 4116 
Q 875 4013 500 3803 
L 500 4441 
Q 881 4594 1212 4672 
Q 1544 4750 1819 4750 
Q 2544 4750 2975 4387 
Q 3406 4025 3406 3419 
Q 3406 3131 3298 2873 
Q 3191 2616 2906 2266 
Q 2828 2175 2409 1742 
Q 1991 1309 1228 531 
z
" transform="scale(0.015625)"/>
       </defs>
       <use xlink:href="#DejaVuSans-31" transform="translate(0 0.765625)"/>
       <use xlink:href="#DejaVuSans-30" transform="translate(63.623047 0.765625)"/>
       <use xlink:href="#DejaVuSans-32" transform="translate(128.203125 39.046875) scale(0.7)"/>
      </g>
     </g>
    </g>
    <g id="xtick_4">
     <g id="line2d_4">
      <defs>
       <path id="m2e96bec2c2" d="M 0 0 
L 0 2 
" style="stroke: #000000; stroke-width: 0.6"/>
      </defs>
      <g>
       <use xlink:href="#m2e96bec2c2" x="107.076222" y="481.69" style="stroke: #000000; stroke-width: 0.6"/>
      </g>
     </g>
    </g>
    <g id="xtick_5">
     <g id="line2d_5">
      <g>
       <use xlink:href="#m2e96bec2c2" x="120.516426" y="481.69" style="stroke: #000000; stroke-width: 0.6"/>
      </g>
     </g>
    </g>
    <g id="xtick_6">
     <g id="line2d_6">
      <g>
       <use xlink:href="#m2e96bec2c2" x="211.634019" y="481.69" style="stroke: #000000; stroke-width: 0.6"/>
      </g>
     </g>
    </g>
    <g id="xtick_7">
     <g id="line2d_7">
      <g>
       <use xlink:href="#m2e96bec2c2" x="257.901582" y="481.69" style="stroke: #000000; stroke-width: 0.6"/>
      </g>
     </g>
    </g>
    <g id="xtick_8">
     <g id="line2d_8">
      <g>
       <use xlink:href="#m2e96bec2c2" x="290.72894" y="481.69" style="stroke: #000000; stroke-width: 0.6"/>
      </g>
     </g>
    </g>
    <g id="xtick_9">
     <g id="line2d_9">
      <g>
       <use xlink:href="#m2e96bec2c2" x="316.191817" y="481.69" style="stroke: #000000; stroke-width: 0.6"/>
      </g>
     </g>
    </g>
    <g id="xtick_10">
     <g id="line2d_10">
      <g>
       <use xlink:href="#m2e96bec2c2" x="336.996502" y="481.69" style="stroke: #000000; stroke-width: 0.6"/>
      </g>
     </g>
    </g>
    <g id="xtick_11">
     <g id="line2d_11">
      <g>
       <use xlink:href="#m2e96bec2c2" x="354.586613" y="481.69" style="stroke: #000000; stroke-width: 0.6"/>
      </g>
     </g>
    </g>
    <g id="xtick_12">
     <g id="line2d_12">
      <g>
       <use xlink:href="#m2e96bec2c2" x="369.82386" y="481.69" style="stroke: #000000; stroke-width: 0.6"/>
      </g>
     </g>
    </g>
    <g id="xtick_13">
     <g id="line2d_13">
      <g>
       <use xlink:href="#m2e96bec2c2" x="383.264064" y="481.69" style="stroke: #000000; stroke-width: 0.6"/>
      </g>
     </g>
    </g>
    <g id="xtick_14">
     <g id="line2d_14">
      <g>
       <use xlink:href="#m2e96bec2c2" x="474.381657" y="481.69" style="stroke: #000000; stroke-width: 0.6"/>
      </g>
     </g>
    </g>
    <g id="xtick_15">
     <g id="line2d_15">
      <g>
       <use xlink:href="#m2e96bec2c2" x="520.64922" y="481.69" style="stroke: #000000; stroke-width: 0.6"/>
      </g>
     </g>
    </g>
    <g id="xtick_16">
     <g id="line2d_16">
      <g>
       <use xlink:href="#m2e96bec2c2" x="553.476578" y="481.69" style="stroke: #000000; stroke-width: 0.6"/>
      </g>
     </g>
    </g>
    <g id="xtick_17">
     <g id="line2d_17">
      <g>
       <use xlink:href="#m2e96bec2c2" x="578.939455" y="481.69" style="stroke: #000000; stroke-width: 0.6"/>
      </g>
     </g>
    </g>
    <g id="xtick_18">
     <g id="line2d_18">
      <g>
       <use xlink:href="#m2e96bec2c2" x="599.74414" y="481.69" style="stroke: #000000; stroke-width: 0.6"/>
      </g>
     </g>
    </g>
    <g id="xtick_19">
     <g id="line2d_19">
      <g>
       <use xlink:href="#m2e96bec2c2" x="617.334251" y="481.69" style="stroke: #000000; stroke-width: 0.6"/>
      </g>
     </g>
    </g>
    <g id="xtick_20">
     <g id="line2d_20">
      <g>
       <use xlink:href="#m2e96bec2c2" x="632.571498" y="481.69" style="stroke: #000000; stroke-width: 0.6"/>
      </g>
     </g>
    </g>
    <g id="xtick_21">
     <g id="line2d_21">
      <g>
       <use xlink:href="#m2e96bec2c2" x="646.011702" y="481.69" style="stroke: #000000; stroke-width: 0.6"/>
      </g>
     </g>
    </g>
    <g id="text_4">
     <!-- $\mathrm{k}$ -->
     <g transform="translate(370.334375 544.519688) scale(0.3 -0.3)">
      <defs>
       <path id="DejaVuSans-6b" d="M 581 4863 
L 1159 4863 
L 1159 1991 
L 2875 3500 
L 3609 3500 
L 1753 1863 
L 3688 0 
L 2938 0 
L 1159 1709 
L 1159 0 
L 581 0 
L 581 4863 
z
" transform="scale(0.015625)"/>
      </defs>
      <use xlink:href="#DejaVuSans-6b" transform="translate(0 0.015625)"/>
     </g>
    </g>
   </g>
   <g id="matplotlib.axis_2">
    <g id="ytick_1">
     <g id="line2d_22">
      <defs>
       <path id="m0ea91f437a" d="M 0 0 
L -3.5 0 
" style="stroke: #000000; stroke-width: 0.8"/>
      </defs>
      <g>
       <use xlink:href="#m0ea91f437a" x="100.034375" y="464.466667" style="stroke: #000000; stroke-width: 0.8"/>
      </g>
     </g>
     <g id="text_5">
      <!-- $\mathdefault{10^{0}}$ -->
      <g transform="translate(40.234375 475.864323) scale(0.3 -0.3)">
       <use xlink:href="#DejaVuSans-31" transform="translate(0 0.765625)"/>
       <use xlink:href="#DejaVuSans-30" transform="translate(63.623047 0.765625)"/>
       <use xlink:href="#DejaVuSans-30" transform="translate(128.203125 39.046875) scale(0.7)"/>
      </g>
     </g>
    </g>
    <g id="ytick_2">
     <g id="line2d_23">
      <g>
       <use xlink:href="#m0ea91f437a" x="100.034375" y="38.17" style="stroke: #000000; stroke-width: 0.8"/>
      </g>
     </g>
     <g id="text_6">
      <!-- $\mathdefault{10^{1}}$ -->
      <g transform="translate(40.234375 49.567656) scale(0.3 -0.3)">
       <use xlink:href="#DejaVuSans-31" transform="translate(0 0.684375)"/>
       <use xlink:href="#DejaVuSans-30" transform="translate(63.623047 0.684375)"/>
       <use xlink:href="#DejaVuSans-31" transform="translate(128.203125 38.965625) scale(0.7)"/>
      </g>
     </g>
    </g>
    <g id="ytick_3">
     <g id="line2d_24">
      <defs>
       <path id="mb874aad164" d="M 0 0 
L -2 0 
" style="stroke: #000000; stroke-width: 0.6"/>
      </defs>
      <g>
       <use xlink:href="#mb874aad164" x="100.034375" y="336.138583" style="stroke: #000000; stroke-width: 0.6"/>
      </g>
     </g>
    </g>
    <g id="ytick_4">
     <g id="line2d_25">
      <g>
       <use xlink:href="#mb874aad164" x="100.034375" y="261.071466" style="stroke: #000000; stroke-width: 0.6"/>
      </g>
     </g>
    </g>
    <g id="ytick_5">
     <g id="line2d_26">
      <g>
       <use xlink:href="#mb874aad164" x="100.034375" y="207.810499" style="stroke: #000000; stroke-width: 0.6"/>
      </g>
     </g>
    </g>
    <g id="ytick_6">
     <g id="line2d_27">
      <g>
       <use xlink:href="#mb874aad164" x="100.034375" y="166.498084" style="stroke: #000000; stroke-width: 0.6"/>
      </g>
     </g>
    </g>
    <g id="ytick_7">
     <g id="line2d_28">
      <g>
       <use xlink:href="#mb874aad164" x="100.034375" y="132.743382" style="stroke: #000000; stroke-width: 0.6"/>
      </g>
     </g>
    </g>
    <g id="ytick_8">
     <g id="line2d_29">
      <g>
       <use xlink:href="#mb874aad164" x="100.034375" y="104.204189" style="stroke: #000000; stroke-width: 0.6"/>
      </g>
     </g>
    </g>
    <g id="ytick_9">
     <g id="line2d_30">
      <g>
       <use xlink:href="#mb874aad164" x="100.034375" y="79.482416" style="stroke: #000000; stroke-width: 0.6"/>
      </g>
     </g>
    </g>
    <g id="ytick_10">
     <g id="line2d_31">
      <g>
       <use xlink:href="#mb874aad164" x="100.034375" y="57.676266" style="stroke: #000000; stroke-width: 0.6"/>
      </g>
     </g>
    </g>
    <g id="text_7">
     <!-- $\mathrm{N}( \mathrm{k} )$ -->
     <g transform="translate(29.995312 291.58) rotate(-90) scale(0.3 -0.3)">
      <defs>
       <path id="DejaVuSans-4e" d="M 628 4666 
L 1478 4666 
L 3547 763 
L 3547 4666 
L 4159 4666 
L 4159 0 
L 3309 0 
L 1241 3903 
L 1241 0 
L 628 0 
L 628 4666 
z
" transform="scale(0.015625)"/>
       <path id="DejaVuSans-28" d="M 1984 4856 
Q 1566 4138 1362 3434 
Q 1159 2731 1159 2009 
Q 1159 1288 1364 580 
Q 1569 -128 1984 -844 
L 1484 -844 
Q 1016 -109 783 600 
Q 550 1309 550 2009 
Q 550 2706 781 3412 
Q 1013 4119 1484 4856 
L 1984 4856 
z
" transform="scale(0.015625)"/>
       <path id="DejaVuSans-29" d="M 513 4856 
L 1013 4856 
Q 1481 4119 1714 3412 
Q 1947 2706 1947 2009 
Q 1947 1309 1714 600 
Q 1481 -109 1013 -844 
L 513 -844 
Q 928 -128 1133 580 
Q 1338 1288 1338 2009 
Q 1338 2731 1133 3434 
Q 928 4138 513 4856 
z
" transform="scale(0.015625)"/>
      </defs>
      <use xlink:href="#DejaVuSans-4e" transform="translate(0 0.015625)"/>
      <use xlink:href="#DejaVuSans-28" transform="translate(74.804688 0.015625)"/>
      <use xlink:href="#DejaVuSans-6b" transform="translate(113.818359 0.015625)"/>
      <use xlink:href="#DejaVuSans-29" transform="translate(171.728516 0.015625)"/>
     </g>
    </g>
   </g>
   <g id="line2d_32">
    <path d="M 132.539099 119.999999 
L 158.813863 130.88616 
L 185.088627 142.645268 
L 211.36339 155.177239 
L 237.638154 168.379286 
L 263.912918 182.153606 
L 290.187682 196.411836 
L 316.462446 211.076876 
L 342.737209 226.082992 
L 369.011973 241.374954 
L 395.286737 256.906782 
L 421.561501 272.640384 
L 447.836265 288.544273 
L 474.111028 304.592426 
L 500.385792 320.763314 
L 526.660556 337.039082 
L 552.93532 353.40488 
L 579.210084 369.848312 
L 605.484847 386.358991 
L 631.759611 402.928173 
L 658.034375 419.548468 
L 684.309139 436.213593 
L 692.634375 441.514652 
" clip-path="url(#pdffe6dc80a)" style="fill: none; stroke: #666666; stroke-width: 1.5; stroke-linecap: square"/>
   </g>
   <g id="line2d_33">
    <path d="M 132.539099 158.560083 
L 158.813863 167.608611 
L 185.088627 177.352684 
L 211.36339 187.716367 
L 237.638154 198.621155 
L 263.912918 209.991492 
L 290.187682 221.758233 
L 316.462446 233.860306 
L 342.737209 246.245082 
L 369.011973 258.867959 
L 395.286737 271.691554 
L 421.561501 284.68474 
L 447.836265 297.821702 
L 474.111028 311.081055 
L 500.385792 324.445085 
L 526.660556 337.899095 
L 552.93532 351.430859 
L 579.210084 365.030172 
L 605.484847 378.688485 
L 631.759611 392.3986 
L 658.034375 406.154429 
L 684.309139 419.950794 
L 692.634375 424.347495 
" clip-path="url(#pdffe6dc80a)" style="fill: none; stroke: #a9a9a9; stroke-width: 1.5; stroke-linecap: square"/>
   </g>
   <g id="patch_3">
    <path d="M 100.034375 481.69 
L 100.034375 38.17 
" style="fill: none; stroke: #000000; stroke-width: 0.8; stroke-linejoin: miter; stroke-linecap: square"/>
   </g>
   <g id="patch_4">
    <path d="M 658.034375 481.69 
L 658.034375 38.17 
" style="fill: none; stroke: #000000; stroke-width: 0.8; stroke-linejoin: miter; stroke-linecap: square"/>
   </g>
   <g id="patch_5">
    <path d="M 100.034375 481.69 
L 658.034375 481.69 
" style="fill: none; stroke: #000000; stroke-width: 0.8; stroke-linejoin: miter; stroke-linecap: square"/>
   </g>
   <g id="patch_6">
    <path d="M 100.034375 38.17 
L 658.034375 38.17 
" style="fill: none; stroke: #000000; stroke-width: 0.8; stroke-linejoin: miter; stroke-linecap: square"/>
   </g>
   <g id="text_8">
    <!-- Hollywood -->
    <g transform="translate(296.029375 31.515) scale(0.32 -0.32)">
     <defs>
      <path id="DejaVuSans-48" d="M 628 4666 
L 1259 4666 
L 1259 2753 
L 3553 2753 
L 3553 4666 
L 4184 4666 
L 4184 0 
L 3553 0 
L 3553 2222 
L 1259 2222 
L 1259 0 
L 628 0 
L 628 4666 
z
" transform="scale(0.015625)"/>
      <path id="DejaVuSans-6f" d="M 1959 3097 
Q 1497 3097 1228 2736 
Q 959 2375 959 1747 
Q 959 1119 1226 758 
Q 1494 397 1959 397 
Q 2419 397 2687 759 
Q 2956 1122 2956 1747 
Q 2956 2369 2687 2733 
Q 2419 3097 1959 3097 
z
M 1959 3584 
Q 2709 3584 3137 3096 
Q 3566 2609 3566 1747 
Q 3566 888 3137 398 
Q 2709 -91 1959 -91 
Q 1206 -91 779 398 
Q 353 888 353 1747 
Q 353 2609 779 3096 
Q 1206 3584 1959 3584 
z
" transform="scale(0.015625)"/>
      <path id="DejaVuSans-6c" d="M 603 4863 
L 1178 4863 
L 1178 0 
L 603 0 
L 603 4863 
z
" transform="scale(0.015625)"/>
      <path id="DejaVuSans-79" d="M 2059 -325 
Q 1816 -950 1584 -1140 
Q 1353 -1331 966 -1331 
L 506 -1331 
L 506 -850 
L 844 -850 
Q 1081 -850 1212 -737 
Q 1344 -625 1503 -206 
L 1606 56 
L 191 3500 
L 800 3500 
L 1894 763 
L 2988 3500 
L 3597 3500 
L 2059 -325 
z
" transform="scale(0.015625)"/>
      <path id="DejaVuSans-77" d="M 269 3500 
L 844 3500 
L 1563 769 
L 2278 3500 
L 2956 3500 
L 3675 769 
L 4391 3500 
L 4966 3500 
L 4050 0 
L 3372 0 
L 2619 2869 
L 1863 0 
L 1184 0 
L 269 3500 
z
" transform="scale(0.015625)"/>
      <path id="DejaVuSans-64" d="M 2906 2969 
L 2906 4863 
L 3481 4863 
L 3481 0 
L 2906 0 
L 2906 525 
Q 2725 213 2448 61 
Q 2172 -91 1784 -91 
Q 1150 -91 751 415 
Q 353 922 353 1747 
Q 353 2572 751 3078 
Q 1150 3584 1784 3584 
Q 2172 3584 2448 3432 
Q 2725 3281 2906 2969 
z
M 947 1747 
Q 947 1113 1208 752 
Q 1469 391 1925 391 
Q 2381 391 2643 752 
Q 2906 1113 2906 1747 
Q 2906 2381 2643 2742 
Q 2381 3103 1925 3103 
Q 1469 3103 1208 2742 
Q 947 2381 947 1747 
z
" transform="scale(0.015625)"/>
     </defs>
     <use xlink:href="#DejaVuSans-48"/>
     <use xlink:href="#DejaVuSans-6f" transform="translate(75.195312 0)"/>
     <use xlink:href="#DejaVuSans-6c" transform="translate(136.376953 0)"/>
     <use xlink:href="#DejaVuSans-6c" transform="translate(164.160156 0)"/>
     <use xlink:href="#DejaVuSans-79" transform="translate(191.943359 0)"/>
     <use xlink:href="#DejaVuSans-77" transform="translate(251.123047 0)"/>
     <use xlink:href="#DejaVuSans-6f" transform="translate(332.910156 0)"/>
     <use xlink:href="#DejaVuSans-6f" transform="translate(394.091797 0)"/>
     <use xlink:href="#DejaVuSans-64" transform="translate(455.273438 0)"/>
    </g>
   </g>
   <g id="PathCollection_3">
    <defs>
     <path id="mdae275d193" d="M 0 4.472136 
C 1.186024 4.472136 2.323632 4.000923 3.162278 3.162278 
C 4.000923 2.323632 4.472136 1.186024 4.472136 0 
C 4.472136 -1.186024 4.000923 -2.323632 3.162278 -3.162278 
C 2.323632 -4.000923 1.186024 -4.472136 0 -4.472136 
C -1.186024 -4.472136 -2.323632 -4.000923 -3.162278 -3.162278 
C -4.000923 -2.323632 -4.472136 -1.186024 -4.472136 0 
C -4.472136 1.186024 -4.000923 2.323632 -3.162278 3.162278 
C -2.323632 4.000923 -1.186024 4.472136 0 4.472136 
z
" style="stroke: #666666"/>
    </defs>
    <g clip-path="url(#pdffe6dc80a)">
     <use xlink:href="#mdae275d193" x="132.539099" y="122.73347" style="fill: #666666; stroke: #666666"/>
     <use xlink:href="#mdae275d193" x="290.72894" y="294.826167" style="fill: #666666; stroke: #666666"/>
     <use xlink:href="#mdae275d193" x="354.586613" y="166.498084" style="fill: #666666; stroke: #666666"/>
     <use xlink:href="#mdae275d193" x="395.286737" y="223.919637" style="fill: #666666; stroke: #666666"/>
     <use xlink:href="#mdae275d193" x="425.225084" y="336.138583" style="fill: #666666; stroke: #666666"/>
     <use xlink:href="#mdae275d193" x="448.91878" y="282.877616" style="fill: #666666; stroke: #666666"/>
     <use xlink:href="#mdae275d193" x="468.528587" y="179.271306" style="fill: #666666; stroke: #666666"/>
     <use xlink:href="#mdae275d193" x="485.257488" y="336.138583" style="fill: #666666; stroke: #666666"/>
     <use xlink:href="#mdae275d193" x="499.844534" y="207.810499" style="fill: #666666; stroke: #666666"/>
     <use xlink:href="#mdae275d193" x="512.776454" y="464.466667" style="fill: #666666; stroke: #666666"/>
     <use xlink:href="#mdae275d193" x="524.390861" y="307.59939" style="fill: #666666; stroke: #666666"/>
     <use xlink:href="#mdae275d193" x="534.931567" y="307.59939" style="fill: #666666; stroke: #666666"/>
     <use xlink:href="#mdae275d193" x="544.580398" y="282.877616" style="fill: #666666; stroke: #666666"/>
     <use xlink:href="#mdae275d193" x="553.476578" y="336.138583" style="fill: #666666; stroke: #666666"/>
     <use xlink:href="#mdae275d193" x="561.729077" y="369.893284" style="fill: #666666; stroke: #666666"/>
     <use xlink:href="#mdae275d193" x="569.424792" y="464.466667" style="fill: #666666; stroke: #666666"/>
     <use xlink:href="#mdae275d193" x="576.634127" y="307.59939" style="fill: #666666; stroke: #666666"/>
     <use xlink:href="#mdae275d193" x="583.414924" y="389.39955" style="fill: #666666; stroke: #666666"/>
     <use xlink:href="#mdae275d193" x="589.815285" y="411.2057" style="fill: #666666; stroke: #666666"/>
     <use xlink:href="#mdae275d193" x="595.875639" y="282.877616" style="fill: #666666; stroke: #666666"/>
     <use xlink:href="#mdae275d193" x="601.630296" y="336.138583" style="fill: #666666; stroke: #666666"/>
     <use xlink:href="#mdae275d193" x="607.108621" y="464.466667" style="fill: #666666; stroke: #666666"/>
     <use xlink:href="#mdae275d193" x="612.33594" y="207.810499" style="fill: #666666; stroke: #666666"/>
     <use xlink:href="#mdae275d193" x="617.334251" y="336.138583" style="fill: #666666; stroke: #666666"/>
     <use xlink:href="#mdae275d193" x="622.122779" y="411.2057" style="fill: #666666; stroke: #666666"/>
     <use xlink:href="#mdae275d193" x="626.718428" y="411.2057" style="fill: #666666; stroke: #666666"/>
     <use xlink:href="#mdae275d193" x="631.136135" y="389.39955" style="fill: #666666; stroke: #666666"/>
     <use xlink:href="#mdae275d193" x="635.389168" y="294.826167" style="fill: #666666; stroke: #666666"/>
     <use xlink:href="#mdae275d193" x="643.447328" y="336.138583" style="fill: #666666; stroke: #666666"/>
     <use xlink:href="#mdae275d193" x="647.272598" y="369.893284" style="fill: #666666; stroke: #666666"/>
     <use xlink:href="#mdae275d193" x="650.973782" y="307.59939" style="fill: #666666; stroke: #666666"/>
     <use xlink:href="#mdae275d193" x="654.558679" y="464.466667" style="fill: #666666; stroke: #666666"/>
     <use xlink:href="#mdae275d193" x="661.407325" y="464.466667" style="fill: #666666; stroke: #666666"/>
     <use xlink:href="#mdae275d193" x="664.683431" y="389.39955" style="fill: #666666; stroke: #666666"/>
     <use xlink:href="#mdae275d193" x="670.966294" y="389.39955" style="fill: #666666; stroke: #666666"/>
     <use xlink:href="#mdae275d193" x="673.982589" y="282.877616" style="fill: #666666; stroke: #666666"/>
     <use xlink:href="#mdae275d193" x="676.921203" y="464.466667" style="fill: #666666; stroke: #666666"/>
     <use xlink:href="#mdae275d193" x="679.786036" y="261.071466" style="fill: #666666; stroke: #666666"/>
     <use xlink:href="#mdae275d193" x="682.580702" y="389.39955" style="fill: #666666; stroke: #666666"/>
     <use xlink:href="#mdae275d193" x="687.972722" y="464.466667" style="fill: #666666; stroke: #666666"/>
     <use xlink:href="#mdae275d193" x="690.576101" y="389.39955" style="fill: #666666; stroke: #666666"/>
     <use xlink:href="#mdae275d193" x="693.121408" y="336.138583" style="fill: #666666; stroke: #666666"/>
     <use xlink:href="#mdae275d193" x="695.611176" y="464.466667" style="fill: #666666; stroke: #666666"/>
     <use xlink:href="#mdae275d193" x="698.047778" y="336.138583" style="fill: #666666; stroke: #666666"/>
     <use xlink:href="#mdae275d193" x="700.433436" y="336.138583" style="fill: #666666; stroke: #666666"/>
     <use xlink:href="#mdae275d193" x="702.770239" y="464.466667" style="fill: #666666; stroke: #666666"/>
     <use xlink:href="#mdae275d193" x="705.060145" y="464.466667" style="fill: #666666; stroke: #666666"/>
     <use xlink:href="#mdae275d193" x="707.305001" y="464.466667" style="fill: #666666; stroke: #666666"/>
     <use xlink:href="#mdae275d193" x="709.506546" y="464.466667" style="fill: #666666; stroke: #666666"/>
     <use xlink:href="#mdae275d193" x="711.666418" y="464.466667" style="fill: #666666; stroke: #666666"/>
     <use xlink:href="#mdae275d193" x="719.918918" y="464.466667" style="fill: #666666; stroke: #666666"/>
     <use xlink:href="#mdae275d193" x="731.276225" y="336.138583" style="fill: #666666; stroke: #666666"/>
     <use xlink:href="#mdae275d193" x="733.063883" y="464.466667" style="fill: #666666; stroke: #666666"/>
     <use xlink:href="#mdae275d193" x="734.823967" y="464.466667" style="fill: #666666; stroke: #666666"/>
     <use xlink:href="#mdae275d193" x="738.264726" y="464.466667" style="fill: #666666; stroke: #666666"/>
     <use xlink:href="#mdae275d193" x="744.849814" y="464.466667" style="fill: #666666; stroke: #666666"/>
     <use xlink:href="#mdae275d193" x="746.438375" y="464.466667" style="fill: #666666; stroke: #666666"/>
     <use xlink:href="#mdae275d193" x="749.550655" y="464.466667" style="fill: #666666; stroke: #666666"/>
     <use xlink:href="#mdae275d193" x="751.075531" y="464.466667" style="fill: #666666; stroke: #666666"/>
    </g>
   </g>
  </g>
 </g>
 <defs>
  <clipPath id="pdffe6dc80a">
   <rect x="100.034375" y="38.17" width="558" height="443.52"/>
  </clipPath>
 </defs>
</svg>
