<?xml version="1.0" encoding="utf-8" standalone="no"?>
<!DOCTYPE svg PUBLIC "-//W3C//DTD SVG 1.1//EN"
  "http://www.w3.org/Graphics/SVG/1.1/DTD/svg11.dtd">
<svg xmlns:xlink="http://www.w3.org/1999/xlink" width="1144.6125pt" height="567.92pt" viewBox="0 0 1144.6125 567.92" xmlns="http://www.w3.org/2000/svg" version="1.1">
 <metadata>
  <rdf:RDF xmlns:dc="http://purl.org/dc/elements/1.1/" xmlns:cc="http://creativecommons.org/ns#" xmlns:rdf="http://www.w3.org/1999/02/22-rdf-syntax-ns#">
   <cc:Work>
    <dc:type rdf:resource="http://purl.org/dc/dcmitype/StillImage"/>
    <dc:date>2025-05-27T16:14:38.821436</dc:date>
    <dc:format>image/svg+xml</dc:format>
    <dc:creator>
     <cc:Agent>
      <dc:title>Matplotlib v3.10.1, https://matplotlib.org/</dc:title>
     </cc:Agent>
    </dc:creator>
   </cc:Work>
  </rdf:RDF>
 </metadata>
 <defs>
  <style type="text/css">*{stroke-linejoin: round; stroke-linecap: butt}</style>
 </defs>
 <g id="figure_1">
  <g id="patch_1">
   <path d="M 0 567.92 
L 1144.6125 567.92 
L 1144.6125 0 
L 0 0 
z
" style="fill: #ffffff"/>
  </g>
  <g id="axes_1">
   <g id="patch_2">
    <path d="M 73.29375 501.154375 
L 1130.41375 501.154375 
L 1130.41375 36.234375 
L 73.29375 36.234375 
z
" style="fill: #ffffff"/>
   </g>
   <g id="PathCollection_1">
    <path d="M 936.29845 435.421555 
L 954.53705 435.421555 
L 954.53705 417.182955 
L 936.29845 417.182955 
z
" clip-path="url(#pcd2e30bf91)" style="fill: #2f5597; stroke: #2f5597"/>
    <path d="M 612.008421 390.626504 
L 623.412679 390.626504 
L 623.412679 379.222246 
L 612.008421 379.222246 
z
" clip-path="url(#pcd2e30bf91)" style="fill: #2f5597; stroke: #2f5597"/>
    <path d="M 865.984736 455.447789 
L 876.853964 455.447789 
L 876.853964 444.578561 
L 865.984736 444.578561 
z
" clip-path="url(#pcd2e30bf91)" style="fill: #2f5597; stroke: #2f5597"/>
    <path d="M 822.836574 362.862231 
L 835.432526 362.862231 
L 835.432526 350.266279 
L 822.836574 350.266279 
z
" clip-path="url(#pcd2e30bf91)" style="fill: #2f5597; stroke: #2f5597"/>
   </g>
   <g id="PathCollection_2">
    <path d="M 337.57375 459.809548 
L 344.115683 446.725682 
L 331.031817 446.725682 
z
" clip-path="url(#pcd2e30bf91)" style="fill: #e8525f; stroke: #e8525f"/>
    <path d="M 184.29135 444.08269 
L 189.518945 433.6275 
L 179.063755 433.6275 
z
" clip-path="url(#pcd2e30bf91)" style="fill: #e8525f; stroke: #e8525f"/>
   </g>
   <g id="PathCollection_3">
    <path d="M 83.86495 130.733981 
C 87.226051 130.733981 90.449942 129.398601 92.826599 127.021944 
C 95.203256 124.645287 96.538636 121.421396 96.538636 118.060295 
C 96.538636 114.699194 95.203256 111.475303 92.826599 109.098646 
C 90.449942 106.721989 87.226051 105.386609 83.86495 105.386609 
C 80.503849 105.386609 77.279958 106.721989 74.903301 109.098646 
C 72.526644 111.475303 71.191264 114.699194 71.191264 118.060295 
C 71.191264 121.421396 72.526644 124.645287 74.903301 127.021944 
C 77.279958 129.398601 80.503849 130.733981 83.86495 130.733981 
z
" clip-path="url(#pcd2e30bf91)" style="fill: #f7a83c; stroke: #f7a83c"/>
    <path d="M 99.72175 133.407398 
C 101.942376 133.407398 104.07235 132.525134 105.642569 130.954914 
C 107.212789 129.384695 108.095053 127.254721 108.095053 125.034095 
C 108.095053 122.813469 107.212789 120.683495 105.642569 119.113276 
C 104.07235 117.543056 101.942376 116.660792 99.72175 116.660792 
C 97.501124 116.660792 95.37115 117.543056 93.800931 119.113276 
C 92.230711 120.683495 91.348447 122.813469 91.348447 125.034095 
C 91.348447 127.254721 92.230711 129.384695 93.800931 130.954914 
C 95.37115 132.525134 97.501124 133.407398 99.72175 133.407398 
z
" clip-path="url(#pcd2e30bf91)" style="fill: #f7a83c; stroke: #f7a83c"/>
    <path d="M 99.72175 132.737663 
C 102.134655 132.737663 104.449058 131.779006 106.15524 130.072825 
C 107.861421 128.366643 108.820078 126.05224 108.820078 123.639335 
C 108.820078 121.22643 107.861421 118.912027 106.15524 117.205845 
C 104.449058 115.499664 102.134655 114.541007 99.72175 114.541007 
C 97.308845 114.541007 94.994442 115.499664 93.28826 117.205845 
C 91.582079 118.912027 90.623422 121.22643 90.623422 123.639335 
C 90.623422 126.05224 91.582079 128.366643 93.28826 130.072825 
C 94.994442 131.779006 97.308845 132.737663 99.72175 132.737663 
z
" clip-path="url(#pcd2e30bf91)" style="fill: #f7a83c; stroke: #f7a83c"/>
    <path d="M 89.15055 177.847273 
C 91.566735 177.847273 93.884285 176.887312 95.592786 175.178811 
C 97.301287 173.47031 98.261248 171.15276 98.261248 168.736575 
C 98.261248 166.32039 97.301287 164.00284 95.592786 162.294339 
C 93.884285 160.585838 91.566735 159.625877 89.15055 159.625877 
C 86.734365 159.625877 84.416815 160.585838 82.708314 162.294339 
C 80.999813 164.00284 80.039852 166.32039 80.039852 168.736575 
C 80.039852 171.15276 80.999813 173.47031 82.708314 175.178811 
C 84.416815 176.887312 86.734365 177.847273 89.15055 177.847273 
z
" clip-path="url(#pcd2e30bf91)" style="fill: #f7a83c; stroke: #f7a83c"/>
    <path d="M 131.43535 240.293792 
C 135.370162 240.293792 139.144344 238.730474 141.926677 235.948142 
C 144.709009 233.165809 146.272327 229.391627 146.272327 225.456815 
C 146.272327 221.522003 144.709009 217.747821 141.926677 214.965488 
C 139.144344 212.183156 135.370162 210.619838 131.43535 210.619838 
C 127.500538 210.619838 123.726356 212.183156 120.944023 214.965488 
C 118.161691 217.747821 116.598373 221.522003 116.598373 225.456815 
C 116.598373 229.391627 118.161691 233.165809 120.944023 235.948142 
C 123.726356 238.730474 127.500538 240.293792 131.43535 240.293792 
z
" clip-path="url(#pcd2e30bf91)" style="fill: #f7a83c; stroke: #f7a83c"/>
    <path d="M 131.43535 223.739726 
C 133.199341 223.739726 134.89132 223.038885 136.13865 221.791555 
C 137.38598 220.544225 138.086821 218.852246 138.086821 217.088255 
C 138.086821 215.324264 137.38598 213.632285 136.13865 212.384955 
C 134.89132 211.137625 133.199341 210.436784 131.43535 210.436784 
C 129.671359 210.436784 127.97938 211.137625 126.73205 212.384955 
C 125.48472 213.632285 124.783879 215.324264 124.783879 217.088255 
C 124.783879 218.852246 125.48472 220.544225 126.73205 221.791555 
C 127.97938 223.038885 129.671359 223.739726 131.43535 223.739726 
z
" clip-path="url(#pcd2e30bf91)" style="fill: #f7a83c; stroke: #f7a83c"/>
    <path d="M 120.86415 232.223691 
C 122.288852 232.223691 123.655393 231.657651 124.662809 230.650234 
C 125.670226 229.642818 126.236266 228.276277 126.236266 226.851575 
C 126.236266 225.426873 125.670226 224.060332 124.662809 223.052916 
C 123.655393 222.045499 122.288852 221.479459 120.86415 221.479459 
C 119.439448 221.479459 118.072907 222.045499 117.065491 223.052916 
C 116.058074 224.060332 115.492034 225.426873 115.492034 226.851575 
C 115.492034 228.276277 116.058074 229.642818 117.065491 230.650234 
C 118.072907 231.657651 119.439448 232.223691 120.86415 232.223691 
z
" clip-path="url(#pcd2e30bf91)" style="fill: #f7a83c; stroke: #f7a83c"/>
    <path d="M 131.43535 279.414686 
C 133.045428 279.414686 134.589777 278.774996 135.728274 277.636499 
C 136.866771 276.498002 137.506461 274.953653 137.506461 273.343575 
C 137.506461 271.733497 136.866771 270.189148 135.728274 269.050651 
C 134.589777 267.912154 133.045428 267.272464 131.43535 267.272464 
C 129.825272 267.272464 128.280923 267.912154 127.142426 269.050651 
C 126.003929 270.189148 125.364239 271.733497 125.364239 273.343575 
C 125.364239 274.953653 126.003929 276.498002 127.142426 277.636499 
C 128.280923 278.774996 129.825272 279.414686 131.43535 279.414686 
z
" clip-path="url(#pcd2e30bf91)" style="fill: #f7a83c; stroke: #f7a83c"/>
    <path d="M 179.00575 261.647241 
C 180.835775 261.647241 182.591093 260.920164 183.885116 259.626141 
C 185.179139 258.332118 185.906216 256.5768 185.906216 254.746775 
C 185.906216 252.91675 185.179139 251.161432 183.885116 249.867409 
C 182.591093 248.573386 180.835775 247.846309 179.00575 247.846309 
C 177.175725 247.846309 175.420407 248.573386 174.126384 249.867409 
C 172.832361 251.161432 172.105284 252.91675 172.105284 254.746775 
C 172.105284 256.5768 172.832361 258.332118 174.126384 259.626141 
C 175.420407 260.920164 177.175725 261.647241 179.00575 261.647241 
z
" clip-path="url(#pcd2e30bf91)" style="fill: #f7a83c; stroke: #f7a83c"/>
    <path d="M 131.43535 186.407643 
C 135.628579 186.407643 139.650629 184.741656 142.61569 181.776595 
C 145.580751 178.811534 147.246738 174.789484 147.246738 170.596255 
C 147.246738 166.403026 145.580751 162.380976 142.61569 159.415915 
C 139.650629 156.450854 135.628579 154.784867 131.43535 154.784867 
C 127.242121 154.784867 123.220071 156.450854 120.25501 159.415915 
C 117.289949 162.380976 115.623962 166.403026 115.623962 170.596255 
C 115.623962 174.789484 117.289949 178.811534 120.25501 181.776595 
C 123.220071 184.741656 127.242121 186.407643 131.43535 186.407643 
z
" clip-path="url(#pcd2e30bf91)" style="fill: #f7a83c; stroke: #f7a83c"/>
    <path d="M 205.43375 271.520336 
C 207.416186 271.520336 209.317693 270.732706 210.719487 269.330912 
C 212.121281 267.929118 212.908911 266.027611 212.908911 264.045175 
C 212.908911 262.062739 212.121281 260.161232 210.719487 258.759438 
C 209.317693 257.357644 207.416186 256.570014 205.43375 256.570014 
C 203.451314 256.570014 201.549807 257.357644 200.148013 258.759438 
C 198.746219 260.161232 197.958589 262.062739 197.958589 264.045175 
C 197.958589 266.027611 198.746219 267.929118 200.148013 269.330912 
C 201.549807 270.732706 203.451314 271.520336 205.43375 271.520336 
z
" clip-path="url(#pcd2e30bf91)" style="fill: #f7a83c; stroke: #f7a83c"/>
    <path d="M 189.57695 267.650415 
C 190.902966 267.650415 192.174849 267.123583 193.112484 266.185949 
C 194.050118 265.248314 194.57695 263.97643 194.57695 262.650415 
C 194.57695 261.3244 194.050118 260.052516 193.112484 259.114881 
C 192.174849 258.177247 190.902966 257.650415 189.57695 257.650415 
C 188.250934 257.650415 186.979051 258.177247 186.041416 259.114881 
C 185.103782 260.052516 184.57695 261.3244 184.57695 262.650415 
C 184.57695 263.97643 185.103782 265.248314 186.041416 266.185949 
C 186.979051 267.123583 188.250934 267.650415 189.57695 267.650415 
z
" clip-path="url(#pcd2e30bf91)" style="fill: #f7a83c; stroke: #f7a83c"/>
   </g>
   <g id="PathCollection_4">
    <path d="M 163.14895 46.536342 
L 156.248877 60.336488 
L 170.049023 60.336488 
z
" clip-path="url(#pcd2e30bf91)" style="fill: #4c929e; stroke: #4c929e"/>
    <path d="M 168.43455 36.279362 
L 160.575897 51.996668 
L 176.293203 51.996668 
z
" clip-path="url(#pcd2e30bf91)" style="fill: #4c929e; stroke: #4c929e"/>
    <path d="M 247.71855 67.756796 
L 240.652611 81.888674 
L 254.784489 81.888674 
z
" clip-path="url(#pcd2e30bf91)" style="fill: #4c929e; stroke: #4c929e"/>
    <path d="M 184.29135 60.097951 
L 175.145606 78.389439 
L 193.437094 78.389439 
z
" clip-path="url(#pcd2e30bf91)" style="fill: #4c929e; stroke: #4c929e"/>
    <path d="M 152.57775 49.242842 
L 141.875297 70.647748 
L 163.280203 70.647748 
z
" clip-path="url(#pcd2e30bf91)" style="fill: #4c929e; stroke: #4c929e"/>
    <path d="M 89.15055 100.33417 
L 83.047425 112.54042 
L 95.253675 112.54042 
z
" clip-path="url(#pcd2e30bf91)" style="fill: #4c929e; stroke: #4c929e"/>
    <path d="M 189.57695 67.547559 
L 179.512254 87.676951 
L 199.641646 87.676951 
z
" clip-path="url(#pcd2e30bf91)" style="fill: #4c929e; stroke: #4c929e"/>
    <path d="M 189.57695 73.259278 
L 181.039693 90.333792 
L 198.114207 90.333792 
z
" clip-path="url(#pcd2e30bf91)" style="fill: #4c929e; stroke: #4c929e"/>
   </g>
   <g id="FillBetweenPolyCollection_1">
    <defs>
     <path id="mb3ee574620" d="M 73.29375 -531.685625 
L 73.29375 -464.737145 
L 126.14975 -438.701625 
L 179.00575 -405.227385 
L 231.86175 -371.753145 
L 284.71775 -336.419225 
L 337.57375 -302.944985 
L 390.42975 -267.611065 
L 548.99775 -182.995625 
L 760.42175 -116.976985 
L 971.84575 -87.222105 
L 1130.41375 -76.064025 
L 1130.41375 -531.685625 
L 1130.41375 -531.685625 
L 971.84575 -531.685625 
L 760.42175 -531.685625 
L 548.99775 -531.685625 
L 390.42975 -531.685625 
L 337.57375 -531.685625 
L 284.71775 -531.685625 
L 231.86175 -531.685625 
L 179.00575 -531.685625 
L 126.14975 -531.685625 
L 73.29375 -531.685625 
z
" style="stroke: #b8dad2; stroke-opacity: 0.2"/>
    </defs>
    <g clip-path="url(#pcd2e30bf91)">
     <use xlink:href="#mb3ee574620" x="0" y="567.92" style="fill: #b8dad2; fill-opacity: 0.2; stroke: #b8dad2; stroke-opacity: 0.2"/>
    </g>
   </g>
   <g id="FillBetweenPolyCollection_2">
    <defs>
     <path id="mb6f83f1c73" d="M 73.29375 -66.765625 
L 73.29375 -265.751385 
L 126.14975 -252.733625 
L 179.00575 -235.996505 
L 231.86175 -219.259385 
L 284.71775 -201.592425 
L 337.57375 -184.855305 
L 390.42975 -167.188345 
L 548.99775 -124.880625 
L 760.42175 -91.871305 
L 971.84575 -76.993865 
L 1130.41375 -71.414825 
L 1130.41375 -66.765625 
L 1130.41375 -66.765625 
L 971.84575 -66.765625 
L 760.42175 -66.765625 
L 548.99775 -66.765625 
L 390.42975 -66.765625 
L 337.57375 -66.765625 
L 284.71775 -66.765625 
L 231.86175 -66.765625 
L 179.00575 -66.765625 
L 126.14975 -66.765625 
L 73.29375 -66.765625 
z
" style="stroke: #de7487; stroke-opacity: 0.2"/>
    </defs>
    <g clip-path="url(#pcd2e30bf91)">
     <use xlink:href="#mb6f83f1c73" x="0" y="567.92" style="fill: #de7487; fill-opacity: 0.2; stroke: #de7487; stroke-opacity: 0.2"/>
    </g>
   </g>
   <g id="FillBetweenPolyCollection_3">
    <defs>
     <path id="m2236dc3979" d="M 73.29375 -464.737145 
L 73.29375 -265.751385 
L 126.14975 -252.733625 
L 179.00575 -235.996505 
L 231.86175 -219.259385 
L 284.71775 -201.592425 
L 337.57375 -184.855305 
L 390.42975 -167.188345 
L 548.99775 -124.880625 
L 760.42175 -91.871305 
L 971.84575 -76.993865 
L 1130.41375 -71.414825 
L 1130.41375 -76.064025 
L 1130.41375 -76.064025 
L 971.84575 -87.222105 
L 760.42175 -116.976985 
L 548.99775 -182.995625 
L 390.42975 -267.611065 
L 337.57375 -302.944985 
L 284.71775 -336.419225 
L 231.86175 -371.753145 
L 179.00575 -405.227385 
L 126.14975 -438.701625 
L 73.29375 -464.737145 
z
" style="stroke: #cbd289; stroke-opacity: 0.2"/>
    </defs>
    <g clip-path="url(#pcd2e30bf91)">
     <use xlink:href="#m2236dc3979" x="0" y="567.92" style="fill: #cbd289; fill-opacity: 0.2; stroke: #cbd289; stroke-opacity: 0.2"/>
    </g>
   </g>
   <g id="patch_3">
    <path d="M 106.736998 109.768297 
Q 102.812237 111.626489 98.887476 113.484682 
" clip-path="url(#pcd2e30bf91)" style="fill: none; stroke: #808080; stroke-width: 0.5; stroke-linecap: round"/>
   </g>
   <g id="patch_4">
    <path d="M 110.040587 161.858644 
Q 107.126467 163.05776 104.212346 164.256875 
" clip-path="url(#pcd2e30bf91)" style="fill: none; stroke: #808080; stroke-width: 0.5; stroke-linecap: round"/>
   </g>
   <g id="patch_5">
    <path d="M 156.328437 208.019052 
Q 151.397045 210.277976 146.465653 212.5369 
" clip-path="url(#pcd2e30bf91)" style="fill: none; stroke: #808080; stroke-width: 0.5; stroke-linecap: round"/>
   </g>
   <g id="patch_6">
    <path d="M 135.862683 223.346752 
Q 134.970416 223.239483 134.07815 223.132215 
" clip-path="url(#pcd2e30bf91)" style="fill: none; stroke: #808080; stroke-width: 0.5; stroke-linecap: round"/>
   </g>
   <g id="patch_7">
    <path d="M 207.234464 244.849912 
Q 200.652697 247.557848 194.070929 250.265784 
" clip-path="url(#pcd2e30bf91)" style="fill: none; stroke: #808080; stroke-width: 0.5; stroke-linecap: round"/>
   </g>
   <g id="patch_8">
    <path d="M 224.047573 260.845686 
Q 222.34299 260.681576 220.638407 260.517467 
" clip-path="url(#pcd2e30bf91)" style="fill: none; stroke: #808080; stroke-width: 0.5; stroke-linecap: round"/>
   </g>
   <g id="patch_9">
    <path d="M 173.165784 44.874872 
Q 173.979125 45.515331 174.792467 46.15579 
" clip-path="url(#pcd2e30bf91)" style="fill: none; stroke: #808080; stroke-width: 0.5; stroke-linecap: round"/>
   </g>
   <g id="patch_10">
    <path d="M 190.709334 38.70472 
Q 187.176602 38.466626 183.643869 38.228532 
" clip-path="url(#pcd2e30bf91)" style="fill: none; stroke: #808080; stroke-width: 0.5; stroke-linecap: round"/>
   </g>
   <g id="patch_11">
    <path d="M 268.70818 68.499936 
Q 265.820794 68.60348 262.933408 68.707023 
" clip-path="url(#pcd2e30bf91)" style="fill: none; stroke: #808080; stroke-width: 0.5; stroke-linecap: round"/>
   </g>
   <g id="patch_12">
    <path d="M 229.662407 59.972487 
Q 214.578973 61.486245 199.495539 63.000002 
" clip-path="url(#pcd2e30bf91)" style="fill: none; stroke: #808080; stroke-width: 0.5; stroke-linecap: round"/>
   </g>
   <g id="patch_13">
    <path d="M 172.838499 53.565963 
Q 170.314676 53.686078 167.790852 53.806193 
" clip-path="url(#pcd2e30bf91)" style="fill: none; stroke: #808080; stroke-width: 0.5; stroke-linecap: round"/>
   </g>
   <g id="patch_14">
    <path d="M 110.894097 97.180022 
Q 107.564325 98.434438 104.234553 99.688854 
" clip-path="url(#pcd2e30bf91)" style="fill: none; stroke: #808080; stroke-width: 0.5; stroke-linecap: round"/>
   </g>
   <g id="PathCollection_5"/>
   <g id="PathCollection_6"/>
   <g id="PathCollection_7"/>
   <g id="PathCollection_8"/>
   <g id="matplotlib.axis_1">
    <g id="xtick_1">
     <g id="line2d_1">
      <defs>
       <path id="m8e34c6419f" d="M 0 0 
L 0 3.5 
" style="stroke: #000000; stroke-width: 0.8"/>
      </defs>
      <g>
       <use xlink:href="#m8e34c6419f" x="73.29375" y="501.154375" style="stroke: #000000; stroke-width: 0.8"/>
      </g>
     </g>
     <g id="text_1">
      <!-- 1 -->
      <g transform="translate(66.295 524.870938) scale(0.22 -0.22)">
       <defs>
        <path id="DejaVuSans-31" d="M 794 531 
L 1825 531 
L 1825 4091 
L 703 3866 
L 703 4441 
L 1819 4666 
L 2450 4666 
L 2450 531 
L 3481 531 
L 3481 0 
L 794 0 
L 794 531 
z
" transform="scale(0.015625)"/>
       </defs>
       <use xlink:href="#DejaVuSans-31"/>
      </g>
     </g>
    </g>
    <g id="xtick_2">
     <g id="line2d_2">
      <g>
       <use xlink:href="#m8e34c6419f" x="601.85375" y="501.154375" style="stroke: #000000; stroke-width: 0.8"/>
      </g>
     </g>
     <g id="text_2">
      <!-- 2 -->
      <g transform="translate(594.855 524.870938) scale(0.22 -0.22)">
       <defs>
        <path id="DejaVuSans-32" d="M 1228 531 
L 3431 531 
L 3431 0 
L 469 0 
L 469 531 
Q 828 903 1448 1529 
Q 2069 2156 2228 2338 
Q 2531 2678 2651 2914 
Q 2772 3150 2772 3378 
Q 2772 3750 2511 3984 
Q 2250 4219 1831 4219 
Q 1534 4219 1204 4116 
Q 875 4013 500 3803 
L 500 4441 
Q 881 4594 1212 4672 
Q 1544 4750 1819 4750 
Q 2544 4750 2975 4387 
Q 3406 4025 3406 3419 
Q 3406 3131 3298 2873 
Q 3191 2616 2906 2266 
Q 2828 2175 2409 1742 
Q 1991 1309 1228 531 
z
" transform="scale(0.015625)"/>
       </defs>
       <use xlink:href="#DejaVuSans-32"/>
      </g>
     </g>
    </g>
    <g id="xtick_3">
     <g id="line2d_3">
      <g>
       <use xlink:href="#m8e34c6419f" x="1130.41375" y="501.154375" style="stroke: #000000; stroke-width: 0.8"/>
      </g>
     </g>
     <g id="text_3">
      <!-- 3 -->
      <g transform="translate(1123.415 524.870938) scale(0.22 -0.22)">
       <defs>
        <path id="DejaVuSans-33" d="M 2597 2516 
Q 3050 2419 3304 2112 
Q 3559 1806 3559 1356 
Q 3559 666 3084 287 
Q 2609 -91 1734 -91 
Q 1441 -91 1130 -33 
Q 819 25 488 141 
L 488 750 
Q 750 597 1062 519 
Q 1375 441 1716 441 
Q 2309 441 2620 675 
Q 2931 909 2931 1356 
Q 2931 1769 2642 2001 
Q 2353 2234 1838 2234 
L 1294 2234 
L 1294 2753 
L 1863 2753 
Q 2328 2753 2575 2939 
Q 2822 3125 2822 3475 
Q 2822 3834 2567 4026 
Q 2313 4219 1838 4219 
Q 1578 4219 1281 4162 
Q 984 4106 628 3988 
L 628 4550 
Q 988 4650 1302 4700 
Q 1616 4750 1894 4750 
Q 2613 4750 3031 4423 
Q 3450 4097 3450 3541 
Q 3450 3153 3228 2886 
Q 3006 2619 2597 2516 
z
" transform="scale(0.015625)"/>
       </defs>
       <use xlink:href="#DejaVuSans-33"/>
      </g>
     </g>
    </g>
    <g id="text_4">
     <!-- Gyration β -->
     <g transform="translate(528.185313 554.896875) scale(0.28 -0.28)">
      <defs>
       <path id="DejaVuSans-47" d="M 3809 666 
L 3809 1919 
L 2778 1919 
L 2778 2438 
L 4434 2438 
L 4434 434 
Q 4069 175 3628 42 
Q 3188 -91 2688 -91 
Q 1594 -91 976 548 
Q 359 1188 359 2328 
Q 359 3472 976 4111 
Q 1594 4750 2688 4750 
Q 3144 4750 3555 4637 
Q 3966 4525 4313 4306 
L 4313 3634 
Q 3963 3931 3569 4081 
Q 3175 4231 2741 4231 
Q 1884 4231 1454 3753 
Q 1025 3275 1025 2328 
Q 1025 1384 1454 906 
Q 1884 428 2741 428 
Q 3075 428 3337 486 
Q 3600 544 3809 666 
z
" transform="scale(0.015625)"/>
       <path id="DejaVuSans-79" d="M 2059 -325 
Q 1816 -950 1584 -1140 
Q 1353 -1331 966 -1331 
L 506 -1331 
L 506 -850 
L 844 -850 
Q 1081 -850 1212 -737 
Q 1344 -625 1503 -206 
L 1606 56 
L 191 3500 
L 800 3500 
L 1894 763 
L 2988 3500 
L 3597 3500 
L 2059 -325 
z
" transform="scale(0.015625)"/>
       <path id="DejaVuSans-72" d="M 2631 2963 
Q 2534 3019 2420 3045 
Q 2306 3072 2169 3072 
Q 1681 3072 1420 2755 
Q 1159 2438 1159 1844 
L 1159 0 
L 581 0 
L 581 3500 
L 1159 3500 
L 1159 2956 
Q 1341 3275 1631 3429 
Q 1922 3584 2338 3584 
Q 2397 3584 2469 3576 
Q 2541 3569 2628 3553 
L 2631 2963 
z
" transform="scale(0.015625)"/>
       <path id="DejaVuSans-61" d="M 2194 1759 
Q 1497 1759 1228 1600 
Q 959 1441 959 1056 
Q 959 750 1161 570 
Q 1363 391 1709 391 
Q 2188 391 2477 730 
Q 2766 1069 2766 1631 
L 2766 1759 
L 2194 1759 
z
M 3341 1997 
L 3341 0 
L 2766 0 
L 2766 531 
Q 2569 213 2275 61 
Q 1981 -91 1556 -91 
Q 1019 -91 701 211 
Q 384 513 384 1019 
Q 384 1609 779 1909 
Q 1175 2209 1959 2209 
L 2766 2209 
L 2766 2266 
Q 2766 2663 2505 2880 
Q 2244 3097 1772 3097 
Q 1472 3097 1187 3025 
Q 903 2953 641 2809 
L 641 3341 
Q 956 3463 1253 3523 
Q 1550 3584 1831 3584 
Q 2591 3584 2966 3190 
Q 3341 2797 3341 1997 
z
" transform="scale(0.015625)"/>
       <path id="DejaVuSans-74" d="M 1172 4494 
L 1172 3500 
L 2356 3500 
L 2356 3053 
L 1172 3053 
L 1172 1153 
Q 1172 725 1289 603 
Q 1406 481 1766 481 
L 2356 481 
L 2356 0 
L 1766 0 
Q 1100 0 847 248 
Q 594 497 594 1153 
L 594 3053 
L 172 3053 
L 172 3500 
L 594 3500 
L 594 4494 
L 1172 4494 
z
" transform="scale(0.015625)"/>
       <path id="DejaVuSans-69" d="M 603 3500 
L 1178 3500 
L 1178 0 
L 603 0 
L 603 3500 
z
M 603 4863 
L 1178 4863 
L 1178 4134 
L 603 4134 
L 603 4863 
z
" transform="scale(0.015625)"/>
       <path id="DejaVuSans-6f" d="M 1959 3097 
Q 1497 3097 1228 2736 
Q 959 2375 959 1747 
Q 959 1119 1226 758 
Q 1494 397 1959 397 
Q 2419 397 2687 759 
Q 2956 1122 2956 1747 
Q 2956 2369 2687 2733 
Q 2419 3097 1959 3097 
z
M 1959 3584 
Q 2709 3584 3137 3096 
Q 3566 2609 3566 1747 
Q 3566 888 3137 398 
Q 2709 -91 1959 -91 
Q 1206 -91 779 398 
Q 353 888 353 1747 
Q 353 2609 779 3096 
Q 1206 3584 1959 3584 
z
" transform="scale(0.015625)"/>
       <path id="DejaVuSans-6e" d="M 3513 2113 
L 3513 0 
L 2938 0 
L 2938 2094 
Q 2938 2591 2744 2837 
Q 2550 3084 2163 3084 
Q 1697 3084 1428 2787 
Q 1159 2491 1159 1978 
L 1159 0 
L 581 0 
L 581 3500 
L 1159 3500 
L 1159 2956 
Q 1366 3272 1645 3428 
Q 1925 3584 2291 3584 
Q 2894 3584 3203 3211 
Q 3513 2838 3513 2113 
z
" transform="scale(0.015625)"/>
       <path id="DejaVuSans-20" transform="scale(0.015625)"/>
       <path id="DejaVuSans-3b2" d="M 1178 216 
L 1178 -1331 
L 600 -1331 
L 600 3478 
Q 600 4903 1931 4903 
Q 3288 4903 3288 3700 
Q 3288 2844 2750 2531 
Q 3625 2250 3625 1416 
Q 3625 -66 2119 -66 
Q 1456 -66 1178 216 
z
M 1178 966 
Q 1525 425 2141 425 
Q 3041 425 3041 1406 
Q 3041 2288 1591 2219 
L 1591 2750 
Q 2725 2750 2725 3750 
Q 2725 4434 1994 4434 
Q 1178 4434 1178 3459 
L 1178 966 
z
" transform="scale(0.015625)"/>
      </defs>
      <use xlink:href="#DejaVuSans-47"/>
      <use xlink:href="#DejaVuSans-79" transform="translate(77.490234 0)"/>
      <use xlink:href="#DejaVuSans-72" transform="translate(136.669922 0)"/>
      <use xlink:href="#DejaVuSans-61" transform="translate(177.783203 0)"/>
      <use xlink:href="#DejaVuSans-74" transform="translate(239.0625 0)"/>
      <use xlink:href="#DejaVuSans-69" transform="translate(278.271484 0)"/>
      <use xlink:href="#DejaVuSans-6f" transform="translate(306.054688 0)"/>
      <use xlink:href="#DejaVuSans-6e" transform="translate(367.236328 0)"/>
      <use xlink:href="#DejaVuSans-20" transform="translate(430.615234 0)"/>
      <use xlink:href="#DejaVuSans-3b2" transform="translate(462.402344 0)"/>
     </g>
    </g>
   </g>
   <g id="matplotlib.axis_2">
    <g id="ytick_1">
     <g id="line2d_4">
      <defs>
       <path id="m0880b65dc2" d="M 0 0 
L -3.5 0 
" style="stroke: #000000; stroke-width: 0.8"/>
      </defs>
      <g>
       <use xlink:href="#m0880b65dc2" x="73.29375" y="501.154375" style="stroke: #000000; stroke-width: 0.8"/>
      </g>
     </g>
     <g id="text_5">
      <!-- 0 -->
      <g transform="translate(52.29625 509.512656) scale(0.22 -0.22)">
       <defs>
        <path id="DejaVuSans-30" d="M 2034 4250 
Q 1547 4250 1301 3770 
Q 1056 3291 1056 2328 
Q 1056 1369 1301 889 
Q 1547 409 2034 409 
Q 2525 409 2770 889 
Q 3016 1369 3016 2328 
Q 3016 3291 2770 3770 
Q 2525 4250 2034 4250 
z
M 2034 4750 
Q 2819 4750 3233 4129 
Q 3647 3509 3647 2328 
Q 3647 1150 3233 529 
Q 2819 -91 2034 -91 
Q 1250 -91 836 529 
Q 422 1150 422 2328 
Q 422 3509 836 4129 
Q 1250 4750 2034 4750 
z
" transform="scale(0.015625)"/>
       </defs>
       <use xlink:href="#DejaVuSans-30"/>
      </g>
     </g>
    </g>
    <g id="ytick_2">
     <g id="line2d_5">
      <g>
       <use xlink:href="#m0880b65dc2" x="73.29375" y="268.694375" style="stroke: #000000; stroke-width: 0.8"/>
      </g>
     </g>
     <g id="text_6">
      <!-- 5 -->
      <g transform="translate(52.29625 277.052656) scale(0.22 -0.22)">
       <defs>
        <path id="DejaVuSans-35" d="M 691 4666 
L 3169 4666 
L 3169 4134 
L 1269 4134 
L 1269 2991 
Q 1406 3038 1543 3061 
Q 1681 3084 1819 3084 
Q 2600 3084 3056 2656 
Q 3513 2228 3513 1497 
Q 3513 744 3044 326 
Q 2575 -91 1722 -91 
Q 1428 -91 1123 -41 
Q 819 9 494 109 
L 494 744 
Q 775 591 1075 516 
Q 1375 441 1709 441 
Q 2250 441 2565 725 
Q 2881 1009 2881 1497 
Q 2881 1984 2565 2268 
Q 2250 2553 1709 2553 
Q 1456 2553 1204 2497 
Q 953 2441 691 2322 
L 691 4666 
z
" transform="scale(0.015625)"/>
       </defs>
       <use xlink:href="#DejaVuSans-35"/>
      </g>
     </g>
    </g>
    <g id="ytick_3">
     <g id="line2d_6">
      <g>
       <use xlink:href="#m0880b65dc2" x="73.29375" y="36.234375" style="stroke: #000000; stroke-width: 0.8"/>
      </g>
     </g>
     <g id="text_7">
      <!-- 10 -->
      <g transform="translate(38.29875 44.592656) scale(0.22 -0.22)">
       <use xlink:href="#DejaVuSans-31"/>
       <use xlink:href="#DejaVuSans-30" transform="translate(63.623047 0)"/>
      </g>
     </g>
    </g>
    <g id="text_8">
     <!-- Interation γ -->
     <g transform="translate(28.475625 349.686563) rotate(-90) scale(0.28 -0.28)">
      <defs>
       <path id="DejaVuSans-49" d="M 628 4666 
L 1259 4666 
L 1259 0 
L 628 0 
L 628 4666 
z
" transform="scale(0.015625)"/>
       <path id="DejaVuSans-65" d="M 3597 1894 
L 3597 1613 
L 953 1613 
Q 991 1019 1311 708 
Q 1631 397 2203 397 
Q 2534 397 2845 478 
Q 3156 559 3463 722 
L 3463 178 
Q 3153 47 2828 -22 
Q 2503 -91 2169 -91 
Q 1331 -91 842 396 
Q 353 884 353 1716 
Q 353 2575 817 3079 
Q 1281 3584 2069 3584 
Q 2775 3584 3186 3129 
Q 3597 2675 3597 1894 
z
M 3022 2063 
Q 3016 2534 2758 2815 
Q 2500 3097 2075 3097 
Q 1594 3097 1305 2825 
Q 1016 2553 972 2059 
L 3022 2063 
z
" transform="scale(0.015625)"/>
       <path id="DejaVuSans-3b3" d="M 1128 2950 
L 1894 788 
L 2988 3500 
L 3597 3500 
L 2181 0 
L 2181 -1331 
L 1606 -1331 
L 1606 0 
L 688 2613 
Q 550 3006 253 3006 
L 100 3006 
L 100 3500 
L 319 3500 
Q 934 3500 1128 2950 
z
" transform="scale(0.015625)"/>
      </defs>
      <use xlink:href="#DejaVuSans-49"/>
      <use xlink:href="#DejaVuSans-6e" transform="translate(29.492188 0)"/>
      <use xlink:href="#DejaVuSans-74" transform="translate(92.871094 0)"/>
      <use xlink:href="#DejaVuSans-65" transform="translate(132.080078 0)"/>
      <use xlink:href="#DejaVuSans-72" transform="translate(193.603516 0)"/>
      <use xlink:href="#DejaVuSans-61" transform="translate(234.716797 0)"/>
      <use xlink:href="#DejaVuSans-74" transform="translate(295.996094 0)"/>
      <use xlink:href="#DejaVuSans-69" transform="translate(335.205078 0)"/>
      <use xlink:href="#DejaVuSans-6f" transform="translate(362.988281 0)"/>
      <use xlink:href="#DejaVuSans-6e" transform="translate(424.169922 0)"/>
      <use xlink:href="#DejaVuSans-20" transform="translate(487.548828 0)"/>
      <use xlink:href="#DejaVuSans-3b3" transform="translate(519.335938 0)"/>
     </g>
    </g>
   </g>
   <g id="line2d_7">
    <path d="M 73.29375 302.168615 
L 126.14975 315.186375 
L 179.00575 331.923495 
L 231.86175 348.660615 
L 284.71775 366.327575 
L 337.57375 383.064695 
L 390.42975 400.731655 
L 548.99775 443.039375 
L 760.42175 476.048695 
L 971.84575 490.926135 
L 1130.41375 496.505175 
" clip-path="url(#pcd2e30bf91)" style="fill: none; stroke: #a9a9a9; stroke-width: 2.5; stroke-linecap: square"/>
   </g>
   <g id="line2d_8">
    <path d="M 73.29375 103.182855 
L 126.14975 129.218375 
L 179.00575 162.692615 
L 231.86175 196.166855 
L 284.71775 231.500775 
L 337.57375 264.975015 
L 390.42975 300.308935 
L 548.99775 384.924375 
L 760.42175 450.943015 
L 971.84575 480.697895 
L 1130.41375 491.855975 
" clip-path="url(#pcd2e30bf91)" style="fill: none; stroke: #404040; stroke-width: 2.5; stroke-linecap: square"/>
   </g>
   <g id="patch_15">
    <path d="M 73.29375 501.154375 
L 73.29375 36.234375 
" style="fill: none; stroke: #000000; stroke-width: 0.8; stroke-linejoin: miter; stroke-linecap: square"/>
   </g>
   <g id="patch_16">
    <path d="M 1130.41375 501.154375 
L 1130.41375 36.234375 
" style="fill: none; stroke: #000000; stroke-width: 0.8; stroke-linejoin: miter; stroke-linecap: square"/>
   </g>
   <g id="patch_17">
    <path d="M 73.29375 501.154375 
L 1130.41375 501.154375 
" style="fill: none; stroke: #000000; stroke-width: 0.8; stroke-linejoin: miter; stroke-linecap: square"/>
   </g>
   <g id="patch_18">
    <path d="M 73.29375 36.234375 
L 1130.41375 36.234375 
" style="fill: none; stroke: #000000; stroke-width: 0.8; stroke-linejoin: miter; stroke-linecap: square"/>
   </g>
   <g id="text_9">
    <!-- Jacksonville -->
    <g style="fill: #2f5597" transform="translate(963.677924 418.991874) scale(0.075 -0.075)">
     <defs>
      <path id="DejaVuSans-4a" d="M 628 4666 
L 1259 4666 
L 1259 325 
Q 1259 -519 939 -900 
Q 619 -1281 -91 -1281 
L -331 -1281 
L -331 -750 
L -134 -750 
Q 284 -750 456 -515 
Q 628 -281 628 325 
L 628 4666 
z
" transform="scale(0.015625)"/>
      <path id="DejaVuSans-63" d="M 3122 3366 
L 3122 2828 
Q 2878 2963 2633 3030 
Q 2388 3097 2138 3097 
Q 1578 3097 1268 2742 
Q 959 2388 959 1747 
Q 959 1106 1268 751 
Q 1578 397 2138 397 
Q 2388 397 2633 464 
Q 2878 531 3122 666 
L 3122 134 
Q 2881 22 2623 -34 
Q 2366 -91 2075 -91 
Q 1284 -91 818 406 
Q 353 903 353 1747 
Q 353 2603 823 3093 
Q 1294 3584 2113 3584 
Q 2378 3584 2631 3529 
Q 2884 3475 3122 3366 
z
" transform="scale(0.015625)"/>
      <path id="DejaVuSans-6b" d="M 581 4863 
L 1159 4863 
L 1159 1991 
L 2875 3500 
L 3609 3500 
L 1753 1863 
L 3688 0 
L 2938 0 
L 1159 1709 
L 1159 0 
L 581 0 
L 581 4863 
z
" transform="scale(0.015625)"/>
      <path id="DejaVuSans-73" d="M 2834 3397 
L 2834 2853 
Q 2591 2978 2328 3040 
Q 2066 3103 1784 3103 
Q 1356 3103 1142 2972 
Q 928 2841 928 2578 
Q 928 2378 1081 2264 
Q 1234 2150 1697 2047 
L 1894 2003 
Q 2506 1872 2764 1633 
Q 3022 1394 3022 966 
Q 3022 478 2636 193 
Q 2250 -91 1575 -91 
Q 1294 -91 989 -36 
Q 684 19 347 128 
L 347 722 
Q 666 556 975 473 
Q 1284 391 1588 391 
Q 1994 391 2212 530 
Q 2431 669 2431 922 
Q 2431 1156 2273 1281 
Q 2116 1406 1581 1522 
L 1381 1569 
Q 847 1681 609 1914 
Q 372 2147 372 2553 
Q 372 3047 722 3315 
Q 1072 3584 1716 3584 
Q 2034 3584 2315 3537 
Q 2597 3491 2834 3397 
z
" transform="scale(0.015625)"/>
      <path id="DejaVuSans-76" d="M 191 3500 
L 800 3500 
L 1894 563 
L 2988 3500 
L 3597 3500 
L 2284 0 
L 1503 0 
L 191 3500 
z
" transform="scale(0.015625)"/>
      <path id="DejaVuSans-6c" d="M 603 4863 
L 1178 4863 
L 1178 0 
L 603 0 
L 603 4863 
z
" transform="scale(0.015625)"/>
     </defs>
     <use xlink:href="#DejaVuSans-4a"/>
     <use xlink:href="#DejaVuSans-61" transform="translate(29.492188 0)"/>
     <use xlink:href="#DejaVuSans-63" transform="translate(90.771484 0)"/>
     <use xlink:href="#DejaVuSans-6b" transform="translate(145.751953 0)"/>
     <use xlink:href="#DejaVuSans-73" transform="translate(203.662109 0)"/>
     <use xlink:href="#DejaVuSans-6f" transform="translate(255.761719 0)"/>
     <use xlink:href="#DejaVuSans-6e" transform="translate(316.943359 0)"/>
     <use xlink:href="#DejaVuSans-76" transform="translate(380.322266 0)"/>
     <use xlink:href="#DejaVuSans-69" transform="translate(439.501953 0)"/>
     <use xlink:href="#DejaVuSans-6c" transform="translate(467.285156 0)"/>
     <use xlink:href="#DejaVuSans-6c" transform="translate(495.068359 0)"/>
     <use xlink:href="#DejaVuSans-65" transform="translate(522.851562 0)"/>
    </g>
   </g>
   <g id="text_10">
    <!-- Hollywood -->
    <g style="fill: #2f5597" transform="translate(635.393987 377.613994) scale(0.075 -0.075)">
     <defs>
      <path id="DejaVuSans-48" d="M 628 4666 
L 1259 4666 
L 1259 2753 
L 3553 2753 
L 3553 4666 
L 4184 4666 
L 4184 0 
L 3553 0 
L 3553 2222 
L 1259 2222 
L 1259 0 
L 628 0 
L 628 4666 
z
" transform="scale(0.015625)"/>
      <path id="DejaVuSans-77" d="M 269 3500 
L 844 3500 
L 1563 769 
L 2278 3500 
L 2956 3500 
L 3675 769 
L 4391 3500 
L 4966 3500 
L 4050 0 
L 3372 0 
L 2619 2869 
L 1863 0 
L 1184 0 
L 269 3500 
z
" transform="scale(0.015625)"/>
      <path id="DejaVuSans-64" d="M 2906 2969 
L 2906 4863 
L 3481 4863 
L 3481 0 
L 2906 0 
L 2906 525 
Q 2725 213 2448 61 
Q 2172 -91 1784 -91 
Q 1150 -91 751 415 
Q 353 922 353 1747 
Q 353 2572 751 3078 
Q 1150 3584 1784 3584 
Q 2172 3584 2448 3432 
Q 2725 3281 2906 2969 
z
M 947 1747 
Q 947 1113 1208 752 
Q 1469 391 1925 391 
Q 2381 391 2643 752 
Q 2906 1113 2906 1747 
Q 2906 2381 2643 2742 
Q 2381 3103 1925 3103 
Q 1469 3103 1208 2742 
Q 947 2381 947 1747 
z
" transform="scale(0.015625)"/>
     </defs>
     <use xlink:href="#DejaVuSans-48"/>
     <use xlink:href="#DejaVuSans-6f" transform="translate(75.195312 0)"/>
     <use xlink:href="#DejaVuSans-6c" transform="translate(136.376953 0)"/>
     <use xlink:href="#DejaVuSans-6c" transform="translate(164.160156 0)"/>
     <use xlink:href="#DejaVuSans-79" transform="translate(191.943359 0)"/>
     <use xlink:href="#DejaVuSans-77" transform="translate(251.123047 0)"/>
     <use xlink:href="#DejaVuSans-6f" transform="translate(332.910156 0)"/>
     <use xlink:href="#DejaVuSans-6f" transform="translate(394.091797 0)"/>
     <use xlink:href="#DejaVuSans-64" transform="translate(455.273438 0)"/>
    </g>
   </g>
   <g id="text_11">
    <!-- Fort Myers -->
    <g style="fill: #2f5597" transform="translate(889.100215 442.702794) scale(0.075 -0.075)">
     <defs>
      <path id="DejaVuSans-46" d="M 628 4666 
L 3309 4666 
L 3309 4134 
L 1259 4134 
L 1259 2759 
L 3109 2759 
L 3109 2228 
L 1259 2228 
L 1259 0 
L 628 0 
L 628 4666 
z
" transform="scale(0.015625)"/>
      <path id="DejaVuSans-4d" d="M 628 4666 
L 1569 4666 
L 2759 1491 
L 3956 4666 
L 4897 4666 
L 4897 0 
L 4281 0 
L 4281 4097 
L 3078 897 
L 2444 897 
L 1241 4097 
L 1241 0 
L 628 0 
L 628 4666 
z
" transform="scale(0.015625)"/>
     </defs>
     <use xlink:href="#DejaVuSans-46"/>
     <use xlink:href="#DejaVuSans-6f" transform="translate(53.894531 0)"/>
     <use xlink:href="#DejaVuSans-72" transform="translate(115.076172 0)"/>
     <use xlink:href="#DejaVuSans-74" transform="translate(156.189453 0)"/>
     <use xlink:href="#DejaVuSans-20" transform="translate(195.398438 0)"/>
     <use xlink:href="#DejaVuSans-4d" transform="translate(227.185547 0)"/>
     <use xlink:href="#DejaVuSans-79" transform="translate(313.464844 0)"/>
     <use xlink:href="#DejaVuSans-65" transform="translate(372.644531 0)"/>
     <use xlink:href="#DejaVuSans-72" transform="translate(434.167969 0)"/>
     <use xlink:href="#DejaVuSans-73" transform="translate(475.28125 0)"/>
    </g>
   </g>
   <g id="text_12">
    <!-- Lubbock -->
    <g style="fill: #2f5597" transform="translate(846.160208 349.253874) scale(0.075 -0.075)">
     <defs>
      <path id="DejaVuSans-4c" d="M 628 4666 
L 1259 4666 
L 1259 531 
L 3531 531 
L 3531 0 
L 628 0 
L 628 4666 
z
" transform="scale(0.015625)"/>
      <path id="DejaVuSans-75" d="M 544 1381 
L 544 3500 
L 1119 3500 
L 1119 1403 
Q 1119 906 1312 657 
Q 1506 409 1894 409 
Q 2359 409 2629 706 
Q 2900 1003 2900 1516 
L 2900 3500 
L 3475 3500 
L 3475 0 
L 2900 0 
L 2900 538 
Q 2691 219 2414 64 
Q 2138 -91 1772 -91 
Q 1169 -91 856 284 
Q 544 659 544 1381 
z
M 1991 3584 
L 1991 3584 
z
" transform="scale(0.015625)"/>
      <path id="DejaVuSans-62" d="M 3116 1747 
Q 3116 2381 2855 2742 
Q 2594 3103 2138 3103 
Q 1681 3103 1420 2742 
Q 1159 2381 1159 1747 
Q 1159 1113 1420 752 
Q 1681 391 2138 391 
Q 2594 391 2855 752 
Q 3116 1113 3116 1747 
z
M 1159 2969 
Q 1341 3281 1617 3432 
Q 1894 3584 2278 3584 
Q 2916 3584 3314 3078 
Q 3713 2572 3713 1747 
Q 3713 922 3314 415 
Q 2916 -91 2278 -91 
Q 1894 -91 1617 61 
Q 1341 213 1159 525 
L 1159 0 
L 581 0 
L 581 4863 
L 1159 4863 
L 1159 2969 
z
" transform="scale(0.015625)"/>
     </defs>
     <use xlink:href="#DejaVuSans-4c"/>
     <use xlink:href="#DejaVuSans-75" transform="translate(53.962891 0)"/>
     <use xlink:href="#DejaVuSans-62" transform="translate(117.341797 0)"/>
     <use xlink:href="#DejaVuSans-62" transform="translate(180.818359 0)"/>
     <use xlink:href="#DejaVuSans-6f" transform="translate(244.294922 0)"/>
     <use xlink:href="#DejaVuSans-63" transform="translate(305.476562 0)"/>
     <use xlink:href="#DejaVuSans-6b" transform="translate(360.457031 0)"/>
    </g>
   </g>
   <g id="text_13">
    <!-- Lexington -->
    <g style="fill: #e8525f" transform="translate(355.9664 467.102037) scale(0.075 -0.075)">
     <defs>
      <path id="DejaVuSans-78" d="M 3513 3500 
L 2247 1797 
L 3578 0 
L 2900 0 
L 1881 1375 
L 863 0 
L 184 0 
L 1544 1831 
L 300 3500 
L 978 3500 
L 1906 2253 
L 2834 3500 
L 3513 3500 
z
" transform="scale(0.015625)"/>
      <path id="DejaVuSans-67" d="M 2906 1791 
Q 2906 2416 2648 2759 
Q 2391 3103 1925 3103 
Q 1463 3103 1205 2759 
Q 947 2416 947 1791 
Q 947 1169 1205 825 
Q 1463 481 1925 481 
Q 2391 481 2648 825 
Q 2906 1169 2906 1791 
z
M 3481 434 
Q 3481 -459 3084 -895 
Q 2688 -1331 1869 -1331 
Q 1566 -1331 1297 -1286 
Q 1028 -1241 775 -1147 
L 775 -588 
Q 1028 -725 1275 -790 
Q 1522 -856 1778 -856 
Q 2344 -856 2625 -561 
Q 2906 -266 2906 331 
L 2906 616 
Q 2728 306 2450 153 
Q 2172 0 1784 0 
Q 1141 0 747 490 
Q 353 981 353 1791 
Q 353 2603 747 3093 
Q 1141 3584 1784 3584 
Q 2172 3584 2450 3431 
Q 2728 3278 2906 2969 
L 2906 3500 
L 3481 3500 
L 3481 434 
z
" transform="scale(0.015625)"/>
     </defs>
     <use xlink:href="#DejaVuSans-4c"/>
     <use xlink:href="#DejaVuSans-65" transform="translate(53.962891 0)"/>
     <use xlink:href="#DejaVuSans-78" transform="translate(113.736328 0)"/>
     <use xlink:href="#DejaVuSans-69" transform="translate(172.916016 0)"/>
     <use xlink:href="#DejaVuSans-6e" transform="translate(200.699219 0)"/>
     <use xlink:href="#DejaVuSans-67" transform="translate(264.078125 0)"/>
     <use xlink:href="#DejaVuSans-74" transform="translate(327.554688 0)"/>
     <use xlink:href="#DejaVuSans-6f" transform="translate(366.763672 0)"/>
     <use xlink:href="#DejaVuSans-6e" transform="translate(427.945312 0)"/>
    </g>
   </g>
   <g id="text_14">
    <!-- Santa Cruz -->
    <g style="fill: #e8525f" transform="translate(203.093539 452.689517) scale(0.075 -0.075)">
     <defs>
      <path id="DejaVuSans-53" d="M 3425 4513 
L 3425 3897 
Q 3066 4069 2747 4153 
Q 2428 4238 2131 4238 
Q 1616 4238 1336 4038 
Q 1056 3838 1056 3469 
Q 1056 3159 1242 3001 
Q 1428 2844 1947 2747 
L 2328 2669 
Q 3034 2534 3370 2195 
Q 3706 1856 3706 1288 
Q 3706 609 3251 259 
Q 2797 -91 1919 -91 
Q 1588 -91 1214 -16 
Q 841 59 441 206 
L 441 856 
Q 825 641 1194 531 
Q 1563 422 1919 422 
Q 2459 422 2753 634 
Q 3047 847 3047 1241 
Q 3047 1584 2836 1778 
Q 2625 1972 2144 2069 
L 1759 2144 
Q 1053 2284 737 2584 
Q 422 2884 422 3419 
Q 422 4038 858 4394 
Q 1294 4750 2059 4750 
Q 2388 4750 2728 4690 
Q 3069 4631 3425 4513 
z
" transform="scale(0.015625)"/>
      <path id="DejaVuSans-43" d="M 4122 4306 
L 4122 3641 
Q 3803 3938 3442 4084 
Q 3081 4231 2675 4231 
Q 1875 4231 1450 3742 
Q 1025 3253 1025 2328 
Q 1025 1406 1450 917 
Q 1875 428 2675 428 
Q 3081 428 3442 575 
Q 3803 722 4122 1019 
L 4122 359 
Q 3791 134 3420 21 
Q 3050 -91 2638 -91 
Q 1578 -91 968 557 
Q 359 1206 359 2328 
Q 359 3453 968 4101 
Q 1578 4750 2638 4750 
Q 3056 4750 3426 4639 
Q 3797 4528 4122 4306 
z
" transform="scale(0.015625)"/>
      <path id="DejaVuSans-7a" d="M 353 3500 
L 3084 3500 
L 3084 2975 
L 922 459 
L 3084 459 
L 3084 0 
L 275 0 
L 275 525 
L 2438 3041 
L 353 3041 
L 353 3500 
z
" transform="scale(0.015625)"/>
     </defs>
     <use xlink:href="#DejaVuSans-53"/>
     <use xlink:href="#DejaVuSans-61" transform="translate(63.476562 0)"/>
     <use xlink:href="#DejaVuSans-6e" transform="translate(124.755859 0)"/>
     <use xlink:href="#DejaVuSans-74" transform="translate(188.134766 0)"/>
     <use xlink:href="#DejaVuSans-61" transform="translate(227.34375 0)"/>
     <use xlink:href="#DejaVuSans-20" transform="translate(288.623047 0)"/>
     <use xlink:href="#DejaVuSans-43" transform="translate(320.410156 0)"/>
     <use xlink:href="#DejaVuSans-72" transform="translate(390.234375 0)"/>
     <use xlink:href="#DejaVuSans-75" transform="translate(431.347656 0)"/>
     <use xlink:href="#DejaVuSans-7a" transform="translate(494.726562 0)"/>
    </g>
   </g>
   <g id="text_15">
    <!-- Houston -->
    <g style="fill: #f7a83c" transform="translate(100.622409 107.353583) scale(0.075 -0.075)">
     <use xlink:href="#DejaVuSans-48"/>
     <use xlink:href="#DejaVuSans-6f" transform="translate(75.195312 0)"/>
     <use xlink:href="#DejaVuSans-75" transform="translate(136.376953 0)"/>
     <use xlink:href="#DejaVuSans-73" transform="translate(199.755859 0)"/>
     <use xlink:href="#DejaVuSans-74" transform="translate(251.855469 0)"/>
     <use xlink:href="#DejaVuSans-6f" transform="translate(291.064453 0)"/>
     <use xlink:href="#DejaVuSans-6e" transform="translate(352.246094 0)"/>
    </g>
   </g>
   <g id="text_16">
    <!-- Seattle -->
    <g style="fill: #f7a83c" transform="translate(116.284229 126.403227) scale(0.075 -0.075)">
     <use xlink:href="#DejaVuSans-53"/>
     <use xlink:href="#DejaVuSans-65" transform="translate(63.476562 0)"/>
     <use xlink:href="#DejaVuSans-61" transform="translate(125 0)"/>
     <use xlink:href="#DejaVuSans-74" transform="translate(186.279297 0)"/>
     <use xlink:href="#DejaVuSans-74" transform="translate(225.488281 0)"/>
     <use xlink:href="#DejaVuSans-6c" transform="translate(264.697266 0)"/>
     <use xlink:href="#DejaVuSans-65" transform="translate(292.480469 0)"/>
    </g>
   </g>
   <g id="text_17">
    <!-- Austin -->
    <g style="fill: #f7a83c" transform="translate(117.776025 116.706324) scale(0.075 -0.075)">
     <defs>
      <path id="DejaVuSans-41" d="M 2188 4044 
L 1331 1722 
L 3047 1722 
L 2188 4044 
z
M 1831 4666 
L 2547 4666 
L 4325 0 
L 3669 0 
L 3244 1197 
L 1141 1197 
L 716 0 
L 50 0 
L 1831 4666 
z
" transform="scale(0.015625)"/>
     </defs>
     <use xlink:href="#DejaVuSans-41"/>
     <use xlink:href="#DejaVuSans-75" transform="translate(68.408203 0)"/>
     <use xlink:href="#DejaVuSans-73" transform="translate(131.787109 0)"/>
     <use xlink:href="#DejaVuSans-74" transform="translate(183.886719 0)"/>
     <use xlink:href="#DejaVuSans-69" transform="translate(223.095703 0)"/>
     <use xlink:href="#DejaVuSans-6e" transform="translate(250.878906 0)"/>
    </g>
   </g>
   <g id="text_18">
    <!-- San Jose -->
    <g style="fill: #f7a83c" transform="translate(104.797645 159.539344) scale(0.075 -0.075)">
     <use xlink:href="#DejaVuSans-53"/>
     <use xlink:href="#DejaVuSans-61" transform="translate(63.476562 0)"/>
     <use xlink:href="#DejaVuSans-6e" transform="translate(124.755859 0)"/>
     <use xlink:href="#DejaVuSans-20" transform="translate(188.134766 0)"/>
     <use xlink:href="#DejaVuSans-4a" transform="translate(219.921875 0)"/>
     <use xlink:href="#DejaVuSans-6f" transform="translate(249.414062 0)"/>
     <use xlink:href="#DejaVuSans-73" transform="translate(310.595703 0)"/>
     <use xlink:href="#DejaVuSans-65" transform="translate(362.695312 0)"/>
    </g>
   </g>
   <g id="text_19">
    <!-- San Diego -->
    <g style="fill: #f7a83c" transform="translate(159.676262 219.082312) scale(0.075 -0.075)">
     <defs>
      <path id="DejaVuSans-44" d="M 1259 4147 
L 1259 519 
L 2022 519 
Q 2988 519 3436 956 
Q 3884 1394 3884 2338 
Q 3884 3275 3436 3711 
Q 2988 4147 2022 4147 
L 1259 4147 
z
M 628 4666 
L 1925 4666 
Q 3281 4666 3915 4102 
Q 4550 3538 4550 2338 
Q 4550 1131 3912 565 
Q 3275 0 1925 0 
L 628 0 
L 628 4666 
z
" transform="scale(0.015625)"/>
     </defs>
     <use xlink:href="#DejaVuSans-53"/>
     <use xlink:href="#DejaVuSans-61" transform="translate(63.476562 0)"/>
     <use xlink:href="#DejaVuSans-6e" transform="translate(124.755859 0)"/>
     <use xlink:href="#DejaVuSans-20" transform="translate(188.134766 0)"/>
     <use xlink:href="#DejaVuSans-44" transform="translate(219.921875 0)"/>
     <use xlink:href="#DejaVuSans-69" transform="translate(296.923828 0)"/>
     <use xlink:href="#DejaVuSans-65" transform="translate(324.707031 0)"/>
     <use xlink:href="#DejaVuSans-67" transform="translate(386.230469 0)"/>
     <use xlink:href="#DejaVuSans-6f" transform="translate(449.707031 0)"/>
    </g>
   </g>
   <g id="text_20">
    <!-- Anaheim -->
    <g style="fill: #f7a83c" transform="translate(149.450458 205.626803) scale(0.075 -0.075)">
     <defs>
      <path id="DejaVuSans-68" d="M 3513 2113 
L 3513 0 
L 2938 0 
L 2938 2094 
Q 2938 2591 2744 2837 
Q 2550 3084 2163 3084 
Q 1697 3084 1428 2787 
Q 1159 2491 1159 1978 
L 1159 0 
L 581 0 
L 581 4863 
L 1159 4863 
L 1159 2956 
Q 1366 3272 1645 3428 
Q 1925 3584 2291 3584 
Q 2894 3584 3203 3211 
Q 3513 2838 3513 2113 
z
" transform="scale(0.015625)"/>
      <path id="DejaVuSans-6d" d="M 3328 2828 
Q 3544 3216 3844 3400 
Q 4144 3584 4550 3584 
Q 5097 3584 5394 3201 
Q 5691 2819 5691 2113 
L 5691 0 
L 5113 0 
L 5113 2094 
Q 5113 2597 4934 2840 
Q 4756 3084 4391 3084 
Q 3944 3084 3684 2787 
Q 3425 2491 3425 1978 
L 3425 0 
L 2847 0 
L 2847 2094 
Q 2847 2600 2669 2842 
Q 2491 3084 2119 3084 
Q 1678 3084 1418 2786 
Q 1159 2488 1159 1978 
L 1159 0 
L 581 0 
L 581 3500 
L 1159 3500 
L 1159 2956 
Q 1356 3278 1631 3431 
Q 1906 3584 2284 3584 
Q 2666 3584 2933 3390 
Q 3200 3197 3328 2828 
z
" transform="scale(0.015625)"/>
     </defs>
     <use xlink:href="#DejaVuSans-41"/>
     <use xlink:href="#DejaVuSans-6e" transform="translate(68.408203 0)"/>
     <use xlink:href="#DejaVuSans-61" transform="translate(131.787109 0)"/>
     <use xlink:href="#DejaVuSans-68" transform="translate(193.066406 0)"/>
     <use xlink:href="#DejaVuSans-65" transform="translate(256.445312 0)"/>
     <use xlink:href="#DejaVuSans-69" transform="translate(317.96875 0)"/>
     <use xlink:href="#DejaVuSans-6d" transform="translate(345.751953 0)"/>
    </g>
   </g>
   <g id="text_21">
    <!-- Santa Barbara -->
    <g style="fill: #f7a83c" transform="translate(137.84395 228.893936) scale(0.075 -0.075)">
     <defs>
      <path id="DejaVuSans-42" d="M 1259 2228 
L 1259 519 
L 2272 519 
Q 2781 519 3026 730 
Q 3272 941 3272 1375 
Q 3272 1813 3026 2020 
Q 2781 2228 2272 2228 
L 1259 2228 
z
M 1259 4147 
L 1259 2741 
L 2194 2741 
Q 2656 2741 2882 2914 
Q 3109 3088 3109 3444 
Q 3109 3797 2882 3972 
Q 2656 4147 2194 4147 
L 1259 4147 
z
M 628 4666 
L 2241 4666 
Q 2963 4666 3353 4366 
Q 3744 4066 3744 3513 
Q 3744 3084 3544 2831 
Q 3344 2578 2956 2516 
Q 3422 2416 3680 2098 
Q 3938 1781 3938 1306 
Q 3938 681 3513 340 
Q 3088 0 2303 0 
L 628 0 
L 628 4666 
z
" transform="scale(0.015625)"/>
     </defs>
     <use xlink:href="#DejaVuSans-53"/>
     <use xlink:href="#DejaVuSans-61" transform="translate(63.476562 0)"/>
     <use xlink:href="#DejaVuSans-6e" transform="translate(124.755859 0)"/>
     <use xlink:href="#DejaVuSans-74" transform="translate(188.134766 0)"/>
     <use xlink:href="#DejaVuSans-61" transform="translate(227.34375 0)"/>
     <use xlink:href="#DejaVuSans-20" transform="translate(288.623047 0)"/>
     <use xlink:href="#DejaVuSans-42" transform="translate(320.410156 0)"/>
     <use xlink:href="#DejaVuSans-61" transform="translate(389.013672 0)"/>
     <use xlink:href="#DejaVuSans-72" transform="translate(450.292969 0)"/>
     <use xlink:href="#DejaVuSans-62" transform="translate(491.40625 0)"/>
     <use xlink:href="#DejaVuSans-61" transform="translate(554.882812 0)"/>
     <use xlink:href="#DejaVuSans-72" transform="translate(616.162109 0)"/>
     <use xlink:href="#DejaVuSans-61" transform="translate(657.275391 0)"/>
    </g>
   </g>
   <g id="text_22">
    <!-- Tacoma -->
    <g style="fill: #f7a83c" transform="translate(148.062107 273.957967) scale(0.075 -0.075)">
     <defs>
      <path id="DejaVuSans-54" d="M -19 4666 
L 3928 4666 
L 3928 4134 
L 2272 4134 
L 2272 0 
L 1638 0 
L 1638 4134 
L -19 4134 
L -19 4666 
z
" transform="scale(0.015625)"/>
     </defs>
     <use xlink:href="#DejaVuSans-54"/>
     <use xlink:href="#DejaVuSans-61" transform="translate(44.583984 0)"/>
     <use xlink:href="#DejaVuSans-63" transform="translate(105.863281 0)"/>
     <use xlink:href="#DejaVuSans-6f" transform="translate(160.84375 0)"/>
     <use xlink:href="#DejaVuSans-6d" transform="translate(222.025391 0)"/>
     <use xlink:href="#DejaVuSans-61" transform="translate(319.4375 0)"/>
    </g>
   </g>
   <g id="text_23">
    <!-- Bakersfield -->
    <g style="fill: #f7a83c" transform="translate(197.101017 242.530583) scale(0.075 -0.075)">
     <defs>
      <path id="DejaVuSans-66" d="M 2375 4863 
L 2375 4384 
L 1825 4384 
Q 1516 4384 1395 4259 
Q 1275 4134 1275 3809 
L 1275 3500 
L 2222 3500 
L 2222 3053 
L 1275 3053 
L 1275 0 
L 697 0 
L 697 3053 
L 147 3053 
L 147 3500 
L 697 3500 
L 697 3744 
Q 697 4328 969 4595 
Q 1241 4863 1831 4863 
L 2375 4863 
z
" transform="scale(0.015625)"/>
     </defs>
     <use xlink:href="#DejaVuSans-42"/>
     <use xlink:href="#DejaVuSans-61" transform="translate(68.603516 0)"/>
     <use xlink:href="#DejaVuSans-6b" transform="translate(129.882812 0)"/>
     <use xlink:href="#DejaVuSans-65" transform="translate(184.167969 0)"/>
     <use xlink:href="#DejaVuSans-72" transform="translate(245.691406 0)"/>
     <use xlink:href="#DejaVuSans-73" transform="translate(286.804688 0)"/>
     <use xlink:href="#DejaVuSans-66" transform="translate(338.904297 0)"/>
     <use xlink:href="#DejaVuSans-69" transform="translate(374.109375 0)"/>
     <use xlink:href="#DejaVuSans-65" transform="translate(401.892578 0)"/>
     <use xlink:href="#DejaVuSans-6c" transform="translate(463.416016 0)"/>
     <use xlink:href="#DejaVuSans-64" transform="translate(491.199219 0)"/>
    </g>
   </g>
   <g id="text_24">
    <!-- Los Angeles -->
    <g style="fill: #f7a83c" transform="translate(149.693424 163.285874) scale(0.075 -0.075)">
     <use xlink:href="#DejaVuSans-4c"/>
     <use xlink:href="#DejaVuSans-6f" transform="translate(53.962891 0)"/>
     <use xlink:href="#DejaVuSans-73" transform="translate(115.144531 0)"/>
     <use xlink:href="#DejaVuSans-20" transform="translate(167.244141 0)"/>
     <use xlink:href="#DejaVuSans-41" transform="translate(199.03125 0)"/>
     <use xlink:href="#DejaVuSans-6e" transform="translate(267.439453 0)"/>
     <use xlink:href="#DejaVuSans-67" transform="translate(330.818359 0)"/>
     <use xlink:href="#DejaVuSans-65" transform="translate(394.294922 0)"/>
     <use xlink:href="#DejaVuSans-6c" transform="translate(455.818359 0)"/>
     <use xlink:href="#DejaVuSans-65" transform="translate(483.601562 0)"/>
     <use xlink:href="#DejaVuSans-73" transform="translate(545.125 0)"/>
    </g>
   </g>
   <g id="text_25">
    <!-- Fresno -->
    <g style="fill: #f7a83c" transform="translate(226.034684 264.288235) scale(0.075 -0.075)">
     <use xlink:href="#DejaVuSans-46"/>
     <use xlink:href="#DejaVuSans-72" transform="translate(50.269531 0)"/>
     <use xlink:href="#DejaVuSans-65" transform="translate(89.132812 0)"/>
     <use xlink:href="#DejaVuSans-73" transform="translate(150.65625 0)"/>
     <use xlink:href="#DejaVuSans-6e" transform="translate(202.755859 0)"/>
     <use xlink:href="#DejaVuSans-6f" transform="translate(266.134766 0)"/>
    </g>
   </g>
   <g id="text_26">
    <!-- Saginaw -->
    <g style="fill: #f7a83c" transform="translate(203.199461 254.066033) scale(0.075 -0.075)">
     <use xlink:href="#DejaVuSans-53"/>
     <use xlink:href="#DejaVuSans-61" transform="translate(63.476562 0)"/>
     <use xlink:href="#DejaVuSans-67" transform="translate(124.755859 0)"/>
     <use xlink:href="#DejaVuSans-69" transform="translate(188.232422 0)"/>
     <use xlink:href="#DejaVuSans-6e" transform="translate(216.015625 0)"/>
     <use xlink:href="#DejaVuSans-61" transform="translate(279.394531 0)"/>
     <use xlink:href="#DejaVuSans-77" transform="translate(340.673828 0)"/>
    </g>
   </g>
   <g id="text_27">
    <!-- Tampa -->
    <g style="fill: #4c929e" transform="translate(154.684101 42.077608) scale(0.075 -0.075)">
     <defs>
      <path id="DejaVuSans-70" d="M 1159 525 
L 1159 -1331 
L 581 -1331 
L 581 3500 
L 1159 3500 
L 1159 2969 
Q 1341 3281 1617 3432 
Q 1894 3584 2278 3584 
Q 2916 3584 3314 3078 
Q 3713 2572 3713 1747 
Q 3713 922 3314 415 
Q 2916 -91 2278 -91 
Q 1894 -91 1617 61 
Q 1341 213 1159 525 
z
M 3116 1747 
Q 3116 2381 2855 2742 
Q 2594 3103 2138 3103 
Q 1681 3103 1420 2742 
Q 1159 2381 1159 1747 
Q 1159 1113 1420 752 
Q 1681 391 2138 391 
Q 2594 391 2855 752 
Q 3116 1113 3116 1747 
z
" transform="scale(0.015625)"/>
     </defs>
     <use xlink:href="#DejaVuSans-54"/>
     <use xlink:href="#DejaVuSans-61" transform="translate(44.583984 0)"/>
     <use xlink:href="#DejaVuSans-6d" transform="translate(105.863281 0)"/>
     <use xlink:href="#DejaVuSans-70" transform="translate(203.275391 0)"/>
     <use xlink:href="#DejaVuSans-61" transform="translate(266.751953 0)"/>
    </g>
   </g>
   <g id="text_28">
    <!-- Louisville -->
    <g style="fill: #4c929e" transform="translate(192.705415 42.077608) scale(0.075 -0.075)">
     <use xlink:href="#DejaVuSans-4c"/>
     <use xlink:href="#DejaVuSans-6f" transform="translate(53.962891 0)"/>
     <use xlink:href="#DejaVuSans-75" transform="translate(115.144531 0)"/>
     <use xlink:href="#DejaVuSans-69" transform="translate(178.523438 0)"/>
     <use xlink:href="#DejaVuSans-73" transform="translate(206.306641 0)"/>
     <use xlink:href="#DejaVuSans-76" transform="translate(258.40625 0)"/>
     <use xlink:href="#DejaVuSans-69" transform="translate(317.585938 0)"/>
     <use xlink:href="#DejaVuSans-6c" transform="translate(345.369141 0)"/>
     <use xlink:href="#DejaVuSans-6c" transform="translate(373.152344 0)"/>
     <use xlink:href="#DejaVuSans-65" transform="translate(400.935547 0)"/>
    </g>
   </g>
   <g id="text_29">
    <!-- Miami -->
    <g style="fill: #4c929e" transform="translate(270.70912 70.093566) scale(0.075 -0.075)">
     <use xlink:href="#DejaVuSans-4d"/>
     <use xlink:href="#DejaVuSans-69" transform="translate(86.279297 0)"/>
     <use xlink:href="#DejaVuSans-61" transform="translate(114.0625 0)"/>
     <use xlink:href="#DejaVuSans-6d" transform="translate(175.341797 0)"/>
     <use xlink:href="#DejaVuSans-69" transform="translate(272.753906 0)"/>
    </g>
   </g>
   <g id="text_30">
    <!-- FortWorth -->
    <g style="fill: #4c929e" transform="translate(231.65076 59.986084) scale(0.075 -0.075)">
     <defs>
      <path id="DejaVuSans-57" d="M 213 4666 
L 850 4666 
L 1831 722 
L 2809 4666 
L 3519 4666 
L 4500 722 
L 5478 4666 
L 6119 4666 
L 4947 0 
L 4153 0 
L 3169 4050 
L 2175 0 
L 1381 0 
L 213 4666 
z
" transform="scale(0.015625)"/>
     </defs>
     <use xlink:href="#DejaVuSans-46"/>
     <use xlink:href="#DejaVuSans-6f" transform="translate(53.894531 0)"/>
     <use xlink:href="#DejaVuSans-72" transform="translate(115.076172 0)"/>
     <use xlink:href="#DejaVuSans-74" transform="translate(156.189453 0)"/>
     <use xlink:href="#DejaVuSans-57" transform="translate(195.398438 0)"/>
     <use xlink:href="#DejaVuSans-6f" transform="translate(288.400391 0)"/>
     <use xlink:href="#DejaVuSans-72" transform="translate(349.582031 0)"/>
     <use xlink:href="#DejaVuSans-74" transform="translate(390.695312 0)"/>
     <use xlink:href="#DejaVuSans-68" transform="translate(429.904297 0)"/>
    </g>
   </g>
   <g id="text_31">
    <!-- San Antonio -->
    <g style="fill: #4c929e" transform="translate(174.842141 54.461386) scale(0.075 -0.075)">
     <use xlink:href="#DejaVuSans-53"/>
     <use xlink:href="#DejaVuSans-61" transform="translate(63.476562 0)"/>
     <use xlink:href="#DejaVuSans-6e" transform="translate(124.755859 0)"/>
     <use xlink:href="#DejaVuSans-20" transform="translate(188.134766 0)"/>
     <use xlink:href="#DejaVuSans-41" transform="translate(219.921875 0)"/>
     <use xlink:href="#DejaVuSans-6e" transform="translate(288.330078 0)"/>
     <use xlink:href="#DejaVuSans-74" transform="translate(351.708984 0)"/>
     <use xlink:href="#DejaVuSans-6f" transform="translate(390.917969 0)"/>
     <use xlink:href="#DejaVuSans-6e" transform="translate(452.099609 0)"/>
     <use xlink:href="#DejaVuSans-69" transform="translate(515.478516 0)"/>
     <use xlink:href="#DejaVuSans-6f" transform="translate(543.261719 0)"/>
    </g>
   </g>
   <g id="text_32">
    <!-- Spokane -->
    <g style="fill: #4c929e" transform="translate(106.254929 94.915464) scale(0.075 -0.075)">
     <use xlink:href="#DejaVuSans-53"/>
     <use xlink:href="#DejaVuSans-70" transform="translate(63.476562 0)"/>
     <use xlink:href="#DejaVuSans-6f" transform="translate(126.953125 0)"/>
     <use xlink:href="#DejaVuSans-6b" transform="translate(188.134766 0)"/>
     <use xlink:href="#DejaVuSans-61" transform="translate(244.294922 0)"/>
     <use xlink:href="#DejaVuSans-6e" transform="translate(305.574219 0)"/>
     <use xlink:href="#DejaVuSans-65" transform="translate(368.953125 0)"/>
    </g>
   </g>
   <g id="text_33">
    <!-- Dallas -->
    <g style="fill: #4c929e" transform="translate(205.869586 69.109385) scale(0.075 -0.075)">
     <use xlink:href="#DejaVuSans-44"/>
     <use xlink:href="#DejaVuSans-61" transform="translate(77.001953 0)"/>
     <use xlink:href="#DejaVuSans-6c" transform="translate(138.28125 0)"/>
     <use xlink:href="#DejaVuSans-6c" transform="translate(166.064453 0)"/>
     <use xlink:href="#DejaVuSans-61" transform="translate(193.847656 0)"/>
     <use xlink:href="#DejaVuSans-73" transform="translate(255.126953 0)"/>
    </g>
   </g>
   <g id="text_34">
    <!-- San Francesco -->
    <g style="fill: #4c929e" transform="translate(210.343596 80.841067) scale(0.075 -0.075)">
     <use xlink:href="#DejaVuSans-53"/>
     <use xlink:href="#DejaVuSans-61" transform="translate(63.476562 0)"/>
     <use xlink:href="#DejaVuSans-6e" transform="translate(124.755859 0)"/>
     <use xlink:href="#DejaVuSans-20" transform="translate(188.134766 0)"/>
     <use xlink:href="#DejaVuSans-46" transform="translate(219.921875 0)"/>
     <use xlink:href="#DejaVuSans-72" transform="translate(270.191406 0)"/>
     <use xlink:href="#DejaVuSans-61" transform="translate(311.304688 0)"/>
     <use xlink:href="#DejaVuSans-6e" transform="translate(372.583984 0)"/>
     <use xlink:href="#DejaVuSans-63" transform="translate(435.962891 0)"/>
     <use xlink:href="#DejaVuSans-65" transform="translate(490.943359 0)"/>
     <use xlink:href="#DejaVuSans-73" transform="translate(552.466797 0)"/>
     <use xlink:href="#DejaVuSans-63" transform="translate(604.566406 0)"/>
     <use xlink:href="#DejaVuSans-6f" transform="translate(659.546875 0)"/>
    </g>
   </g>
   <g id="text_35">
    <!-- Phase Diagram of Cities -->
    <g transform="translate(422.1725 29.995312) scale(0.3 -0.3)">
     <defs>
      <path id="DejaVuSans-50" d="M 1259 4147 
L 1259 2394 
L 2053 2394 
Q 2494 2394 2734 2622 
Q 2975 2850 2975 3272 
Q 2975 3691 2734 3919 
Q 2494 4147 2053 4147 
L 1259 4147 
z
M 628 4666 
L 2053 4666 
Q 2838 4666 3239 4311 
Q 3641 3956 3641 3272 
Q 3641 2581 3239 2228 
Q 2838 1875 2053 1875 
L 1259 1875 
L 1259 0 
L 628 0 
L 628 4666 
z
" transform="scale(0.015625)"/>
     </defs>
     <use xlink:href="#DejaVuSans-50"/>
     <use xlink:href="#DejaVuSans-68" transform="translate(60.302734 0)"/>
     <use xlink:href="#DejaVuSans-61" transform="translate(123.681641 0)"/>
     <use xlink:href="#DejaVuSans-73" transform="translate(184.960938 0)"/>
     <use xlink:href="#DejaVuSans-65" transform="translate(237.060547 0)"/>
     <use xlink:href="#DejaVuSans-20" transform="translate(298.583984 0)"/>
     <use xlink:href="#DejaVuSans-44" transform="translate(330.371094 0)"/>
     <use xlink:href="#DejaVuSans-69" transform="translate(407.373047 0)"/>
     <use xlink:href="#DejaVuSans-61" transform="translate(435.15625 0)"/>
     <use xlink:href="#DejaVuSans-67" transform="translate(496.435547 0)"/>
     <use xlink:href="#DejaVuSans-72" transform="translate(559.912109 0)"/>
     <use xlink:href="#DejaVuSans-61" transform="translate(601.025391 0)"/>
     <use xlink:href="#DejaVuSans-6d" transform="translate(662.304688 0)"/>
     <use xlink:href="#DejaVuSans-20" transform="translate(759.716797 0)"/>
     <use xlink:href="#DejaVuSans-6f" transform="translate(791.503906 0)"/>
     <use xlink:href="#DejaVuSans-66" transform="translate(852.685547 0)"/>
     <use xlink:href="#DejaVuSans-20" transform="translate(887.890625 0)"/>
     <use xlink:href="#DejaVuSans-43" transform="translate(919.677734 0)"/>
     <use xlink:href="#DejaVuSans-69" transform="translate(989.501953 0)"/>
     <use xlink:href="#DejaVuSans-74" transform="translate(1017.285156 0)"/>
     <use xlink:href="#DejaVuSans-69" transform="translate(1056.494141 0)"/>
     <use xlink:href="#DejaVuSans-65" transform="translate(1084.277344 0)"/>
     <use xlink:href="#DejaVuSans-73" transform="translate(1145.800781 0)"/>
    </g>
   </g>
   <g id="legend_1">
    <g id="patch_19">
     <path d="M 953.37 228.4 
L 1123.41375 228.4 
Q 1125.41375 228.4 1125.41375 226.4 
L 1125.41375 43.234375 
Q 1125.41375 41.234375 1123.41375 41.234375 
L 953.37 41.234375 
Q 951.37 41.234375 951.37 43.234375 
L 951.37 226.4 
Q 951.37 228.4 953.37 228.4 
z
" style="fill: #ffffff; opacity: 0.7; stroke: #cccccc; stroke-linejoin: miter"/>
    </g>
    <g id="PathCollection_9">
     <defs>
      <path id="maf279c4ff6" d="M -5 5 
L 5 5 
L 5 -5 
L -5 -5 
z
" style="stroke: #2f5597"/>
     </defs>
     <g>
      <use xlink:href="#maf279c4ff6" x="971.37" y="56.270312" style="fill: #2f5597; stroke: #2f5597"/>
     </g>
    </g>
    <g id="text_36">
     <!-- Resilience Cities(large β) -->
     <g transform="translate(991.37 58.895312) scale(0.1 -0.1)">
      <defs>
       <path id="DejaVuSans-52" d="M 2841 2188 
Q 3044 2119 3236 1894 
Q 3428 1669 3622 1275 
L 4263 0 
L 3584 0 
L 2988 1197 
Q 2756 1666 2539 1819 
Q 2322 1972 1947 1972 
L 1259 1972 
L 1259 0 
L 628 0 
L 628 4666 
L 2053 4666 
Q 2853 4666 3247 4331 
Q 3641 3997 3641 3322 
Q 3641 2881 3436 2590 
Q 3231 2300 2841 2188 
z
M 1259 4147 
L 1259 2491 
L 2053 2491 
Q 2509 2491 2742 2702 
Q 2975 2913 2975 3322 
Q 2975 3731 2742 3939 
Q 2509 4147 2053 4147 
L 1259 4147 
z
" transform="scale(0.015625)"/>
       <path id="DejaVuSans-28" d="M 1984 4856 
Q 1566 4138 1362 3434 
Q 1159 2731 1159 2009 
Q 1159 1288 1364 580 
Q 1569 -128 1984 -844 
L 1484 -844 
Q 1016 -109 783 600 
Q 550 1309 550 2009 
Q 550 2706 781 3412 
Q 1013 4119 1484 4856 
L 1984 4856 
z
" transform="scale(0.015625)"/>
       <path id="DejaVuSans-29" d="M 513 4856 
L 1013 4856 
Q 1481 4119 1714 3412 
Q 1947 2706 1947 2009 
Q 1947 1309 1714 600 
Q 1481 -109 1013 -844 
L 513 -844 
Q 928 -128 1133 580 
Q 1338 1288 1338 2009 
Q 1338 2731 1133 3434 
Q 928 4138 513 4856 
z
" transform="scale(0.015625)"/>
      </defs>
      <use xlink:href="#DejaVuSans-52"/>
      <use xlink:href="#DejaVuSans-65" transform="translate(64.982422 0)"/>
      <use xlink:href="#DejaVuSans-73" transform="translate(126.505859 0)"/>
      <use xlink:href="#DejaVuSans-69" transform="translate(178.605469 0)"/>
      <use xlink:href="#DejaVuSans-6c" transform="translate(206.388672 0)"/>
      <use xlink:href="#DejaVuSans-69" transform="translate(234.171875 0)"/>
      <use xlink:href="#DejaVuSans-65" transform="translate(261.955078 0)"/>
      <use xlink:href="#DejaVuSans-6e" transform="translate(323.478516 0)"/>
      <use xlink:href="#DejaVuSans-63" transform="translate(386.857422 0)"/>
      <use xlink:href="#DejaVuSans-65" transform="translate(441.837891 0)"/>
      <use xlink:href="#DejaVuSans-20" transform="translate(503.361328 0)"/>
      <use xlink:href="#DejaVuSans-43" transform="translate(535.148438 0)"/>
      <use xlink:href="#DejaVuSans-69" transform="translate(604.972656 0)"/>
      <use xlink:href="#DejaVuSans-74" transform="translate(632.755859 0)"/>
      <use xlink:href="#DejaVuSans-69" transform="translate(671.964844 0)"/>
      <use xlink:href="#DejaVuSans-65" transform="translate(699.748047 0)"/>
      <use xlink:href="#DejaVuSans-73" transform="translate(761.271484 0)"/>
      <use xlink:href="#DejaVuSans-28" transform="translate(813.371094 0)"/>
      <use xlink:href="#DejaVuSans-6c" transform="translate(852.384766 0)"/>
      <use xlink:href="#DejaVuSans-61" transform="translate(880.167969 0)"/>
      <use xlink:href="#DejaVuSans-72" transform="translate(941.447266 0)"/>
      <use xlink:href="#DejaVuSans-67" transform="translate(980.810547 0)"/>
      <use xlink:href="#DejaVuSans-65" transform="translate(1044.287109 0)"/>
      <use xlink:href="#DejaVuSans-20" transform="translate(1105.810547 0)"/>
      <use xlink:href="#DejaVuSans-3b2" transform="translate(1137.597656 0)"/>
      <use xlink:href="#DejaVuSans-29" transform="translate(1201.416016 0)"/>
     </g>
    </g>
    <g id="PathCollection_10">
     <defs>
      <path id="me2b326d39b" d="M 0 -5 
L -5 5 
L 5 5 
z
" style="stroke: #4c929e"/>
     </defs>
     <g>
      <use xlink:href="#me2b326d39b" x="971.37" y="75.948438" style="fill: #4c929e; stroke: #4c929e"/>
     </g>
    </g>
    <g id="text_37">
     <!-- Resilience Cities(large γ) -->
     <g transform="translate(991.37 78.573438) scale(0.1 -0.1)">
      <use xlink:href="#DejaVuSans-52"/>
      <use xlink:href="#DejaVuSans-65" transform="translate(64.982422 0)"/>
      <use xlink:href="#DejaVuSans-73" transform="translate(126.505859 0)"/>
      <use xlink:href="#DejaVuSans-69" transform="translate(178.605469 0)"/>
      <use xlink:href="#DejaVuSans-6c" transform="translate(206.388672 0)"/>
      <use xlink:href="#DejaVuSans-69" transform="translate(234.171875 0)"/>
      <use xlink:href="#DejaVuSans-65" transform="translate(261.955078 0)"/>
      <use xlink:href="#DejaVuSans-6e" transform="translate(323.478516 0)"/>
      <use xlink:href="#DejaVuSans-63" transform="translate(386.857422 0)"/>
      <use xlink:href="#DejaVuSans-65" transform="translate(441.837891 0)"/>
      <use xlink:href="#DejaVuSans-20" transform="translate(503.361328 0)"/>
      <use xlink:href="#DejaVuSans-43" transform="translate(535.148438 0)"/>
      <use xlink:href="#DejaVuSans-69" transform="translate(604.972656 0)"/>
      <use xlink:href="#DejaVuSans-74" transform="translate(632.755859 0)"/>
      <use xlink:href="#DejaVuSans-69" transform="translate(671.964844 0)"/>
      <use xlink:href="#DejaVuSans-65" transform="translate(699.748047 0)"/>
      <use xlink:href="#DejaVuSans-73" transform="translate(761.271484 0)"/>
      <use xlink:href="#DejaVuSans-28" transform="translate(813.371094 0)"/>
      <use xlink:href="#DejaVuSans-6c" transform="translate(852.384766 0)"/>
      <use xlink:href="#DejaVuSans-61" transform="translate(880.167969 0)"/>
      <use xlink:href="#DejaVuSans-72" transform="translate(941.447266 0)"/>
      <use xlink:href="#DejaVuSans-67" transform="translate(980.810547 0)"/>
      <use xlink:href="#DejaVuSans-65" transform="translate(1044.287109 0)"/>
      <use xlink:href="#DejaVuSans-20" transform="translate(1105.810547 0)"/>
      <use xlink:href="#DejaVuSans-3b3" transform="translate(1137.597656 0)"/>
      <use xlink:href="#DejaVuSans-29" transform="translate(1196.777344 0)"/>
     </g>
    </g>
    <g id="PathCollection_11">
     <defs>
      <path id="m2d1e47eb64" d="M 0 5 
C 1.326016 5 2.597899 4.473168 3.535534 3.535534 
C 4.473168 2.597899 5 1.326016 5 0 
C 5 -1.326016 4.473168 -2.597899 3.535534 -3.535534 
C 2.597899 -4.473168 1.326016 -5 0 -5 
C -1.326016 -5 -2.597899 -4.473168 -3.535534 -3.535534 
C -4.473168 -2.597899 -5 -1.326016 -5 0 
C -5 1.326016 -4.473168 2.597899 -3.535534 3.535534 
C -2.597899 4.473168 -1.326016 5 0 5 
z
" style="stroke: #f7a83c"/>
     </defs>
     <g>
      <use xlink:href="#m2d1e47eb64" x="971.37" y="95.626562" style="fill: #f7a83c; stroke: #f7a83c"/>
     </g>
    </g>
    <g id="text_38">
     <!-- Meta-stable Cities -->
     <g transform="translate(991.37 98.251562) scale(0.1 -0.1)">
      <defs>
       <path id="DejaVuSans-2d" d="M 313 2009 
L 1997 2009 
L 1997 1497 
L 313 1497 
L 313 2009 
z
" transform="scale(0.015625)"/>
      </defs>
      <use xlink:href="#DejaVuSans-4d"/>
      <use xlink:href="#DejaVuSans-65" transform="translate(86.279297 0)"/>
      <use xlink:href="#DejaVuSans-74" transform="translate(147.802734 0)"/>
      <use xlink:href="#DejaVuSans-61" transform="translate(187.011719 0)"/>
      <use xlink:href="#DejaVuSans-2d" transform="translate(248.291016 0)"/>
      <use xlink:href="#DejaVuSans-73" transform="translate(284.375 0)"/>
      <use xlink:href="#DejaVuSans-74" transform="translate(336.474609 0)"/>
      <use xlink:href="#DejaVuSans-61" transform="translate(375.683594 0)"/>
      <use xlink:href="#DejaVuSans-62" transform="translate(436.962891 0)"/>
      <use xlink:href="#DejaVuSans-6c" transform="translate(500.439453 0)"/>
      <use xlink:href="#DejaVuSans-65" transform="translate(528.222656 0)"/>
      <use xlink:href="#DejaVuSans-20" transform="translate(589.746094 0)"/>
      <use xlink:href="#DejaVuSans-43" transform="translate(621.533203 0)"/>
      <use xlink:href="#DejaVuSans-69" transform="translate(691.357422 0)"/>
      <use xlink:href="#DejaVuSans-74" transform="translate(719.140625 0)"/>
      <use xlink:href="#DejaVuSans-69" transform="translate(758.349609 0)"/>
      <use xlink:href="#DejaVuSans-65" transform="translate(786.132812 0)"/>
      <use xlink:href="#DejaVuSans-73" transform="translate(847.65625 0)"/>
     </g>
    </g>
    <g id="PathCollection_12">
     <defs>
      <path id="mad8946e020" d="M -0 5 
L 5 -5 
L -5 -5 
z
" style="stroke: #e8525f"/>
     </defs>
     <g>
      <use xlink:href="#mad8946e020" x="971.37" y="115.304688" style="fill: #e8525f; stroke: #e8525f"/>
     </g>
    </g>
    <g id="text_39">
     <!-- Fragile cities -->
     <g transform="translate(991.37 117.929688) scale(0.1 -0.1)">
      <use xlink:href="#DejaVuSans-46"/>
      <use xlink:href="#DejaVuSans-72" transform="translate(50.269531 0)"/>
      <use xlink:href="#DejaVuSans-61" transform="translate(91.382812 0)"/>
      <use xlink:href="#DejaVuSans-67" transform="translate(152.662109 0)"/>
      <use xlink:href="#DejaVuSans-69" transform="translate(216.138672 0)"/>
      <use xlink:href="#DejaVuSans-6c" transform="translate(243.921875 0)"/>
      <use xlink:href="#DejaVuSans-65" transform="translate(271.705078 0)"/>
      <use xlink:href="#DejaVuSans-20" transform="translate(333.228516 0)"/>
      <use xlink:href="#DejaVuSans-63" transform="translate(365.015625 0)"/>
      <use xlink:href="#DejaVuSans-69" transform="translate(419.996094 0)"/>
      <use xlink:href="#DejaVuSans-74" transform="translate(447.779297 0)"/>
      <use xlink:href="#DejaVuSans-69" transform="translate(486.988281 0)"/>
      <use xlink:href="#DejaVuSans-65" transform="translate(514.771484 0)"/>
      <use xlink:href="#DejaVuSans-73" transform="translate(576.294922 0)"/>
     </g>
    </g>
    <g id="line2d_9">
     <path d="M 961.37 134.107813 
L 971.37 134.107813 
L 981.37 134.107813 
" style="fill: none; stroke: #404040; stroke-width: 2.5; stroke-linecap: square"/>
    </g>
    <g id="text_40">
     <!-- Severe Disaster -->
     <g transform="translate(991.37 137.607813) scale(0.1 -0.1)">
      <use xlink:href="#DejaVuSans-53"/>
      <use xlink:href="#DejaVuSans-65" transform="translate(63.476562 0)"/>
      <use xlink:href="#DejaVuSans-76" transform="translate(125 0)"/>
      <use xlink:href="#DejaVuSans-65" transform="translate(184.179688 0)"/>
      <use xlink:href="#DejaVuSans-72" transform="translate(245.703125 0)"/>
      <use xlink:href="#DejaVuSans-65" transform="translate(284.566406 0)"/>
      <use xlink:href="#DejaVuSans-20" transform="translate(346.089844 0)"/>
      <use xlink:href="#DejaVuSans-44" transform="translate(377.876953 0)"/>
      <use xlink:href="#DejaVuSans-69" transform="translate(454.878906 0)"/>
      <use xlink:href="#DejaVuSans-73" transform="translate(482.662109 0)"/>
      <use xlink:href="#DejaVuSans-61" transform="translate(534.761719 0)"/>
      <use xlink:href="#DejaVuSans-73" transform="translate(596.041016 0)"/>
      <use xlink:href="#DejaVuSans-74" transform="translate(648.140625 0)"/>
      <use xlink:href="#DejaVuSans-65" transform="translate(687.349609 0)"/>
      <use xlink:href="#DejaVuSans-72" transform="translate(748.873047 0)"/>
     </g>
    </g>
    <g id="line2d_10">
     <path d="M 961.37 153.785937 
L 971.37 153.785937 
L 981.37 153.785937 
" style="fill: none; stroke: #a9a9a9; stroke-width: 2.5; stroke-linecap: square"/>
    </g>
    <g id="text_41">
     <!-- Moderate Disaster -->
     <g transform="translate(991.37 157.285937) scale(0.1 -0.1)">
      <use xlink:href="#DejaVuSans-4d"/>
      <use xlink:href="#DejaVuSans-6f" transform="translate(86.279297 0)"/>
      <use xlink:href="#DejaVuSans-64" transform="translate(147.460938 0)"/>
      <use xlink:href="#DejaVuSans-65" transform="translate(210.9375 0)"/>
      <use xlink:href="#DejaVuSans-72" transform="translate(272.460938 0)"/>
      <use xlink:href="#DejaVuSans-61" transform="translate(313.574219 0)"/>
      <use xlink:href="#DejaVuSans-74" transform="translate(374.853516 0)"/>
      <use xlink:href="#DejaVuSans-65" transform="translate(414.0625 0)"/>
      <use xlink:href="#DejaVuSans-20" transform="translate(475.585938 0)"/>
      <use xlink:href="#DejaVuSans-44" transform="translate(507.373047 0)"/>
      <use xlink:href="#DejaVuSans-69" transform="translate(584.375 0)"/>
      <use xlink:href="#DejaVuSans-73" transform="translate(612.158203 0)"/>
      <use xlink:href="#DejaVuSans-61" transform="translate(664.257812 0)"/>
      <use xlink:href="#DejaVuSans-73" transform="translate(725.537109 0)"/>
      <use xlink:href="#DejaVuSans-74" transform="translate(777.636719 0)"/>
      <use xlink:href="#DejaVuSans-65" transform="translate(816.845703 0)"/>
      <use xlink:href="#DejaVuSans-72" transform="translate(878.369141 0)"/>
     </g>
    </g>
    <g id="patch_20">
     <path d="M 961.37 176.964063 
L 981.37 176.964063 
L 981.37 169.964063 
L 961.37 169.964063 
z
" style="fill: #b8dad2; fill-opacity: 0.2; stroke: #b8dad2; stroke-opacity: 0.2; stroke-linejoin: miter"/>
    </g>
    <g id="text_42">
     <!-- Recovery -->
     <g transform="translate(991.37 176.964063) scale(0.1 -0.1)">
      <use xlink:href="#DejaVuSans-52"/>
      <use xlink:href="#DejaVuSans-65" transform="translate(64.982422 0)"/>
      <use xlink:href="#DejaVuSans-63" transform="translate(126.505859 0)"/>
      <use xlink:href="#DejaVuSans-6f" transform="translate(181.486328 0)"/>
      <use xlink:href="#DejaVuSans-76" transform="translate(242.667969 0)"/>
      <use xlink:href="#DejaVuSans-65" transform="translate(301.847656 0)"/>
      <use xlink:href="#DejaVuSans-72" transform="translate(363.371094 0)"/>
      <use xlink:href="#DejaVuSans-79" transform="translate(404.484375 0)"/>
     </g>
    </g>
    <g id="patch_21">
     <path d="M 961.37 196.642187 
L 981.37 196.642187 
L 981.37 189.642187 
L 961.37 189.642187 
z
" style="fill: #cbd289; fill-opacity: 0.2; stroke: #cbd289; stroke-opacity: 0.2; stroke-linejoin: miter"/>
    </g>
    <g id="text_43">
     <!-- Conditional Recovery -->
     <g transform="translate(991.37 196.642187) scale(0.1 -0.1)">
      <use xlink:href="#DejaVuSans-43"/>
      <use xlink:href="#DejaVuSans-6f" transform="translate(69.824219 0)"/>
      <use xlink:href="#DejaVuSans-6e" transform="translate(131.005859 0)"/>
      <use xlink:href="#DejaVuSans-64" transform="translate(194.384766 0)"/>
      <use xlink:href="#DejaVuSans-69" transform="translate(257.861328 0)"/>
      <use xlink:href="#DejaVuSans-74" transform="translate(285.644531 0)"/>
      <use xlink:href="#DejaVuSans-69" transform="translate(324.853516 0)"/>
      <use xlink:href="#DejaVuSans-6f" transform="translate(352.636719 0)"/>
      <use xlink:href="#DejaVuSans-6e" transform="translate(413.818359 0)"/>
      <use xlink:href="#DejaVuSans-61" transform="translate(477.197266 0)"/>
      <use xlink:href="#DejaVuSans-6c" transform="translate(538.476562 0)"/>
      <use xlink:href="#DejaVuSans-20" transform="translate(566.259766 0)"/>
      <use xlink:href="#DejaVuSans-52" transform="translate(598.046875 0)"/>
      <use xlink:href="#DejaVuSans-65" transform="translate(663.029297 0)"/>
      <use xlink:href="#DejaVuSans-63" transform="translate(724.552734 0)"/>
      <use xlink:href="#DejaVuSans-6f" transform="translate(779.533203 0)"/>
      <use xlink:href="#DejaVuSans-76" transform="translate(840.714844 0)"/>
      <use xlink:href="#DejaVuSans-65" transform="translate(899.894531 0)"/>
      <use xlink:href="#DejaVuSans-72" transform="translate(961.417969 0)"/>
      <use xlink:href="#DejaVuSans-79" transform="translate(1002.53125 0)"/>
     </g>
    </g>
    <g id="patch_22">
     <path d="M 961.37 216.320312 
L 981.37 216.320312 
L 981.37 209.320312 
L 961.37 209.320312 
z
" style="fill: #de7487; fill-opacity: 0.2; stroke: #de7487; stroke-opacity: 0.2; stroke-linejoin: miter"/>
    </g>
    <g id="text_44">
     <!-- Collapse -->
     <g transform="translate(991.37 216.320312) scale(0.1 -0.1)">
      <use xlink:href="#DejaVuSans-43"/>
      <use xlink:href="#DejaVuSans-6f" transform="translate(69.824219 0)"/>
      <use xlink:href="#DejaVuSans-6c" transform="translate(131.005859 0)"/>
      <use xlink:href="#DejaVuSans-6c" transform="translate(158.789062 0)"/>
      <use xlink:href="#DejaVuSans-61" transform="translate(186.572266 0)"/>
      <use xlink:href="#DejaVuSans-70" transform="translate(247.851562 0)"/>
      <use xlink:href="#DejaVuSans-73" transform="translate(311.328125 0)"/>
      <use xlink:href="#DejaVuSans-65" transform="translate(363.427734 0)"/>
     </g>
    </g>
   </g>
  </g>
 </g>
 <defs>
  <clipPath id="pcd2e30bf91">
   <rect x="73.29375" y="36.234375" width="1057.12" height="464.92"/>
  </clipPath>
 </defs>
</svg>
