<?xml version="1.0" encoding="utf-8" standalone="no"?>
<!DOCTYPE svg PUBLIC "-//W3C//DTD SVG 1.1//EN"
  "http://www.w3.org/Graphics/SVG/1.1/DTD/svg11.dtd">
<svg xmlns:xlink="http://www.w3.org/1999/xlink" width="627.11875pt" height="493.954375pt" viewBox="0 0 627.11875 493.954375" xmlns="http://www.w3.org/2000/svg" version="1.1">
 <metadata>
  <rdf:RDF xmlns:dc="http://purl.org/dc/elements/1.1/" xmlns:cc="http://creativecommons.org/ns#" xmlns:rdf="http://www.w3.org/1999/02/22-rdf-syntax-ns#">
   <cc:Work>
    <dc:type rdf:resource="http://purl.org/dc/dcmitype/StillImage"/>
    <dc:date>2025-04-11T16:19:07.252359</dc:date>
    <dc:format>image/svg+xml</dc:format>
    <dc:creator>
     <cc:Agent>
      <dc:title>Matplotlib v3.10.1, https://matplotlib.org/</dc:title>
     </cc:Agent>
    </dc:creator>
   </cc:Work>
  </rdf:RDF>
 </metadata>
 <defs>
  <style type="text/css">*{stroke-linejoin: round; stroke-linecap: butt}</style>
 </defs>
 <g id="figure_1">
  <g id="patch_1">
   <path d="M 0 493.954375 
L 627.11875 493.954375 
L 627.11875 0 
L 0 0 
z
" style="fill: #ffffff"/>
  </g>
  <g id="axes_1">
   <g id="patch_2">
    <path d="M 52.375 450.72 
L 610.375 450.72 
L 610.375 7.2 
L 52.375 7.2 
z
" style="fill: #ffffff"/>
   </g>
   <g id="matplotlib.axis_1">
    <g id="xtick_1">
     <g id="line2d_1">
      <defs>
       <path id="m6ba138c9f2" d="M 0 0 
L 0 3.5 
" style="stroke: #000000; stroke-width: 0.8"/>
      </defs>
      <g>
       <use xlink:href="#m6ba138c9f2" x="67.656895" y="450.72" style="stroke: #000000; stroke-width: 0.8"/>
      </g>
     </g>
     <g id="text_1">
      <!-- 0.3 -->
      <g transform="translate(43.802207 480.515312) scale(0.3 -0.3)">
       <defs>
        <path id="DejaVuSans-30" d="M 2034 4250 
Q 1547 4250 1301 3770 
Q 1056 3291 1056 2328 
Q 1056 1369 1301 889 
Q 1547 409 2034 409 
Q 2525 409 2770 889 
Q 3016 1369 3016 2328 
Q 3016 3291 2770 3770 
Q 2525 4250 2034 4250 
z
M 2034 4750 
Q 2819 4750 3233 4129 
Q 3647 3509 3647 2328 
Q 3647 1150 3233 529 
Q 2819 -91 2034 -91 
Q 1250 -91 836 529 
Q 422 1150 422 2328 
Q 422 3509 836 4129 
Q 1250 4750 2034 4750 
z
" transform="scale(0.015625)"/>
        <path id="DejaVuSans-2e" d="M 684 794 
L 1344 794 
L 1344 0 
L 684 0 
L 684 794 
z
" transform="scale(0.015625)"/>
        <path id="DejaVuSans-33" d="M 2597 2516 
Q 3050 2419 3304 2112 
Q 3559 1806 3559 1356 
Q 3559 666 3084 287 
Q 2609 -91 1734 -91 
Q 1441 -91 1130 -33 
Q 819 25 488 141 
L 488 750 
Q 750 597 1062 519 
Q 1375 441 1716 441 
Q 2309 441 2620 675 
Q 2931 909 2931 1356 
Q 2931 1769 2642 2001 
Q 2353 2234 1838 2234 
L 1294 2234 
L 1294 2753 
L 1863 2753 
Q 2328 2753 2575 2939 
Q 2822 3125 2822 3475 
Q 2822 3834 2567 4026 
Q 2313 4219 1838 4219 
Q 1578 4219 1281 4162 
Q 984 4106 628 3988 
L 628 4550 
Q 988 4650 1302 4700 
Q 1616 4750 1894 4750 
Q 2613 4750 3031 4423 
Q 3450 4097 3450 3541 
Q 3450 3153 3228 2886 
Q 3006 2619 2597 2516 
z
" transform="scale(0.015625)"/>
       </defs>
       <use xlink:href="#DejaVuSans-30"/>
       <use xlink:href="#DejaVuSans-2e" transform="translate(63.623047 0)"/>
       <use xlink:href="#DejaVuSans-33" transform="translate(95.410156 0)"/>
      </g>
     </g>
    </g>
    <g id="xtick_2">
     <g id="line2d_2">
      <g>
       <use xlink:href="#m6ba138c9f2" x="197.336127" y="450.72" style="stroke: #000000; stroke-width: 0.8"/>
      </g>
     </g>
    </g>
    <g id="xtick_3">
     <g id="line2d_3">
      <g>
       <use xlink:href="#m6ba138c9f2" x="297.923155" y="450.72" style="stroke: #000000; stroke-width: 0.8"/>
      </g>
     </g>
    </g>
    <g id="xtick_4">
     <g id="line2d_4">
      <g>
       <use xlink:href="#m6ba138c9f2" x="380.10874" y="450.72" style="stroke: #000000; stroke-width: 0.8"/>
      </g>
     </g>
    </g>
    <g id="xtick_5">
     <g id="line2d_5">
      <g>
       <use xlink:href="#m6ba138c9f2" x="449.595663" y="450.72" style="stroke: #000000; stroke-width: 0.8"/>
      </g>
     </g>
    </g>
    <g id="xtick_6">
     <g id="line2d_6">
      <g>
       <use xlink:href="#m6ba138c9f2" x="509.787973" y="450.72" style="stroke: #000000; stroke-width: 0.8"/>
      </g>
     </g>
    </g>
    <g id="xtick_7">
     <g id="line2d_7">
      <g>
       <use xlink:href="#m6ba138c9f2" x="562.881353" y="450.72" style="stroke: #000000; stroke-width: 0.8"/>
      </g>
     </g>
    </g>
    <g id="xtick_8">
     <g id="line2d_8">
      <g>
       <use xlink:href="#m6ba138c9f2" x="610.375" y="450.72" style="stroke: #000000; stroke-width: 0.8"/>
      </g>
     </g>
     <g id="text_2">
      <!-- 1 -->
      <g transform="translate(600.83125 480.515312) scale(0.3 -0.3)">
       <defs>
        <path id="DejaVuSans-31" d="M 794 531 
L 1825 531 
L 1825 4091 
L 703 3866 
L 703 4441 
L 1819 4666 
L 2450 4666 
L 2450 531 
L 3481 531 
L 3481 0 
L 794 0 
L 794 531 
z
" transform="scale(0.015625)"/>
       </defs>
       <use xlink:href="#DejaVuSans-31"/>
      </g>
     </g>
    </g>
   </g>
   <g id="matplotlib.axis_2">
    <g id="ytick_1">
     <g id="line2d_9">
      <defs>
       <path id="maafce2a806" d="M 0 0 
L -3.5 0 
" style="stroke: #000000; stroke-width: 0.8"/>
      </defs>
      <g>
       <use xlink:href="#maafce2a806" x="52.375" y="439.709622" style="stroke: #000000; stroke-width: 0.8"/>
      </g>
     </g>
     <g id="text_3">
      <!-- 2 -->
      <g transform="translate(26.2875 451.107279) scale(0.3 -0.3)">
       <defs>
        <path id="DejaVuSans-32" d="M 1228 531 
L 3431 531 
L 3431 0 
L 469 0 
L 469 531 
Q 828 903 1448 1529 
Q 2069 2156 2228 2338 
Q 2531 2678 2651 2914 
Q 2772 3150 2772 3378 
Q 2772 3750 2511 3984 
Q 2250 4219 1831 4219 
Q 1534 4219 1204 4116 
Q 875 4013 500 3803 
L 500 4441 
Q 881 4594 1212 4672 
Q 1544 4750 1819 4750 
Q 2544 4750 2975 4387 
Q 3406 4025 3406 3419 
Q 3406 3131 3298 2873 
Q 3191 2616 2906 2266 
Q 2828 2175 2409 1742 
Q 1991 1309 1228 531 
z
" transform="scale(0.015625)"/>
       </defs>
       <use xlink:href="#DejaVuSans-32"/>
      </g>
     </g>
    </g>
    <g id="ytick_2">
     <g id="line2d_10">
      <g>
       <use xlink:href="#maafce2a806" x="52.375" y="352.674386" style="stroke: #000000; stroke-width: 0.8"/>
      </g>
     </g>
    </g>
    <g id="ytick_3">
     <g id="line2d_11">
      <g>
       <use xlink:href="#maafce2a806" x="52.375" y="290.921903" style="stroke: #000000; stroke-width: 0.8"/>
      </g>
     </g>
    </g>
    <g id="ytick_4">
     <g id="line2d_12">
      <g>
       <use xlink:href="#maafce2a806" x="52.375" y="243.022956" style="stroke: #000000; stroke-width: 0.8"/>
      </g>
     </g>
    </g>
    <g id="ytick_5">
     <g id="line2d_13">
      <g>
       <use xlink:href="#maafce2a806" x="52.375" y="203.886666" style="stroke: #000000; stroke-width: 0.8"/>
      </g>
     </g>
    </g>
    <g id="ytick_6">
     <g id="line2d_14">
      <g>
       <use xlink:href="#maafce2a806" x="52.375" y="170.797405" style="stroke: #000000; stroke-width: 0.8"/>
      </g>
     </g>
    </g>
    <g id="ytick_7">
     <g id="line2d_15">
      <g>
       <use xlink:href="#maafce2a806" x="52.375" y="142.134183" style="stroke: #000000; stroke-width: 0.8"/>
      </g>
     </g>
    </g>
    <g id="ytick_8">
     <g id="line2d_16">
      <g>
       <use xlink:href="#maafce2a806" x="52.375" y="116.85143" style="stroke: #000000; stroke-width: 0.8"/>
      </g>
     </g>
    </g>
    <g id="ytick_9">
     <g id="line2d_17">
      <g>
       <use xlink:href="#maafce2a806" x="52.375" y="94.235236" style="stroke: #000000; stroke-width: 0.8"/>
      </g>
     </g>
     <g id="text_4">
      <!-- 10 -->
      <g transform="translate(7.2 105.632893) scale(0.3 -0.3)">
       <use xlink:href="#DejaVuSans-31"/>
       <use xlink:href="#DejaVuSans-30" transform="translate(63.623047 0)"/>
      </g>
     </g>
    </g>
   </g>
   <g id="LineCollection_1">
    <path d="M 250.429508 353.391099 
L 250.429508 336.817831 
" clip-path="url(#pe3f3a13618)" style="fill: none; stroke: #808080"/>
    <path d="M 356.987122 230.515226 
L 356.987122 214.897044 
" clip-path="url(#pe3f3a13618)" style="fill: none; stroke: #808080"/>
    <path d="M 260.336999 365.196427 
L 260.336999 351.960058 
" clip-path="url(#pe3f3a13618)" style="fill: none; stroke: #808080"/>
    <path d="M 297.923155 363.684764 
L 297.923155 342.201318 
" clip-path="url(#pe3f3a13618)" style="fill: none; stroke: #808080"/>
    <path d="M 137.143817 414.426869 
L 137.143817 363.684764 
" clip-path="url(#pe3f3a13618)" style="fill: none; stroke: #808080"/>
    <path d="M 162.193191 393.534823 
L 162.193191 349.831228 
" clip-path="url(#pe3f3a13618)" style="fill: none; stroke: #808080"/>
    <path d="M 349.008635 222.56412 
L 349.008635 150.33857 
" clip-path="url(#pe3f3a13618)" style="fill: none; stroke: #808080"/>
    <path d="M 313.865699 236.2616 
L 313.865699 218.696352 
" clip-path="url(#pe3f3a13618)" style="fill: none; stroke: #808080"/>
    <path d="M 270.03141 282.502969 
L 270.03141 266.595299 
" clip-path="url(#pe3f3a13618)" style="fill: none; stroke: #808080"/>
    <path d="M 219.329403 375.290579 
L 219.329403 352.674386 
" clip-path="url(#pe3f3a13618)" style="fill: none; stroke: #808080"/>
    <path d="M 340.886384 285.09859 
L 340.886384 275.897669 
" clip-path="url(#pe3f3a13618)" style="fill: none; stroke: #808080"/>
    <path d="M 306.849639 230.110597 
L 306.849639 216.788293 
" clip-path="url(#pe3f3a13618)" style="fill: none; stroke: #808080"/>
    <path d="M 315.602783 233.780008 
L 315.602783 219.464351 
" clip-path="url(#pe3f3a13618)" style="fill: none; stroke: #808080"/>
    <path d="M 296.116448 251.785613 
L 296.116448 234.604022 
" clip-path="url(#pe3f3a13618)" style="fill: none; stroke: #808080"/>
    <path d="M 324.189189 226.105718 
L 324.189189 207.858535 
" clip-path="url(#pe3f3a13618)" style="fill: none; stroke: #808080"/>
    <path d="M 321.630397 226.50286 
L 321.630397 206.044024 
" clip-path="url(#pe3f3a13618)" style="fill: none; stroke: #808080"/>
    <path d="M 344.152868 219.464351 
L 344.152868 189.363379 
" clip-path="url(#pe3f3a13618)" style="fill: none; stroke: #808080"/>
    <path d="M 468.511979 134.231869 
L 468.511979 33.020064 
" clip-path="url(#pe3f3a13618)" style="fill: none; stroke: #808080"/>
    <path d="M 492.558892 119.249838 
L 492.558892 14.477148 
" clip-path="url(#pe3f3a13618)" style="fill: none; stroke: #808080"/>
    <path d="M 197.336127 395.272933 
L 197.336127 349.831228 
" clip-path="url(#pe3f3a13618)" style="fill: none; stroke: #808080"/>
    <path d="M 449.595663 222.174192 
L 449.595663 193.073146 
" clip-path="url(#pe3f3a13618)" style="fill: none; stroke: #808080"/>
    <path d="M 208.466884 390.953767 
L 208.466884 346.329432 
" clip-path="url(#pe3f3a13618)" style="fill: none; stroke: #808080"/>
    <path d="M 364.826845 216.788293 
L 364.826845 146.197181 
" clip-path="url(#pe3f3a13618)" style="fill: none; stroke: #808080"/>
   </g>
   <g id="line2d_18">
    <path d="M 67.656895 462.325816 
L 215.737569 338.82085 
L 327.01536 243.022956 
L 416.18981 164.750377 
L 490.603259 98.571855 
L 554.455449 41.245411 
L 601.173945 -1 
" clip-path="url(#pe3f3a13618)" style="fill: none; stroke: #404040; stroke-linecap: square"/>
   </g>
   <g id="line2d_19">
    <defs>
     <path id="maafc929dca" d="M 0 4 
C 1.060812 4 2.078319 3.578535 2.828427 2.828427 
C 3.578535 2.078319 4 1.060812 4 0 
C 4 -1.060812 3.578535 -2.078319 2.828427 -2.828427 
C 2.078319 -3.578535 1.060812 -4 0 -4 
C -1.060812 -4 -2.078319 -3.578535 -2.828427 -2.828427 
C -3.578535 -2.078319 -4 -1.060812 -4 0 
C -4 1.060812 -3.578535 2.078319 -2.828427 2.828427 
C -2.078319 3.578535 -1.060812 4 0 4 
z
" style="stroke: #808080"/>
    </defs>
    <g clip-path="url(#pe3f3a13618)">
     <use xlink:href="#maafc929dca" x="250.429508" y="344.944554" style="fill: #808080; stroke: #808080"/>
     <use xlink:href="#maafc929dca" x="356.987122" y="222.56412" style="fill: #808080; stroke: #808080"/>
     <use xlink:href="#maafc929dca" x="260.336999" y="358.476234" style="fill: #808080; stroke: #808080"/>
     <use xlink:href="#maafc929dca" x="297.923155" y="352.674386" style="fill: #808080; stroke: #808080"/>
     <use xlink:href="#maafc929dca" x="137.143817" y="387.559936" style="fill: #808080; stroke: #808080"/>
     <use xlink:href="#maafc929dca" x="162.193191" y="370.572691" style="fill: #808080; stroke: #808080"/>
     <use xlink:href="#maafc929dca" x="349.008635" y="183.427831" style="fill: #808080; stroke: #808080"/>
     <use xlink:href="#maafc929dca" x="313.865699" y="227.299356" style="fill: #808080; stroke: #808080"/>
     <use xlink:href="#maafc929dca" x="270.03141" y="274.401807" style="fill: #808080; stroke: #808080"/>
     <use xlink:href="#maafc929dca" x="219.329403" y="363.684764" style="fill: #808080; stroke: #808080"/>
     <use xlink:href="#maafc929dca" x="340.886384" y="280.448835" style="fill: #808080; stroke: #808080"/>
     <use xlink:href="#maafc929dca" x="306.849639" y="223.346108" style="fill: #808080; stroke: #808080"/>
     <use xlink:href="#maafc929dca" x="315.602783" y="226.50286" style="fill: #808080; stroke: #808080"/>
     <use xlink:href="#maafc929dca" x="296.116448" y="243.022956" style="fill: #808080; stroke: #808080"/>
     <use xlink:href="#maafc929dca" x="324.189189" y="216.788293" style="fill: #808080; stroke: #808080"/>
     <use xlink:href="#maafc929dca" x="321.630397" y="216.029792" style="fill: #808080; stroke: #808080"/>
     <use xlink:href="#maafc929dca" x="344.152868" y="203.886666" style="fill: #808080; stroke: #808080"/>
     <use xlink:href="#maafc929dca" x="468.511979" y="77.715141" style="fill: #808080; stroke: #808080"/>
     <use xlink:href="#maafc929dca" x="492.558892" y="60.533549" style="fill: #808080; stroke: #808080"/>
     <use xlink:href="#maafc929dca" x="197.336127" y="371.351839" style="fill: #808080; stroke: #808080"/>
     <use xlink:href="#maafc929dca" x="449.595663" y="207.130889" style="fill: #808080; stroke: #808080"/>
     <use xlink:href="#maafc929dca" x="208.466884" y="367.484072" style="fill: #808080; stroke: #808080"/>
     <use xlink:href="#maafc929dca" x="364.826845" y="178.603913" style="fill: #808080; stroke: #808080"/>
    </g>
   </g>
   <g id="patch_3">
    <path d="M 52.375 450.72 
L 52.375 7.2 
" style="fill: none; stroke: #000000; stroke-width: 0.8; stroke-linejoin: miter; stroke-linecap: square"/>
   </g>
   <g id="patch_4">
    <path d="M 610.375 450.72 
L 610.375 7.2 
" style="fill: none; stroke: #000000; stroke-width: 0.8; stroke-linejoin: miter; stroke-linecap: square"/>
   </g>
   <g id="patch_5">
    <path d="M 52.375 450.72 
L 610.375 450.72 
" style="fill: none; stroke: #000000; stroke-width: 0.8; stroke-linejoin: miter; stroke-linecap: square"/>
   </g>
   <g id="patch_6">
    <path d="M 52.375 7.2 
L 610.375 7.2 
" style="fill: none; stroke: #000000; stroke-width: 0.8; stroke-linejoin: miter; stroke-linecap: square"/>
   </g>
  </g>
 </g>
 <defs>
  <clipPath id="pe3f3a13618">
   <rect x="52.375" y="7.2" width="558" height="443.52"/>
  </clipPath>
 </defs>
</svg>
