<?xml version="1.0" encoding="utf-8" standalone="no"?>
<!DOCTYPE svg PUBLIC "-//W3C//DTD SVG 1.1//EN"
  "http://www.w3.org/Graphics/SVG/1.1/DTD/svg11.dtd">
<svg xmlns:xlink="http://www.w3.org/1999/xlink" width="665.234375pt" height="557.95875pt" viewBox="0 0 665.234375 557.95875" xmlns="http://www.w3.org/2000/svg" version="1.1">
 <metadata>
  <rdf:RDF xmlns:dc="http://purl.org/dc/elements/1.1/" xmlns:cc="http://creativecommons.org/ns#" xmlns:rdf="http://www.w3.org/1999/02/22-rdf-syntax-ns#">
   <cc:Work>
    <dc:type rdf:resource="http://purl.org/dc/dcmitype/StillImage"/>
    <dc:date>2025-06-02T15:34:35.537369</dc:date>
    <dc:format>image/svg+xml</dc:format>
    <dc:creator>
     <cc:Agent>
      <dc:title>Matplotlib v3.10.3, https://matplotlib.org/</dc:title>
     </cc:Agent>
    </dc:creator>
   </cc:Work>
  </rdf:RDF>
 </metadata>
 <defs>
  <style type="text/css">*{stroke-linejoin: round; stroke-linecap: butt}</style>
 </defs>
 <g id="figure_1">
  <g id="patch_1">
   <path d="M 0 557.95875 
L 665.234375 557.95875 
L 665.234375 0 
L 0 0 
z
" style="fill: #ffffff"/>
  </g>
  <g id="axes_1">
   <g id="patch_2">
    <path d="M 100.034375 481.69 
L 658.034375 481.69 
L 658.034375 38.17 
L 100.034375 38.17 
z
" style="fill: #ffffff"/>
   </g>
   <g id="PathCollection_1">
    <defs>
     <path id="mc0fe56d9e0" d="M 0 -4.472136 
L -4.472136 4.472136 
L 4.472136 4.472136 
z
" style="stroke: #a9a9a9"/>
    </defs>
    <g clip-path="url(#p17f6c78c7e)">
     <use xlink:href="#mc0fe56d9e0" x="111.526012" y="121.524655" style="fill: #a9a9a9; stroke: #a9a9a9"/>
     <use xlink:href="#mc0fe56d9e0" x="231.351297" y="150.960516" style="fill: #a9a9a9; stroke: #a9a9a9"/>
     <use xlink:href="#mc0fe56d9e0" x="287.066882" y="200.422541" style="fill: #a9a9a9; stroke: #a9a9a9"/>
     <use xlink:href="#mc0fe56d9e0" x="323.7658" y="205.330026" style="fill: #a9a9a9; stroke: #a9a9a9"/>
     <use xlink:href="#mc0fe56d9e0" x="351.176583" y="210.465845" style="fill: #a9a9a9; stroke: #a9a9a9"/>
     <use xlink:href="#mc0fe56d9e0" x="373.06367" y="240.487386" style="fill: #a9a9a9; stroke: #a9a9a9"/>
     <use xlink:href="#mc0fe56d9e0" x="391.284205" y="304.00771" style="fill: #a9a9a9; stroke: #a9a9a9"/>
     <use xlink:href="#mc0fe56d9e0" x="406.892167" y="272.247548" style="fill: #a9a9a9; stroke: #a9a9a9"/>
     <use xlink:href="#mc0fe56d9e0" x="420.543671" y="348.771145" style="fill: #a9a9a9; stroke: #a9a9a9"/>
     <use xlink:href="#mc0fe56d9e0" x="432.675015" y="263.410816" style="fill: #a9a9a9; stroke: #a9a9a9"/>
     <use xlink:href="#mc0fe56d9e0" x="443.591085" y="348.771145" style="fill: #a9a9a9; stroke: #a9a9a9"/>
     <use xlink:href="#mc0fe56d9e0" x="453.513347" y="393.53458" style="fill: #a9a9a9; stroke: #a9a9a9"/>
     <use xlink:href="#mc0fe56d9e0" x="462.607752" y="331.752877" style="fill: #a9a9a9; stroke: #a9a9a9"/>
     <use xlink:href="#mc0fe56d9e0" x="471.001868" y="368.899484" style="fill: #a9a9a9; stroke: #a9a9a9"/>
     <use xlink:href="#mc0fe56d9e0" x="478.795874" y="393.53458" style="fill: #a9a9a9; stroke: #a9a9a9"/>
     <use xlink:href="#mc0fe56d9e0" x="486.06988" y="393.53458" style="fill: #a9a9a9; stroke: #a9a9a9"/>
     <use xlink:href="#mc0fe56d9e0" x="492.888955" y="470.058177" style="fill: #a9a9a9; stroke: #a9a9a9"/>
     <use xlink:href="#mc0fe56d9e0" x="499.30667" y="331.752877" style="fill: #a9a9a9; stroke: #a9a9a9"/>
     <use xlink:href="#mc0fe56d9e0" x="511.10949" y="470.058177" style="fill: #a9a9a9; stroke: #a9a9a9"/>
     <use xlink:href="#mc0fe56d9e0" x="516.56411" y="470.058177" style="fill: #a9a9a9; stroke: #a9a9a9"/>
     <use xlink:href="#mc0fe56d9e0" x="521.758886" y="425.294742" style="fill: #a9a9a9; stroke: #a9a9a9"/>
     <use xlink:href="#mc0fe56d9e0" x="526.717453" y="470.058177" style="fill: #a9a9a9; stroke: #a9a9a9"/>
     <use xlink:href="#mc0fe56d9e0" x="536.005587" y="470.058177" style="fill: #a9a9a9; stroke: #a9a9a9"/>
     <use xlink:href="#mc0fe56d9e0" x="540.368956" y="348.771145" style="fill: #a9a9a9; stroke: #a9a9a9"/>
     <use xlink:href="#mc0fe56d9e0" x="548.60454" y="470.058177" style="fill: #a9a9a9; stroke: #a9a9a9"/>
     <use xlink:href="#mc0fe56d9e0" x="559.897688" y="470.058177" style="fill: #a9a9a9; stroke: #a9a9a9"/>
     <use xlink:href="#mc0fe56d9e0" x="573.338632" y="393.53458" style="fill: #a9a9a9; stroke: #a9a9a9"/>
     <use xlink:href="#mc0fe56d9e0" x="579.485029" y="470.058177" style="fill: #a9a9a9; stroke: #a9a9a9"/>
     <use xlink:href="#mc0fe56d9e0" x="585.303458" y="470.058177" style="fill: #a9a9a9; stroke: #a9a9a9"/>
     <use xlink:href="#mc0fe56d9e0" x="598.621159" y="470.058177" style="fill: #a9a9a9; stroke: #a9a9a9"/>
     <use xlink:href="#mc0fe56d9e0" x="608.215885" y="470.058177" style="fill: #a9a9a9; stroke: #a9a9a9"/>
    </g>
   </g>
   <g id="PathCollection_2">
    <defs>
     <path id="m77b4fd7f41" d="M -0 4.472136 
L 4.472136 -4.472136 
L -4.472136 -4.472136 
z
" style="stroke: #a9a9a9"/>
    </defs>
    <g clip-path="url(#p17f6c78c7e)">
     <use xlink:href="#m77b4fd7f41" x="111.526012" y="121.524655" style="fill: #a9a9a9; stroke: #a9a9a9"/>
     <use xlink:href="#m77b4fd7f41" x="231.351297" y="191.217194" style="fill: #a9a9a9; stroke: #a9a9a9"/>
     <use xlink:href="#m77b4fd7f41" x="287.066882" y="191.217194" style="fill: #a9a9a9; stroke: #a9a9a9"/>
     <use xlink:href="#m77b4fd7f41" x="323.7658" y="247.612452" style="fill: #a9a9a9; stroke: #a9a9a9"/>
     <use xlink:href="#m77b4fd7f41" x="351.176583" y="233.794414" style="fill: #a9a9a9; stroke: #a9a9a9"/>
     <use xlink:href="#m77b4fd7f41" x="373.06367" y="233.794414" style="fill: #a9a9a9; stroke: #a9a9a9"/>
     <use xlink:href="#m77b4fd7f41" x="391.284205" y="281.853623" style="fill: #a9a9a9; stroke: #a9a9a9"/>
     <use xlink:href="#m77b4fd7f41" x="406.892167" y="263.410816" style="fill: #a9a9a9; stroke: #a9a9a9"/>
     <use xlink:href="#m77b4fd7f41" x="420.543671" y="292.375887" style="fill: #a9a9a9; stroke: #a9a9a9"/>
     <use xlink:href="#m77b4fd7f41" x="432.675015" y="304.00771" style="fill: #a9a9a9; stroke: #a9a9a9"/>
     <use xlink:href="#m77b4fd7f41" x="443.591085" y="317.010983" style="fill: #a9a9a9; stroke: #a9a9a9"/>
     <use xlink:href="#m77b4fd7f41" x="453.513347" y="304.00771" style="fill: #a9a9a9; stroke: #a9a9a9"/>
     <use xlink:href="#m77b4fd7f41" x="462.607752" y="304.00771" style="fill: #a9a9a9; stroke: #a9a9a9"/>
     <use xlink:href="#m77b4fd7f41" x="471.001868" y="425.294742" style="fill: #a9a9a9; stroke: #a9a9a9"/>
     <use xlink:href="#m77b4fd7f41" x="478.795874" y="393.53458" style="fill: #a9a9a9; stroke: #a9a9a9"/>
     <use xlink:href="#m77b4fd7f41" x="486.06988" y="292.375887" style="fill: #a9a9a9; stroke: #a9a9a9"/>
     <use xlink:href="#m77b4fd7f41" x="492.888955" y="425.294742" style="fill: #a9a9a9; stroke: #a9a9a9"/>
     <use xlink:href="#m77b4fd7f41" x="499.30667" y="470.058177" style="fill: #a9a9a9; stroke: #a9a9a9"/>
     <use xlink:href="#m77b4fd7f41" x="505.367655" y="393.53458" style="fill: #a9a9a9; stroke: #a9a9a9"/>
     <use xlink:href="#m77b4fd7f41" x="511.10949" y="393.53458" style="fill: #a9a9a9; stroke: #a9a9a9"/>
     <use xlink:href="#m77b4fd7f41" x="516.56411" y="470.058177" style="fill: #a9a9a9; stroke: #a9a9a9"/>
     <use xlink:href="#m77b4fd7f41" x="521.758886" y="393.53458" style="fill: #a9a9a9; stroke: #a9a9a9"/>
     <use xlink:href="#m77b4fd7f41" x="526.717453" y="470.058177" style="fill: #a9a9a9; stroke: #a9a9a9"/>
     <use xlink:href="#m77b4fd7f41" x="531.46036" y="470.058177" style="fill: #a9a9a9; stroke: #a9a9a9"/>
     <use xlink:href="#m77b4fd7f41" x="536.005587" y="470.058177" style="fill: #a9a9a9; stroke: #a9a9a9"/>
     <use xlink:href="#m77b4fd7f41" x="540.368956" y="393.53458" style="fill: #a9a9a9; stroke: #a9a9a9"/>
     <use xlink:href="#m77b4fd7f41" x="548.60454" y="470.058177" style="fill: #a9a9a9; stroke: #a9a9a9"/>
     <use xlink:href="#m77b4fd7f41" x="552.5003" y="393.53458" style="fill: #a9a9a9; stroke: #a9a9a9"/>
     <use xlink:href="#m77b4fd7f41" x="556.261696" y="470.058177" style="fill: #a9a9a9; stroke: #a9a9a9"/>
     <use xlink:href="#m77b4fd7f41" x="563.41637" y="470.058177" style="fill: #a9a9a9; stroke: #a9a9a9"/>
     <use xlink:href="#m77b4fd7f41" x="573.338632" y="470.058177" style="fill: #a9a9a9; stroke: #a9a9a9"/>
     <use xlink:href="#m77b4fd7f41" x="576.455121" y="470.058177" style="fill: #a9a9a9; stroke: #a9a9a9"/>
     <use xlink:href="#m77b4fd7f41" x="579.485029" y="470.058177" style="fill: #a9a9a9; stroke: #a9a9a9"/>
     <use xlink:href="#m77b4fd7f41" x="588.100269" y="470.058177" style="fill: #a9a9a9; stroke: #a9a9a9"/>
     <use xlink:href="#m77b4fd7f41" x="593.487521" y="470.058177" style="fill: #a9a9a9; stroke: #a9a9a9"/>
     <use xlink:href="#m77b4fd7f41" x="596.084541" y="470.058177" style="fill: #a9a9a9; stroke: #a9a9a9"/>
     <use xlink:href="#m77b4fd7f41" x="619.131955" y="470.058177" style="fill: #a9a9a9; stroke: #a9a9a9"/>
    </g>
   </g>
   <g id="matplotlib.axis_1">
    <g id="xtick_1">
     <g id="line2d_1">
      <defs>
       <path id="m5738f49de4" d="M 0 0 
L 0 3.5 
" style="stroke: #000000; stroke-width: 0.8"/>
      </defs>
      <g>
       <use xlink:href="#m5738f49de4" x="111.526012" y="481.69" style="stroke: #000000; stroke-width: 0.8"/>
      </g>
     </g>
     <g id="text_1">
      <!-- $\mathdefault{10^{0}}$ -->
      <g transform="translate(85.126012 511.485313) scale(0.3 -0.3)">
       <defs>
        <path id="DejaVuSans-31" d="M 794 531 
L 1825 531 
L 1825 4091 
L 703 3866 
L 703 4441 
L 1819 4666 
L 2450 4666 
L 2450 531 
L 3481 531 
L 3481 0 
L 794 0 
L 794 531 
z
" transform="scale(0.015625)"/>
        <path id="DejaVuSans-30" d="M 2034 4250 
Q 1547 4250 1301 3770 
Q 1056 3291 1056 2328 
Q 1056 1369 1301 889 
Q 1547 409 2034 409 
Q 2525 409 2770 889 
Q 3016 1369 3016 2328 
Q 3016 3291 2770 3770 
Q 2525 4250 2034 4250 
z
M 2034 4750 
Q 2819 4750 3233 4129 
Q 3647 3509 3647 2328 
Q 3647 1150 3233 529 
Q 2819 -91 2034 -91 
Q 1250 -91 836 529 
Q 422 1150 422 2328 
Q 422 3509 836 4129 
Q 1250 4750 2034 4750 
z
" transform="scale(0.015625)"/>
       </defs>
       <use xlink:href="#DejaVuSans-31" transform="translate(0 0.765625)"/>
       <use xlink:href="#DejaVuSans-30" transform="translate(63.623047 0.765625)"/>
       <use xlink:href="#DejaVuSans-30" transform="translate(128.203125 39.046875) scale(0.7)"/>
      </g>
     </g>
    </g>
    <g id="xtick_2">
     <g id="line2d_2">
      <g>
       <use xlink:href="#m5738f49de4" x="362.66822" y="481.69" style="stroke: #000000; stroke-width: 0.8"/>
      </g>
     </g>
     <g id="text_2">
      <!-- $\mathdefault{10^{1}}$ -->
      <g transform="translate(336.26822 511.485313) scale(0.3 -0.3)">
       <use xlink:href="#DejaVuSans-31" transform="translate(0 0.684375)"/>
       <use xlink:href="#DejaVuSans-30" transform="translate(63.623047 0.684375)"/>
       <use xlink:href="#DejaVuSans-31" transform="translate(128.203125 38.965625) scale(0.7)"/>
      </g>
     </g>
    </g>
    <g id="xtick_3">
     <g id="line2d_3">
      <g>
       <use xlink:href="#m5738f49de4" x="613.810427" y="481.69" style="stroke: #000000; stroke-width: 0.8"/>
      </g>
     </g>
     <g id="text_3">
      <!-- $\mathdefault{10^{2}}$ -->
      <g transform="translate(587.410427 511.485313) scale(0.3 -0.3)">
       <defs>
        <path id="DejaVuSans-32" d="M 1228 531 
L 3431 531 
L 3431 0 
L 469 0 
L 469 531 
Q 828 903 1448 1529 
Q 2069 2156 2228 2338 
Q 2531 2678 2651 2914 
Q 2772 3150 2772 3378 
Q 2772 3750 2511 3984 
Q 2250 4219 1831 4219 
Q 1534 4219 1204 4116 
Q 875 4013 500 3803 
L 500 4441 
Q 881 4594 1212 4672 
Q 1544 4750 1819 4750 
Q 2544 4750 2975 4387 
Q 3406 4025 3406 3419 
Q 3406 3131 3298 2873 
Q 3191 2616 2906 2266 
Q 2828 2175 2409 1742 
Q 1991 1309 1228 531 
z
" transform="scale(0.015625)"/>
       </defs>
       <use xlink:href="#DejaVuSans-31" transform="translate(0 0.765625)"/>
       <use xlink:href="#DejaVuSans-30" transform="translate(63.623047 0.765625)"/>
       <use xlink:href="#DejaVuSans-32" transform="translate(128.203125 39.046875) scale(0.7)"/>
      </g>
     </g>
    </g>
    <g id="xtick_4">
     <g id="line2d_4">
      <defs>
       <path id="mfaac791d59" d="M 0 0 
L 0 2 
" style="stroke: #000000; stroke-width: 0.6"/>
      </defs>
      <g>
       <use xlink:href="#mfaac791d59" x="100.034375" y="481.69" style="stroke: #000000; stroke-width: 0.6"/>
      </g>
     </g>
    </g>
    <g id="xtick_5">
     <g id="line2d_5">
      <g>
       <use xlink:href="#mfaac791d59" x="187.12735" y="481.69" style="stroke: #000000; stroke-width: 0.6"/>
      </g>
     </g>
    </g>
    <g id="xtick_6">
     <g id="line2d_6">
      <g>
       <use xlink:href="#mfaac791d59" x="231.351297" y="481.69" style="stroke: #000000; stroke-width: 0.6"/>
      </g>
     </g>
    </g>
    <g id="xtick_7">
     <g id="line2d_7">
      <g>
       <use xlink:href="#mfaac791d59" x="262.728688" y="481.69" style="stroke: #000000; stroke-width: 0.6"/>
      </g>
     </g>
    </g>
    <g id="xtick_8">
     <g id="line2d_8">
      <g>
       <use xlink:href="#mfaac791d59" x="287.066882" y="481.69" style="stroke: #000000; stroke-width: 0.6"/>
      </g>
     </g>
    </g>
    <g id="xtick_9">
     <g id="line2d_9">
      <g>
       <use xlink:href="#mfaac791d59" x="306.952635" y="481.69" style="stroke: #000000; stroke-width: 0.6"/>
      </g>
     </g>
    </g>
    <g id="xtick_10">
     <g id="line2d_10">
      <g>
       <use xlink:href="#mfaac791d59" x="323.7658" y="481.69" style="stroke: #000000; stroke-width: 0.6"/>
      </g>
     </g>
    </g>
    <g id="xtick_11">
     <g id="line2d_11">
      <g>
       <use xlink:href="#mfaac791d59" x="338.330025" y="481.69" style="stroke: #000000; stroke-width: 0.6"/>
      </g>
     </g>
    </g>
    <g id="xtick_12">
     <g id="line2d_12">
      <g>
       <use xlink:href="#mfaac791d59" x="351.176583" y="481.69" style="stroke: #000000; stroke-width: 0.6"/>
      </g>
     </g>
    </g>
    <g id="xtick_13">
     <g id="line2d_13">
      <g>
       <use xlink:href="#mfaac791d59" x="438.269557" y="481.69" style="stroke: #000000; stroke-width: 0.6"/>
      </g>
     </g>
    </g>
    <g id="xtick_14">
     <g id="line2d_14">
      <g>
       <use xlink:href="#mfaac791d59" x="482.493505" y="481.69" style="stroke: #000000; stroke-width: 0.6"/>
      </g>
     </g>
    </g>
    <g id="xtick_15">
     <g id="line2d_15">
      <g>
       <use xlink:href="#mfaac791d59" x="513.870895" y="481.69" style="stroke: #000000; stroke-width: 0.6"/>
      </g>
     </g>
    </g>
    <g id="xtick_16">
     <g id="line2d_16">
      <g>
       <use xlink:href="#mfaac791d59" x="538.20909" y="481.69" style="stroke: #000000; stroke-width: 0.6"/>
      </g>
     </g>
    </g>
    <g id="xtick_17">
     <g id="line2d_17">
      <g>
       <use xlink:href="#mfaac791d59" x="558.094843" y="481.69" style="stroke: #000000; stroke-width: 0.6"/>
      </g>
     </g>
    </g>
    <g id="xtick_18">
     <g id="line2d_18">
      <g>
       <use xlink:href="#mfaac791d59" x="574.908007" y="481.69" style="stroke: #000000; stroke-width: 0.6"/>
      </g>
     </g>
    </g>
    <g id="xtick_19">
     <g id="line2d_19">
      <g>
       <use xlink:href="#mfaac791d59" x="589.472233" y="481.69" style="stroke: #000000; stroke-width: 0.6"/>
      </g>
     </g>
    </g>
    <g id="xtick_20">
     <g id="line2d_20">
      <g>
       <use xlink:href="#mfaac791d59" x="602.31879" y="481.69" style="stroke: #000000; stroke-width: 0.6"/>
      </g>
     </g>
    </g>
    <g id="text_4">
     <!-- $\mathrm{k}$ -->
     <g transform="translate(370.334375 544.519688) scale(0.3 -0.3)">
      <defs>
       <path id="DejaVuSans-6b" d="M 581 4863 
L 1159 4863 
L 1159 1991 
L 2875 3500 
L 3609 3500 
L 1753 1863 
L 3688 0 
L 2938 0 
L 1159 1709 
L 1159 0 
L 581 0 
L 581 4863 
z
" transform="scale(0.015625)"/>
      </defs>
      <use xlink:href="#DejaVuSans-6b" transform="translate(0 0.015625)"/>
     </g>
    </g>
   </g>
   <g id="matplotlib.axis_2">
    <g id="ytick_1">
     <g id="line2d_21">
      <defs>
       <path id="m0d2b6ac0b7" d="M 0 0 
L -3.5 0 
" style="stroke: #000000; stroke-width: 0.8"/>
      </defs>
      <g>
       <use xlink:href="#m0d2b6ac0b7" x="100.034375" y="470.058177" style="stroke: #000000; stroke-width: 0.8"/>
      </g>
     </g>
     <g id="text_5">
      <!-- $\mathdefault{10^{0}}$ -->
      <g transform="translate(40.234375 481.455833) scale(0.3 -0.3)">
       <use xlink:href="#DejaVuSans-31" transform="translate(0 0.765625)"/>
       <use xlink:href="#DejaVuSans-30" transform="translate(63.623047 0.765625)"/>
       <use xlink:href="#DejaVuSans-30" transform="translate(128.203125 39.046875) scale(0.7)"/>
      </g>
     </g>
    </g>
    <g id="ytick_2">
     <g id="line2d_22">
      <g>
       <use xlink:href="#m0d2b6ac0b7" x="100.034375" y="215.85229" style="stroke: #000000; stroke-width: 0.8"/>
      </g>
     </g>
     <g id="text_6">
      <!-- $\mathdefault{10^{1}}$ -->
      <g transform="translate(40.234375 227.249946) scale(0.3 -0.3)">
       <use xlink:href="#DejaVuSans-31" transform="translate(0 0.684375)"/>
       <use xlink:href="#DejaVuSans-30" transform="translate(63.623047 0.684375)"/>
       <use xlink:href="#DejaVuSans-31" transform="translate(128.203125 38.965625) scale(0.7)"/>
      </g>
     </g>
    </g>
    <g id="ytick_3">
     <g id="line2d_23">
      <defs>
       <path id="m6aad7a9ed2" d="M 0 0 
L -2 0 
" style="stroke: #000000; stroke-width: 0.6"/>
      </defs>
      <g>
       <use xlink:href="#m6aad7a9ed2" x="100.034375" y="481.69" style="stroke: #000000; stroke-width: 0.6"/>
      </g>
     </g>
    </g>
    <g id="ytick_4">
     <g id="line2d_24">
      <g>
       <use xlink:href="#m6aad7a9ed2" x="100.034375" y="393.53458" style="stroke: #000000; stroke-width: 0.6"/>
      </g>
     </g>
    </g>
    <g id="ytick_5">
     <g id="line2d_25">
      <g>
       <use xlink:href="#m6aad7a9ed2" x="100.034375" y="348.771145" style="stroke: #000000; stroke-width: 0.6"/>
      </g>
     </g>
    </g>
    <g id="ytick_6">
     <g id="line2d_26">
      <g>
       <use xlink:href="#m6aad7a9ed2" x="100.034375" y="317.010983" style="stroke: #000000; stroke-width: 0.6"/>
      </g>
     </g>
    </g>
    <g id="ytick_7">
     <g id="line2d_27">
      <g>
       <use xlink:href="#m6aad7a9ed2" x="100.034375" y="292.375887" style="stroke: #000000; stroke-width: 0.6"/>
      </g>
     </g>
    </g>
    <g id="ytick_8">
     <g id="line2d_28">
      <g>
       <use xlink:href="#m6aad7a9ed2" x="100.034375" y="272.247548" style="stroke: #000000; stroke-width: 0.6"/>
      </g>
     </g>
    </g>
    <g id="ytick_9">
     <g id="line2d_29">
      <g>
       <use xlink:href="#m6aad7a9ed2" x="100.034375" y="255.22928" style="stroke: #000000; stroke-width: 0.6"/>
      </g>
     </g>
    </g>
    <g id="ytick_10">
     <g id="line2d_30">
      <g>
       <use xlink:href="#m6aad7a9ed2" x="100.034375" y="240.487386" style="stroke: #000000; stroke-width: 0.6"/>
      </g>
     </g>
    </g>
    <g id="ytick_11">
     <g id="line2d_31">
      <g>
       <use xlink:href="#m6aad7a9ed2" x="100.034375" y="227.484113" style="stroke: #000000; stroke-width: 0.6"/>
      </g>
     </g>
    </g>
    <g id="ytick_12">
     <g id="line2d_32">
      <g>
       <use xlink:href="#m6aad7a9ed2" x="100.034375" y="139.328693" style="stroke: #000000; stroke-width: 0.6"/>
      </g>
     </g>
    </g>
    <g id="ytick_13">
     <g id="line2d_33">
      <g>
       <use xlink:href="#m6aad7a9ed2" x="100.034375" y="94.565258" style="stroke: #000000; stroke-width: 0.6"/>
      </g>
     </g>
    </g>
    <g id="ytick_14">
     <g id="line2d_34">
      <g>
       <use xlink:href="#m6aad7a9ed2" x="100.034375" y="62.805096" style="stroke: #000000; stroke-width: 0.6"/>
      </g>
     </g>
    </g>
    <g id="ytick_15">
     <g id="line2d_35">
      <g>
       <use xlink:href="#m6aad7a9ed2" x="100.034375" y="38.17" style="stroke: #000000; stroke-width: 0.6"/>
      </g>
     </g>
    </g>
    <g id="text_7">
     <!-- $\mathrm{N}( \mathrm{k} )$ -->
     <g transform="translate(29.995312 291.58) rotate(-90) scale(0.3 -0.3)">
      <defs>
       <path id="DejaVuSans-4e" d="M 628 4666 
L 1478 4666 
L 3547 763 
L 3547 4666 
L 4159 4666 
L 4159 0 
L 3309 0 
L 1241 3903 
L 1241 0 
L 628 0 
L 628 4666 
z
" transform="scale(0.015625)"/>
       <path id="DejaVuSans-28" d="M 1984 4856 
Q 1566 4138 1362 3434 
Q 1159 2731 1159 2009 
Q 1159 1288 1364 580 
Q 1569 -128 1984 -844 
L 1484 -844 
Q 1016 -109 783 600 
Q 550 1309 550 2009 
Q 550 2706 781 3412 
Q 1013 4119 1484 4856 
L 1984 4856 
z
" transform="scale(0.015625)"/>
       <path id="DejaVuSans-29" d="M 513 4856 
L 1013 4856 
Q 1481 4119 1714 3412 
Q 1947 2706 1947 2009 
Q 1947 1309 1714 600 
Q 1481 -109 1013 -844 
L 513 -844 
Q 928 -128 1133 580 
Q 1338 1288 1338 2009 
Q 1338 2731 1133 3434 
Q 928 4138 513 4856 
z
" transform="scale(0.015625)"/>
      </defs>
      <use xlink:href="#DejaVuSans-4e" transform="translate(0 0.015625)"/>
      <use xlink:href="#DejaVuSans-28" transform="translate(74.804688 0.015625)"/>
      <use xlink:href="#DejaVuSans-6b" transform="translate(113.818359 0.015625)"/>
      <use xlink:href="#DejaVuSans-29" transform="translate(171.728516 0.015625)"/>
     </g>
    </g>
   </g>
   <g id="line2d_36">
    <path d="M 111.526012 99.015509 
L 136.640233 105.775614 
L 161.754454 115.084287 
L 186.868674 127.102635 
L 211.982895 141.729609 
L 237.097116 158.631233 
L 262.211337 177.358006 
L 287.325558 197.470069 
L 312.439778 218.603918 
L 337.553999 240.484802 
L 362.66822 262.914104 
L 387.782441 285.75032 
L 412.896661 308.892214 
L 438.010882 332.266441 
L 463.125103 355.81907 
L 488.239324 379.50987 
L 513.353544 403.308438 
L 538.467765 427.191545 
L 563.581986 451.141281 
L 588.696207 475.158387 
L 613.810427 505.891302 
L 620.513917 558.95875 
" clip-path="url(#p17f6c78c7e)" style="fill: none; stroke: #666666; stroke-width: 1.5; stroke-linecap: square"/>
   </g>
   <g id="line2d_37">
    <path d="M 111.526012 112.941253 
L 136.640233 120.390736 
L 161.754454 130.084119 
L 186.868674 142.056554 
L 211.982895 156.139779 
L 237.097116 172.019609 
L 262.211337 189.334383 
L 287.325558 207.752453 
L 312.439778 227.00431 
L 337.553999 246.884481 
L 362.66822 267.240952 
L 387.782441 287.962016 
L 412.896661 308.965062 
L 438.010882 330.188282 
L 463.125103 351.584836 
L 488.239324 373.118792 
L 513.353544 394.762289 
L 538.467765 416.493523 
L 563.581986 438.295296 
L 588.696207 460.153955 
L 613.810427 482.058662 
L 638.924648 504.564893 
L 651.40653 558.95875 
" clip-path="url(#p17f6c78c7e)" style="fill: none; stroke: #a9a9a9; stroke-width: 1.5; stroke-linecap: square"/>
   </g>
   <g id="patch_3">
    <path d="M 100.034375 481.69 
L 100.034375 38.17 
" style="fill: none; stroke: #000000; stroke-width: 0.8; stroke-linejoin: miter; stroke-linecap: square"/>
   </g>
   <g id="patch_4">
    <path d="M 658.034375 481.69 
L 658.034375 38.17 
" style="fill: none; stroke: #000000; stroke-width: 0.8; stroke-linejoin: miter; stroke-linecap: square"/>
   </g>
   <g id="patch_5">
    <path d="M 100.034375 481.69 
L 658.034375 481.69 
" style="fill: none; stroke: #000000; stroke-width: 0.8; stroke-linejoin: miter; stroke-linecap: square"/>
   </g>
   <g id="patch_6">
    <path d="M 100.034375 38.17 
L 658.034375 38.17 
" style="fill: none; stroke: #000000; stroke-width: 0.8; stroke-linejoin: miter; stroke-linecap: square"/>
   </g>
   <g id="text_8">
    <!-- Anaheim -->
    <g transform="translate(308.129375 31.515) scale(0.32 -0.32)">
     <defs>
      <path id="DejaVuSans-41" d="M 2188 4044 
L 1331 1722 
L 3047 1722 
L 2188 4044 
z
M 1831 4666 
L 2547 4666 
L 4325 0 
L 3669 0 
L 3244 1197 
L 1141 1197 
L 716 0 
L 50 0 
L 1831 4666 
z
" transform="scale(0.015625)"/>
      <path id="DejaVuSans-6e" d="M 3513 2113 
L 3513 0 
L 2938 0 
L 2938 2094 
Q 2938 2591 2744 2837 
Q 2550 3084 2163 3084 
Q 1697 3084 1428 2787 
Q 1159 2491 1159 1978 
L 1159 0 
L 581 0 
L 581 3500 
L 1159 3500 
L 1159 2956 
Q 1366 3272 1645 3428 
Q 1925 3584 2291 3584 
Q 2894 3584 3203 3211 
Q 3513 2838 3513 2113 
z
" transform="scale(0.015625)"/>
      <path id="DejaVuSans-61" d="M 2194 1759 
Q 1497 1759 1228 1600 
Q 959 1441 959 1056 
Q 959 750 1161 570 
Q 1363 391 1709 391 
Q 2188 391 2477 730 
Q 2766 1069 2766 1631 
L 2766 1759 
L 2194 1759 
z
M 3341 1997 
L 3341 0 
L 2766 0 
L 2766 531 
Q 2569 213 2275 61 
Q 1981 -91 1556 -91 
Q 1019 -91 701 211 
Q 384 513 384 1019 
Q 384 1609 779 1909 
Q 1175 2209 1959 2209 
L 2766 2209 
L 2766 2266 
Q 2766 2663 2505 2880 
Q 2244 3097 1772 3097 
Q 1472 3097 1187 3025 
Q 903 2953 641 2809 
L 641 3341 
Q 956 3463 1253 3523 
Q 1550 3584 1831 3584 
Q 2591 3584 2966 3190 
Q 3341 2797 3341 1997 
z
" transform="scale(0.015625)"/>
      <path id="DejaVuSans-68" d="M 3513 2113 
L 3513 0 
L 2938 0 
L 2938 2094 
Q 2938 2591 2744 2837 
Q 2550 3084 2163 3084 
Q 1697 3084 1428 2787 
Q 1159 2491 1159 1978 
L 1159 0 
L 581 0 
L 581 4863 
L 1159 4863 
L 1159 2956 
Q 1366 3272 1645 3428 
Q 1925 3584 2291 3584 
Q 2894 3584 3203 3211 
Q 3513 2838 3513 2113 
z
" transform="scale(0.015625)"/>
      <path id="DejaVuSans-65" d="M 3597 1894 
L 3597 1613 
L 953 1613 
Q 991 1019 1311 708 
Q 1631 397 2203 397 
Q 2534 397 2845 478 
Q 3156 559 3463 722 
L 3463 178 
Q 3153 47 2828 -22 
Q 2503 -91 2169 -91 
Q 1331 -91 842 396 
Q 353 884 353 1716 
Q 353 2575 817 3079 
Q 1281 3584 2069 3584 
Q 2775 3584 3186 3129 
Q 3597 2675 3597 1894 
z
M 3022 2063 
Q 3016 2534 2758 2815 
Q 2500 3097 2075 3097 
Q 1594 3097 1305 2825 
Q 1016 2553 972 2059 
L 3022 2063 
z
" transform="scale(0.015625)"/>
      <path id="DejaVuSans-69" d="M 603 3500 
L 1178 3500 
L 1178 0 
L 603 0 
L 603 3500 
z
M 603 4863 
L 1178 4863 
L 1178 4134 
L 603 4134 
L 603 4863 
z
" transform="scale(0.015625)"/>
      <path id="DejaVuSans-6d" d="M 3328 2828 
Q 3544 3216 3844 3400 
Q 4144 3584 4550 3584 
Q 5097 3584 5394 3201 
Q 5691 2819 5691 2113 
L 5691 0 
L 5113 0 
L 5113 2094 
Q 5113 2597 4934 2840 
Q 4756 3084 4391 3084 
Q 3944 3084 3684 2787 
Q 3425 2491 3425 1978 
L 3425 0 
L 2847 0 
L 2847 2094 
Q 2847 2600 2669 2842 
Q 2491 3084 2119 3084 
Q 1678 3084 1418 2786 
Q 1159 2488 1159 1978 
L 1159 0 
L 581 0 
L 581 3500 
L 1159 3500 
L 1159 2956 
Q 1356 3278 1631 3431 
Q 1906 3584 2284 3584 
Q 2666 3584 2933 3390 
Q 3200 3197 3328 2828 
z
" transform="scale(0.015625)"/>
     </defs>
     <use xlink:href="#DejaVuSans-41"/>
     <use xlink:href="#DejaVuSans-6e" transform="translate(68.408203 0)"/>
     <use xlink:href="#DejaVuSans-61" transform="translate(131.787109 0)"/>
     <use xlink:href="#DejaVuSans-68" transform="translate(193.066406 0)"/>
     <use xlink:href="#DejaVuSans-65" transform="translate(256.445312 0)"/>
     <use xlink:href="#DejaVuSans-69" transform="translate(317.96875 0)"/>
     <use xlink:href="#DejaVuSans-6d" transform="translate(345.751953 0)"/>
    </g>
   </g>
   <g id="PathCollection_3">
    <defs>
     <path id="m6bd2819c40" d="M 0 4.472136 
C 1.186024 4.472136 2.323632 4.000923 3.162278 3.162278 
C 4.000923 2.323632 4.472136 1.186024 4.472136 0 
C 4.472136 -1.186024 4.000923 -2.323632 3.162278 -3.162278 
C 2.323632 -4.000923 1.186024 -4.472136 0 -4.472136 
C -1.186024 -4.472136 -2.323632 -4.000923 -3.162278 -3.162278 
C -4.000923 -2.323632 -4.472136 -1.186024 -4.472136 0 
C -4.472136 1.186024 -4.000923 2.323632 -3.162278 3.162278 
C -2.323632 4.000923 -1.186024 4.472136 0 4.472136 
z
" style="stroke: #666666"/>
    </defs>
    <g clip-path="url(#p17f6c78c7e)">
     <use xlink:href="#m6bd2819c40" x="111.526012" y="90.550262" style="fill: #666666; stroke: #666666"/>
     <use xlink:href="#m6bd2819c40" x="231.351297" y="155.837028" style="fill: #666666; stroke: #666666"/>
     <use xlink:href="#m6bd2819c40" x="287.066882" y="215.85229" style="fill: #666666; stroke: #666666"/>
     <use xlink:href="#m6bd2819c40" x="323.7658" y="179.585371" style="fill: #666666; stroke: #666666"/>
     <use xlink:href="#m6bd2819c40" x="351.176583" y="209.883257" style="fill: #666666; stroke: #666666"/>
     <use xlink:href="#m6bd2819c40" x="373.06367" y="215.85229" style="fill: #666666; stroke: #666666"/>
     <use xlink:href="#m6bd2819c40" x="391.284205" y="292.375887" style="fill: #666666; stroke: #666666"/>
     <use xlink:href="#m6bd2819c40" x="406.892167" y="280.744063" style="fill: #666666; stroke: #666666"/>
     <use xlink:href="#m6bd2819c40" x="420.543671" y="260.615724" style="fill: #666666; stroke: #666666"/>
     <use xlink:href="#m6bd2819c40" x="432.675015" y="292.375887" style="fill: #666666; stroke: #666666"/>
     <use xlink:href="#m6bd2819c40" x="443.591085" y="320.121053" style="fill: #666666; stroke: #666666"/>
     <use xlink:href="#m6bd2819c40" x="453.513347" y="381.902756" style="fill: #666666; stroke: #666666"/>
     <use xlink:href="#m6bd2819c40" x="462.607752" y="357.26766" style="fill: #666666; stroke: #666666"/>
     <use xlink:href="#m6bd2819c40" x="471.001868" y="413.662918" style="fill: #666666; stroke: #666666"/>
     <use xlink:href="#m6bd2819c40" x="478.795874" y="413.662918" style="fill: #666666; stroke: #666666"/>
     <use xlink:href="#m6bd2819c40" x="486.06988" y="458.426353" style="fill: #666666; stroke: #666666"/>
     <use xlink:href="#m6bd2819c40" x="492.888955" y="381.902756" style="fill: #666666; stroke: #666666"/>
     <use xlink:href="#m6bd2819c40" x="499.30667" y="357.26766" style="fill: #666666; stroke: #666666"/>
     <use xlink:href="#m6bd2819c40" x="505.367655" y="458.426353" style="fill: #666666; stroke: #666666"/>
     <use xlink:href="#m6bd2819c40" x="511.10949" y="413.662918" style="fill: #666666; stroke: #666666"/>
     <use xlink:href="#m6bd2819c40" x="516.56411" y="458.426353" style="fill: #666666; stroke: #666666"/>
     <use xlink:href="#m6bd2819c40" x="531.46036" y="458.426353" style="fill: #666666; stroke: #666666"/>
     <use xlink:href="#m6bd2819c40" x="540.368956" y="458.426353" style="fill: #666666; stroke: #666666"/>
     <use xlink:href="#m6bd2819c40" x="544.564461" y="458.426353" style="fill: #666666; stroke: #666666"/>
     <use xlink:href="#m6bd2819c40" x="552.5003" y="458.426353" style="fill: #666666; stroke: #666666"/>
     <use xlink:href="#m6bd2819c40" x="559.897688" y="458.426353" style="fill: #666666; stroke: #666666"/>
     <use xlink:href="#m6bd2819c40" x="563.41637" y="458.426353" style="fill: #666666; stroke: #666666"/>
     <use xlink:href="#m6bd2819c40" x="573.338632" y="458.426353" style="fill: #666666; stroke: #666666"/>
     <use xlink:href="#m6bd2819c40" x="593.487521" y="458.426353" style="fill: #666666; stroke: #666666"/>
     <use xlink:href="#m6bd2819c40" x="614.895707" y="458.426353" style="fill: #666666; stroke: #666666"/>
    </g>
   </g>
  </g>
 </g>
 <defs>
  <clipPath id="p17f6c78c7e">
   <rect x="100.034375" y="38.17" width="558" height="443.52"/>
  </clipPath>
 </defs>
</svg>
