<?xml version="1.0" encoding="utf-8" standalone="no"?>
<!DOCTYPE svg PUBLIC "-//W3C//DTD SVG 1.1//EN"
  "http://www.w3.org/Graphics/SVG/1.1/DTD/svg11.dtd">
<svg xmlns:xlink="http://www.w3.org/1999/xlink" width="679.240625pt" height="557.95875pt" viewBox="0 0 679.240625 557.95875" xmlns="http://www.w3.org/2000/svg" version="1.1">
 <metadata>
  <rdf:RDF xmlns:dc="http://purl.org/dc/elements/1.1/" xmlns:cc="http://creativecommons.org/ns#" xmlns:rdf="http://www.w3.org/1999/02/22-rdf-syntax-ns#">
   <cc:Work>
    <dc:type rdf:resource="http://purl.org/dc/dcmitype/StillImage"/>
    <dc:date>2025-06-02T15:34:35.218590</dc:date>
    <dc:format>image/svg+xml</dc:format>
    <dc:creator>
     <cc:Agent>
      <dc:title>Matplotlib v3.10.3, https://matplotlib.org/</dc:title>
     </cc:Agent>
    </dc:creator>
   </cc:Work>
  </rdf:RDF>
 </metadata>
 <defs>
  <style type="text/css">*{stroke-linejoin: round; stroke-linecap: butt}</style>
 </defs>
 <g id="figure_1">
  <g id="patch_1">
   <path d="M 0 557.95875 
L 679.240625 557.95875 
L 679.240625 0 
L 0 0 
z
" style="fill: #ffffff"/>
  </g>
  <g id="axes_1">
   <g id="patch_2">
    <path d="M 85.409375 481.69 
L 643.409375 481.69 
L 643.409375 38.17 
L 85.409375 38.17 
z
" style="fill: #ffffff"/>
   </g>
   <g id="PathCollection_1">
    <defs>
     <path id="m95df683fc8" d="M 0 -4.472136 
L -4.472136 4.472136 
L 4.472136 4.472136 
z
" style="stroke: #a9a9a9"/>
    </defs>
    <g clip-path="url(#pf38fac519e)">
     <use xlink:href="#m95df683fc8" x="96.45888" y="134.266" style="fill: #a9a9a9; stroke: #a9a9a9"/>
     <use xlink:href="#m95df683fc8" x="107.508385" y="215.578" style="fill: #a9a9a9; stroke: #a9a9a9"/>
     <use xlink:href="#m95df683fc8" x="118.55789" y="311.674" style="fill: #a9a9a9; stroke: #a9a9a9"/>
     <use xlink:href="#m95df683fc8" x="129.607395" y="319.066" style="fill: #a9a9a9; stroke: #a9a9a9"/>
     <use xlink:href="#m95df683fc8" x="140.6569" y="326.458" style="fill: #a9a9a9; stroke: #a9a9a9"/>
     <use xlink:href="#m95df683fc8" x="151.706405" y="363.418" style="fill: #a9a9a9; stroke: #a9a9a9"/>
     <use xlink:href="#m95df683fc8" x="162.75591" y="415.162" style="fill: #a9a9a9; stroke: #a9a9a9"/>
     <use xlink:href="#m95df683fc8" x="173.805415" y="392.986" style="fill: #a9a9a9; stroke: #a9a9a9"/>
     <use xlink:href="#m95df683fc8" x="184.85492" y="437.338" style="fill: #a9a9a9; stroke: #a9a9a9"/>
     <use xlink:href="#m95df683fc8" x="195.904425" y="385.594" style="fill: #a9a9a9; stroke: #a9a9a9"/>
     <use xlink:href="#m95df683fc8" x="206.953929" y="437.338" style="fill: #a9a9a9; stroke: #a9a9a9"/>
     <use xlink:href="#m95df683fc8" x="218.003434" y="452.122" style="fill: #a9a9a9; stroke: #a9a9a9"/>
     <use xlink:href="#m95df683fc8" x="229.052939" y="429.946" style="fill: #a9a9a9; stroke: #a9a9a9"/>
     <use xlink:href="#m95df683fc8" x="240.102444" y="444.73" style="fill: #a9a9a9; stroke: #a9a9a9"/>
     <use xlink:href="#m95df683fc8" x="251.151949" y="452.122" style="fill: #a9a9a9; stroke: #a9a9a9"/>
     <use xlink:href="#m95df683fc8" x="262.201454" y="452.122" style="fill: #a9a9a9; stroke: #a9a9a9"/>
     <use xlink:href="#m95df683fc8" x="273.250959" y="466.906" style="fill: #a9a9a9; stroke: #a9a9a9"/>
     <use xlink:href="#m95df683fc8" x="284.300464" y="429.946" style="fill: #a9a9a9; stroke: #a9a9a9"/>
     <use xlink:href="#m95df683fc8" x="306.399474" y="466.906" style="fill: #a9a9a9; stroke: #a9a9a9"/>
     <use xlink:href="#m95df683fc8" x="317.448979" y="466.906" style="fill: #a9a9a9; stroke: #a9a9a9"/>
     <use xlink:href="#m95df683fc8" x="328.498484" y="459.514" style="fill: #a9a9a9; stroke: #a9a9a9"/>
     <use xlink:href="#m95df683fc8" x="339.547989" y="466.906" style="fill: #a9a9a9; stroke: #a9a9a9"/>
     <use xlink:href="#m95df683fc8" x="361.646999" y="466.906" style="fill: #a9a9a9; stroke: #a9a9a9"/>
     <use xlink:href="#m95df683fc8" x="372.696504" y="437.338" style="fill: #a9a9a9; stroke: #a9a9a9"/>
     <use xlink:href="#m95df683fc8" x="394.795514" y="466.906" style="fill: #a9a9a9; stroke: #a9a9a9"/>
     <use xlink:href="#m95df683fc8" x="427.944028" y="466.906" style="fill: #a9a9a9; stroke: #a9a9a9"/>
     <use xlink:href="#m95df683fc8" x="472.142048" y="452.122" style="fill: #a9a9a9; stroke: #a9a9a9"/>
     <use xlink:href="#m95df683fc8" x="494.241058" y="466.906" style="fill: #a9a9a9; stroke: #a9a9a9"/>
     <use xlink:href="#m95df683fc8" x="516.340068" y="466.906" style="fill: #a9a9a9; stroke: #a9a9a9"/>
     <use xlink:href="#m95df683fc8" x="571.587593" y="466.906" style="fill: #a9a9a9; stroke: #a9a9a9"/>
     <use xlink:href="#m95df683fc8" x="615.785613" y="466.906" style="fill: #a9a9a9; stroke: #a9a9a9"/>
    </g>
   </g>
   <g id="PathCollection_2">
    <defs>
     <path id="m3a8cd57420" d="M -0 4.472136 
L 4.472136 -4.472136 
L -4.472136 -4.472136 
z
" style="stroke: #a9a9a9"/>
    </defs>
    <g clip-path="url(#pf38fac519e)">
     <use xlink:href="#m3a8cd57420" x="96.45888" y="134.266" style="fill: #a9a9a9; stroke: #a9a9a9"/>
     <use xlink:href="#m3a8cd57420" x="107.508385" y="296.89" style="fill: #a9a9a9; stroke: #a9a9a9"/>
     <use xlink:href="#m3a8cd57420" x="118.55789" y="296.89" style="fill: #a9a9a9; stroke: #a9a9a9"/>
     <use xlink:href="#m3a8cd57420" x="129.607395" y="370.81" style="fill: #a9a9a9; stroke: #a9a9a9"/>
     <use xlink:href="#m3a8cd57420" x="140.6569" y="356.026" style="fill: #a9a9a9; stroke: #a9a9a9"/>
     <use xlink:href="#m3a8cd57420" x="151.706405" y="356.026" style="fill: #a9a9a9; stroke: #a9a9a9"/>
     <use xlink:href="#m3a8cd57420" x="162.75591" y="400.378" style="fill: #a9a9a9; stroke: #a9a9a9"/>
     <use xlink:href="#m3a8cd57420" x="173.805415" y="385.594" style="fill: #a9a9a9; stroke: #a9a9a9"/>
     <use xlink:href="#m3a8cd57420" x="184.85492" y="407.77" style="fill: #a9a9a9; stroke: #a9a9a9"/>
     <use xlink:href="#m3a8cd57420" x="195.904425" y="415.162" style="fill: #a9a9a9; stroke: #a9a9a9"/>
     <use xlink:href="#m3a8cd57420" x="206.953929" y="422.554" style="fill: #a9a9a9; stroke: #a9a9a9"/>
     <use xlink:href="#m3a8cd57420" x="218.003434" y="415.162" style="fill: #a9a9a9; stroke: #a9a9a9"/>
     <use xlink:href="#m3a8cd57420" x="229.052939" y="415.162" style="fill: #a9a9a9; stroke: #a9a9a9"/>
     <use xlink:href="#m3a8cd57420" x="240.102444" y="459.514" style="fill: #a9a9a9; stroke: #a9a9a9"/>
     <use xlink:href="#m3a8cd57420" x="251.151949" y="452.122" style="fill: #a9a9a9; stroke: #a9a9a9"/>
     <use xlink:href="#m3a8cd57420" x="262.201454" y="407.77" style="fill: #a9a9a9; stroke: #a9a9a9"/>
     <use xlink:href="#m3a8cd57420" x="273.250959" y="459.514" style="fill: #a9a9a9; stroke: #a9a9a9"/>
     <use xlink:href="#m3a8cd57420" x="284.300464" y="466.906" style="fill: #a9a9a9; stroke: #a9a9a9"/>
     <use xlink:href="#m3a8cd57420" x="295.349969" y="452.122" style="fill: #a9a9a9; stroke: #a9a9a9"/>
     <use xlink:href="#m3a8cd57420" x="306.399474" y="452.122" style="fill: #a9a9a9; stroke: #a9a9a9"/>
     <use xlink:href="#m3a8cd57420" x="317.448979" y="466.906" style="fill: #a9a9a9; stroke: #a9a9a9"/>
     <use xlink:href="#m3a8cd57420" x="328.498484" y="452.122" style="fill: #a9a9a9; stroke: #a9a9a9"/>
     <use xlink:href="#m3a8cd57420" x="339.547989" y="466.906" style="fill: #a9a9a9; stroke: #a9a9a9"/>
     <use xlink:href="#m3a8cd57420" x="350.597494" y="466.906" style="fill: #a9a9a9; stroke: #a9a9a9"/>
     <use xlink:href="#m3a8cd57420" x="361.646999" y="466.906" style="fill: #a9a9a9; stroke: #a9a9a9"/>
     <use xlink:href="#m3a8cd57420" x="372.696504" y="452.122" style="fill: #a9a9a9; stroke: #a9a9a9"/>
     <use xlink:href="#m3a8cd57420" x="394.795514" y="466.906" style="fill: #a9a9a9; stroke: #a9a9a9"/>
     <use xlink:href="#m3a8cd57420" x="405.845019" y="452.122" style="fill: #a9a9a9; stroke: #a9a9a9"/>
     <use xlink:href="#m3a8cd57420" x="416.894524" y="466.906" style="fill: #a9a9a9; stroke: #a9a9a9"/>
     <use xlink:href="#m3a8cd57420" x="438.993533" y="466.906" style="fill: #a9a9a9; stroke: #a9a9a9"/>
     <use xlink:href="#m3a8cd57420" x="472.142048" y="466.906" style="fill: #a9a9a9; stroke: #a9a9a9"/>
     <use xlink:href="#m3a8cd57420" x="483.191553" y="466.906" style="fill: #a9a9a9; stroke: #a9a9a9"/>
     <use xlink:href="#m3a8cd57420" x="494.241058" y="466.906" style="fill: #a9a9a9; stroke: #a9a9a9"/>
     <use xlink:href="#m3a8cd57420" x="527.389573" y="466.906" style="fill: #a9a9a9; stroke: #a9a9a9"/>
     <use xlink:href="#m3a8cd57420" x="549.488583" y="466.906" style="fill: #a9a9a9; stroke: #a9a9a9"/>
     <use xlink:href="#m3a8cd57420" x="560.538088" y="466.906" style="fill: #a9a9a9; stroke: #a9a9a9"/>
     <use xlink:href="#m3a8cd57420" x="671.033137" y="466.906" style="fill: #a9a9a9; stroke: #a9a9a9"/>
    </g>
   </g>
   <g id="matplotlib.axis_1">
    <g id="xtick_1">
     <g id="line2d_1">
      <defs>
       <path id="m6fc25feb96" d="M 0 0 
L 0 3.5 
" style="stroke: #000000; stroke-width: 0.8"/>
      </defs>
      <g>
       <use xlink:href="#m6fc25feb96" x="90.934127" y="481.69" style="stroke: #000000; stroke-width: 0.8"/>
      </g>
     </g>
     <g id="text_1">
      <!-- 0 -->
      <g transform="translate(81.390377 511.485313) scale(0.3 -0.3)">
       <defs>
        <path id="DejaVuSans-30" d="M 2034 4250 
Q 1547 4250 1301 3770 
Q 1056 3291 1056 2328 
Q 1056 1369 1301 889 
Q 1547 409 2034 409 
Q 2525 409 2770 889 
Q 3016 1369 3016 2328 
Q 3016 3291 2770 3770 
Q 2525 4250 2034 4250 
z
M 2034 4750 
Q 2819 4750 3233 4129 
Q 3647 3509 3647 2328 
Q 3647 1150 3233 529 
Q 2819 -91 2034 -91 
Q 1250 -91 836 529 
Q 422 1150 422 2328 
Q 422 3509 836 4129 
Q 1250 4750 2034 4750 
z
" transform="scale(0.015625)"/>
       </defs>
       <use xlink:href="#DejaVuSans-30"/>
      </g>
     </g>
    </g>
    <g id="xtick_2">
     <g id="line2d_2">
      <g>
       <use xlink:href="#m6fc25feb96" x="367.171751" y="481.69" style="stroke: #000000; stroke-width: 0.8"/>
      </g>
     </g>
     <g id="text_2">
      <!-- 50 -->
      <g transform="translate(348.084251 511.485313) scale(0.3 -0.3)">
       <defs>
        <path id="DejaVuSans-35" d="M 691 4666 
L 3169 4666 
L 3169 4134 
L 1269 4134 
L 1269 2991 
Q 1406 3038 1543 3061 
Q 1681 3084 1819 3084 
Q 2600 3084 3056 2656 
Q 3513 2228 3513 1497 
Q 3513 744 3044 326 
Q 2575 -91 1722 -91 
Q 1428 -91 1123 -41 
Q 819 9 494 109 
L 494 744 
Q 775 591 1075 516 
Q 1375 441 1709 441 
Q 2250 441 2565 725 
Q 2881 1009 2881 1497 
Q 2881 1984 2565 2268 
Q 2250 2553 1709 2553 
Q 1456 2553 1204 2497 
Q 953 2441 691 2322 
L 691 4666 
z
" transform="scale(0.015625)"/>
       </defs>
       <use xlink:href="#DejaVuSans-35"/>
       <use xlink:href="#DejaVuSans-30" transform="translate(63.623047 0)"/>
      </g>
     </g>
    </g>
    <g id="xtick_3">
     <g id="line2d_3">
      <g>
       <use xlink:href="#m6fc25feb96" x="643.409375" y="481.69" style="stroke: #000000; stroke-width: 0.8"/>
      </g>
     </g>
     <g id="text_3">
      <!-- 100 -->
      <g transform="translate(614.778125 511.485313) scale(0.3 -0.3)">
       <defs>
        <path id="DejaVuSans-31" d="M 794 531 
L 1825 531 
L 1825 4091 
L 703 3866 
L 703 4441 
L 1819 4666 
L 2450 4666 
L 2450 531 
L 3481 531 
L 3481 0 
L 794 0 
L 794 531 
z
" transform="scale(0.015625)"/>
       </defs>
       <use xlink:href="#DejaVuSans-31"/>
       <use xlink:href="#DejaVuSans-30" transform="translate(63.623047 0)"/>
       <use xlink:href="#DejaVuSans-30" transform="translate(127.246094 0)"/>
      </g>
     </g>
    </g>
    <g id="text_4">
     <!-- $\mathrm{k}$ -->
     <g transform="translate(355.709375 544.519688) scale(0.3 -0.3)">
      <defs>
       <path id="DejaVuSans-6b" d="M 581 4863 
L 1159 4863 
L 1159 1991 
L 2875 3500 
L 3609 3500 
L 1753 1863 
L 3688 0 
L 2938 0 
L 1159 1709 
L 1159 0 
L 581 0 
L 581 4863 
z
" transform="scale(0.015625)"/>
      </defs>
      <use xlink:href="#DejaVuSans-6b" transform="translate(0 0.015625)"/>
     </g>
    </g>
   </g>
   <g id="matplotlib.axis_2">
    <g id="ytick_1">
     <g id="line2d_4">
      <defs>
       <path id="m12b0083366" d="M 0 0 
L -3.5 0 
" style="stroke: #000000; stroke-width: 0.8"/>
      </defs>
      <g>
       <use xlink:href="#m12b0083366" x="85.409375" y="481.69" style="stroke: #000000; stroke-width: 0.8"/>
      </g>
     </g>
     <g id="text_5">
      <!-- 0 -->
      <g transform="translate(59.321875 493.087656) scale(0.3 -0.3)">
       <use xlink:href="#DejaVuSans-30"/>
      </g>
     </g>
    </g>
    <g id="ytick_2">
     <g id="line2d_5">
      <g>
       <use xlink:href="#m12b0083366" x="85.409375" y="259.93" style="stroke: #000000; stroke-width: 0.8"/>
      </g>
     </g>
     <g id="text_6">
      <!-- 15 -->
      <g transform="translate(40.234375 271.327656) scale(0.3 -0.3)">
       <use xlink:href="#DejaVuSans-31"/>
       <use xlink:href="#DejaVuSans-35" transform="translate(63.623047 0)"/>
      </g>
     </g>
    </g>
    <g id="ytick_3">
     <g id="line2d_6">
      <g>
       <use xlink:href="#m12b0083366" x="85.409375" y="38.17" style="stroke: #000000; stroke-width: 0.8"/>
      </g>
     </g>
     <g id="text_7">
      <!-- 30 -->
      <g transform="translate(40.234375 49.567656) scale(0.3 -0.3)">
       <defs>
        <path id="DejaVuSans-33" d="M 2597 2516 
Q 3050 2419 3304 2112 
Q 3559 1806 3559 1356 
Q 3559 666 3084 287 
Q 2609 -91 1734 -91 
Q 1441 -91 1130 -33 
Q 819 25 488 141 
L 488 750 
Q 750 597 1062 519 
Q 1375 441 1716 441 
Q 2309 441 2620 675 
Q 2931 909 2931 1356 
Q 2931 1769 2642 2001 
Q 2353 2234 1838 2234 
L 1294 2234 
L 1294 2753 
L 1863 2753 
Q 2328 2753 2575 2939 
Q 2822 3125 2822 3475 
Q 2822 3834 2567 4026 
Q 2313 4219 1838 4219 
Q 1578 4219 1281 4162 
Q 984 4106 628 3988 
L 628 4550 
Q 988 4650 1302 4700 
Q 1616 4750 1894 4750 
Q 2613 4750 3031 4423 
Q 3450 4097 3450 3541 
Q 3450 3153 3228 2886 
Q 3006 2619 2597 2516 
z
" transform="scale(0.015625)"/>
       </defs>
       <use xlink:href="#DejaVuSans-33"/>
       <use xlink:href="#DejaVuSans-30" transform="translate(63.623047 0)"/>
      </g>
     </g>
    </g>
    <g id="text_8">
     <!-- $\mathrm{N}( \mathrm{k} )$ -->
     <g transform="translate(29.995312 291.58) rotate(-90) scale(0.3 -0.3)">
      <defs>
       <path id="DejaVuSans-4e" d="M 628 4666 
L 1478 4666 
L 3547 763 
L 3547 4666 
L 4159 4666 
L 4159 0 
L 3309 0 
L 1241 3903 
L 1241 0 
L 628 0 
L 628 4666 
z
" transform="scale(0.015625)"/>
       <path id="DejaVuSans-28" d="M 1984 4856 
Q 1566 4138 1362 3434 
Q 1159 2731 1159 2009 
Q 1159 1288 1364 580 
Q 1569 -128 1984 -844 
L 1484 -844 
Q 1016 -109 783 600 
Q 550 1309 550 2009 
Q 550 2706 781 3412 
Q 1013 4119 1484 4856 
L 1984 4856 
z
" transform="scale(0.015625)"/>
       <path id="DejaVuSans-29" d="M 513 4856 
L 1013 4856 
Q 1481 4119 1714 3412 
Q 1947 2706 1947 2009 
Q 1947 1309 1714 600 
Q 1481 -109 1013 -844 
L 513 -844 
Q 928 -128 1133 580 
Q 1338 1288 1338 2009 
Q 1338 2731 1133 3434 
Q 928 4138 513 4856 
z
" transform="scale(0.015625)"/>
      </defs>
      <use xlink:href="#DejaVuSans-4e" transform="translate(0 0.015625)"/>
      <use xlink:href="#DejaVuSans-28" transform="translate(74.804688 0.015625)"/>
      <use xlink:href="#DejaVuSans-6b" transform="translate(113.818359 0.015625)"/>
      <use xlink:href="#DejaVuSans-29" transform="translate(171.728516 0.015625)"/>
     </g>
    </g>
   </g>
   <g id="line2d_7">
    <path d="M 96.45888 55.692819 
L 97.889379 80.995209 
L 99.69027 113.395647 
L 101.957458 151.383552 
L 104.811678 192.370851 
L 108.404929 233.440007 
L 112.928563 272.17192 
L 118.623482 307.065857 
L 125.792959 337.489241 
L 134.818796 363.415233 
L 146.181652 385.160672 
L 160.48664 403.197938 
L 178.495553 418.041274 
L 201.167432 430.186146 
L 229.709635 440.080936 
L 265.642141 448.116809 
L 310.878485 454.627161 
L 367.827668 459.891755 
L 439.522443 464.142809 
L 529.780816 467.573448 
L 643.409375 471.003613 
L 680.240625 473.300627 
" clip-path="url(#pf38fac519e)" style="fill: none; stroke: #666666; stroke-width: 1.5; stroke-linecap: square"/>
   </g>
   <g id="line2d_8">
    <path d="M 96.45888 106.176664 
L 97.889379 130.679226 
L 99.69027 160.184482 
L 101.957458 193.226389 
L 104.811678 227.773937 
L 108.404929 261.791738 
L 112.928563 293.711316 
L 118.623482 322.59547 
L 125.792959 348.054475 
L 134.818796 370.07645 
L 146.181652 388.870709 
L 160.48664 404.754757 
L 178.495553 418.083259 
L 201.167432 429.207462 
L 229.709635 438.454085 
L 265.642141 446.115896 
L 310.878485 452.44899 
L 367.827668 457.673727 
L 439.522443 461.977515 
L 529.780816 465.518386 
L 643.409375 468.428758 
L 680.240625 469.058452 
" clip-path="url(#pf38fac519e)" style="fill: none; stroke: #a9a9a9; stroke-width: 1.5; stroke-linecap: square"/>
   </g>
   <g id="patch_3">
    <path d="M 85.409375 481.69 
L 85.409375 38.17 
" style="fill: none; stroke: #000000; stroke-width: 0.8; stroke-linejoin: miter; stroke-linecap: square"/>
   </g>
   <g id="patch_4">
    <path d="M 643.409375 481.69 
L 643.409375 38.17 
" style="fill: none; stroke: #000000; stroke-width: 0.8; stroke-linejoin: miter; stroke-linecap: square"/>
   </g>
   <g id="patch_5">
    <path d="M 85.409375 481.69 
L 643.409375 481.69 
" style="fill: none; stroke: #000000; stroke-width: 0.8; stroke-linejoin: miter; stroke-linecap: square"/>
   </g>
   <g id="patch_6">
    <path d="M 85.409375 38.17 
L 643.409375 38.17 
" style="fill: none; stroke: #000000; stroke-width: 0.8; stroke-linejoin: miter; stroke-linecap: square"/>
   </g>
   <g id="text_9">
    <!-- Anaheim -->
    <g transform="translate(293.504375 31.515) scale(0.32 -0.32)">
     <defs>
      <path id="DejaVuSans-41" d="M 2188 4044 
L 1331 1722 
L 3047 1722 
L 2188 4044 
z
M 1831 4666 
L 2547 4666 
L 4325 0 
L 3669 0 
L 3244 1197 
L 1141 1197 
L 716 0 
L 50 0 
L 1831 4666 
z
" transform="scale(0.015625)"/>
      <path id="DejaVuSans-6e" d="M 3513 2113 
L 3513 0 
L 2938 0 
L 2938 2094 
Q 2938 2591 2744 2837 
Q 2550 3084 2163 3084 
Q 1697 3084 1428 2787 
Q 1159 2491 1159 1978 
L 1159 0 
L 581 0 
L 581 3500 
L 1159 3500 
L 1159 2956 
Q 1366 3272 1645 3428 
Q 1925 3584 2291 3584 
Q 2894 3584 3203 3211 
Q 3513 2838 3513 2113 
z
" transform="scale(0.015625)"/>
      <path id="DejaVuSans-61" d="M 2194 1759 
Q 1497 1759 1228 1600 
Q 959 1441 959 1056 
Q 959 750 1161 570 
Q 1363 391 1709 391 
Q 2188 391 2477 730 
Q 2766 1069 2766 1631 
L 2766 1759 
L 2194 1759 
z
M 3341 1997 
L 3341 0 
L 2766 0 
L 2766 531 
Q 2569 213 2275 61 
Q 1981 -91 1556 -91 
Q 1019 -91 701 211 
Q 384 513 384 1019 
Q 384 1609 779 1909 
Q 1175 2209 1959 2209 
L 2766 2209 
L 2766 2266 
Q 2766 2663 2505 2880 
Q 2244 3097 1772 3097 
Q 1472 3097 1187 3025 
Q 903 2953 641 2809 
L 641 3341 
Q 956 3463 1253 3523 
Q 1550 3584 1831 3584 
Q 2591 3584 2966 3190 
Q 3341 2797 3341 1997 
z
" transform="scale(0.015625)"/>
      <path id="DejaVuSans-68" d="M 3513 2113 
L 3513 0 
L 2938 0 
L 2938 2094 
Q 2938 2591 2744 2837 
Q 2550 3084 2163 3084 
Q 1697 3084 1428 2787 
Q 1159 2491 1159 1978 
L 1159 0 
L 581 0 
L 581 4863 
L 1159 4863 
L 1159 2956 
Q 1366 3272 1645 3428 
Q 1925 3584 2291 3584 
Q 2894 3584 3203 3211 
Q 3513 2838 3513 2113 
z
" transform="scale(0.015625)"/>
      <path id="DejaVuSans-65" d="M 3597 1894 
L 3597 1613 
L 953 1613 
Q 991 1019 1311 708 
Q 1631 397 2203 397 
Q 2534 397 2845 478 
Q 3156 559 3463 722 
L 3463 178 
Q 3153 47 2828 -22 
Q 2503 -91 2169 -91 
Q 1331 -91 842 396 
Q 353 884 353 1716 
Q 353 2575 817 3079 
Q 1281 3584 2069 3584 
Q 2775 3584 3186 3129 
Q 3597 2675 3597 1894 
z
M 3022 2063 
Q 3016 2534 2758 2815 
Q 2500 3097 2075 3097 
Q 1594 3097 1305 2825 
Q 1016 2553 972 2059 
L 3022 2063 
z
" transform="scale(0.015625)"/>
      <path id="DejaVuSans-69" d="M 603 3500 
L 1178 3500 
L 1178 0 
L 603 0 
L 603 3500 
z
M 603 4863 
L 1178 4863 
L 1178 4134 
L 603 4134 
L 603 4863 
z
" transform="scale(0.015625)"/>
      <path id="DejaVuSans-6d" d="M 3328 2828 
Q 3544 3216 3844 3400 
Q 4144 3584 4550 3584 
Q 5097 3584 5394 3201 
Q 5691 2819 5691 2113 
L 5691 0 
L 5113 0 
L 5113 2094 
Q 5113 2597 4934 2840 
Q 4756 3084 4391 3084 
Q 3944 3084 3684 2787 
Q 3425 2491 3425 1978 
L 3425 0 
L 2847 0 
L 2847 2094 
Q 2847 2600 2669 2842 
Q 2491 3084 2119 3084 
Q 1678 3084 1418 2786 
Q 1159 2488 1159 1978 
L 1159 0 
L 581 0 
L 581 3500 
L 1159 3500 
L 1159 2956 
Q 1356 3278 1631 3431 
Q 1906 3584 2284 3584 
Q 2666 3584 2933 3390 
Q 3200 3197 3328 2828 
z
" transform="scale(0.015625)"/>
     </defs>
     <use xlink:href="#DejaVuSans-41"/>
     <use xlink:href="#DejaVuSans-6e" transform="translate(68.408203 0)"/>
     <use xlink:href="#DejaVuSans-61" transform="translate(131.787109 0)"/>
     <use xlink:href="#DejaVuSans-68" transform="translate(193.066406 0)"/>
     <use xlink:href="#DejaVuSans-65" transform="translate(256.445312 0)"/>
     <use xlink:href="#DejaVuSans-69" transform="translate(317.96875 0)"/>
     <use xlink:href="#DejaVuSans-6d" transform="translate(345.751953 0)"/>
    </g>
   </g>
   <g id="PathCollection_3">
    <defs>
     <path id="m1bcb616f7b" d="M 0 4.472136 
C 1.186024 4.472136 2.323632 4.000923 3.162278 3.162278 
C 4.000923 2.323632 4.472136 1.186024 4.472136 0 
C 4.472136 -1.186024 4.000923 -2.323632 3.162278 -3.162278 
C 2.323632 -4.000923 1.186024 -4.472136 0 -4.472136 
C -1.186024 -4.472136 -2.323632 -4.000923 -3.162278 -3.162278 
C -4.000923 -2.323632 -4.472136 -1.186024 -4.472136 0 
C -4.472136 1.186024 -4.000923 2.323632 -3.162278 3.162278 
C -2.323632 4.000923 -1.186024 4.472136 0 4.472136 
z
" style="stroke: #666666"/>
    </defs>
    <g clip-path="url(#pf38fac519e)">
     <use xlink:href="#m1bcb616f7b" x="96.45888" y="21.743333" style="fill: #666666; stroke: #666666"/>
     <use xlink:href="#m1bcb616f7b" x="107.508385" y="227.076667" style="fill: #666666; stroke: #666666"/>
     <use xlink:href="#m1bcb616f7b" x="118.55789" y="333.85" style="fill: #666666; stroke: #666666"/>
     <use xlink:href="#m1bcb616f7b" x="129.607395" y="276.356667" style="fill: #666666; stroke: #666666"/>
     <use xlink:href="#m1bcb616f7b" x="140.6569" y="325.636667" style="fill: #666666; stroke: #666666"/>
     <use xlink:href="#m1bcb616f7b" x="151.706405" y="333.85" style="fill: #666666; stroke: #666666"/>
     <use xlink:href="#m1bcb616f7b" x="162.75591" y="407.77" style="fill: #666666; stroke: #666666"/>
     <use xlink:href="#m1bcb616f7b" x="173.805415" y="399.556667" style="fill: #666666; stroke: #666666"/>
     <use xlink:href="#m1bcb616f7b" x="184.85492" y="383.13" style="fill: #666666; stroke: #666666"/>
     <use xlink:href="#m1bcb616f7b" x="195.904425" y="407.77" style="fill: #666666; stroke: #666666"/>
     <use xlink:href="#m1bcb616f7b" x="206.953929" y="424.196667" style="fill: #666666; stroke: #666666"/>
     <use xlink:href="#m1bcb616f7b" x="218.003434" y="448.836667" style="fill: #666666; stroke: #666666"/>
     <use xlink:href="#m1bcb616f7b" x="229.052939" y="440.623333" style="fill: #666666; stroke: #666666"/>
     <use xlink:href="#m1bcb616f7b" x="240.102444" y="457.05" style="fill: #666666; stroke: #666666"/>
     <use xlink:href="#m1bcb616f7b" x="251.151949" y="457.05" style="fill: #666666; stroke: #666666"/>
     <use xlink:href="#m1bcb616f7b" x="262.201454" y="465.263333" style="fill: #666666; stroke: #666666"/>
     <use xlink:href="#m1bcb616f7b" x="273.250959" y="448.836667" style="fill: #666666; stroke: #666666"/>
     <use xlink:href="#m1bcb616f7b" x="284.300464" y="440.623333" style="fill: #666666; stroke: #666666"/>
     <use xlink:href="#m1bcb616f7b" x="295.349969" y="465.263333" style="fill: #666666; stroke: #666666"/>
     <use xlink:href="#m1bcb616f7b" x="306.399474" y="457.05" style="fill: #666666; stroke: #666666"/>
     <use xlink:href="#m1bcb616f7b" x="317.448979" y="465.263333" style="fill: #666666; stroke: #666666"/>
     <use xlink:href="#m1bcb616f7b" x="350.597494" y="465.263333" style="fill: #666666; stroke: #666666"/>
     <use xlink:href="#m1bcb616f7b" x="372.696504" y="465.263333" style="fill: #666666; stroke: #666666"/>
     <use xlink:href="#m1bcb616f7b" x="383.746009" y="465.263333" style="fill: #666666; stroke: #666666"/>
     <use xlink:href="#m1bcb616f7b" x="405.845019" y="465.263333" style="fill: #666666; stroke: #666666"/>
     <use xlink:href="#m1bcb616f7b" x="427.944028" y="465.263333" style="fill: #666666; stroke: #666666"/>
     <use xlink:href="#m1bcb616f7b" x="438.993533" y="465.263333" style="fill: #666666; stroke: #666666"/>
     <use xlink:href="#m1bcb616f7b" x="472.142048" y="465.263333" style="fill: #666666; stroke: #666666"/>
     <use xlink:href="#m1bcb616f7b" x="549.488583" y="465.263333" style="fill: #666666; stroke: #666666"/>
     <use xlink:href="#m1bcb616f7b" x="648.934127" y="465.263333" style="fill: #666666; stroke: #666666"/>
    </g>
   </g>
  </g>
 </g>
 <defs>
  <clipPath id="pf38fac519e">
   <rect x="85.409375" y="38.17" width="558" height="443.52"/>
  </clipPath>
 </defs>
</svg>
