<?xml version="1.0" encoding="utf-8" standalone="no"?>
<!DOCTYPE svg PUBLIC "-//W3C//DTD SVG 1.1//EN"
  "http://www.w3.org/Graphics/SVG/1.1/DTD/svg11.dtd">
<svg xmlns:xlink="http://www.w3.org/1999/xlink" width="679.240625pt" height="557.95875pt" viewBox="0 0 679.240625 557.95875" xmlns="http://www.w3.org/2000/svg" version="1.1">
 <metadata>
  <rdf:RDF xmlns:dc="http://purl.org/dc/elements/1.1/" xmlns:cc="http://creativecommons.org/ns#" xmlns:rdf="http://www.w3.org/1999/02/22-rdf-syntax-ns#">
   <cc:Work>
    <dc:type rdf:resource="http://purl.org/dc/dcmitype/StillImage"/>
    <dc:date>2025-06-02T15:34:29.140575</dc:date>
    <dc:format>image/svg+xml</dc:format>
    <dc:creator>
     <cc:Agent>
      <dc:title>Matplotlib v3.10.3, https://matplotlib.org/</dc:title>
     </cc:Agent>
    </dc:creator>
   </cc:Work>
  </rdf:RDF>
 </metadata>
 <defs>
  <style type="text/css">*{stroke-linejoin: round; stroke-linecap: butt}</style>
 </defs>
 <g id="figure_1">
  <g id="patch_1">
   <path d="M 0 557.95875 
L 679.240625 557.95875 
L 679.240625 0 
L 0 0 
z
" style="fill: #ffffff"/>
  </g>
  <g id="axes_1">
   <g id="patch_2">
    <path d="M 85.409375 481.69 
L 643.409375 481.69 
L 643.409375 38.17 
L 85.409375 38.17 
z
" style="fill: #ffffff"/>
   </g>
   <g id="PathCollection_1">
    <defs>
     <path id="m288a1b1036" d="M 0 -4.472136 
L -4.472136 4.472136 
L 4.472136 4.472136 
z
" style="stroke: #a9a9a9"/>
    </defs>
    <g clip-path="url(#pc76394eeef)">
     <use xlink:href="#m288a1b1036" x="92.800103" y="93.61" style="fill: #a9a9a9; stroke: #a9a9a9"/>
     <use xlink:href="#m288a1b1036" x="100.190832" y="215.578" style="fill: #a9a9a9; stroke: #a9a9a9"/>
     <use xlink:href="#m288a1b1036" x="107.58156" y="226.666" style="fill: #a9a9a9; stroke: #a9a9a9"/>
     <use xlink:href="#m288a1b1036" x="114.972289" y="315.37" style="fill: #a9a9a9; stroke: #a9a9a9"/>
     <use xlink:href="#m288a1b1036" x="122.363017" y="304.282" style="fill: #a9a9a9; stroke: #a9a9a9"/>
     <use xlink:href="#m288a1b1036" x="129.753746" y="282.106" style="fill: #a9a9a9; stroke: #a9a9a9"/>
     <use xlink:href="#m288a1b1036" x="137.144474" y="392.986" style="fill: #a9a9a9; stroke: #a9a9a9"/>
     <use xlink:href="#m288a1b1036" x="144.535203" y="392.986" style="fill: #a9a9a9; stroke: #a9a9a9"/>
     <use xlink:href="#m288a1b1036" x="151.925931" y="392.986" style="fill: #a9a9a9; stroke: #a9a9a9"/>
     <use xlink:href="#m288a1b1036" x="159.31666" y="381.898" style="fill: #a9a9a9; stroke: #a9a9a9"/>
     <use xlink:href="#m288a1b1036" x="166.707388" y="359.722" style="fill: #a9a9a9; stroke: #a9a9a9"/>
     <use xlink:href="#m288a1b1036" x="174.098117" y="392.986" style="fill: #a9a9a9; stroke: #a9a9a9"/>
     <use xlink:href="#m288a1b1036" x="181.488845" y="337.546" style="fill: #a9a9a9; stroke: #a9a9a9"/>
     <use xlink:href="#m288a1b1036" x="188.879574" y="448.426" style="fill: #a9a9a9; stroke: #a9a9a9"/>
     <use xlink:href="#m288a1b1036" x="196.270302" y="426.25" style="fill: #a9a9a9; stroke: #a9a9a9"/>
     <use xlink:href="#m288a1b1036" x="203.661031" y="437.338" style="fill: #a9a9a9; stroke: #a9a9a9"/>
     <use xlink:href="#m288a1b1036" x="211.051759" y="426.25" style="fill: #a9a9a9; stroke: #a9a9a9"/>
     <use xlink:href="#m288a1b1036" x="218.442488" y="437.338" style="fill: #a9a9a9; stroke: #a9a9a9"/>
     <use xlink:href="#m288a1b1036" x="225.833216" y="437.338" style="fill: #a9a9a9; stroke: #a9a9a9"/>
     <use xlink:href="#m288a1b1036" x="233.223945" y="426.25" style="fill: #a9a9a9; stroke: #a9a9a9"/>
     <use xlink:href="#m288a1b1036" x="240.614673" y="437.338" style="fill: #a9a9a9; stroke: #a9a9a9"/>
     <use xlink:href="#m288a1b1036" x="248.005401" y="426.25" style="fill: #a9a9a9; stroke: #a9a9a9"/>
     <use xlink:href="#m288a1b1036" x="262.786858" y="437.338" style="fill: #a9a9a9; stroke: #a9a9a9"/>
     <use xlink:href="#m288a1b1036" x="270.177587" y="348.634" style="fill: #a9a9a9; stroke: #a9a9a9"/>
     <use xlink:href="#m288a1b1036" x="277.568315" y="459.514" style="fill: #a9a9a9; stroke: #a9a9a9"/>
     <use xlink:href="#m288a1b1036" x="284.959044" y="426.25" style="fill: #a9a9a9; stroke: #a9a9a9"/>
     <use xlink:href="#m288a1b1036" x="299.740501" y="426.25" style="fill: #a9a9a9; stroke: #a9a9a9"/>
     <use xlink:href="#m288a1b1036" x="307.131229" y="459.514" style="fill: #a9a9a9; stroke: #a9a9a9"/>
     <use xlink:href="#m288a1b1036" x="314.521958" y="448.426" style="fill: #a9a9a9; stroke: #a9a9a9"/>
     <use xlink:href="#m288a1b1036" x="321.912686" y="437.338" style="fill: #a9a9a9; stroke: #a9a9a9"/>
     <use xlink:href="#m288a1b1036" x="329.303415" y="459.514" style="fill: #a9a9a9; stroke: #a9a9a9"/>
     <use xlink:href="#m288a1b1036" x="336.694143" y="459.514" style="fill: #a9a9a9; stroke: #a9a9a9"/>
     <use xlink:href="#m288a1b1036" x="351.4756" y="437.338" style="fill: #a9a9a9; stroke: #a9a9a9"/>
     <use xlink:href="#m288a1b1036" x="366.257057" y="459.514" style="fill: #a9a9a9; stroke: #a9a9a9"/>
     <use xlink:href="#m288a1b1036" x="381.038514" y="437.338" style="fill: #a9a9a9; stroke: #a9a9a9"/>
     <use xlink:href="#m288a1b1036" x="403.2107" y="437.338" style="fill: #a9a9a9; stroke: #a9a9a9"/>
     <use xlink:href="#m288a1b1036" x="417.992156" y="459.514" style="fill: #a9a9a9; stroke: #a9a9a9"/>
     <use xlink:href="#m288a1b1036" x="425.382885" y="459.514" style="fill: #a9a9a9; stroke: #a9a9a9"/>
     <use xlink:href="#m288a1b1036" x="454.945799" y="459.514" style="fill: #a9a9a9; stroke: #a9a9a9"/>
     <use xlink:href="#m288a1b1036" x="462.336527" y="459.514" style="fill: #a9a9a9; stroke: #a9a9a9"/>
     <use xlink:href="#m288a1b1036" x="469.727256" y="448.426" style="fill: #a9a9a9; stroke: #a9a9a9"/>
     <use xlink:href="#m288a1b1036" x="491.899441" y="459.514" style="fill: #a9a9a9; stroke: #a9a9a9"/>
     <use xlink:href="#m288a1b1036" x="514.071627" y="459.514" style="fill: #a9a9a9; stroke: #a9a9a9"/>
     <use xlink:href="#m288a1b1036" x="528.853084" y="459.514" style="fill: #a9a9a9; stroke: #a9a9a9"/>
     <use xlink:href="#m288a1b1036" x="551.025269" y="459.514" style="fill: #a9a9a9; stroke: #a9a9a9"/>
     <use xlink:href="#m288a1b1036" x="565.806726" y="459.514" style="fill: #a9a9a9; stroke: #a9a9a9"/>
     <use xlink:href="#m288a1b1036" x="595.36964" y="437.338" style="fill: #a9a9a9; stroke: #a9a9a9"/>
     <use xlink:href="#m288a1b1036" x="647.104739" y="459.514" style="fill: #a9a9a9; stroke: #a9a9a9"/>
     <use xlink:href="#m288a1b1036" x="654.495468" y="459.514" style="fill: #a9a9a9; stroke: #a9a9a9"/>
     <use xlink:href="#m288a1b1036" x="728.402752" y="459.514" style="fill: #a9a9a9; stroke: #a9a9a9"/>
     <use xlink:href="#m288a1b1036" x="743.184209" y="459.514" style="fill: #a9a9a9; stroke: #a9a9a9"/>
     <use xlink:href="#m288a1b1036" x="772.747123" y="459.514" style="fill: #a9a9a9; stroke: #a9a9a9"/>
     <use xlink:href="#m288a1b1036" x="824.482223" y="459.514" style="fill: #a9a9a9; stroke: #a9a9a9"/>
     <use xlink:href="#m288a1b1036" x="839.26368" y="459.514" style="fill: #a9a9a9; stroke: #a9a9a9"/>
    </g>
   </g>
   <g id="PathCollection_2">
    <defs>
     <path id="mb87f239861" d="M -0 4.472136 
L 4.472136 -4.472136 
L -4.472136 -4.472136 
z
" style="stroke: #a9a9a9"/>
    </defs>
    <g clip-path="url(#pc76394eeef)">
     <use xlink:href="#mb87f239861" x="92.800103" y="93.61" style="fill: #a9a9a9; stroke: #a9a9a9"/>
     <use xlink:href="#mb87f239861" x="100.190832" y="248.842" style="fill: #a9a9a9; stroke: #a9a9a9"/>
     <use xlink:href="#mb87f239861" x="107.58156" y="204.49" style="fill: #a9a9a9; stroke: #a9a9a9"/>
     <use xlink:href="#mb87f239861" x="114.972289" y="348.634" style="fill: #a9a9a9; stroke: #a9a9a9"/>
     <use xlink:href="#mb87f239861" x="122.363017" y="348.634" style="fill: #a9a9a9; stroke: #a9a9a9"/>
     <use xlink:href="#mb87f239861" x="129.753746" y="304.282" style="fill: #a9a9a9; stroke: #a9a9a9"/>
     <use xlink:href="#mb87f239861" x="137.144474" y="348.634" style="fill: #a9a9a9; stroke: #a9a9a9"/>
     <use xlink:href="#mb87f239861" x="144.535203" y="381.898" style="fill: #a9a9a9; stroke: #a9a9a9"/>
     <use xlink:href="#mb87f239861" x="151.925931" y="370.81" style="fill: #a9a9a9; stroke: #a9a9a9"/>
     <use xlink:href="#mb87f239861" x="159.31666" y="381.898" style="fill: #a9a9a9; stroke: #a9a9a9"/>
     <use xlink:href="#mb87f239861" x="166.707388" y="337.546" style="fill: #a9a9a9; stroke: #a9a9a9"/>
     <use xlink:href="#mb87f239861" x="174.098117" y="381.898" style="fill: #a9a9a9; stroke: #a9a9a9"/>
     <use xlink:href="#mb87f239861" x="181.488845" y="415.162" style="fill: #a9a9a9; stroke: #a9a9a9"/>
     <use xlink:href="#mb87f239861" x="188.879574" y="415.162" style="fill: #a9a9a9; stroke: #a9a9a9"/>
     <use xlink:href="#mb87f239861" x="196.270302" y="392.986" style="fill: #a9a9a9; stroke: #a9a9a9"/>
     <use xlink:href="#mb87f239861" x="203.661031" y="426.25" style="fill: #a9a9a9; stroke: #a9a9a9"/>
     <use xlink:href="#mb87f239861" x="211.051759" y="448.426" style="fill: #a9a9a9; stroke: #a9a9a9"/>
     <use xlink:href="#mb87f239861" x="218.442488" y="437.338" style="fill: #a9a9a9; stroke: #a9a9a9"/>
     <use xlink:href="#mb87f239861" x="225.833216" y="415.162" style="fill: #a9a9a9; stroke: #a9a9a9"/>
     <use xlink:href="#mb87f239861" x="233.223945" y="415.162" style="fill: #a9a9a9; stroke: #a9a9a9"/>
     <use xlink:href="#mb87f239861" x="240.614673" y="415.162" style="fill: #a9a9a9; stroke: #a9a9a9"/>
     <use xlink:href="#mb87f239861" x="248.005401" y="415.162" style="fill: #a9a9a9; stroke: #a9a9a9"/>
     <use xlink:href="#mb87f239861" x="255.39613" y="448.426" style="fill: #a9a9a9; stroke: #a9a9a9"/>
     <use xlink:href="#mb87f239861" x="262.786858" y="459.514" style="fill: #a9a9a9; stroke: #a9a9a9"/>
     <use xlink:href="#mb87f239861" x="270.177587" y="437.338" style="fill: #a9a9a9; stroke: #a9a9a9"/>
     <use xlink:href="#mb87f239861" x="277.568315" y="437.338" style="fill: #a9a9a9; stroke: #a9a9a9"/>
     <use xlink:href="#mb87f239861" x="284.959044" y="415.162" style="fill: #a9a9a9; stroke: #a9a9a9"/>
     <use xlink:href="#mb87f239861" x="292.349772" y="415.162" style="fill: #a9a9a9; stroke: #a9a9a9"/>
     <use xlink:href="#mb87f239861" x="299.740501" y="459.514" style="fill: #a9a9a9; stroke: #a9a9a9"/>
     <use xlink:href="#mb87f239861" x="307.131229" y="459.514" style="fill: #a9a9a9; stroke: #a9a9a9"/>
     <use xlink:href="#mb87f239861" x="321.912686" y="459.514" style="fill: #a9a9a9; stroke: #a9a9a9"/>
     <use xlink:href="#mb87f239861" x="329.303415" y="437.338" style="fill: #a9a9a9; stroke: #a9a9a9"/>
     <use xlink:href="#mb87f239861" x="336.694143" y="448.426" style="fill: #a9a9a9; stroke: #a9a9a9"/>
     <use xlink:href="#mb87f239861" x="344.084872" y="459.514" style="fill: #a9a9a9; stroke: #a9a9a9"/>
     <use xlink:href="#mb87f239861" x="351.4756" y="459.514" style="fill: #a9a9a9; stroke: #a9a9a9"/>
     <use xlink:href="#mb87f239861" x="358.866329" y="459.514" style="fill: #a9a9a9; stroke: #a9a9a9"/>
     <use xlink:href="#mb87f239861" x="366.257057" y="459.514" style="fill: #a9a9a9; stroke: #a9a9a9"/>
     <use xlink:href="#mb87f239861" x="373.647786" y="459.514" style="fill: #a9a9a9; stroke: #a9a9a9"/>
     <use xlink:href="#mb87f239861" x="381.038514" y="459.514" style="fill: #a9a9a9; stroke: #a9a9a9"/>
     <use xlink:href="#mb87f239861" x="403.2107" y="459.514" style="fill: #a9a9a9; stroke: #a9a9a9"/>
     <use xlink:href="#mb87f239861" x="410.601428" y="459.514" style="fill: #a9a9a9; stroke: #a9a9a9"/>
     <use xlink:href="#mb87f239861" x="417.992156" y="459.514" style="fill: #a9a9a9; stroke: #a9a9a9"/>
     <use xlink:href="#mb87f239861" x="425.382885" y="437.338" style="fill: #a9a9a9; stroke: #a9a9a9"/>
     <use xlink:href="#mb87f239861" x="432.773613" y="459.514" style="fill: #a9a9a9; stroke: #a9a9a9"/>
     <use xlink:href="#mb87f239861" x="440.164342" y="459.514" style="fill: #a9a9a9; stroke: #a9a9a9"/>
     <use xlink:href="#mb87f239861" x="454.945799" y="459.514" style="fill: #a9a9a9; stroke: #a9a9a9"/>
     <use xlink:href="#mb87f239861" x="469.727256" y="459.514" style="fill: #a9a9a9; stroke: #a9a9a9"/>
     <use xlink:href="#mb87f239861" x="491.899441" y="459.514" style="fill: #a9a9a9; stroke: #a9a9a9"/>
     <use xlink:href="#mb87f239861" x="499.29017" y="459.514" style="fill: #a9a9a9; stroke: #a9a9a9"/>
     <use xlink:href="#mb87f239861" x="514.071627" y="459.514" style="fill: #a9a9a9; stroke: #a9a9a9"/>
     <use xlink:href="#mb87f239861" x="521.462355" y="459.514" style="fill: #a9a9a9; stroke: #a9a9a9"/>
     <use xlink:href="#mb87f239861" x="528.853084" y="459.514" style="fill: #a9a9a9; stroke: #a9a9a9"/>
     <use xlink:href="#mb87f239861" x="551.025269" y="459.514" style="fill: #a9a9a9; stroke: #a9a9a9"/>
     <use xlink:href="#mb87f239861" x="580.588183" y="459.514" style="fill: #a9a9a9; stroke: #a9a9a9"/>
     <use xlink:href="#mb87f239861" x="602.760368" y="459.514" style="fill: #a9a9a9; stroke: #a9a9a9"/>
     <use xlink:href="#mb87f239861" x="647.104739" y="459.514" style="fill: #a9a9a9; stroke: #a9a9a9"/>
     <use xlink:href="#mb87f239861" x="654.495468" y="459.514" style="fill: #a9a9a9; stroke: #a9a9a9"/>
     <use xlink:href="#mb87f239861" x="721.012024" y="459.514" style="fill: #a9a9a9; stroke: #a9a9a9"/>
     <use xlink:href="#mb87f239861" x="728.402752" y="459.514" style="fill: #a9a9a9; stroke: #a9a9a9"/>
     <use xlink:href="#mb87f239861" x="750.574938" y="459.514" style="fill: #a9a9a9; stroke: #a9a9a9"/>
     <use xlink:href="#mb87f239861" x="757.965666" y="459.514" style="fill: #a9a9a9; stroke: #a9a9a9"/>
     <use xlink:href="#mb87f239861" x="846.654408" y="459.514" style="fill: #a9a9a9; stroke: #a9a9a9"/>
    </g>
   </g>
   <g id="matplotlib.axis_1">
    <g id="xtick_1">
     <g id="line2d_1">
      <defs>
       <path id="m140195a46d" d="M 0 0 
L 0 3.5 
" style="stroke: #000000; stroke-width: 0.8"/>
      </defs>
      <g>
       <use xlink:href="#m140195a46d" x="89.104739" y="481.69" style="stroke: #000000; stroke-width: 0.8"/>
      </g>
     </g>
     <g id="text_1">
      <!-- 0 -->
      <g transform="translate(79.560989 511.485313) scale(0.3 -0.3)">
       <defs>
        <path id="DejaVuSans-30" d="M 2034 4250 
Q 1547 4250 1301 3770 
Q 1056 3291 1056 2328 
Q 1056 1369 1301 889 
Q 1547 409 2034 409 
Q 2525 409 2770 889 
Q 3016 1369 3016 2328 
Q 3016 3291 2770 3770 
Q 2525 4250 2034 4250 
z
M 2034 4750 
Q 2819 4750 3233 4129 
Q 3647 3509 3647 2328 
Q 3647 1150 3233 529 
Q 2819 -91 2034 -91 
Q 1250 -91 836 529 
Q 422 1150 422 2328 
Q 422 3509 836 4129 
Q 1250 4750 2034 4750 
z
" transform="scale(0.015625)"/>
       </defs>
       <use xlink:href="#DejaVuSans-30"/>
      </g>
     </g>
    </g>
    <g id="xtick_2">
     <g id="line2d_2">
      <g>
       <use xlink:href="#m140195a46d" x="366.257057" y="481.69" style="stroke: #000000; stroke-width: 0.8"/>
      </g>
     </g>
     <g id="text_2">
      <!-- 75 -->
      <g transform="translate(347.169557 511.485313) scale(0.3 -0.3)">
       <defs>
        <path id="DejaVuSans-37" d="M 525 4666 
L 3525 4666 
L 3525 4397 
L 1831 0 
L 1172 0 
L 2766 4134 
L 525 4134 
L 525 4666 
z
" transform="scale(0.015625)"/>
        <path id="DejaVuSans-35" d="M 691 4666 
L 3169 4666 
L 3169 4134 
L 1269 4134 
L 1269 2991 
Q 1406 3038 1543 3061 
Q 1681 3084 1819 3084 
Q 2600 3084 3056 2656 
Q 3513 2228 3513 1497 
Q 3513 744 3044 326 
Q 2575 -91 1722 -91 
Q 1428 -91 1123 -41 
Q 819 9 494 109 
L 494 744 
Q 775 591 1075 516 
Q 1375 441 1709 441 
Q 2250 441 2565 725 
Q 2881 1009 2881 1497 
Q 2881 1984 2565 2268 
Q 2250 2553 1709 2553 
Q 1456 2553 1204 2497 
Q 953 2441 691 2322 
L 691 4666 
z
" transform="scale(0.015625)"/>
       </defs>
       <use xlink:href="#DejaVuSans-37"/>
       <use xlink:href="#DejaVuSans-35" transform="translate(63.623047 0)"/>
      </g>
     </g>
    </g>
    <g id="xtick_3">
     <g id="line2d_3">
      <g>
       <use xlink:href="#m140195a46d" x="643.409375" y="481.69" style="stroke: #000000; stroke-width: 0.8"/>
      </g>
     </g>
     <g id="text_3">
      <!-- 150 -->
      <g transform="translate(614.778125 511.485313) scale(0.3 -0.3)">
       <defs>
        <path id="DejaVuSans-31" d="M 794 531 
L 1825 531 
L 1825 4091 
L 703 3866 
L 703 4441 
L 1819 4666 
L 2450 4666 
L 2450 531 
L 3481 531 
L 3481 0 
L 794 0 
L 794 531 
z
" transform="scale(0.015625)"/>
       </defs>
       <use xlink:href="#DejaVuSans-31"/>
       <use xlink:href="#DejaVuSans-35" transform="translate(63.623047 0)"/>
       <use xlink:href="#DejaVuSans-30" transform="translate(127.246094 0)"/>
      </g>
     </g>
    </g>
    <g id="text_4">
     <!-- $\mathrm{k}$ -->
     <g transform="translate(355.709375 544.519688) scale(0.3 -0.3)">
      <defs>
       <path id="DejaVuSans-6b" d="M 581 4863 
L 1159 4863 
L 1159 1991 
L 2875 3500 
L 3609 3500 
L 1753 1863 
L 3688 0 
L 2938 0 
L 1159 1709 
L 1159 0 
L 581 0 
L 581 4863 
z
" transform="scale(0.015625)"/>
      </defs>
      <use xlink:href="#DejaVuSans-6b" transform="translate(0 0.015625)"/>
     </g>
    </g>
   </g>
   <g id="matplotlib.axis_2">
    <g id="ytick_1">
     <g id="line2d_4">
      <defs>
       <path id="m4e3e0ef3db" d="M 0 0 
L -3.5 0 
" style="stroke: #000000; stroke-width: 0.8"/>
      </defs>
      <g>
       <use xlink:href="#m4e3e0ef3db" x="85.409375" y="481.69" style="stroke: #000000; stroke-width: 0.8"/>
      </g>
     </g>
     <g id="text_5">
      <!-- 0 -->
      <g transform="translate(59.321875 493.087656) scale(0.3 -0.3)">
       <use xlink:href="#DejaVuSans-30"/>
      </g>
     </g>
    </g>
    <g id="ytick_2">
     <g id="line2d_5">
      <g>
       <use xlink:href="#m4e3e0ef3db" x="85.409375" y="259.93" style="stroke: #000000; stroke-width: 0.8"/>
      </g>
     </g>
     <g id="text_6">
      <!-- 10 -->
      <g transform="translate(40.234375 271.327656) scale(0.3 -0.3)">
       <use xlink:href="#DejaVuSans-31"/>
       <use xlink:href="#DejaVuSans-30" transform="translate(63.623047 0)"/>
      </g>
     </g>
    </g>
    <g id="ytick_3">
     <g id="line2d_6">
      <g>
       <use xlink:href="#m4e3e0ef3db" x="85.409375" y="38.17" style="stroke: #000000; stroke-width: 0.8"/>
      </g>
     </g>
     <g id="text_7">
      <!-- 20 -->
      <g transform="translate(40.234375 49.567656) scale(0.3 -0.3)">
       <defs>
        <path id="DejaVuSans-32" d="M 1228 531 
L 3431 531 
L 3431 0 
L 469 0 
L 469 531 
Q 828 903 1448 1529 
Q 2069 2156 2228 2338 
Q 2531 2678 2651 2914 
Q 2772 3150 2772 3378 
Q 2772 3750 2511 3984 
Q 2250 4219 1831 4219 
Q 1534 4219 1204 4116 
Q 875 4013 500 3803 
L 500 4441 
Q 881 4594 1212 4672 
Q 1544 4750 1819 4750 
Q 2544 4750 2975 4387 
Q 3406 4025 3406 3419 
Q 3406 3131 3298 2873 
Q 3191 2616 2906 2266 
Q 2828 2175 2409 1742 
Q 1991 1309 1228 531 
z
" transform="scale(0.015625)"/>
       </defs>
       <use xlink:href="#DejaVuSans-32"/>
       <use xlink:href="#DejaVuSans-30" transform="translate(63.623047 0)"/>
      </g>
     </g>
    </g>
    <g id="text_8">
     <!-- $\mathrm{N}( \mathrm{k} )$ -->
     <g transform="translate(29.995312 291.58) rotate(-90) scale(0.3 -0.3)">
      <defs>
       <path id="DejaVuSans-4e" d="M 628 4666 
L 1478 4666 
L 3547 763 
L 3547 4666 
L 4159 4666 
L 4159 0 
L 3309 0 
L 1241 3903 
L 1241 0 
L 628 0 
L 628 4666 
z
" transform="scale(0.015625)"/>
       <path id="DejaVuSans-28" d="M 1984 4856 
Q 1566 4138 1362 3434 
Q 1159 2731 1159 2009 
Q 1159 1288 1364 580 
Q 1569 -128 1984 -844 
L 1484 -844 
Q 1016 -109 783 600 
Q 550 1309 550 2009 
Q 550 2706 781 3412 
Q 1013 4119 1484 4856 
L 1984 4856 
z
" transform="scale(0.015625)"/>
       <path id="DejaVuSans-29" d="M 513 4856 
L 1013 4856 
Q 1481 4119 1714 3412 
Q 1947 2706 1947 2009 
Q 1947 1309 1714 600 
Q 1481 -109 1013 -844 
L 513 -844 
Q 928 -128 1133 580 
Q 1338 1288 1338 2009 
Q 1338 2731 1133 3434 
Q 928 4138 513 4856 
z
" transform="scale(0.015625)"/>
      </defs>
      <use xlink:href="#DejaVuSans-4e" transform="translate(0 0.015625)"/>
      <use xlink:href="#DejaVuSans-28" transform="translate(74.804688 0.015625)"/>
      <use xlink:href="#DejaVuSans-6b" transform="translate(113.818359 0.015625)"/>
      <use xlink:href="#DejaVuSans-29" transform="translate(171.728516 0.015625)"/>
     </g>
    </g>
   </g>
   <g id="line2d_7">
    <path d="M 95.94499 -1 
L 96.47796 17.510115 
L 98.387075 71.944648 
L 100.790507 125.232193 
L 103.816249 175.184305 
L 107.625433 220.506003 
L 112.420911 260.657112 
L 118.458061 295.618963 
L 126.058382 325.683462 
L 135.626619 351.300023 
L 147.672315 372.977519 
L 162.836949 391.226554 
L 181.928092 406.528095 
L 205.962417 419.318368 
L 236.219839 429.98341 
L 274.311677 438.859124 
L 322.26646 446.234291 
L 382.637954 452.354985 
L 458.641163 457.429496 
L 554.323534 461.633327 
L 674.780502 465.709713 
" clip-path="url(#pc76394eeef)" style="fill: none; stroke: #666666; stroke-width: 1.5; stroke-linecap: square"/>
   </g>
   <g id="line2d_8">
    <path d="M 92.800103 47.290397 
L 93.756927 75.253735 
L 94.961497 106.954761 
L 96.47796 141.012916 
L 98.387075 175.852928 
L 100.790507 210.04759 
L 103.816249 242.521324 
L 107.625433 272.58893 
L 112.420911 299.899076 
L 118.458061 324.347581 
L 126.058382 345.994868 
L 135.626619 365.000947 
L 147.672315 381.57923 
L 162.836949 395.965701 
L 181.928092 408.399285 
L 205.962417 419.109971 
L 236.219839 428.312127 
L 274.311677 436.201222 
L 322.26646 442.952709 
L 382.637954 448.722263 
L 458.641163 453.646796 
L 554.323534 457.845901 
L 674.780502 461.423489 
" clip-path="url(#pc76394eeef)" style="fill: none; stroke: #a9a9a9; stroke-width: 1.5; stroke-linecap: square"/>
   </g>
   <g id="patch_3">
    <path d="M 85.409375 481.69 
L 85.409375 38.17 
" style="fill: none; stroke: #000000; stroke-width: 0.8; stroke-linejoin: miter; stroke-linecap: square"/>
   </g>
   <g id="patch_4">
    <path d="M 643.409375 481.69 
L 643.409375 38.17 
" style="fill: none; stroke: #000000; stroke-width: 0.8; stroke-linejoin: miter; stroke-linecap: square"/>
   </g>
   <g id="patch_5">
    <path d="M 85.409375 481.69 
L 643.409375 481.69 
" style="fill: none; stroke: #000000; stroke-width: 0.8; stroke-linejoin: miter; stroke-linecap: square"/>
   </g>
   <g id="patch_6">
    <path d="M 85.409375 38.17 
L 643.409375 38.17 
" style="fill: none; stroke: #000000; stroke-width: 0.8; stroke-linejoin: miter; stroke-linecap: square"/>
   </g>
   <g id="text_9">
    <!-- Bakersfield -->
    <g transform="translate(275.659375 31.515) scale(0.32 -0.32)">
     <defs>
      <path id="DejaVuSans-42" d="M 1259 2228 
L 1259 519 
L 2272 519 
Q 2781 519 3026 730 
Q 3272 941 3272 1375 
Q 3272 1813 3026 2020 
Q 2781 2228 2272 2228 
L 1259 2228 
z
M 1259 4147 
L 1259 2741 
L 2194 2741 
Q 2656 2741 2882 2914 
Q 3109 3088 3109 3444 
Q 3109 3797 2882 3972 
Q 2656 4147 2194 4147 
L 1259 4147 
z
M 628 4666 
L 2241 4666 
Q 2963 4666 3353 4366 
Q 3744 4066 3744 3513 
Q 3744 3084 3544 2831 
Q 3344 2578 2956 2516 
Q 3422 2416 3680 2098 
Q 3938 1781 3938 1306 
Q 3938 681 3513 340 
Q 3088 0 2303 0 
L 628 0 
L 628 4666 
z
" transform="scale(0.015625)"/>
      <path id="DejaVuSans-61" d="M 2194 1759 
Q 1497 1759 1228 1600 
Q 959 1441 959 1056 
Q 959 750 1161 570 
Q 1363 391 1709 391 
Q 2188 391 2477 730 
Q 2766 1069 2766 1631 
L 2766 1759 
L 2194 1759 
z
M 3341 1997 
L 3341 0 
L 2766 0 
L 2766 531 
Q 2569 213 2275 61 
Q 1981 -91 1556 -91 
Q 1019 -91 701 211 
Q 384 513 384 1019 
Q 384 1609 779 1909 
Q 1175 2209 1959 2209 
L 2766 2209 
L 2766 2266 
Q 2766 2663 2505 2880 
Q 2244 3097 1772 3097 
Q 1472 3097 1187 3025 
Q 903 2953 641 2809 
L 641 3341 
Q 956 3463 1253 3523 
Q 1550 3584 1831 3584 
Q 2591 3584 2966 3190 
Q 3341 2797 3341 1997 
z
" transform="scale(0.015625)"/>
      <path id="DejaVuSans-65" d="M 3597 1894 
L 3597 1613 
L 953 1613 
Q 991 1019 1311 708 
Q 1631 397 2203 397 
Q 2534 397 2845 478 
Q 3156 559 3463 722 
L 3463 178 
Q 3153 47 2828 -22 
Q 2503 -91 2169 -91 
Q 1331 -91 842 396 
Q 353 884 353 1716 
Q 353 2575 817 3079 
Q 1281 3584 2069 3584 
Q 2775 3584 3186 3129 
Q 3597 2675 3597 1894 
z
M 3022 2063 
Q 3016 2534 2758 2815 
Q 2500 3097 2075 3097 
Q 1594 3097 1305 2825 
Q 1016 2553 972 2059 
L 3022 2063 
z
" transform="scale(0.015625)"/>
      <path id="DejaVuSans-72" d="M 2631 2963 
Q 2534 3019 2420 3045 
Q 2306 3072 2169 3072 
Q 1681 3072 1420 2755 
Q 1159 2438 1159 1844 
L 1159 0 
L 581 0 
L 581 3500 
L 1159 3500 
L 1159 2956 
Q 1341 3275 1631 3429 
Q 1922 3584 2338 3584 
Q 2397 3584 2469 3576 
Q 2541 3569 2628 3553 
L 2631 2963 
z
" transform="scale(0.015625)"/>
      <path id="DejaVuSans-73" d="M 2834 3397 
L 2834 2853 
Q 2591 2978 2328 3040 
Q 2066 3103 1784 3103 
Q 1356 3103 1142 2972 
Q 928 2841 928 2578 
Q 928 2378 1081 2264 
Q 1234 2150 1697 2047 
L 1894 2003 
Q 2506 1872 2764 1633 
Q 3022 1394 3022 966 
Q 3022 478 2636 193 
Q 2250 -91 1575 -91 
Q 1294 -91 989 -36 
Q 684 19 347 128 
L 347 722 
Q 666 556 975 473 
Q 1284 391 1588 391 
Q 1994 391 2212 530 
Q 2431 669 2431 922 
Q 2431 1156 2273 1281 
Q 2116 1406 1581 1522 
L 1381 1569 
Q 847 1681 609 1914 
Q 372 2147 372 2553 
Q 372 3047 722 3315 
Q 1072 3584 1716 3584 
Q 2034 3584 2315 3537 
Q 2597 3491 2834 3397 
z
" transform="scale(0.015625)"/>
      <path id="DejaVuSans-66" d="M 2375 4863 
L 2375 4384 
L 1825 4384 
Q 1516 4384 1395 4259 
Q 1275 4134 1275 3809 
L 1275 3500 
L 2222 3500 
L 2222 3053 
L 1275 3053 
L 1275 0 
L 697 0 
L 697 3053 
L 147 3053 
L 147 3500 
L 697 3500 
L 697 3744 
Q 697 4328 969 4595 
Q 1241 4863 1831 4863 
L 2375 4863 
z
" transform="scale(0.015625)"/>
      <path id="DejaVuSans-69" d="M 603 3500 
L 1178 3500 
L 1178 0 
L 603 0 
L 603 3500 
z
M 603 4863 
L 1178 4863 
L 1178 4134 
L 603 4134 
L 603 4863 
z
" transform="scale(0.015625)"/>
      <path id="DejaVuSans-6c" d="M 603 4863 
L 1178 4863 
L 1178 0 
L 603 0 
L 603 4863 
z
" transform="scale(0.015625)"/>
      <path id="DejaVuSans-64" d="M 2906 2969 
L 2906 4863 
L 3481 4863 
L 3481 0 
L 2906 0 
L 2906 525 
Q 2725 213 2448 61 
Q 2172 -91 1784 -91 
Q 1150 -91 751 415 
Q 353 922 353 1747 
Q 353 2572 751 3078 
Q 1150 3584 1784 3584 
Q 2172 3584 2448 3432 
Q 2725 3281 2906 2969 
z
M 947 1747 
Q 947 1113 1208 752 
Q 1469 391 1925 391 
Q 2381 391 2643 752 
Q 2906 1113 2906 1747 
Q 2906 2381 2643 2742 
Q 2381 3103 1925 3103 
Q 1469 3103 1208 2742 
Q 947 2381 947 1747 
z
" transform="scale(0.015625)"/>
     </defs>
     <use xlink:href="#DejaVuSans-42"/>
     <use xlink:href="#DejaVuSans-61" transform="translate(68.603516 0)"/>
     <use xlink:href="#DejaVuSans-6b" transform="translate(129.882812 0)"/>
     <use xlink:href="#DejaVuSans-65" transform="translate(184.167969 0)"/>
     <use xlink:href="#DejaVuSans-72" transform="translate(245.691406 0)"/>
     <use xlink:href="#DejaVuSans-73" transform="translate(286.804688 0)"/>
     <use xlink:href="#DejaVuSans-66" transform="translate(338.904297 0)"/>
     <use xlink:href="#DejaVuSans-69" transform="translate(374.109375 0)"/>
     <use xlink:href="#DejaVuSans-65" transform="translate(401.892578 0)"/>
     <use xlink:href="#DejaVuSans-6c" transform="translate(463.416016 0)"/>
     <use xlink:href="#DejaVuSans-64" transform="translate(491.199219 0)"/>
    </g>
   </g>
   <g id="PathCollection_3">
    <defs>
     <path id="m0b78626412" d="M 0 4.472136 
C 1.186024 4.472136 2.323632 4.000923 3.162278 3.162278 
C 4.000923 2.323632 4.472136 1.186024 4.472136 0 
C 4.472136 -1.186024 4.000923 -2.323632 3.162278 -3.162278 
C 2.323632 -4.000923 1.186024 -4.472136 0 -4.472136 
C -1.186024 -4.472136 -2.323632 -4.000923 -3.162278 -3.162278 
C -4.000923 -2.323632 -4.472136 -1.186024 -4.472136 0 
C -4.472136 1.186024 -4.000923 2.323632 -3.162278 3.162278 
C -2.323632 4.000923 -1.186024 4.472136 0 4.472136 
z
" style="stroke: #666666"/>
    </defs>
    <g clip-path="url(#pc76394eeef)">
     <use xlink:href="#m0b78626412" x="92.800103" y="13.53" style="fill: #666666; stroke: #666666"/>
     <use xlink:href="#m0b78626412" x="100.190832" y="112.09" style="fill: #666666; stroke: #666666"/>
     <use xlink:href="#m0b78626412" x="107.58156" y="235.29" style="fill: #666666; stroke: #666666"/>
     <use xlink:href="#m0b78626412" x="114.972289" y="296.89" style="fill: #666666; stroke: #666666"/>
     <use xlink:href="#m0b78626412" x="122.363017" y="346.17" style="fill: #666666; stroke: #666666"/>
     <use xlink:href="#m0b78626412" x="129.753746" y="247.61" style="fill: #666666; stroke: #666666"/>
     <use xlink:href="#m0b78626412" x="137.144474" y="346.17" style="fill: #666666; stroke: #666666"/>
     <use xlink:href="#m0b78626412" x="144.535203" y="395.45" style="fill: #666666; stroke: #666666"/>
     <use xlink:href="#m0b78626412" x="151.925931" y="358.49" style="fill: #666666; stroke: #666666"/>
     <use xlink:href="#m0b78626412" x="159.31666" y="346.17" style="fill: #666666; stroke: #666666"/>
     <use xlink:href="#m0b78626412" x="166.707388" y="358.49" style="fill: #666666; stroke: #666666"/>
     <use xlink:href="#m0b78626412" x="174.098117" y="407.77" style="fill: #666666; stroke: #666666"/>
     <use xlink:href="#m0b78626412" x="181.488845" y="370.81" style="fill: #666666; stroke: #666666"/>
     <use xlink:href="#m0b78626412" x="188.879574" y="420.09" style="fill: #666666; stroke: #666666"/>
     <use xlink:href="#m0b78626412" x="196.270302" y="370.81" style="fill: #666666; stroke: #666666"/>
     <use xlink:href="#m0b78626412" x="203.661031" y="420.09" style="fill: #666666; stroke: #666666"/>
     <use xlink:href="#m0b78626412" x="211.051759" y="420.09" style="fill: #666666; stroke: #666666"/>
     <use xlink:href="#m0b78626412" x="218.442488" y="444.73" style="fill: #666666; stroke: #666666"/>
     <use xlink:href="#m0b78626412" x="225.833216" y="407.77" style="fill: #666666; stroke: #666666"/>
     <use xlink:href="#m0b78626412" x="233.223945" y="444.73" style="fill: #666666; stroke: #666666"/>
     <use xlink:href="#m0b78626412" x="240.614673" y="432.41" style="fill: #666666; stroke: #666666"/>
     <use xlink:href="#m0b78626412" x="248.005401" y="444.73" style="fill: #666666; stroke: #666666"/>
     <use xlink:href="#m0b78626412" x="255.39613" y="432.41" style="fill: #666666; stroke: #666666"/>
     <use xlink:href="#m0b78626412" x="262.786858" y="420.09" style="fill: #666666; stroke: #666666"/>
     <use xlink:href="#m0b78626412" x="277.568315" y="457.05" style="fill: #666666; stroke: #666666"/>
     <use xlink:href="#m0b78626412" x="284.959044" y="457.05" style="fill: #666666; stroke: #666666"/>
     <use xlink:href="#m0b78626412" x="292.349772" y="457.05" style="fill: #666666; stroke: #666666"/>
     <use xlink:href="#m0b78626412" x="299.740501" y="457.05" style="fill: #666666; stroke: #666666"/>
     <use xlink:href="#m0b78626412" x="307.131229" y="383.13" style="fill: #666666; stroke: #666666"/>
     <use xlink:href="#m0b78626412" x="314.521958" y="457.05" style="fill: #666666; stroke: #666666"/>
     <use xlink:href="#m0b78626412" x="321.912686" y="432.41" style="fill: #666666; stroke: #666666"/>
     <use xlink:href="#m0b78626412" x="336.694143" y="457.05" style="fill: #666666; stroke: #666666"/>
     <use xlink:href="#m0b78626412" x="344.084872" y="457.05" style="fill: #666666; stroke: #666666"/>
     <use xlink:href="#m0b78626412" x="351.4756" y="457.05" style="fill: #666666; stroke: #666666"/>
     <use xlink:href="#m0b78626412" x="358.866329" y="457.05" style="fill: #666666; stroke: #666666"/>
     <use xlink:href="#m0b78626412" x="366.257057" y="457.05" style="fill: #666666; stroke: #666666"/>
     <use xlink:href="#m0b78626412" x="373.647786" y="457.05" style="fill: #666666; stroke: #666666"/>
     <use xlink:href="#m0b78626412" x="381.038514" y="457.05" style="fill: #666666; stroke: #666666"/>
     <use xlink:href="#m0b78626412" x="388.429243" y="457.05" style="fill: #666666; stroke: #666666"/>
     <use xlink:href="#m0b78626412" x="395.819971" y="457.05" style="fill: #666666; stroke: #666666"/>
     <use xlink:href="#m0b78626412" x="403.2107" y="457.05" style="fill: #666666; stroke: #666666"/>
     <use xlink:href="#m0b78626412" x="410.601428" y="457.05" style="fill: #666666; stroke: #666666"/>
     <use xlink:href="#m0b78626412" x="417.992156" y="457.05" style="fill: #666666; stroke: #666666"/>
     <use xlink:href="#m0b78626412" x="425.382885" y="457.05" style="fill: #666666; stroke: #666666"/>
     <use xlink:href="#m0b78626412" x="454.945799" y="457.05" style="fill: #666666; stroke: #666666"/>
     <use xlink:href="#m0b78626412" x="462.336527" y="457.05" style="fill: #666666; stroke: #666666"/>
     <use xlink:href="#m0b78626412" x="469.727256" y="457.05" style="fill: #666666; stroke: #666666"/>
     <use xlink:href="#m0b78626412" x="484.508713" y="457.05" style="fill: #666666; stroke: #666666"/>
     <use xlink:href="#m0b78626412" x="499.29017" y="457.05" style="fill: #666666; stroke: #666666"/>
     <use xlink:href="#m0b78626412" x="506.680898" y="457.05" style="fill: #666666; stroke: #666666"/>
     <use xlink:href="#m0b78626412" x="514.071627" y="457.05" style="fill: #666666; stroke: #666666"/>
     <use xlink:href="#m0b78626412" x="558.415998" y="457.05" style="fill: #666666; stroke: #666666"/>
     <use xlink:href="#m0b78626412" x="602.760368" y="457.05" style="fill: #666666; stroke: #666666"/>
     <use xlink:href="#m0b78626412" x="632.323282" y="457.05" style="fill: #666666; stroke: #666666"/>
     <use xlink:href="#m0b78626412" x="647.104739" y="457.05" style="fill: #666666; stroke: #666666"/>
     <use xlink:href="#m0b78626412" x="676.667653" y="457.05" style="fill: #666666; stroke: #666666"/>
     <use xlink:href="#m0b78626412" x="691.44911" y="457.05" style="fill: #666666; stroke: #666666"/>
     <use xlink:href="#m0b78626412" x="698.839839" y="457.05" style="fill: #666666; stroke: #666666"/>
     <use xlink:href="#m0b78626412" x="728.402752" y="457.05" style="fill: #666666; stroke: #666666"/>
     <use xlink:href="#m0b78626412" x="757.965666" y="457.05" style="fill: #666666; stroke: #666666"/>
     <use xlink:href="#m0b78626412" x="765.356395" y="457.05" style="fill: #666666; stroke: #666666"/>
     <use xlink:href="#m0b78626412" x="794.919309" y="457.05" style="fill: #666666; stroke: #666666"/>
    </g>
   </g>
  </g>
 </g>
 <defs>
  <clipPath id="pc76394eeef">
   <rect x="85.409375" y="38.17" width="558" height="443.52"/>
  </clipPath>
 </defs>
</svg>
