<?xml version="1.0" encoding="utf-8" standalone="no"?>
<!DOCTYPE svg PUBLIC "-//W3C//DTD SVG 1.1//EN"
  "http://www.w3.org/Graphics/SVG/1.1/DTD/svg11.dtd">
<svg xmlns:xlink="http://www.w3.org/1999/xlink" width="665.234375pt" height="557.95875pt" viewBox="0 0 665.234375 557.95875" xmlns="http://www.w3.org/2000/svg" version="1.1">
 <metadata>
  <rdf:RDF xmlns:dc="http://purl.org/dc/elements/1.1/" xmlns:cc="http://creativecommons.org/ns#" xmlns:rdf="http://www.w3.org/1999/02/22-rdf-syntax-ns#">
   <cc:Work>
    <dc:type rdf:resource="http://purl.org/dc/dcmitype/StillImage"/>
    <dc:date>2025-06-02T15:34:29.476777</dc:date>
    <dc:format>image/svg+xml</dc:format>
    <dc:creator>
     <cc:Agent>
      <dc:title>Matplotlib v3.10.3, https://matplotlib.org/</dc:title>
     </cc:Agent>
    </dc:creator>
   </cc:Work>
  </rdf:RDF>
 </metadata>
 <defs>
  <style type="text/css">*{stroke-linejoin: round; stroke-linecap: butt}</style>
 </defs>
 <g id="figure_1">
  <g id="patch_1">
   <path d="M 0 557.95875 
L 665.234375 557.95875 
L 665.234375 0 
L 0 0 
z
" style="fill: #ffffff"/>
  </g>
  <g id="axes_1">
   <g id="patch_2">
    <path d="M 100.034375 481.69 
L 658.034375 481.69 
L 658.034375 38.17 
L 100.034375 38.17 
z
" style="fill: #ffffff"/>
   </g>
   <g id="PathCollection_1">
    <defs>
     <path id="m534da4d5e6" d="M 0 -4.472136 
L -4.472136 4.472136 
L 4.472136 4.472136 
z
" style="stroke: #a9a9a9"/>
    </defs>
    <g clip-path="url(#pf96fc12862)">
     <use xlink:href="#m534da4d5e6" x="111.526012" y="106.3439" style="fill: #a9a9a9; stroke: #a9a9a9"/>
     <use xlink:href="#m534da4d5e6" x="231.351297" y="154.06521" style="fill: #a9a9a9; stroke: #a9a9a9"/>
     <use xlink:href="#m534da4d5e6" x="287.066882" y="159.448279" style="fill: #a9a9a9; stroke: #a9a9a9"/>
     <use xlink:href="#m534da4d5e6" x="323.7658" y="213.512684" style="fill: #a9a9a9; stroke: #a9a9a9"/>
     <use xlink:href="#m534da4d5e6" x="351.176583" y="205.349658" style="fill: #a9a9a9; stroke: #a9a9a9"/>
     <use xlink:href="#m534da4d5e6" x="373.06367" y="190.452105" style="fill: #a9a9a9; stroke: #a9a9a9"/>
     <use xlink:href="#m534da4d5e6" x="391.284205" y="293.021" style="fill: #a9a9a9; stroke: #a9a9a9"/>
     <use xlink:href="#m534da4d5e6" x="406.892167" y="293.021" style="fill: #a9a9a9; stroke: #a9a9a9"/>
     <use xlink:href="#m534da4d5e6" x="420.543671" y="293.021" style="fill: #a9a9a9; stroke: #a9a9a9"/>
     <use xlink:href="#m534da4d5e6" x="432.675015" y="278.123447" style="fill: #a9a9a9; stroke: #a9a9a9"/>
     <use xlink:href="#m534da4d5e6" x="443.591085" y="252.742014" style="fill: #a9a9a9; stroke: #a9a9a9"/>
     <use xlink:href="#m534da4d5e6" x="453.513347" y="293.021" style="fill: #a9a9a9; stroke: #a9a9a9"/>
     <use xlink:href="#m534da4d5e6" x="462.607752" y="231.61251" style="fill: #a9a9a9; stroke: #a9a9a9"/>
     <use xlink:href="#m534da4d5e6" x="471.001868" y="417.079237" style="fill: #a9a9a9; stroke: #a9a9a9"/>
     <use xlink:href="#m534da4d5e6" x="478.795874" y="352.468474" style="fill: #a9a9a9; stroke: #a9a9a9"/>
     <use xlink:href="#m534da4d5e6" x="486.06988" y="380.692343" style="fill: #a9a9a9; stroke: #a9a9a9"/>
     <use xlink:href="#m534da4d5e6" x="492.888955" y="352.468474" style="fill: #a9a9a9; stroke: #a9a9a9"/>
     <use xlink:href="#m534da4d5e6" x="499.30667" y="380.692343" style="fill: #a9a9a9; stroke: #a9a9a9"/>
     <use xlink:href="#m534da4d5e6" x="505.367655" y="380.692343" style="fill: #a9a9a9; stroke: #a9a9a9"/>
     <use xlink:href="#m534da4d5e6" x="511.10949" y="352.468474" style="fill: #a9a9a9; stroke: #a9a9a9"/>
     <use xlink:href="#m534da4d5e6" x="516.56411" y="380.692343" style="fill: #a9a9a9; stroke: #a9a9a9"/>
     <use xlink:href="#m534da4d5e6" x="521.758886" y="352.468474" style="fill: #a9a9a9; stroke: #a9a9a9"/>
     <use xlink:href="#m534da4d5e6" x="531.46036" y="380.692343" style="fill: #a9a9a9; stroke: #a9a9a9"/>
     <use xlink:href="#m534da4d5e6" x="536.005587" y="241.736553" style="fill: #a9a9a9; stroke: #a9a9a9"/>
     <use xlink:href="#m534da4d5e6" x="540.368956" y="468.363685" style="fill: #a9a9a9; stroke: #a9a9a9"/>
     <use xlink:href="#m534da4d5e6" x="544.564461" y="352.468474" style="fill: #a9a9a9; stroke: #a9a9a9"/>
     <use xlink:href="#m534da4d5e6" x="552.5003" y="352.468474" style="fill: #a9a9a9; stroke: #a9a9a9"/>
     <use xlink:href="#m534da4d5e6" x="556.261696" y="468.363685" style="fill: #a9a9a9; stroke: #a9a9a9"/>
     <use xlink:href="#m534da4d5e6" x="559.897688" y="417.079237" style="fill: #a9a9a9; stroke: #a9a9a9"/>
     <use xlink:href="#m534da4d5e6" x="563.41637" y="380.692343" style="fill: #a9a9a9; stroke: #a9a9a9"/>
     <use xlink:href="#m534da4d5e6" x="566.825075" y="468.363685" style="fill: #a9a9a9; stroke: #a9a9a9"/>
     <use xlink:href="#m534da4d5e6" x="570.130469" y="468.363685" style="fill: #a9a9a9; stroke: #a9a9a9"/>
     <use xlink:href="#m534da4d5e6" x="576.455121" y="380.692343" style="fill: #a9a9a9; stroke: #a9a9a9"/>
     <use xlink:href="#m534da4d5e6" x="582.433037" y="468.363685" style="fill: #a9a9a9; stroke: #a9a9a9"/>
     <use xlink:href="#m534da4d5e6" x="588.100269" y="380.692343" style="fill: #a9a9a9; stroke: #a9a9a9"/>
     <use xlink:href="#m534da4d5e6" x="596.084541" y="380.692343" style="fill: #a9a9a9; stroke: #a9a9a9"/>
     <use xlink:href="#m534da4d5e6" x="601.100122" y="468.363685" style="fill: #a9a9a9; stroke: #a9a9a9"/>
     <use xlink:href="#m534da4d5e6" x="603.523992" y="468.363685" style="fill: #a9a9a9; stroke: #a9a9a9"/>
     <use xlink:href="#m534da4d5e6" x="612.714241" y="468.363685" style="fill: #a9a9a9; stroke: #a9a9a9"/>
     <use xlink:href="#m534da4d5e6" x="614.895707" y="468.363685" style="fill: #a9a9a9; stroke: #a9a9a9"/>
     <use xlink:href="#m534da4d5e6" x="617.034396" y="417.079237" style="fill: #a9a9a9; stroke: #a9a9a9"/>
     <use xlink:href="#m534da4d5e6" x="623.209801" y="468.363685" style="fill: #a9a9a9; stroke: #a9a9a9"/>
     <use xlink:href="#m534da4d5e6" x="629.054217" y="468.363685" style="fill: #a9a9a9; stroke: #a9a9a9"/>
     <use xlink:href="#m534da4d5e6" x="632.783458" y="468.363685" style="fill: #a9a9a9; stroke: #a9a9a9"/>
     <use xlink:href="#m534da4d5e6" x="638.148622" y="468.363685" style="fill: #a9a9a9; stroke: #a9a9a9"/>
     <use xlink:href="#m534da4d5e6" x="641.584171" y="468.363685" style="fill: #a9a9a9; stroke: #a9a9a9"/>
     <use xlink:href="#m534da4d5e6" x="648.146733" y="380.692343" style="fill: #a9a9a9; stroke: #a9a9a9"/>
     <use xlink:href="#m534da4d5e6" x="658.759093" y="468.363685" style="fill: #a9a9a9; stroke: #a9a9a9"/>
     <use xlink:href="#m534da4d5e6" x="660.194241" y="468.363685" style="fill: #a9a9a9; stroke: #a9a9a9"/>
     <use xlink:href="#m534da4d5e6" x="673.593851" y="468.363685" style="fill: #a9a9a9; stroke: #a9a9a9"/>
     <use xlink:href="#m534da4d5e6" x="676.086981" y="468.363685" style="fill: #a9a9a9; stroke: #a9a9a9"/>
     <use xlink:href="#m534da4d5e6" x="680.908525" y="468.363685" style="fill: #a9a9a9; stroke: #a9a9a9"/>
     <use xlink:href="#m534da4d5e6" x="688.865049" y="468.363685" style="fill: #a9a9a9; stroke: #a9a9a9"/>
     <use xlink:href="#m534da4d5e6" x="691.035661" y="468.363685" style="fill: #a9a9a9; stroke: #a9a9a9"/>
    </g>
   </g>
   <g id="PathCollection_2">
    <defs>
     <path id="m5998a6da68" d="M -0 4.472136 
L 4.472136 -4.472136 
L -4.472136 -4.472136 
z
" style="stroke: #a9a9a9"/>
    </defs>
    <g clip-path="url(#pf96fc12862)">
     <use xlink:href="#m5998a6da68" x="111.526012" y="106.3439" style="fill: #a9a9a9; stroke: #a9a9a9"/>
     <use xlink:href="#m5998a6da68" x="231.351297" y="170.954663" style="fill: #a9a9a9; stroke: #a9a9a9"/>
     <use xlink:href="#m5998a6da68" x="287.066882" y="148.901922" style="fill: #a9a9a9; stroke: #a9a9a9"/>
     <use xlink:href="#m5998a6da68" x="323.7658" y="241.736553" style="fill: #a9a9a9; stroke: #a9a9a9"/>
     <use xlink:href="#m5998a6da68" x="351.176583" y="241.736553" style="fill: #a9a9a9; stroke: #a9a9a9"/>
     <use xlink:href="#m5998a6da68" x="373.06367" y="205.349658" style="fill: #a9a9a9; stroke: #a9a9a9"/>
     <use xlink:href="#m5998a6da68" x="391.284205" y="241.736553" style="fill: #a9a9a9; stroke: #a9a9a9"/>
     <use xlink:href="#m5998a6da68" x="406.892167" y="278.123447" style="fill: #a9a9a9; stroke: #a9a9a9"/>
     <use xlink:href="#m5998a6da68" x="420.543671" y="264.797132" style="fill: #a9a9a9; stroke: #a9a9a9"/>
     <use xlink:href="#m5998a6da68" x="432.675015" y="278.123447" style="fill: #a9a9a9; stroke: #a9a9a9"/>
     <use xlink:href="#m5998a6da68" x="443.591085" y="231.61251" style="fill: #a9a9a9; stroke: #a9a9a9"/>
     <use xlink:href="#m5998a6da68" x="453.513347" y="278.123447" style="fill: #a9a9a9; stroke: #a9a9a9"/>
     <use xlink:href="#m5998a6da68" x="462.607752" y="329.407895" style="fill: #a9a9a9; stroke: #a9a9a9"/>
     <use xlink:href="#m5998a6da68" x="471.001868" y="329.407895" style="fill: #a9a9a9; stroke: #a9a9a9"/>
     <use xlink:href="#m5998a6da68" x="478.795874" y="293.021" style="fill: #a9a9a9; stroke: #a9a9a9"/>
     <use xlink:href="#m5998a6da68" x="486.06988" y="352.468474" style="fill: #a9a9a9; stroke: #a9a9a9"/>
     <use xlink:href="#m5998a6da68" x="492.888955" y="417.079237" style="fill: #a9a9a9; stroke: #a9a9a9"/>
     <use xlink:href="#m5998a6da68" x="499.30667" y="380.692343" style="fill: #a9a9a9; stroke: #a9a9a9"/>
     <use xlink:href="#m5998a6da68" x="505.367655" y="329.407895" style="fill: #a9a9a9; stroke: #a9a9a9"/>
     <use xlink:href="#m5998a6da68" x="511.10949" y="329.407895" style="fill: #a9a9a9; stroke: #a9a9a9"/>
     <use xlink:href="#m5998a6da68" x="516.56411" y="329.407895" style="fill: #a9a9a9; stroke: #a9a9a9"/>
     <use xlink:href="#m5998a6da68" x="521.758886" y="329.407895" style="fill: #a9a9a9; stroke: #a9a9a9"/>
     <use xlink:href="#m5998a6da68" x="526.717453" y="417.079237" style="fill: #a9a9a9; stroke: #a9a9a9"/>
     <use xlink:href="#m5998a6da68" x="531.46036" y="468.363685" style="fill: #a9a9a9; stroke: #a9a9a9"/>
     <use xlink:href="#m5998a6da68" x="536.005587" y="380.692343" style="fill: #a9a9a9; stroke: #a9a9a9"/>
     <use xlink:href="#m5998a6da68" x="540.368956" y="380.692343" style="fill: #a9a9a9; stroke: #a9a9a9"/>
     <use xlink:href="#m5998a6da68" x="544.564461" y="329.407895" style="fill: #a9a9a9; stroke: #a9a9a9"/>
     <use xlink:href="#m5998a6da68" x="548.60454" y="329.407895" style="fill: #a9a9a9; stroke: #a9a9a9"/>
     <use xlink:href="#m5998a6da68" x="552.5003" y="468.363685" style="fill: #a9a9a9; stroke: #a9a9a9"/>
     <use xlink:href="#m5998a6da68" x="556.261696" y="468.363685" style="fill: #a9a9a9; stroke: #a9a9a9"/>
     <use xlink:href="#m5998a6da68" x="563.41637" y="468.363685" style="fill: #a9a9a9; stroke: #a9a9a9"/>
     <use xlink:href="#m5998a6da68" x="566.825075" y="380.692343" style="fill: #a9a9a9; stroke: #a9a9a9"/>
     <use xlink:href="#m5998a6da68" x="570.130469" y="417.079237" style="fill: #a9a9a9; stroke: #a9a9a9"/>
     <use xlink:href="#m5998a6da68" x="573.338632" y="468.363685" style="fill: #a9a9a9; stroke: #a9a9a9"/>
     <use xlink:href="#m5998a6da68" x="576.455121" y="468.363685" style="fill: #a9a9a9; stroke: #a9a9a9"/>
     <use xlink:href="#m5998a6da68" x="579.485029" y="468.363685" style="fill: #a9a9a9; stroke: #a9a9a9"/>
     <use xlink:href="#m5998a6da68" x="582.433037" y="468.363685" style="fill: #a9a9a9; stroke: #a9a9a9"/>
     <use xlink:href="#m5998a6da68" x="585.303458" y="468.363685" style="fill: #a9a9a9; stroke: #a9a9a9"/>
     <use xlink:href="#m5998a6da68" x="588.100269" y="468.363685" style="fill: #a9a9a9; stroke: #a9a9a9"/>
     <use xlink:href="#m5998a6da68" x="596.084541" y="468.363685" style="fill: #a9a9a9; stroke: #a9a9a9"/>
     <use xlink:href="#m5998a6da68" x="598.621159" y="468.363685" style="fill: #a9a9a9; stroke: #a9a9a9"/>
     <use xlink:href="#m5998a6da68" x="601.100122" y="468.363685" style="fill: #a9a9a9; stroke: #a9a9a9"/>
     <use xlink:href="#m5998a6da68" x="603.523992" y="380.692343" style="fill: #a9a9a9; stroke: #a9a9a9"/>
     <use xlink:href="#m5998a6da68" x="605.895166" y="468.363685" style="fill: #a9a9a9; stroke: #a9a9a9"/>
     <use xlink:href="#m5998a6da68" x="608.215885" y="468.363685" style="fill: #a9a9a9; stroke: #a9a9a9"/>
     <use xlink:href="#m5998a6da68" x="612.714241" y="468.363685" style="fill: #a9a9a9; stroke: #a9a9a9"/>
     <use xlink:href="#m5998a6da68" x="617.034396" y="468.363685" style="fill: #a9a9a9; stroke: #a9a9a9"/>
     <use xlink:href="#m5998a6da68" x="623.209801" y="468.363685" style="fill: #a9a9a9; stroke: #a9a9a9"/>
     <use xlink:href="#m5998a6da68" x="625.19294" y="468.363685" style="fill: #a9a9a9; stroke: #a9a9a9"/>
     <use xlink:href="#m5998a6da68" x="629.054217" y="468.363685" style="fill: #a9a9a9; stroke: #a9a9a9"/>
     <use xlink:href="#m5998a6da68" x="630.934775" y="468.363685" style="fill: #a9a9a9; stroke: #a9a9a9"/>
     <use xlink:href="#m5998a6da68" x="632.783458" y="468.363685" style="fill: #a9a9a9; stroke: #a9a9a9"/>
     <use xlink:href="#m5998a6da68" x="638.148622" y="468.363685" style="fill: #a9a9a9; stroke: #a9a9a9"/>
     <use xlink:href="#m5998a6da68" x="644.914802" y="468.363685" style="fill: #a9a9a9; stroke: #a9a9a9"/>
     <use xlink:href="#m5998a6da68" x="649.72748" y="468.363685" style="fill: #a9a9a9; stroke: #a9a9a9"/>
     <use xlink:href="#m5998a6da68" x="658.759093" y="468.363685" style="fill: #a9a9a9; stroke: #a9a9a9"/>
     <use xlink:href="#m5998a6da68" x="660.194241" y="468.363685" style="fill: #a9a9a9; stroke: #a9a9a9"/>
     <use xlink:href="#m5998a6da68" x="672.325585" y="468.363685" style="fill: #a9a9a9; stroke: #a9a9a9"/>
     <use xlink:href="#m5998a6da68" x="673.593851" y="468.363685" style="fill: #a9a9a9; stroke: #a9a9a9"/>
     <use xlink:href="#m5998a6da68" x="677.312496" y="468.363685" style="fill: #a9a9a9; stroke: #a9a9a9"/>
     <use xlink:href="#m5998a6da68" x="678.524394" y="468.363685" style="fill: #a9a9a9; stroke: #a9a9a9"/>
     <use xlink:href="#m5998a6da68" x="692.10498" y="468.363685" style="fill: #a9a9a9; stroke: #a9a9a9"/>
    </g>
   </g>
   <g id="matplotlib.axis_1">
    <g id="xtick_1">
     <g id="line2d_1">
      <defs>
       <path id="ma452793813" d="M 0 0 
L 0 3.5 
" style="stroke: #000000; stroke-width: 0.8"/>
      </defs>
      <g>
       <use xlink:href="#ma452793813" x="111.526012" y="481.69" style="stroke: #000000; stroke-width: 0.8"/>
      </g>
     </g>
     <g id="text_1">
      <!-- $\mathdefault{10^{0}}$ -->
      <g transform="translate(85.126012 511.485313) scale(0.3 -0.3)">
       <defs>
        <path id="DejaVuSans-31" d="M 794 531 
L 1825 531 
L 1825 4091 
L 703 3866 
L 703 4441 
L 1819 4666 
L 2450 4666 
L 2450 531 
L 3481 531 
L 3481 0 
L 794 0 
L 794 531 
z
" transform="scale(0.015625)"/>
        <path id="DejaVuSans-30" d="M 2034 4250 
Q 1547 4250 1301 3770 
Q 1056 3291 1056 2328 
Q 1056 1369 1301 889 
Q 1547 409 2034 409 
Q 2525 409 2770 889 
Q 3016 1369 3016 2328 
Q 3016 3291 2770 3770 
Q 2525 4250 2034 4250 
z
M 2034 4750 
Q 2819 4750 3233 4129 
Q 3647 3509 3647 2328 
Q 3647 1150 3233 529 
Q 2819 -91 2034 -91 
Q 1250 -91 836 529 
Q 422 1150 422 2328 
Q 422 3509 836 4129 
Q 1250 4750 2034 4750 
z
" transform="scale(0.015625)"/>
       </defs>
       <use xlink:href="#DejaVuSans-31" transform="translate(0 0.765625)"/>
       <use xlink:href="#DejaVuSans-30" transform="translate(63.623047 0.765625)"/>
       <use xlink:href="#DejaVuSans-30" transform="translate(128.203125 39.046875) scale(0.7)"/>
      </g>
     </g>
    </g>
    <g id="xtick_2">
     <g id="line2d_2">
      <g>
       <use xlink:href="#ma452793813" x="362.66822" y="481.69" style="stroke: #000000; stroke-width: 0.8"/>
      </g>
     </g>
     <g id="text_2">
      <!-- $\mathdefault{10^{1}}$ -->
      <g transform="translate(336.26822 511.485313) scale(0.3 -0.3)">
       <use xlink:href="#DejaVuSans-31" transform="translate(0 0.684375)"/>
       <use xlink:href="#DejaVuSans-30" transform="translate(63.623047 0.684375)"/>
       <use xlink:href="#DejaVuSans-31" transform="translate(128.203125 38.965625) scale(0.7)"/>
      </g>
     </g>
    </g>
    <g id="xtick_3">
     <g id="line2d_3">
      <g>
       <use xlink:href="#ma452793813" x="613.810427" y="481.69" style="stroke: #000000; stroke-width: 0.8"/>
      </g>
     </g>
     <g id="text_3">
      <!-- $\mathdefault{10^{2}}$ -->
      <g transform="translate(587.410427 511.485313) scale(0.3 -0.3)">
       <defs>
        <path id="DejaVuSans-32" d="M 1228 531 
L 3431 531 
L 3431 0 
L 469 0 
L 469 531 
Q 828 903 1448 1529 
Q 2069 2156 2228 2338 
Q 2531 2678 2651 2914 
Q 2772 3150 2772 3378 
Q 2772 3750 2511 3984 
Q 2250 4219 1831 4219 
Q 1534 4219 1204 4116 
Q 875 4013 500 3803 
L 500 4441 
Q 881 4594 1212 4672 
Q 1544 4750 1819 4750 
Q 2544 4750 2975 4387 
Q 3406 4025 3406 3419 
Q 3406 3131 3298 2873 
Q 3191 2616 2906 2266 
Q 2828 2175 2409 1742 
Q 1991 1309 1228 531 
z
" transform="scale(0.015625)"/>
       </defs>
       <use xlink:href="#DejaVuSans-31" transform="translate(0 0.765625)"/>
       <use xlink:href="#DejaVuSans-30" transform="translate(63.623047 0.765625)"/>
       <use xlink:href="#DejaVuSans-32" transform="translate(128.203125 39.046875) scale(0.7)"/>
      </g>
     </g>
    </g>
    <g id="xtick_4">
     <g id="line2d_4">
      <defs>
       <path id="me641498aca" d="M 0 0 
L 0 2 
" style="stroke: #000000; stroke-width: 0.6"/>
      </defs>
      <g>
       <use xlink:href="#me641498aca" x="100.034375" y="481.69" style="stroke: #000000; stroke-width: 0.6"/>
      </g>
     </g>
    </g>
    <g id="xtick_5">
     <g id="line2d_5">
      <g>
       <use xlink:href="#me641498aca" x="187.12735" y="481.69" style="stroke: #000000; stroke-width: 0.6"/>
      </g>
     </g>
    </g>
    <g id="xtick_6">
     <g id="line2d_6">
      <g>
       <use xlink:href="#me641498aca" x="231.351297" y="481.69" style="stroke: #000000; stroke-width: 0.6"/>
      </g>
     </g>
    </g>
    <g id="xtick_7">
     <g id="line2d_7">
      <g>
       <use xlink:href="#me641498aca" x="262.728688" y="481.69" style="stroke: #000000; stroke-width: 0.6"/>
      </g>
     </g>
    </g>
    <g id="xtick_8">
     <g id="line2d_8">
      <g>
       <use xlink:href="#me641498aca" x="287.066882" y="481.69" style="stroke: #000000; stroke-width: 0.6"/>
      </g>
     </g>
    </g>
    <g id="xtick_9">
     <g id="line2d_9">
      <g>
       <use xlink:href="#me641498aca" x="306.952635" y="481.69" style="stroke: #000000; stroke-width: 0.6"/>
      </g>
     </g>
    </g>
    <g id="xtick_10">
     <g id="line2d_10">
      <g>
       <use xlink:href="#me641498aca" x="323.7658" y="481.69" style="stroke: #000000; stroke-width: 0.6"/>
      </g>
     </g>
    </g>
    <g id="xtick_11">
     <g id="line2d_11">
      <g>
       <use xlink:href="#me641498aca" x="338.330025" y="481.69" style="stroke: #000000; stroke-width: 0.6"/>
      </g>
     </g>
    </g>
    <g id="xtick_12">
     <g id="line2d_12">
      <g>
       <use xlink:href="#me641498aca" x="351.176583" y="481.69" style="stroke: #000000; stroke-width: 0.6"/>
      </g>
     </g>
    </g>
    <g id="xtick_13">
     <g id="line2d_13">
      <g>
       <use xlink:href="#me641498aca" x="438.269557" y="481.69" style="stroke: #000000; stroke-width: 0.6"/>
      </g>
     </g>
    </g>
    <g id="xtick_14">
     <g id="line2d_14">
      <g>
       <use xlink:href="#me641498aca" x="482.493505" y="481.69" style="stroke: #000000; stroke-width: 0.6"/>
      </g>
     </g>
    </g>
    <g id="xtick_15">
     <g id="line2d_15">
      <g>
       <use xlink:href="#me641498aca" x="513.870895" y="481.69" style="stroke: #000000; stroke-width: 0.6"/>
      </g>
     </g>
    </g>
    <g id="xtick_16">
     <g id="line2d_16">
      <g>
       <use xlink:href="#me641498aca" x="538.20909" y="481.69" style="stroke: #000000; stroke-width: 0.6"/>
      </g>
     </g>
    </g>
    <g id="xtick_17">
     <g id="line2d_17">
      <g>
       <use xlink:href="#me641498aca" x="558.094843" y="481.69" style="stroke: #000000; stroke-width: 0.6"/>
      </g>
     </g>
    </g>
    <g id="xtick_18">
     <g id="line2d_18">
      <g>
       <use xlink:href="#me641498aca" x="574.908007" y="481.69" style="stroke: #000000; stroke-width: 0.6"/>
      </g>
     </g>
    </g>
    <g id="xtick_19">
     <g id="line2d_19">
      <g>
       <use xlink:href="#me641498aca" x="589.472233" y="481.69" style="stroke: #000000; stroke-width: 0.6"/>
      </g>
     </g>
    </g>
    <g id="xtick_20">
     <g id="line2d_20">
      <g>
       <use xlink:href="#me641498aca" x="602.31879" y="481.69" style="stroke: #000000; stroke-width: 0.6"/>
      </g>
     </g>
    </g>
    <g id="text_4">
     <!-- $\mathrm{k}$ -->
     <g transform="translate(370.334375 544.519688) scale(0.3 -0.3)">
      <defs>
       <path id="DejaVuSans-6b" d="M 581 4863 
L 1159 4863 
L 1159 1991 
L 2875 3500 
L 3609 3500 
L 1753 1863 
L 3688 0 
L 2938 0 
L 1159 1709 
L 1159 0 
L 581 0 
L 581 4863 
z
" transform="scale(0.015625)"/>
      </defs>
      <use xlink:href="#DejaVuSans-6b" transform="translate(0 0.015625)"/>
     </g>
    </g>
   </g>
   <g id="matplotlib.axis_2">
    <g id="ytick_1">
     <g id="line2d_21">
      <defs>
       <path id="m7351e129d6" d="M 0 0 
L -3.5 0 
" style="stroke: #000000; stroke-width: 0.8"/>
      </defs>
      <g>
       <use xlink:href="#m7351e129d6" x="100.034375" y="468.363685" style="stroke: #000000; stroke-width: 0.8"/>
      </g>
     </g>
     <g id="text_5">
      <!-- $\mathdefault{10^{0}}$ -->
      <g transform="translate(40.234375 479.761341) scale(0.3 -0.3)">
       <use xlink:href="#DejaVuSans-31" transform="translate(0 0.765625)"/>
       <use xlink:href="#DejaVuSans-30" transform="translate(63.623047 0.765625)"/>
       <use xlink:href="#DejaVuSans-30" transform="translate(128.203125 39.046875) scale(0.7)"/>
      </g>
     </g>
    </g>
    <g id="ytick_2">
     <g id="line2d_22">
      <g>
       <use xlink:href="#m7351e129d6" x="100.034375" y="177.12579" style="stroke: #000000; stroke-width: 0.8"/>
      </g>
     </g>
     <g id="text_6">
      <!-- $\mathdefault{10^{1}}$ -->
      <g transform="translate(40.234375 188.523446) scale(0.3 -0.3)">
       <use xlink:href="#DejaVuSans-31" transform="translate(0 0.684375)"/>
       <use xlink:href="#DejaVuSans-30" transform="translate(63.623047 0.684375)"/>
       <use xlink:href="#DejaVuSans-31" transform="translate(128.203125 38.965625) scale(0.7)"/>
      </g>
     </g>
    </g>
    <g id="ytick_3">
     <g id="line2d_23">
      <defs>
       <path id="md5682695d1" d="M 0 0 
L -2 0 
" style="stroke: #000000; stroke-width: 0.6"/>
      </defs>
      <g>
       <use xlink:href="#md5682695d1" x="100.034375" y="481.69" style="stroke: #000000; stroke-width: 0.6"/>
      </g>
     </g>
    </g>
    <g id="ytick_4">
     <g id="line2d_24">
      <g>
       <use xlink:href="#md5682695d1" x="100.034375" y="380.692343" style="stroke: #000000; stroke-width: 0.6"/>
      </g>
     </g>
    </g>
    <g id="ytick_5">
     <g id="line2d_25">
      <g>
       <use xlink:href="#md5682695d1" x="100.034375" y="329.407895" style="stroke: #000000; stroke-width: 0.6"/>
      </g>
     </g>
    </g>
    <g id="ytick_6">
     <g id="line2d_26">
      <g>
       <use xlink:href="#md5682695d1" x="100.034375" y="293.021" style="stroke: #000000; stroke-width: 0.6"/>
      </g>
     </g>
    </g>
    <g id="ytick_7">
     <g id="line2d_27">
      <g>
       <use xlink:href="#md5682695d1" x="100.034375" y="264.797132" style="stroke: #000000; stroke-width: 0.6"/>
      </g>
     </g>
    </g>
    <g id="ytick_8">
     <g id="line2d_28">
      <g>
       <use xlink:href="#md5682695d1" x="100.034375" y="241.736553" style="stroke: #000000; stroke-width: 0.6"/>
      </g>
     </g>
    </g>
    <g id="ytick_9">
     <g id="line2d_29">
      <g>
       <use xlink:href="#md5682695d1" x="100.034375" y="222.239111" style="stroke: #000000; stroke-width: 0.6"/>
      </g>
     </g>
    </g>
    <g id="ytick_10">
     <g id="line2d_30">
      <g>
       <use xlink:href="#md5682695d1" x="100.034375" y="205.349658" style="stroke: #000000; stroke-width: 0.6"/>
      </g>
     </g>
    </g>
    <g id="ytick_11">
     <g id="line2d_31">
      <g>
       <use xlink:href="#md5682695d1" x="100.034375" y="190.452105" style="stroke: #000000; stroke-width: 0.6"/>
      </g>
     </g>
    </g>
    <g id="ytick_12">
     <g id="line2d_32">
      <g>
       <use xlink:href="#md5682695d1" x="100.034375" y="89.454448" style="stroke: #000000; stroke-width: 0.6"/>
      </g>
     </g>
    </g>
    <g id="ytick_13">
     <g id="line2d_33">
      <g>
       <use xlink:href="#md5682695d1" x="100.034375" y="38.17" style="stroke: #000000; stroke-width: 0.6"/>
      </g>
     </g>
    </g>
    <g id="text_7">
     <!-- $\mathrm{N}( \mathrm{k} )$ -->
     <g transform="translate(29.995312 291.58) rotate(-90) scale(0.3 -0.3)">
      <defs>
       <path id="DejaVuSans-4e" d="M 628 4666 
L 1478 4666 
L 3547 763 
L 3547 4666 
L 4159 4666 
L 4159 0 
L 3309 0 
L 1241 3903 
L 1241 0 
L 628 0 
L 628 4666 
z
" transform="scale(0.015625)"/>
       <path id="DejaVuSans-28" d="M 1984 4856 
Q 1566 4138 1362 3434 
Q 1159 2731 1159 2009 
Q 1159 1288 1364 580 
Q 1569 -128 1984 -844 
L 1484 -844 
Q 1016 -109 783 600 
Q 550 1309 550 2009 
Q 550 2706 781 3412 
Q 1013 4119 1484 4856 
L 1984 4856 
z
" transform="scale(0.015625)"/>
       <path id="DejaVuSans-29" d="M 513 4856 
L 1013 4856 
Q 1481 4119 1714 3412 
Q 1947 2706 1947 2009 
Q 1947 1309 1714 600 
Q 1481 -109 1013 -844 
L 513 -844 
Q 928 -128 1133 580 
Q 1338 1288 1338 2009 
Q 1338 2731 1133 3434 
Q 928 4138 513 4856 
z
" transform="scale(0.015625)"/>
      </defs>
      <use xlink:href="#DejaVuSans-4e" transform="translate(0 0.015625)"/>
      <use xlink:href="#DejaVuSans-28" transform="translate(74.804688 0.015625)"/>
      <use xlink:href="#DejaVuSans-6b" transform="translate(113.818359 0.015625)"/>
      <use xlink:href="#DejaVuSans-29" transform="translate(171.728516 0.015625)"/>
     </g>
    </g>
   </g>
   <g id="line2d_34">
    <path d="M 111.526012 50.10295 
L 136.640233 58.901331 
L 161.754454 70.102091 
L 186.868674 83.695769 
L 211.982895 99.47279 
L 237.097116 117.094403 
L 262.211337 136.19075 
L 287.325558 156.429449 
L 312.439778 177.541187 
L 337.553999 199.319409 
L 362.66822 221.609586 
L 387.782441 244.296608 
L 412.896661 267.294151 
L 438.010882 290.536763 
L 463.125103 313.974235 
L 488.239324 337.567612 
L 513.353544 361.286378 
L 538.467765 385.106417 
L 563.581986 409.008539 
L 588.696207 432.977378 
L 613.810427 457.000571 
L 638.924648 481.068739 
L 664.038869 509.806442 
" clip-path="url(#pf96fc12862)" style="fill: none; stroke: #666666; stroke-width: 1.5; stroke-linecap: square"/>
   </g>
   <g id="line2d_35">
    <path d="M 111.526012 92.082517 
L 136.640233 100.498409 
L 161.754454 110.769763 
L 186.868674 122.821657 
L 211.982895 136.466966 
L 237.097116 151.463549 
L 262.211337 167.567046 
L 287.325558 184.560207 
L 312.439778 202.262828 
L 337.553999 220.531125 
L 362.66822 239.25235 
L 387.782441 258.338379 
L 412.896661 277.720062 
L 438.010882 297.342756 
L 463.125103 317.162945 
L 488.239324 337.145708 
L 513.353544 357.262821 
L 538.467765 377.491328 
L 563.581986 397.81246 
L 588.696207 418.210794 
L 613.810427 438.673606 
L 638.924648 459.190362 
L 664.038869 479.752317 
" clip-path="url(#pf96fc12862)" style="fill: none; stroke: #a9a9a9; stroke-width: 1.5; stroke-linecap: square"/>
   </g>
   <g id="patch_3">
    <path d="M 100.034375 481.69 
L 100.034375 38.17 
" style="fill: none; stroke: #000000; stroke-width: 0.8; stroke-linejoin: miter; stroke-linecap: square"/>
   </g>
   <g id="patch_4">
    <path d="M 658.034375 481.69 
L 658.034375 38.17 
" style="fill: none; stroke: #000000; stroke-width: 0.8; stroke-linejoin: miter; stroke-linecap: square"/>
   </g>
   <g id="patch_5">
    <path d="M 100.034375 481.69 
L 658.034375 481.69 
" style="fill: none; stroke: #000000; stroke-width: 0.8; stroke-linejoin: miter; stroke-linecap: square"/>
   </g>
   <g id="patch_6">
    <path d="M 100.034375 38.17 
L 658.034375 38.17 
" style="fill: none; stroke: #000000; stroke-width: 0.8; stroke-linejoin: miter; stroke-linecap: square"/>
   </g>
   <g id="text_8">
    <!-- Bakersfield -->
    <g transform="translate(290.284375 31.515) scale(0.32 -0.32)">
     <defs>
      <path id="DejaVuSans-42" d="M 1259 2228 
L 1259 519 
L 2272 519 
Q 2781 519 3026 730 
Q 3272 941 3272 1375 
Q 3272 1813 3026 2020 
Q 2781 2228 2272 2228 
L 1259 2228 
z
M 1259 4147 
L 1259 2741 
L 2194 2741 
Q 2656 2741 2882 2914 
Q 3109 3088 3109 3444 
Q 3109 3797 2882 3972 
Q 2656 4147 2194 4147 
L 1259 4147 
z
M 628 4666 
L 2241 4666 
Q 2963 4666 3353 4366 
Q 3744 4066 3744 3513 
Q 3744 3084 3544 2831 
Q 3344 2578 2956 2516 
Q 3422 2416 3680 2098 
Q 3938 1781 3938 1306 
Q 3938 681 3513 340 
Q 3088 0 2303 0 
L 628 0 
L 628 4666 
z
" transform="scale(0.015625)"/>
      <path id="DejaVuSans-61" d="M 2194 1759 
Q 1497 1759 1228 1600 
Q 959 1441 959 1056 
Q 959 750 1161 570 
Q 1363 391 1709 391 
Q 2188 391 2477 730 
Q 2766 1069 2766 1631 
L 2766 1759 
L 2194 1759 
z
M 3341 1997 
L 3341 0 
L 2766 0 
L 2766 531 
Q 2569 213 2275 61 
Q 1981 -91 1556 -91 
Q 1019 -91 701 211 
Q 384 513 384 1019 
Q 384 1609 779 1909 
Q 1175 2209 1959 2209 
L 2766 2209 
L 2766 2266 
Q 2766 2663 2505 2880 
Q 2244 3097 1772 3097 
Q 1472 3097 1187 3025 
Q 903 2953 641 2809 
L 641 3341 
Q 956 3463 1253 3523 
Q 1550 3584 1831 3584 
Q 2591 3584 2966 3190 
Q 3341 2797 3341 1997 
z
" transform="scale(0.015625)"/>
      <path id="DejaVuSans-65" d="M 3597 1894 
L 3597 1613 
L 953 1613 
Q 991 1019 1311 708 
Q 1631 397 2203 397 
Q 2534 397 2845 478 
Q 3156 559 3463 722 
L 3463 178 
Q 3153 47 2828 -22 
Q 2503 -91 2169 -91 
Q 1331 -91 842 396 
Q 353 884 353 1716 
Q 353 2575 817 3079 
Q 1281 3584 2069 3584 
Q 2775 3584 3186 3129 
Q 3597 2675 3597 1894 
z
M 3022 2063 
Q 3016 2534 2758 2815 
Q 2500 3097 2075 3097 
Q 1594 3097 1305 2825 
Q 1016 2553 972 2059 
L 3022 2063 
z
" transform="scale(0.015625)"/>
      <path id="DejaVuSans-72" d="M 2631 2963 
Q 2534 3019 2420 3045 
Q 2306 3072 2169 3072 
Q 1681 3072 1420 2755 
Q 1159 2438 1159 1844 
L 1159 0 
L 581 0 
L 581 3500 
L 1159 3500 
L 1159 2956 
Q 1341 3275 1631 3429 
Q 1922 3584 2338 3584 
Q 2397 3584 2469 3576 
Q 2541 3569 2628 3553 
L 2631 2963 
z
" transform="scale(0.015625)"/>
      <path id="DejaVuSans-73" d="M 2834 3397 
L 2834 2853 
Q 2591 2978 2328 3040 
Q 2066 3103 1784 3103 
Q 1356 3103 1142 2972 
Q 928 2841 928 2578 
Q 928 2378 1081 2264 
Q 1234 2150 1697 2047 
L 1894 2003 
Q 2506 1872 2764 1633 
Q 3022 1394 3022 966 
Q 3022 478 2636 193 
Q 2250 -91 1575 -91 
Q 1294 -91 989 -36 
Q 684 19 347 128 
L 347 722 
Q 666 556 975 473 
Q 1284 391 1588 391 
Q 1994 391 2212 530 
Q 2431 669 2431 922 
Q 2431 1156 2273 1281 
Q 2116 1406 1581 1522 
L 1381 1569 
Q 847 1681 609 1914 
Q 372 2147 372 2553 
Q 372 3047 722 3315 
Q 1072 3584 1716 3584 
Q 2034 3584 2315 3537 
Q 2597 3491 2834 3397 
z
" transform="scale(0.015625)"/>
      <path id="DejaVuSans-66" d="M 2375 4863 
L 2375 4384 
L 1825 4384 
Q 1516 4384 1395 4259 
Q 1275 4134 1275 3809 
L 1275 3500 
L 2222 3500 
L 2222 3053 
L 1275 3053 
L 1275 0 
L 697 0 
L 697 3053 
L 147 3053 
L 147 3500 
L 697 3500 
L 697 3744 
Q 697 4328 969 4595 
Q 1241 4863 1831 4863 
L 2375 4863 
z
" transform="scale(0.015625)"/>
      <path id="DejaVuSans-69" d="M 603 3500 
L 1178 3500 
L 1178 0 
L 603 0 
L 603 3500 
z
M 603 4863 
L 1178 4863 
L 1178 4134 
L 603 4134 
L 603 4863 
z
" transform="scale(0.015625)"/>
      <path id="DejaVuSans-6c" d="M 603 4863 
L 1178 4863 
L 1178 0 
L 603 0 
L 603 4863 
z
" transform="scale(0.015625)"/>
      <path id="DejaVuSans-64" d="M 2906 2969 
L 2906 4863 
L 3481 4863 
L 3481 0 
L 2906 0 
L 2906 525 
Q 2725 213 2448 61 
Q 2172 -91 1784 -91 
Q 1150 -91 751 415 
Q 353 922 353 1747 
Q 353 2572 751 3078 
Q 1150 3584 1784 3584 
Q 2172 3584 2448 3432 
Q 2725 3281 2906 2969 
z
M 947 1747 
Q 947 1113 1208 752 
Q 1469 391 1925 391 
Q 2381 391 2643 752 
Q 2906 1113 2906 1747 
Q 2906 2381 2643 2742 
Q 2381 3103 1925 3103 
Q 1469 3103 1208 2742 
Q 947 2381 947 1747 
z
" transform="scale(0.015625)"/>
     </defs>
     <use xlink:href="#DejaVuSans-42"/>
     <use xlink:href="#DejaVuSans-61" transform="translate(68.603516 0)"/>
     <use xlink:href="#DejaVuSans-6b" transform="translate(129.882812 0)"/>
     <use xlink:href="#DejaVuSans-65" transform="translate(184.167969 0)"/>
     <use xlink:href="#DejaVuSans-72" transform="translate(245.691406 0)"/>
     <use xlink:href="#DejaVuSans-73" transform="translate(286.804688 0)"/>
     <use xlink:href="#DejaVuSans-66" transform="translate(338.904297 0)"/>
     <use xlink:href="#DejaVuSans-69" transform="translate(374.109375 0)"/>
     <use xlink:href="#DejaVuSans-65" transform="translate(401.892578 0)"/>
     <use xlink:href="#DejaVuSans-6c" transform="translate(463.416016 0)"/>
     <use xlink:href="#DejaVuSans-64" transform="translate(491.199219 0)"/>
    </g>
   </g>
   <g id="PathCollection_3">
    <defs>
     <path id="m9124a5ff53" d="M 0 4.472136 
C 1.186024 4.472136 2.323632 4.000923 3.162278 3.162278 
C 4.000923 2.323632 4.472136 1.186024 4.472136 0 
C 4.472136 -1.186024 4.000923 -2.323632 3.162278 -3.162278 
C 2.323632 -4.000923 1.186024 -4.472136 0 -4.472136 
C -1.186024 -4.472136 -2.323632 -4.000923 -3.162278 -3.162278 
C -4.000923 -2.323632 -4.472136 -1.186024 -4.472136 0 
C -4.472136 1.186024 -4.000923 2.323632 -3.162278 3.162278 
C -2.323632 4.000923 -1.186024 4.472136 0 4.472136 
z
" style="stroke: #666666"/>
    </defs>
    <g clip-path="url(#pf96fc12862)">
     <use xlink:href="#m9124a5ff53" x="111.526012" y="82.615863" style="fill: #666666; stroke: #666666"/>
     <use xlink:href="#m9124a5ff53" x="231.351297" y="112.515027" style="fill: #666666; stroke: #666666"/>
     <use xlink:href="#m9124a5ff53" x="287.066882" y="163.799475" style="fill: #666666; stroke: #666666"/>
     <use xlink:href="#m9124a5ff53" x="323.7658" y="200.186369" style="fill: #666666; stroke: #666666"/>
     <use xlink:href="#m9124a5ff53" x="351.176583" y="239.415698" style="fill: #666666; stroke: #666666"/>
     <use xlink:href="#m9124a5ff53" x="373.06367" y="170.287205" style="fill: #666666; stroke: #666666"/>
     <use xlink:href="#m9124a5ff53" x="391.284205" y="239.415698" style="fill: #666666; stroke: #666666"/>
     <use xlink:href="#m9124a5ff53" x="406.892167" y="296.584138" style="fill: #666666; stroke: #666666"/>
     <use xlink:href="#m9124a5ff53" x="420.543671" y="251.470817" style="fill: #666666; stroke: #666666"/>
     <use xlink:href="#m9124a5ff53" x="432.675015" y="239.415698" style="fill: #666666; stroke: #666666"/>
     <use xlink:href="#m9124a5ff53" x="443.591085" y="251.470817" style="fill: #666666; stroke: #666666"/>
     <use xlink:href="#m9124a5ff53" x="453.513347" y="316.08158" style="fill: #666666; stroke: #666666"/>
     <use xlink:href="#m9124a5ff53" x="462.607752" y="264.797132" style="fill: #666666; stroke: #666666"/>
     <use xlink:href="#m9124a5ff53" x="471.001868" y="339.142159" style="fill: #666666; stroke: #666666"/>
     <use xlink:href="#m9124a5ff53" x="478.795874" y="264.797132" style="fill: #666666; stroke: #666666"/>
     <use xlink:href="#m9124a5ff53" x="486.06988" y="339.142159" style="fill: #666666; stroke: #666666"/>
     <use xlink:href="#m9124a5ff53" x="492.888955" y="339.142159" style="fill: #666666; stroke: #666666"/>
     <use xlink:href="#m9124a5ff53" x="499.30667" y="403.752922" style="fill: #666666; stroke: #666666"/>
     <use xlink:href="#m9124a5ff53" x="505.367655" y="316.08158" style="fill: #666666; stroke: #666666"/>
     <use xlink:href="#m9124a5ff53" x="511.10949" y="403.752922" style="fill: #666666; stroke: #666666"/>
     <use xlink:href="#m9124a5ff53" x="516.56411" y="367.366027" style="fill: #666666; stroke: #666666"/>
     <use xlink:href="#m9124a5ff53" x="521.758886" y="403.752922" style="fill: #666666; stroke: #666666"/>
     <use xlink:href="#m9124a5ff53" x="526.717453" y="367.366027" style="fill: #666666; stroke: #666666"/>
     <use xlink:href="#m9124a5ff53" x="531.46036" y="339.142159" style="fill: #666666; stroke: #666666"/>
     <use xlink:href="#m9124a5ff53" x="540.368956" y="455.03737" style="fill: #666666; stroke: #666666"/>
     <use xlink:href="#m9124a5ff53" x="544.564461" y="455.03737" style="fill: #666666; stroke: #666666"/>
     <use xlink:href="#m9124a5ff53" x="548.60454" y="455.03737" style="fill: #666666; stroke: #666666"/>
     <use xlink:href="#m9124a5ff53" x="552.5003" y="455.03737" style="fill: #666666; stroke: #666666"/>
     <use xlink:href="#m9124a5ff53" x="556.261696" y="279.694685" style="fill: #666666; stroke: #666666"/>
     <use xlink:href="#m9124a5ff53" x="559.897688" y="455.03737" style="fill: #666666; stroke: #666666"/>
     <use xlink:href="#m9124a5ff53" x="563.41637" y="367.366027" style="fill: #666666; stroke: #666666"/>
     <use xlink:href="#m9124a5ff53" x="570.130469" y="455.03737" style="fill: #666666; stroke: #666666"/>
     <use xlink:href="#m9124a5ff53" x="573.338632" y="455.03737" style="fill: #666666; stroke: #666666"/>
     <use xlink:href="#m9124a5ff53" x="576.455121" y="455.03737" style="fill: #666666; stroke: #666666"/>
     <use xlink:href="#m9124a5ff53" x="579.485029" y="455.03737" style="fill: #666666; stroke: #666666"/>
     <use xlink:href="#m9124a5ff53" x="582.433037" y="455.03737" style="fill: #666666; stroke: #666666"/>
     <use xlink:href="#m9124a5ff53" x="585.303458" y="455.03737" style="fill: #666666; stroke: #666666"/>
     <use xlink:href="#m9124a5ff53" x="588.100269" y="455.03737" style="fill: #666666; stroke: #666666"/>
     <use xlink:href="#m9124a5ff53" x="590.827153" y="455.03737" style="fill: #666666; stroke: #666666"/>
     <use xlink:href="#m9124a5ff53" x="593.487521" y="455.03737" style="fill: #666666; stroke: #666666"/>
     <use xlink:href="#m9124a5ff53" x="596.084541" y="455.03737" style="fill: #666666; stroke: #666666"/>
     <use xlink:href="#m9124a5ff53" x="598.621159" y="455.03737" style="fill: #666666; stroke: #666666"/>
     <use xlink:href="#m9124a5ff53" x="601.100122" y="455.03737" style="fill: #666666; stroke: #666666"/>
     <use xlink:href="#m9124a5ff53" x="603.523992" y="455.03737" style="fill: #666666; stroke: #666666"/>
     <use xlink:href="#m9124a5ff53" x="612.714241" y="455.03737" style="fill: #666666; stroke: #666666"/>
     <use xlink:href="#m9124a5ff53" x="614.895707" y="455.03737" style="fill: #666666; stroke: #666666"/>
     <use xlink:href="#m9124a5ff53" x="617.034396" y="455.03737" style="fill: #666666; stroke: #666666"/>
     <use xlink:href="#m9124a5ff53" x="621.189934" y="455.03737" style="fill: #666666; stroke: #666666"/>
     <use xlink:href="#m9124a5ff53" x="625.19294" y="455.03737" style="fill: #666666; stroke: #666666"/>
     <use xlink:href="#m9124a5ff53" x="627.140665" y="455.03737" style="fill: #666666; stroke: #666666"/>
     <use xlink:href="#m9124a5ff53" x="629.054217" y="455.03737" style="fill: #666666; stroke: #666666"/>
     <use xlink:href="#m9124a5ff53" x="639.879923" y="455.03737" style="fill: #666666; stroke: #666666"/>
     <use xlink:href="#m9124a5ff53" x="649.72748" y="455.03737" style="fill: #666666; stroke: #666666"/>
     <use xlink:href="#m9124a5ff53" x="655.830872" y="455.03737" style="fill: #666666; stroke: #666666"/>
     <use xlink:href="#m9124a5ff53" x="658.759093" y="455.03737" style="fill: #666666; stroke: #666666"/>
     <use xlink:href="#m9124a5ff53" x="664.389746" y="455.03737" style="fill: #666666; stroke: #666666"/>
     <use xlink:href="#m9124a5ff53" x="667.099691" y="455.03737" style="fill: #666666; stroke: #666666"/>
     <use xlink:href="#m9124a5ff53" x="668.429825" y="455.03737" style="fill: #666666; stroke: #666666"/>
     <use xlink:href="#m9124a5ff53" x="673.593851" y="455.03737" style="fill: #666666; stroke: #666666"/>
     <use xlink:href="#m9124a5ff53" x="678.524394" y="455.03737" style="fill: #666666; stroke: #666666"/>
     <use xlink:href="#m9124a5ff53" x="679.722974" y="455.03737" style="fill: #666666; stroke: #666666"/>
     <use xlink:href="#m9124a5ff53" x="684.389768" y="455.03737" style="fill: #666666; stroke: #666666"/>
    </g>
   </g>
  </g>
 </g>
 <defs>
  <clipPath id="pf96fc12862">
   <rect x="100.034375" y="38.17" width="558" height="443.52"/>
  </clipPath>
 </defs>
</svg>
