<?xml version="1.0" encoding="utf-8" standalone="no"?>
<!DOCTYPE svg PUBLIC "-//W3C//DTD SVG 1.1//EN"
  "http://www.w3.org/Graphics/SVG/1.1/DTD/svg11.dtd">
<svg xmlns:xlink="http://www.w3.org/1999/xlink" width="679.240625pt" height="557.95875pt" viewBox="0 0 679.240625 557.95875" xmlns="http://www.w3.org/2000/svg" version="1.1">
 <metadata>
  <rdf:RDF xmlns:dc="http://purl.org/dc/elements/1.1/" xmlns:cc="http://creativecommons.org/ns#" xmlns:rdf="http://www.w3.org/1999/02/22-rdf-syntax-ns#">
   <cc:Work>
    <dc:type rdf:resource="http://purl.org/dc/dcmitype/StillImage"/>
    <dc:date>2025-06-02T15:34:21.173807</dc:date>
    <dc:format>image/svg+xml</dc:format>
    <dc:creator>
     <cc:Agent>
      <dc:title>Matplotlib v3.10.3, https://matplotlib.org/</dc:title>
     </cc:Agent>
    </dc:creator>
   </cc:Work>
  </rdf:RDF>
 </metadata>
 <defs>
  <style type="text/css">*{stroke-linejoin: round; stroke-linecap: butt}</style>
 </defs>
 <g id="figure_1">
  <g id="patch_1">
   <path d="M 0 557.95875 
L 679.240625 557.95875 
L 679.240625 0 
L 0 0 
z
" style="fill: #ffffff"/>
  </g>
  <g id="axes_1">
   <g id="patch_2">
    <path d="M 85.409375 481.69 
L 643.409375 481.69 
L 643.409375 38.17 
L 85.409375 38.17 
z
" style="fill: #ffffff"/>
   </g>
   <g id="PathCollection_1">
    <defs>
     <path id="m35b1b1a422" d="M 0 -4.472136 
L -4.472136 4.472136 
L 4.472136 4.472136 
z
" style="stroke: #a9a9a9"/>
    </defs>
    <g clip-path="url(#pc5c1975aa2)">
     <use xlink:href="#m35b1b1a422" x="92.800103" y="112.09" style="fill: #a9a9a9; stroke: #a9a9a9"/>
     <use xlink:href="#m35b1b1a422" x="100.190832" y="215.578" style="fill: #a9a9a9; stroke: #a9a9a9"/>
     <use xlink:href="#m35b1b1a422" x="107.58156" y="363.418" style="fill: #a9a9a9; stroke: #a9a9a9"/>
     <use xlink:href="#m35b1b1a422" x="114.972289" y="370.81" style="fill: #a9a9a9; stroke: #a9a9a9"/>
     <use xlink:href="#m35b1b1a422" x="122.363017" y="326.458" style="fill: #a9a9a9; stroke: #a9a9a9"/>
     <use xlink:href="#m35b1b1a422" x="129.753746" y="296.89" style="fill: #a9a9a9; stroke: #a9a9a9"/>
     <use xlink:href="#m35b1b1a422" x="137.144474" y="429.946" style="fill: #a9a9a9; stroke: #a9a9a9"/>
     <use xlink:href="#m35b1b1a422" x="144.535203" y="326.458" style="fill: #a9a9a9; stroke: #a9a9a9"/>
     <use xlink:href="#m35b1b1a422" x="151.925931" y="415.162" style="fill: #a9a9a9; stroke: #a9a9a9"/>
     <use xlink:href="#m35b1b1a422" x="159.31666" y="415.162" style="fill: #a9a9a9; stroke: #a9a9a9"/>
     <use xlink:href="#m35b1b1a422" x="166.707388" y="370.81" style="fill: #a9a9a9; stroke: #a9a9a9"/>
     <use xlink:href="#m35b1b1a422" x="174.098117" y="422.554" style="fill: #a9a9a9; stroke: #a9a9a9"/>
     <use xlink:href="#m35b1b1a422" x="181.488845" y="437.338" style="fill: #a9a9a9; stroke: #a9a9a9"/>
     <use xlink:href="#m35b1b1a422" x="188.879574" y="400.378" style="fill: #a9a9a9; stroke: #a9a9a9"/>
     <use xlink:href="#m35b1b1a422" x="196.270302" y="437.338" style="fill: #a9a9a9; stroke: #a9a9a9"/>
     <use xlink:href="#m35b1b1a422" x="203.661031" y="437.338" style="fill: #a9a9a9; stroke: #a9a9a9"/>
     <use xlink:href="#m35b1b1a422" x="211.051759" y="437.338" style="fill: #a9a9a9; stroke: #a9a9a9"/>
     <use xlink:href="#m35b1b1a422" x="218.442488" y="400.378" style="fill: #a9a9a9; stroke: #a9a9a9"/>
     <use xlink:href="#m35b1b1a422" x="225.833216" y="429.946" style="fill: #a9a9a9; stroke: #a9a9a9"/>
     <use xlink:href="#m35b1b1a422" x="233.223945" y="452.122" style="fill: #a9a9a9; stroke: #a9a9a9"/>
     <use xlink:href="#m35b1b1a422" x="240.614673" y="459.514" style="fill: #a9a9a9; stroke: #a9a9a9"/>
     <use xlink:href="#m35b1b1a422" x="248.005401" y="437.338" style="fill: #a9a9a9; stroke: #a9a9a9"/>
     <use xlink:href="#m35b1b1a422" x="255.39613" y="452.122" style="fill: #a9a9a9; stroke: #a9a9a9"/>
     <use xlink:href="#m35b1b1a422" x="262.786858" y="400.378" style="fill: #a9a9a9; stroke: #a9a9a9"/>
     <use xlink:href="#m35b1b1a422" x="270.177587" y="415.162" style="fill: #a9a9a9; stroke: #a9a9a9"/>
     <use xlink:href="#m35b1b1a422" x="277.568315" y="452.122" style="fill: #a9a9a9; stroke: #a9a9a9"/>
     <use xlink:href="#m35b1b1a422" x="284.959044" y="466.906" style="fill: #a9a9a9; stroke: #a9a9a9"/>
     <use xlink:href="#m35b1b1a422" x="292.349772" y="437.338" style="fill: #a9a9a9; stroke: #a9a9a9"/>
     <use xlink:href="#m35b1b1a422" x="299.740501" y="444.73" style="fill: #a9a9a9; stroke: #a9a9a9"/>
     <use xlink:href="#m35b1b1a422" x="307.131229" y="466.906" style="fill: #a9a9a9; stroke: #a9a9a9"/>
     <use xlink:href="#m35b1b1a422" x="314.521958" y="459.514" style="fill: #a9a9a9; stroke: #a9a9a9"/>
     <use xlink:href="#m35b1b1a422" x="321.912686" y="452.122" style="fill: #a9a9a9; stroke: #a9a9a9"/>
     <use xlink:href="#m35b1b1a422" x="336.694143" y="452.122" style="fill: #a9a9a9; stroke: #a9a9a9"/>
     <use xlink:href="#m35b1b1a422" x="351.4756" y="466.906" style="fill: #a9a9a9; stroke: #a9a9a9"/>
     <use xlink:href="#m35b1b1a422" x="358.866329" y="466.906" style="fill: #a9a9a9; stroke: #a9a9a9"/>
     <use xlink:href="#m35b1b1a422" x="366.257057" y="466.906" style="fill: #a9a9a9; stroke: #a9a9a9"/>
     <use xlink:href="#m35b1b1a422" x="373.647786" y="466.906" style="fill: #a9a9a9; stroke: #a9a9a9"/>
     <use xlink:href="#m35b1b1a422" x="381.038514" y="466.906" style="fill: #a9a9a9; stroke: #a9a9a9"/>
     <use xlink:href="#m35b1b1a422" x="388.429243" y="466.906" style="fill: #a9a9a9; stroke: #a9a9a9"/>
     <use xlink:href="#m35b1b1a422" x="395.819971" y="466.906" style="fill: #a9a9a9; stroke: #a9a9a9"/>
     <use xlink:href="#m35b1b1a422" x="417.992156" y="466.906" style="fill: #a9a9a9; stroke: #a9a9a9"/>
     <use xlink:href="#m35b1b1a422" x="440.164342" y="466.906" style="fill: #a9a9a9; stroke: #a9a9a9"/>
     <use xlink:href="#m35b1b1a422" x="447.55507" y="466.906" style="fill: #a9a9a9; stroke: #a9a9a9"/>
     <use xlink:href="#m35b1b1a422" x="462.336527" y="466.906" style="fill: #a9a9a9; stroke: #a9a9a9"/>
     <use xlink:href="#m35b1b1a422" x="484.508713" y="466.906" style="fill: #a9a9a9; stroke: #a9a9a9"/>
     <use xlink:href="#m35b1b1a422" x="499.29017" y="452.122" style="fill: #a9a9a9; stroke: #a9a9a9"/>
     <use xlink:href="#m35b1b1a422" x="536.243812" y="466.906" style="fill: #a9a9a9; stroke: #a9a9a9"/>
     <use xlink:href="#m35b1b1a422" x="543.634541" y="466.906" style="fill: #a9a9a9; stroke: #a9a9a9"/>
     <use xlink:href="#m35b1b1a422" x="551.025269" y="466.906" style="fill: #a9a9a9; stroke: #a9a9a9"/>
     <use xlink:href="#m35b1b1a422" x="580.588183" y="466.906" style="fill: #a9a9a9; stroke: #a9a9a9"/>
     <use xlink:href="#m35b1b1a422" x="617.541825" y="466.906" style="fill: #a9a9a9; stroke: #a9a9a9"/>
     <use xlink:href="#m35b1b1a422" x="624.932554" y="459.514" style="fill: #a9a9a9; stroke: #a9a9a9"/>
     <use xlink:href="#m35b1b1a422" x="632.323282" y="466.906" style="fill: #a9a9a9; stroke: #a9a9a9"/>
     <use xlink:href="#m35b1b1a422" x="647.104739" y="466.906" style="fill: #a9a9a9; stroke: #a9a9a9"/>
     <use xlink:href="#m35b1b1a422" x="654.495468" y="466.906" style="fill: #a9a9a9; stroke: #a9a9a9"/>
     <use xlink:href="#m35b1b1a422" x="669.276925" y="466.906" style="fill: #a9a9a9; stroke: #a9a9a9"/>
     <use xlink:href="#m35b1b1a422" x="706.230567" y="466.906" style="fill: #a9a9a9; stroke: #a9a9a9"/>
     <use xlink:href="#m35b1b1a422" x="721.012024" y="466.906" style="fill: #a9a9a9; stroke: #a9a9a9"/>
     <use xlink:href="#m35b1b1a422" x="757.965666" y="466.906" style="fill: #a9a9a9; stroke: #a9a9a9"/>
     <use xlink:href="#m35b1b1a422" x="854.045137" y="466.906" style="fill: #a9a9a9; stroke: #a9a9a9"/>
     <use xlink:href="#m35b1b1a422" x="861.435865" y="466.906" style="fill: #a9a9a9; stroke: #a9a9a9"/>
     <use xlink:href="#m35b1b1a422" x="890.998779" y="466.906" style="fill: #a9a9a9; stroke: #a9a9a9"/>
     <use xlink:href="#m35b1b1a422" x="1060.985534" y="466.906" style="fill: #a9a9a9; stroke: #a9a9a9"/>
    </g>
   </g>
   <g id="PathCollection_2">
    <defs>
     <path id="md64d2da07a" d="M -0 4.472136 
L 4.472136 -4.472136 
L -4.472136 -4.472136 
z
" style="stroke: #a9a9a9"/>
    </defs>
    <g clip-path="url(#pc5c1975aa2)">
     <use xlink:href="#md64d2da07a" x="92.800103" y="112.09" style="fill: #a9a9a9; stroke: #a9a9a9"/>
     <use xlink:href="#md64d2da07a" x="100.190832" y="267.322" style="fill: #a9a9a9; stroke: #a9a9a9"/>
     <use xlink:href="#md64d2da07a" x="107.58156" y="296.89" style="fill: #a9a9a9; stroke: #a9a9a9"/>
     <use xlink:href="#md64d2da07a" x="114.972289" y="282.106" style="fill: #a9a9a9; stroke: #a9a9a9"/>
     <use xlink:href="#md64d2da07a" x="122.363017" y="341.242" style="fill: #a9a9a9; stroke: #a9a9a9"/>
     <use xlink:href="#md64d2da07a" x="129.753746" y="370.81" style="fill: #a9a9a9; stroke: #a9a9a9"/>
     <use xlink:href="#md64d2da07a" x="137.144474" y="378.202" style="fill: #a9a9a9; stroke: #a9a9a9"/>
     <use xlink:href="#md64d2da07a" x="144.535203" y="385.594" style="fill: #a9a9a9; stroke: #a9a9a9"/>
     <use xlink:href="#md64d2da07a" x="151.925931" y="400.378" style="fill: #a9a9a9; stroke: #a9a9a9"/>
     <use xlink:href="#md64d2da07a" x="159.31666" y="400.378" style="fill: #a9a9a9; stroke: #a9a9a9"/>
     <use xlink:href="#md64d2da07a" x="166.707388" y="415.162" style="fill: #a9a9a9; stroke: #a9a9a9"/>
     <use xlink:href="#md64d2da07a" x="174.098117" y="429.946" style="fill: #a9a9a9; stroke: #a9a9a9"/>
     <use xlink:href="#md64d2da07a" x="181.488845" y="378.202" style="fill: #a9a9a9; stroke: #a9a9a9"/>
     <use xlink:href="#md64d2da07a" x="188.879574" y="437.338" style="fill: #a9a9a9; stroke: #a9a9a9"/>
     <use xlink:href="#md64d2da07a" x="196.270302" y="444.73" style="fill: #a9a9a9; stroke: #a9a9a9"/>
     <use xlink:href="#md64d2da07a" x="203.661031" y="407.77" style="fill: #a9a9a9; stroke: #a9a9a9"/>
     <use xlink:href="#md64d2da07a" x="211.051759" y="437.338" style="fill: #a9a9a9; stroke: #a9a9a9"/>
     <use xlink:href="#md64d2da07a" x="218.442488" y="407.77" style="fill: #a9a9a9; stroke: #a9a9a9"/>
     <use xlink:href="#md64d2da07a" x="225.833216" y="422.554" style="fill: #a9a9a9; stroke: #a9a9a9"/>
     <use xlink:href="#md64d2da07a" x="233.223945" y="444.73" style="fill: #a9a9a9; stroke: #a9a9a9"/>
     <use xlink:href="#md64d2da07a" x="240.614673" y="407.77" style="fill: #a9a9a9; stroke: #a9a9a9"/>
     <use xlink:href="#md64d2da07a" x="248.005401" y="459.514" style="fill: #a9a9a9; stroke: #a9a9a9"/>
     <use xlink:href="#md64d2da07a" x="255.39613" y="466.906" style="fill: #a9a9a9; stroke: #a9a9a9"/>
     <use xlink:href="#md64d2da07a" x="262.786858" y="407.77" style="fill: #a9a9a9; stroke: #a9a9a9"/>
     <use xlink:href="#md64d2da07a" x="270.177587" y="437.338" style="fill: #a9a9a9; stroke: #a9a9a9"/>
     <use xlink:href="#md64d2da07a" x="277.568315" y="444.73" style="fill: #a9a9a9; stroke: #a9a9a9"/>
     <use xlink:href="#md64d2da07a" x="284.959044" y="452.122" style="fill: #a9a9a9; stroke: #a9a9a9"/>
     <use xlink:href="#md64d2da07a" x="292.349772" y="466.906" style="fill: #a9a9a9; stroke: #a9a9a9"/>
     <use xlink:href="#md64d2da07a" x="299.740501" y="437.338" style="fill: #a9a9a9; stroke: #a9a9a9"/>
     <use xlink:href="#md64d2da07a" x="307.131229" y="437.338" style="fill: #a9a9a9; stroke: #a9a9a9"/>
     <use xlink:href="#md64d2da07a" x="314.521958" y="459.514" style="fill: #a9a9a9; stroke: #a9a9a9"/>
     <use xlink:href="#md64d2da07a" x="321.912686" y="452.122" style="fill: #a9a9a9; stroke: #a9a9a9"/>
     <use xlink:href="#md64d2da07a" x="329.303415" y="466.906" style="fill: #a9a9a9; stroke: #a9a9a9"/>
     <use xlink:href="#md64d2da07a" x="336.694143" y="466.906" style="fill: #a9a9a9; stroke: #a9a9a9"/>
     <use xlink:href="#md64d2da07a" x="344.084872" y="437.338" style="fill: #a9a9a9; stroke: #a9a9a9"/>
     <use xlink:href="#md64d2da07a" x="366.257057" y="466.906" style="fill: #a9a9a9; stroke: #a9a9a9"/>
     <use xlink:href="#md64d2da07a" x="373.647786" y="466.906" style="fill: #a9a9a9; stroke: #a9a9a9"/>
     <use xlink:href="#md64d2da07a" x="381.038514" y="452.122" style="fill: #a9a9a9; stroke: #a9a9a9"/>
     <use xlink:href="#md64d2da07a" x="403.2107" y="466.906" style="fill: #a9a9a9; stroke: #a9a9a9"/>
     <use xlink:href="#md64d2da07a" x="425.382885" y="466.906" style="fill: #a9a9a9; stroke: #a9a9a9"/>
     <use xlink:href="#md64d2da07a" x="432.773613" y="466.906" style="fill: #a9a9a9; stroke: #a9a9a9"/>
     <use xlink:href="#md64d2da07a" x="462.336527" y="466.906" style="fill: #a9a9a9; stroke: #a9a9a9"/>
     <use xlink:href="#md64d2da07a" x="469.727256" y="466.906" style="fill: #a9a9a9; stroke: #a9a9a9"/>
     <use xlink:href="#md64d2da07a" x="484.508713" y="452.122" style="fill: #a9a9a9; stroke: #a9a9a9"/>
     <use xlink:href="#md64d2da07a" x="491.899441" y="466.906" style="fill: #a9a9a9; stroke: #a9a9a9"/>
     <use xlink:href="#md64d2da07a" x="543.634541" y="466.906" style="fill: #a9a9a9; stroke: #a9a9a9"/>
     <use xlink:href="#md64d2da07a" x="551.025269" y="466.906" style="fill: #a9a9a9; stroke: #a9a9a9"/>
     <use xlink:href="#md64d2da07a" x="558.415998" y="459.514" style="fill: #a9a9a9; stroke: #a9a9a9"/>
     <use xlink:href="#md64d2da07a" x="565.806726" y="466.906" style="fill: #a9a9a9; stroke: #a9a9a9"/>
     <use xlink:href="#md64d2da07a" x="573.197454" y="466.906" style="fill: #a9a9a9; stroke: #a9a9a9"/>
     <use xlink:href="#md64d2da07a" x="595.36964" y="466.906" style="fill: #a9a9a9; stroke: #a9a9a9"/>
     <use xlink:href="#md64d2da07a" x="617.541825" y="466.906" style="fill: #a9a9a9; stroke: #a9a9a9"/>
     <use xlink:href="#md64d2da07a" x="639.714011" y="466.906" style="fill: #a9a9a9; stroke: #a9a9a9"/>
     <use xlink:href="#md64d2da07a" x="654.495468" y="466.906" style="fill: #a9a9a9; stroke: #a9a9a9"/>
     <use xlink:href="#md64d2da07a" x="661.886196" y="466.906" style="fill: #a9a9a9; stroke: #a9a9a9"/>
     <use xlink:href="#md64d2da07a" x="676.667653" y="466.906" style="fill: #a9a9a9; stroke: #a9a9a9"/>
     <use xlink:href="#md64d2da07a" x="684.058382" y="466.906" style="fill: #a9a9a9; stroke: #a9a9a9"/>
     <use xlink:href="#md64d2da07a" x="743.184209" y="466.906" style="fill: #a9a9a9; stroke: #a9a9a9"/>
     <use xlink:href="#md64d2da07a" x="817.091494" y="466.906" style="fill: #a9a9a9; stroke: #a9a9a9"/>
     <use xlink:href="#md64d2da07a" x="935.34315" y="466.906" style="fill: #a9a9a9; stroke: #a9a9a9"/>
     <use xlink:href="#md64d2da07a" x="1112.720633" y="466.906" style="fill: #a9a9a9; stroke: #a9a9a9"/>
    </g>
   </g>
   <g id="matplotlib.axis_1">
    <g id="xtick_1">
     <g id="line2d_1">
      <defs>
       <path id="md52a038a46" d="M 0 0 
L 0 3.5 
" style="stroke: #000000; stroke-width: 0.8"/>
      </defs>
      <g>
       <use xlink:href="#md52a038a46" x="89.104739" y="481.69" style="stroke: #000000; stroke-width: 0.8"/>
      </g>
     </g>
     <g id="text_1">
      <!-- 0 -->
      <g transform="translate(79.560989 511.485313) scale(0.3 -0.3)">
       <defs>
        <path id="DejaVuSans-30" d="M 2034 4250 
Q 1547 4250 1301 3770 
Q 1056 3291 1056 2328 
Q 1056 1369 1301 889 
Q 1547 409 2034 409 
Q 2525 409 2770 889 
Q 3016 1369 3016 2328 
Q 3016 3291 2770 3770 
Q 2525 4250 2034 4250 
z
M 2034 4750 
Q 2819 4750 3233 4129 
Q 3647 3509 3647 2328 
Q 3647 1150 3233 529 
Q 2819 -91 2034 -91 
Q 1250 -91 836 529 
Q 422 1150 422 2328 
Q 422 3509 836 4129 
Q 1250 4750 2034 4750 
z
" transform="scale(0.015625)"/>
       </defs>
       <use xlink:href="#DejaVuSans-30"/>
      </g>
     </g>
    </g>
    <g id="xtick_2">
     <g id="line2d_2">
      <g>
       <use xlink:href="#md52a038a46" x="366.257057" y="481.69" style="stroke: #000000; stroke-width: 0.8"/>
      </g>
     </g>
     <g id="text_2">
      <!-- 75 -->
      <g transform="translate(347.169557 511.485313) scale(0.3 -0.3)">
       <defs>
        <path id="DejaVuSans-37" d="M 525 4666 
L 3525 4666 
L 3525 4397 
L 1831 0 
L 1172 0 
L 2766 4134 
L 525 4134 
L 525 4666 
z
" transform="scale(0.015625)"/>
        <path id="DejaVuSans-35" d="M 691 4666 
L 3169 4666 
L 3169 4134 
L 1269 4134 
L 1269 2991 
Q 1406 3038 1543 3061 
Q 1681 3084 1819 3084 
Q 2600 3084 3056 2656 
Q 3513 2228 3513 1497 
Q 3513 744 3044 326 
Q 2575 -91 1722 -91 
Q 1428 -91 1123 -41 
Q 819 9 494 109 
L 494 744 
Q 775 591 1075 516 
Q 1375 441 1709 441 
Q 2250 441 2565 725 
Q 2881 1009 2881 1497 
Q 2881 1984 2565 2268 
Q 2250 2553 1709 2553 
Q 1456 2553 1204 2497 
Q 953 2441 691 2322 
L 691 4666 
z
" transform="scale(0.015625)"/>
       </defs>
       <use xlink:href="#DejaVuSans-37"/>
       <use xlink:href="#DejaVuSans-35" transform="translate(63.623047 0)"/>
      </g>
     </g>
    </g>
    <g id="xtick_3">
     <g id="line2d_3">
      <g>
       <use xlink:href="#md52a038a46" x="643.409375" y="481.69" style="stroke: #000000; stroke-width: 0.8"/>
      </g>
     </g>
     <g id="text_3">
      <!-- 150 -->
      <g transform="translate(614.778125 511.485313) scale(0.3 -0.3)">
       <defs>
        <path id="DejaVuSans-31" d="M 794 531 
L 1825 531 
L 1825 4091 
L 703 3866 
L 703 4441 
L 1819 4666 
L 2450 4666 
L 2450 531 
L 3481 531 
L 3481 0 
L 794 0 
L 794 531 
z
" transform="scale(0.015625)"/>
       </defs>
       <use xlink:href="#DejaVuSans-31"/>
       <use xlink:href="#DejaVuSans-35" transform="translate(63.623047 0)"/>
       <use xlink:href="#DejaVuSans-30" transform="translate(127.246094 0)"/>
      </g>
     </g>
    </g>
    <g id="text_4">
     <!-- $\mathrm{k}$ -->
     <g transform="translate(355.709375 544.519688) scale(0.3 -0.3)">
      <defs>
       <path id="DejaVuSans-6b" d="M 581 4863 
L 1159 4863 
L 1159 1991 
L 2875 3500 
L 3609 3500 
L 1753 1863 
L 3688 0 
L 2938 0 
L 1159 1709 
L 1159 0 
L 581 0 
L 581 4863 
z
" transform="scale(0.015625)"/>
      </defs>
      <use xlink:href="#DejaVuSans-6b" transform="translate(0 0.015625)"/>
     </g>
    </g>
   </g>
   <g id="matplotlib.axis_2">
    <g id="ytick_1">
     <g id="line2d_4">
      <defs>
       <path id="m463011aa09" d="M 0 0 
L -3.5 0 
" style="stroke: #000000; stroke-width: 0.8"/>
      </defs>
      <g>
       <use xlink:href="#m463011aa09" x="85.409375" y="481.69" style="stroke: #000000; stroke-width: 0.8"/>
      </g>
     </g>
     <g id="text_5">
      <!-- 0 -->
      <g transform="translate(59.321875 493.087656) scale(0.3 -0.3)">
       <use xlink:href="#DejaVuSans-30"/>
      </g>
     </g>
    </g>
    <g id="ytick_2">
     <g id="line2d_5">
      <g>
       <use xlink:href="#m463011aa09" x="85.409375" y="259.93" style="stroke: #000000; stroke-width: 0.8"/>
      </g>
     </g>
     <g id="text_6">
      <!-- 15 -->
      <g transform="translate(40.234375 271.327656) scale(0.3 -0.3)">
       <use xlink:href="#DejaVuSans-31"/>
       <use xlink:href="#DejaVuSans-35" transform="translate(63.623047 0)"/>
      </g>
     </g>
    </g>
    <g id="ytick_3">
     <g id="line2d_6">
      <g>
       <use xlink:href="#m463011aa09" x="85.409375" y="38.17" style="stroke: #000000; stroke-width: 0.8"/>
      </g>
     </g>
     <g id="text_7">
      <!-- 30 -->
      <g transform="translate(40.234375 49.567656) scale(0.3 -0.3)">
       <defs>
        <path id="DejaVuSans-33" d="M 2597 2516 
Q 3050 2419 3304 2112 
Q 3559 1806 3559 1356 
Q 3559 666 3084 287 
Q 2609 -91 1734 -91 
Q 1441 -91 1130 -33 
Q 819 25 488 141 
L 488 750 
Q 750 597 1062 519 
Q 1375 441 1716 441 
Q 2309 441 2620 675 
Q 2931 909 2931 1356 
Q 2931 1769 2642 2001 
Q 2353 2234 1838 2234 
L 1294 2234 
L 1294 2753 
L 1863 2753 
Q 2328 2753 2575 2939 
Q 2822 3125 2822 3475 
Q 2822 3834 2567 4026 
Q 2313 4219 1838 4219 
Q 1578 4219 1281 4162 
Q 984 4106 628 3988 
L 628 4550 
Q 988 4650 1302 4700 
Q 1616 4750 1894 4750 
Q 2613 4750 3031 4423 
Q 3450 4097 3450 3541 
Q 3450 3153 3228 2886 
Q 3006 2619 2597 2516 
z
" transform="scale(0.015625)"/>
       </defs>
       <use xlink:href="#DejaVuSans-33"/>
       <use xlink:href="#DejaVuSans-30" transform="translate(63.623047 0)"/>
      </g>
     </g>
    </g>
    <g id="text_8">
     <!-- $\mathrm{N}( \mathrm{k} )$ -->
     <g transform="translate(29.995312 291.58) rotate(-90) scale(0.3 -0.3)">
      <defs>
       <path id="DejaVuSans-4e" d="M 628 4666 
L 1478 4666 
L 3547 763 
L 3547 4666 
L 4159 4666 
L 4159 0 
L 3309 0 
L 1241 3903 
L 1241 0 
L 628 0 
L 628 4666 
z
" transform="scale(0.015625)"/>
       <path id="DejaVuSans-28" d="M 1984 4856 
Q 1566 4138 1362 3434 
Q 1159 2731 1159 2009 
Q 1159 1288 1364 580 
Q 1569 -128 1984 -844 
L 1484 -844 
Q 1016 -109 783 600 
Q 550 1309 550 2009 
Q 550 2706 781 3412 
Q 1013 4119 1484 4856 
L 1984 4856 
z
" transform="scale(0.015625)"/>
       <path id="DejaVuSans-29" d="M 513 4856 
L 1013 4856 
Q 1481 4119 1714 3412 
Q 1947 2706 1947 2009 
Q 1947 1309 1714 600 
Q 1481 -109 1013 -844 
L 513 -844 
Q 928 -128 1133 580 
Q 1338 1288 1338 2009 
Q 1338 2731 1133 3434 
Q 928 4138 513 4856 
z
" transform="scale(0.015625)"/>
      </defs>
      <use xlink:href="#DejaVuSans-4e" transform="translate(0 0.015625)"/>
      <use xlink:href="#DejaVuSans-28" transform="translate(74.804688 0.015625)"/>
      <use xlink:href="#DejaVuSans-6b" transform="translate(113.818359 0.015625)"/>
      <use xlink:href="#DejaVuSans-29" transform="translate(171.728516 0.015625)"/>
     </g>
    </g>
   </g>
   <g id="line2d_7">
    <path d="M 93.415318 -1 
L 93.756927 11.103216 
L 94.961497 50.984336 
L 96.47796 94.873429 
L 98.387075 140.23554 
L 100.790507 184.641828 
L 103.816249 226.268588 
L 107.625433 264.036669 
L 112.420911 297.495927 
L 118.458061 326.630802 
L 126.058382 351.684552 
L 135.626619 373.031686 
L 147.672315 391.096266 
L 162.836949 406.303795 
L 181.928092 419.055079 
L 205.962417 429.71364 
L 236.219839 438.601175 
L 274.311677 445.997603 
L 322.26646 452.143576 
L 382.637954 457.244154 
L 458.641163 461.472913 
L 554.323534 464.976106 
L 674.780502 468.373094 
" clip-path="url(#pc5c1975aa2)" style="fill: none; stroke: #666666; stroke-width: 1.5; stroke-linecap: square"/>
   </g>
   <g id="line2d_8">
    <path d="M 92.800103 119.690331 
L 93.756927 142.993113 
L 94.961497 169.410634 
L 96.47796 197.79243 
L 98.387075 226.825774 
L 100.790507 255.321325 
L 103.816249 282.38277 
L 107.625433 307.439108 
L 112.420911 330.197563 
L 118.458061 350.571317 
L 126.058382 368.610723 
L 135.626619 384.449123 
L 147.672315 398.264359 
L 162.836949 410.253084 
L 181.928092 420.614404 
L 205.962417 429.539975 
L 236.219839 437.208439 
L 274.311677 443.782685 
L 322.26646 449.408924 
L 382.637954 454.216886 
L 458.641163 458.320663 
L 554.323534 461.819918 
L 674.780502 464.801241 
" clip-path="url(#pc5c1975aa2)" style="fill: none; stroke: #a9a9a9; stroke-width: 1.5; stroke-linecap: square"/>
   </g>
   <g id="patch_3">
    <path d="M 85.409375 481.69 
L 85.409375 38.17 
" style="fill: none; stroke: #000000; stroke-width: 0.8; stroke-linejoin: miter; stroke-linecap: square"/>
   </g>
   <g id="patch_4">
    <path d="M 643.409375 481.69 
L 643.409375 38.17 
" style="fill: none; stroke: #000000; stroke-width: 0.8; stroke-linejoin: miter; stroke-linecap: square"/>
   </g>
   <g id="patch_5">
    <path d="M 85.409375 481.69 
L 643.409375 481.69 
" style="fill: none; stroke: #000000; stroke-width: 0.8; stroke-linejoin: miter; stroke-linecap: square"/>
   </g>
   <g id="patch_6">
    <path d="M 85.409375 38.17 
L 643.409375 38.17 
" style="fill: none; stroke: #000000; stroke-width: 0.8; stroke-linejoin: miter; stroke-linecap: square"/>
   </g>
   <g id="text_9">
    <!-- Fresno -->
    <g transform="translate(312.039375 31.515) scale(0.32 -0.32)">
     <defs>
      <path id="DejaVuSans-46" d="M 628 4666 
L 3309 4666 
L 3309 4134 
L 1259 4134 
L 1259 2759 
L 3109 2759 
L 3109 2228 
L 1259 2228 
L 1259 0 
L 628 0 
L 628 4666 
z
" transform="scale(0.015625)"/>
      <path id="DejaVuSans-72" d="M 2631 2963 
Q 2534 3019 2420 3045 
Q 2306 3072 2169 3072 
Q 1681 3072 1420 2755 
Q 1159 2438 1159 1844 
L 1159 0 
L 581 0 
L 581 3500 
L 1159 3500 
L 1159 2956 
Q 1341 3275 1631 3429 
Q 1922 3584 2338 3584 
Q 2397 3584 2469 3576 
Q 2541 3569 2628 3553 
L 2631 2963 
z
" transform="scale(0.015625)"/>
      <path id="DejaVuSans-65" d="M 3597 1894 
L 3597 1613 
L 953 1613 
Q 991 1019 1311 708 
Q 1631 397 2203 397 
Q 2534 397 2845 478 
Q 3156 559 3463 722 
L 3463 178 
Q 3153 47 2828 -22 
Q 2503 -91 2169 -91 
Q 1331 -91 842 396 
Q 353 884 353 1716 
Q 353 2575 817 3079 
Q 1281 3584 2069 3584 
Q 2775 3584 3186 3129 
Q 3597 2675 3597 1894 
z
M 3022 2063 
Q 3016 2534 2758 2815 
Q 2500 3097 2075 3097 
Q 1594 3097 1305 2825 
Q 1016 2553 972 2059 
L 3022 2063 
z
" transform="scale(0.015625)"/>
      <path id="DejaVuSans-73" d="M 2834 3397 
L 2834 2853 
Q 2591 2978 2328 3040 
Q 2066 3103 1784 3103 
Q 1356 3103 1142 2972 
Q 928 2841 928 2578 
Q 928 2378 1081 2264 
Q 1234 2150 1697 2047 
L 1894 2003 
Q 2506 1872 2764 1633 
Q 3022 1394 3022 966 
Q 3022 478 2636 193 
Q 2250 -91 1575 -91 
Q 1294 -91 989 -36 
Q 684 19 347 128 
L 347 722 
Q 666 556 975 473 
Q 1284 391 1588 391 
Q 1994 391 2212 530 
Q 2431 669 2431 922 
Q 2431 1156 2273 1281 
Q 2116 1406 1581 1522 
L 1381 1569 
Q 847 1681 609 1914 
Q 372 2147 372 2553 
Q 372 3047 722 3315 
Q 1072 3584 1716 3584 
Q 2034 3584 2315 3537 
Q 2597 3491 2834 3397 
z
" transform="scale(0.015625)"/>
      <path id="DejaVuSans-6e" d="M 3513 2113 
L 3513 0 
L 2938 0 
L 2938 2094 
Q 2938 2591 2744 2837 
Q 2550 3084 2163 3084 
Q 1697 3084 1428 2787 
Q 1159 2491 1159 1978 
L 1159 0 
L 581 0 
L 581 3500 
L 1159 3500 
L 1159 2956 
Q 1366 3272 1645 3428 
Q 1925 3584 2291 3584 
Q 2894 3584 3203 3211 
Q 3513 2838 3513 2113 
z
" transform="scale(0.015625)"/>
      <path id="DejaVuSans-6f" d="M 1959 3097 
Q 1497 3097 1228 2736 
Q 959 2375 959 1747 
Q 959 1119 1226 758 
Q 1494 397 1959 397 
Q 2419 397 2687 759 
Q 2956 1122 2956 1747 
Q 2956 2369 2687 2733 
Q 2419 3097 1959 3097 
z
M 1959 3584 
Q 2709 3584 3137 3096 
Q 3566 2609 3566 1747 
Q 3566 888 3137 398 
Q 2709 -91 1959 -91 
Q 1206 -91 779 398 
Q 353 888 353 1747 
Q 353 2609 779 3096 
Q 1206 3584 1959 3584 
z
" transform="scale(0.015625)"/>
     </defs>
     <use xlink:href="#DejaVuSans-46"/>
     <use xlink:href="#DejaVuSans-72" transform="translate(50.269531 0)"/>
     <use xlink:href="#DejaVuSans-65" transform="translate(89.132812 0)"/>
     <use xlink:href="#DejaVuSans-73" transform="translate(150.65625 0)"/>
     <use xlink:href="#DejaVuSans-6e" transform="translate(202.755859 0)"/>
     <use xlink:href="#DejaVuSans-6f" transform="translate(266.134766 0)"/>
    </g>
   </g>
   <g id="PathCollection_3">
    <defs>
     <path id="med9a2245f5" d="M 0 4.472136 
C 1.186024 4.472136 2.323632 4.000923 3.162278 3.162278 
C 4.000923 2.323632 4.472136 1.186024 4.472136 0 
C 4.472136 -1.186024 4.000923 -2.323632 3.162278 -3.162278 
C 2.323632 -4.000923 1.186024 -4.472136 0 -4.472136 
C -1.186024 -4.472136 -2.323632 -4.000923 -3.162278 -3.162278 
C -4.000923 -2.323632 -4.472136 -1.186024 -4.472136 0 
C -4.472136 1.186024 -4.000923 2.323632 -3.162278 3.162278 
C -2.323632 4.000923 -1.186024 4.472136 0 4.472136 
z
" style="stroke: #666666"/>
    </defs>
    <g clip-path="url(#pc5c1975aa2)">
     <use xlink:href="#med9a2245f5" x="94.188087" y="-1" style="fill: #666666; stroke: #666666"/>
     <use xlink:href="#med9a2245f5" x="100.190832" y="269.17" style="fill: #666666; stroke: #666666"/>
     <use xlink:href="#med9a2245f5" x="107.58156" y="195.25" style="fill: #666666; stroke: #666666"/>
     <use xlink:href="#med9a2245f5" x="114.972289" y="333.85" style="fill: #666666; stroke: #666666"/>
     <use xlink:href="#med9a2245f5" x="122.363017" y="269.17" style="fill: #666666; stroke: #666666"/>
     <use xlink:href="#med9a2245f5" x="129.753746" y="306.13" style="fill: #666666; stroke: #666666"/>
     <use xlink:href="#med9a2245f5" x="137.144474" y="343.09" style="fill: #666666; stroke: #666666"/>
     <use xlink:href="#med9a2245f5" x="144.535203" y="380.05" style="fill: #666666; stroke: #666666"/>
     <use xlink:href="#med9a2245f5" x="151.925931" y="361.57" style="fill: #666666; stroke: #666666"/>
     <use xlink:href="#med9a2245f5" x="159.31666" y="380.05" style="fill: #666666; stroke: #666666"/>
     <use xlink:href="#med9a2245f5" x="166.707388" y="435.49" style="fill: #666666; stroke: #666666"/>
     <use xlink:href="#med9a2245f5" x="174.098117" y="370.81" style="fill: #666666; stroke: #666666"/>
     <use xlink:href="#med9a2245f5" x="181.488845" y="407.77" style="fill: #666666; stroke: #666666"/>
     <use xlink:href="#med9a2245f5" x="188.879574" y="417.01" style="fill: #666666; stroke: #666666"/>
     <use xlink:href="#med9a2245f5" x="196.270302" y="389.29" style="fill: #666666; stroke: #666666"/>
     <use xlink:href="#med9a2245f5" x="203.661031" y="380.05" style="fill: #666666; stroke: #666666"/>
     <use xlink:href="#med9a2245f5" x="211.051759" y="407.77" style="fill: #666666; stroke: #666666"/>
     <use xlink:href="#med9a2245f5" x="218.442488" y="444.73" style="fill: #666666; stroke: #666666"/>
     <use xlink:href="#med9a2245f5" x="225.833216" y="435.49" style="fill: #666666; stroke: #666666"/>
     <use xlink:href="#med9a2245f5" x="233.223945" y="417.01" style="fill: #666666; stroke: #666666"/>
     <use xlink:href="#med9a2245f5" x="240.614673" y="417.01" style="fill: #666666; stroke: #666666"/>
     <use xlink:href="#med9a2245f5" x="248.005401" y="389.29" style="fill: #666666; stroke: #666666"/>
     <use xlink:href="#med9a2245f5" x="255.39613" y="426.25" style="fill: #666666; stroke: #666666"/>
     <use xlink:href="#med9a2245f5" x="262.786858" y="435.49" style="fill: #666666; stroke: #666666"/>
     <use xlink:href="#med9a2245f5" x="277.568315" y="426.25" style="fill: #666666; stroke: #666666"/>
     <use xlink:href="#med9a2245f5" x="284.959044" y="463.21" style="fill: #666666; stroke: #666666"/>
     <use xlink:href="#med9a2245f5" x="292.349772" y="463.21" style="fill: #666666; stroke: #666666"/>
     <use xlink:href="#med9a2245f5" x="307.131229" y="453.97" style="fill: #666666; stroke: #666666"/>
     <use xlink:href="#med9a2245f5" x="314.521958" y="463.21" style="fill: #666666; stroke: #666666"/>
     <use xlink:href="#med9a2245f5" x="321.912686" y="463.21" style="fill: #666666; stroke: #666666"/>
     <use xlink:href="#med9a2245f5" x="329.303415" y="463.21" style="fill: #666666; stroke: #666666"/>
     <use xlink:href="#med9a2245f5" x="336.694143" y="463.21" style="fill: #666666; stroke: #666666"/>
     <use xlink:href="#med9a2245f5" x="344.084872" y="453.97" style="fill: #666666; stroke: #666666"/>
     <use xlink:href="#med9a2245f5" x="366.257057" y="463.21" style="fill: #666666; stroke: #666666"/>
     <use xlink:href="#med9a2245f5" x="373.647786" y="463.21" style="fill: #666666; stroke: #666666"/>
     <use xlink:href="#med9a2245f5" x="381.038514" y="463.21" style="fill: #666666; stroke: #666666"/>
     <use xlink:href="#med9a2245f5" x="395.819971" y="463.21" style="fill: #666666; stroke: #666666"/>
     <use xlink:href="#med9a2245f5" x="403.2107" y="444.73" style="fill: #666666; stroke: #666666"/>
     <use xlink:href="#med9a2245f5" x="425.382885" y="444.73" style="fill: #666666; stroke: #666666"/>
     <use xlink:href="#med9a2245f5" x="440.164342" y="463.21" style="fill: #666666; stroke: #666666"/>
     <use xlink:href="#med9a2245f5" x="469.727256" y="463.21" style="fill: #666666; stroke: #666666"/>
     <use xlink:href="#med9a2245f5" x="484.508713" y="463.21" style="fill: #666666; stroke: #666666"/>
     <use xlink:href="#med9a2245f5" x="506.680898" y="463.21" style="fill: #666666; stroke: #666666"/>
     <use xlink:href="#med9a2245f5" x="514.071627" y="463.21" style="fill: #666666; stroke: #666666"/>
     <use xlink:href="#med9a2245f5" x="521.462355" y="463.21" style="fill: #666666; stroke: #666666"/>
     <use xlink:href="#med9a2245f5" x="528.853084" y="463.21" style="fill: #666666; stroke: #666666"/>
     <use xlink:href="#med9a2245f5" x="536.243812" y="463.21" style="fill: #666666; stroke: #666666"/>
     <use xlink:href="#med9a2245f5" x="565.806726" y="463.21" style="fill: #666666; stroke: #666666"/>
     <use xlink:href="#med9a2245f5" x="580.588183" y="463.21" style="fill: #666666; stroke: #666666"/>
     <use xlink:href="#med9a2245f5" x="624.932554" y="463.21" style="fill: #666666; stroke: #666666"/>
     <use xlink:href="#med9a2245f5" x="639.714011" y="463.21" style="fill: #666666; stroke: #666666"/>
     <use xlink:href="#med9a2245f5" x="654.495468" y="463.21" style="fill: #666666; stroke: #666666"/>
     <use xlink:href="#med9a2245f5" x="698.839839" y="463.21" style="fill: #666666; stroke: #666666"/>
     <use xlink:href="#med9a2245f5" x="721.012024" y="463.21" style="fill: #666666; stroke: #666666"/>
     <use xlink:href="#med9a2245f5" x="854.045137" y="463.21" style="fill: #666666; stroke: #666666"/>
     <use xlink:href="#med9a2245f5" x="883.60805" y="463.21" style="fill: #666666; stroke: #666666"/>
     <use xlink:href="#med9a2245f5" x="987.078249" y="463.21" style="fill: #666666; stroke: #666666"/>
     <use xlink:href="#med9a2245f5" x="1009.250435" y="463.21" style="fill: #666666; stroke: #666666"/>
    </g>
   </g>
  </g>
 </g>
 <defs>
  <clipPath id="pc5c1975aa2">
   <rect x="85.409375" y="38.17" width="558" height="443.52"/>
  </clipPath>
 </defs>
</svg>
