<?xml version="1.0" encoding="utf-8" standalone="no"?>
<!DOCTYPE svg PUBLIC "-//W3C//DTD SVG 1.1//EN"
  "http://www.w3.org/Graphics/SVG/1.1/DTD/svg11.dtd">
<svg xmlns:xlink="http://www.w3.org/1999/xlink" width="665.234375pt" height="557.95875pt" viewBox="0 0 665.234375 557.95875" xmlns="http://www.w3.org/2000/svg" version="1.1">
 <metadata>
  <rdf:RDF xmlns:dc="http://purl.org/dc/elements/1.1/" xmlns:cc="http://creativecommons.org/ns#" xmlns:rdf="http://www.w3.org/1999/02/22-rdf-syntax-ns#">
   <cc:Work>
    <dc:type rdf:resource="http://purl.org/dc/dcmitype/StillImage"/>
    <dc:date>2025-06-02T15:34:21.583176</dc:date>
    <dc:format>image/svg+xml</dc:format>
    <dc:creator>
     <cc:Agent>
      <dc:title>Matplotlib v3.10.3, https://matplotlib.org/</dc:title>
     </cc:Agent>
    </dc:creator>
   </cc:Work>
  </rdf:RDF>
 </metadata>
 <defs>
  <style type="text/css">*{stroke-linejoin: round; stroke-linecap: butt}</style>
 </defs>
 <g id="figure_1">
  <g id="patch_1">
   <path d="M 0 557.95875 
L 665.234375 557.95875 
L 665.234375 0 
L 0 0 
z
" style="fill: #ffffff"/>
  </g>
  <g id="axes_1">
   <g id="patch_2">
    <path d="M 100.034375 481.69 
L 658.034375 481.69 
L 658.034375 38.17 
L 100.034375 38.17 
z
" style="fill: #ffffff"/>
   </g>
   <g id="PathCollection_1">
    <defs>
     <path id="m65ba566cd9" d="M 0 -4.472136 
L -4.472136 4.472136 
L 4.472136 4.472136 
z
" style="stroke: #a9a9a9"/>
    </defs>
    <g clip-path="url(#p9ed318fb36)">
     <use xlink:href="#m65ba566cd9" x="111.526012" y="114.693597" style="fill: #a9a9a9; stroke: #a9a9a9"/>
     <use xlink:href="#m65ba566cd9" x="231.351297" y="150.960516" style="fill: #a9a9a9; stroke: #a9a9a9"/>
     <use xlink:href="#m65ba566cd9" x="287.066882" y="240.487386" style="fill: #a9a9a9; stroke: #a9a9a9"/>
     <use xlink:href="#m65ba566cd9" x="323.7658" y="247.612452" style="fill: #a9a9a9; stroke: #a9a9a9"/>
     <use xlink:href="#m65ba566cd9" x="351.176583" y="210.465845" style="fill: #a9a9a9; stroke: #a9a9a9"/>
     <use xlink:href="#m65ba566cd9" x="373.06367" y="191.217194" style="fill: #a9a9a9; stroke: #a9a9a9"/>
     <use xlink:href="#m65ba566cd9" x="391.284205" y="331.752877" style="fill: #a9a9a9; stroke: #a9a9a9"/>
     <use xlink:href="#m65ba566cd9" x="406.892167" y="210.465845" style="fill: #a9a9a9; stroke: #a9a9a9"/>
     <use xlink:href="#m65ba566cd9" x="420.543671" y="304.00771" style="fill: #a9a9a9; stroke: #a9a9a9"/>
     <use xlink:href="#m65ba566cd9" x="432.675015" y="304.00771" style="fill: #a9a9a9; stroke: #a9a9a9"/>
     <use xlink:href="#m65ba566cd9" x="443.591085" y="247.612452" style="fill: #a9a9a9; stroke: #a9a9a9"/>
     <use xlink:href="#m65ba566cd9" x="453.513347" y="317.010983" style="fill: #a9a9a9; stroke: #a9a9a9"/>
     <use xlink:href="#m65ba566cd9" x="462.607752" y="348.771145" style="fill: #a9a9a9; stroke: #a9a9a9"/>
     <use xlink:href="#m65ba566cd9" x="471.001868" y="281.853623" style="fill: #a9a9a9; stroke: #a9a9a9"/>
     <use xlink:href="#m65ba566cd9" x="478.795874" y="348.771145" style="fill: #a9a9a9; stroke: #a9a9a9"/>
     <use xlink:href="#m65ba566cd9" x="486.06988" y="348.771145" style="fill: #a9a9a9; stroke: #a9a9a9"/>
     <use xlink:href="#m65ba566cd9" x="492.888955" y="348.771145" style="fill: #a9a9a9; stroke: #a9a9a9"/>
     <use xlink:href="#m65ba566cd9" x="499.30667" y="281.853623" style="fill: #a9a9a9; stroke: #a9a9a9"/>
     <use xlink:href="#m65ba566cd9" x="505.367655" y="331.752877" style="fill: #a9a9a9; stroke: #a9a9a9"/>
     <use xlink:href="#m65ba566cd9" x="511.10949" y="393.53458" style="fill: #a9a9a9; stroke: #a9a9a9"/>
     <use xlink:href="#m65ba566cd9" x="516.56411" y="425.294742" style="fill: #a9a9a9; stroke: #a9a9a9"/>
     <use xlink:href="#m65ba566cd9" x="521.758886" y="348.771145" style="fill: #a9a9a9; stroke: #a9a9a9"/>
     <use xlink:href="#m65ba566cd9" x="526.717453" y="393.53458" style="fill: #a9a9a9; stroke: #a9a9a9"/>
     <use xlink:href="#m65ba566cd9" x="531.46036" y="281.853623" style="fill: #a9a9a9; stroke: #a9a9a9"/>
     <use xlink:href="#m65ba566cd9" x="536.005587" y="304.00771" style="fill: #a9a9a9; stroke: #a9a9a9"/>
     <use xlink:href="#m65ba566cd9" x="540.368956" y="393.53458" style="fill: #a9a9a9; stroke: #a9a9a9"/>
     <use xlink:href="#m65ba566cd9" x="544.564461" y="470.058177" style="fill: #a9a9a9; stroke: #a9a9a9"/>
     <use xlink:href="#m65ba566cd9" x="548.60454" y="348.771145" style="fill: #a9a9a9; stroke: #a9a9a9"/>
     <use xlink:href="#m65ba566cd9" x="552.5003" y="368.899484" style="fill: #a9a9a9; stroke: #a9a9a9"/>
     <use xlink:href="#m65ba566cd9" x="556.261696" y="470.058177" style="fill: #a9a9a9; stroke: #a9a9a9"/>
     <use xlink:href="#m65ba566cd9" x="559.897688" y="425.294742" style="fill: #a9a9a9; stroke: #a9a9a9"/>
     <use xlink:href="#m65ba566cd9" x="563.41637" y="393.53458" style="fill: #a9a9a9; stroke: #a9a9a9"/>
     <use xlink:href="#m65ba566cd9" x="570.130469" y="393.53458" style="fill: #a9a9a9; stroke: #a9a9a9"/>
     <use xlink:href="#m65ba566cd9" x="576.455121" y="470.058177" style="fill: #a9a9a9; stroke: #a9a9a9"/>
     <use xlink:href="#m65ba566cd9" x="579.485029" y="470.058177" style="fill: #a9a9a9; stroke: #a9a9a9"/>
     <use xlink:href="#m65ba566cd9" x="582.433037" y="470.058177" style="fill: #a9a9a9; stroke: #a9a9a9"/>
     <use xlink:href="#m65ba566cd9" x="585.303458" y="470.058177" style="fill: #a9a9a9; stroke: #a9a9a9"/>
     <use xlink:href="#m65ba566cd9" x="588.100269" y="470.058177" style="fill: #a9a9a9; stroke: #a9a9a9"/>
     <use xlink:href="#m65ba566cd9" x="590.827153" y="470.058177" style="fill: #a9a9a9; stroke: #a9a9a9"/>
     <use xlink:href="#m65ba566cd9" x="593.487521" y="470.058177" style="fill: #a9a9a9; stroke: #a9a9a9"/>
     <use xlink:href="#m65ba566cd9" x="601.100122" y="470.058177" style="fill: #a9a9a9; stroke: #a9a9a9"/>
     <use xlink:href="#m65ba566cd9" x="608.215885" y="470.058177" style="fill: #a9a9a9; stroke: #a9a9a9"/>
     <use xlink:href="#m65ba566cd9" x="610.488252" y="470.058177" style="fill: #a9a9a9; stroke: #a9a9a9"/>
     <use xlink:href="#m65ba566cd9" x="614.895707" y="470.058177" style="fill: #a9a9a9; stroke: #a9a9a9"/>
     <use xlink:href="#m65ba566cd9" x="621.189934" y="470.058177" style="fill: #a9a9a9; stroke: #a9a9a9"/>
     <use xlink:href="#m65ba566cd9" x="625.19294" y="393.53458" style="fill: #a9a9a9; stroke: #a9a9a9"/>
     <use xlink:href="#m65ba566cd9" x="634.601328" y="470.058177" style="fill: #a9a9a9; stroke: #a9a9a9"/>
     <use xlink:href="#m65ba566cd9" x="636.389396" y="470.058177" style="fill: #a9a9a9; stroke: #a9a9a9"/>
     <use xlink:href="#m65ba566cd9" x="638.148622" y="470.058177" style="fill: #a9a9a9; stroke: #a9a9a9"/>
     <use xlink:href="#m65ba566cd9" x="644.914802" y="470.058177" style="fill: #a9a9a9; stroke: #a9a9a9"/>
     <use xlink:href="#m65ba566cd9" x="652.821863" y="470.058177" style="fill: #a9a9a9; stroke: #a9a9a9"/>
     <use xlink:href="#m65ba566cd9" x="654.336744" y="425.294742" style="fill: #a9a9a9; stroke: #a9a9a9"/>
     <use xlink:href="#m65ba566cd9" x="655.830872" y="470.058177" style="fill: #a9a9a9; stroke: #a9a9a9"/>
     <use xlink:href="#m65ba566cd9" x="658.759093" y="470.058177" style="fill: #a9a9a9; stroke: #a9a9a9"/>
     <use xlink:href="#m65ba566cd9" x="660.194241" y="470.058177" style="fill: #a9a9a9; stroke: #a9a9a9"/>
     <use xlink:href="#m65ba566cd9" x="663.009099" y="470.058177" style="fill: #a9a9a9; stroke: #a9a9a9"/>
     <use xlink:href="#m65ba566cd9" x="669.743934" y="470.058177" style="fill: #a9a9a9; stroke: #a9a9a9"/>
     <use xlink:href="#m65ba566cd9" x="672.325585" y="470.058177" style="fill: #a9a9a9; stroke: #a9a9a9"/>
     <use xlink:href="#m65ba566cd9" x="678.524394" y="470.058177" style="fill: #a9a9a9; stroke: #a9a9a9"/>
     <use xlink:href="#m65ba566cd9" x="693.163918" y="470.058177" style="fill: #a9a9a9; stroke: #a9a9a9"/>
     <use xlink:href="#m65ba566cd9" x="694.212673" y="470.058177" style="fill: #a9a9a9; stroke: #a9a9a9"/>
     <use xlink:href="#m65ba566cd9" x="698.309668" y="470.058177" style="fill: #a9a9a9; stroke: #a9a9a9"/>
     <use xlink:href="#m65ba566cd9" x="719.279041" y="470.058177" style="fill: #a9a9a9; stroke: #a9a9a9"/>
    </g>
   </g>
   <g id="PathCollection_2">
    <defs>
     <path id="mcc7e2e292f" d="M -0 4.472136 
L 4.472136 -4.472136 
L -4.472136 -4.472136 
z
" style="stroke: #a9a9a9"/>
    </defs>
    <g clip-path="url(#p9ed318fb36)">
     <use xlink:href="#mcc7e2e292f" x="111.526012" y="114.693597" style="fill: #a9a9a9; stroke: #a9a9a9"/>
     <use xlink:href="#mcc7e2e292f" x="231.351297" y="174.831594" style="fill: #a9a9a9; stroke: #a9a9a9"/>
     <use xlink:href="#mcc7e2e292f" x="287.066882" y="191.217194" style="fill: #a9a9a9; stroke: #a9a9a9"/>
     <use xlink:href="#mcc7e2e292f" x="323.7658" y="182.720679" style="fill: #a9a9a9; stroke: #a9a9a9"/>
     <use xlink:href="#mcc7e2e292f" x="351.176583" y="221.51508" style="fill: #a9a9a9; stroke: #a9a9a9"/>
     <use xlink:href="#mcc7e2e292f" x="373.06367" y="247.612452" style="fill: #a9a9a9; stroke: #a9a9a9"/>
     <use xlink:href="#mcc7e2e292f" x="391.284205" y="255.22928" style="fill: #a9a9a9; stroke: #a9a9a9"/>
     <use xlink:href="#mcc7e2e292f" x="406.892167" y="263.410816" style="fill: #a9a9a9; stroke: #a9a9a9"/>
     <use xlink:href="#mcc7e2e292f" x="420.543671" y="281.853623" style="fill: #a9a9a9; stroke: #a9a9a9"/>
     <use xlink:href="#mcc7e2e292f" x="432.675015" y="281.853623" style="fill: #a9a9a9; stroke: #a9a9a9"/>
     <use xlink:href="#mcc7e2e292f" x="443.591085" y="304.00771" style="fill: #a9a9a9; stroke: #a9a9a9"/>
     <use xlink:href="#mcc7e2e292f" x="453.513347" y="331.752877" style="fill: #a9a9a9; stroke: #a9a9a9"/>
     <use xlink:href="#mcc7e2e292f" x="462.607752" y="255.22928" style="fill: #a9a9a9; stroke: #a9a9a9"/>
     <use xlink:href="#mcc7e2e292f" x="471.001868" y="348.771145" style="fill: #a9a9a9; stroke: #a9a9a9"/>
     <use xlink:href="#mcc7e2e292f" x="478.795874" y="368.899484" style="fill: #a9a9a9; stroke: #a9a9a9"/>
     <use xlink:href="#mcc7e2e292f" x="486.06988" y="292.375887" style="fill: #a9a9a9; stroke: #a9a9a9"/>
     <use xlink:href="#mcc7e2e292f" x="492.888955" y="348.771145" style="fill: #a9a9a9; stroke: #a9a9a9"/>
     <use xlink:href="#mcc7e2e292f" x="499.30667" y="292.375887" style="fill: #a9a9a9; stroke: #a9a9a9"/>
     <use xlink:href="#mcc7e2e292f" x="505.367655" y="317.010983" style="fill: #a9a9a9; stroke: #a9a9a9"/>
     <use xlink:href="#mcc7e2e292f" x="511.10949" y="368.899484" style="fill: #a9a9a9; stroke: #a9a9a9"/>
     <use xlink:href="#mcc7e2e292f" x="516.56411" y="292.375887" style="fill: #a9a9a9; stroke: #a9a9a9"/>
     <use xlink:href="#mcc7e2e292f" x="521.758886" y="425.294742" style="fill: #a9a9a9; stroke: #a9a9a9"/>
     <use xlink:href="#mcc7e2e292f" x="526.717453" y="470.058177" style="fill: #a9a9a9; stroke: #a9a9a9"/>
     <use xlink:href="#mcc7e2e292f" x="531.46036" y="292.375887" style="fill: #a9a9a9; stroke: #a9a9a9"/>
     <use xlink:href="#mcc7e2e292f" x="536.005587" y="348.771145" style="fill: #a9a9a9; stroke: #a9a9a9"/>
     <use xlink:href="#mcc7e2e292f" x="540.368956" y="368.899484" style="fill: #a9a9a9; stroke: #a9a9a9"/>
     <use xlink:href="#mcc7e2e292f" x="544.564461" y="393.53458" style="fill: #a9a9a9; stroke: #a9a9a9"/>
     <use xlink:href="#mcc7e2e292f" x="548.60454" y="470.058177" style="fill: #a9a9a9; stroke: #a9a9a9"/>
     <use xlink:href="#mcc7e2e292f" x="552.5003" y="348.771145" style="fill: #a9a9a9; stroke: #a9a9a9"/>
     <use xlink:href="#mcc7e2e292f" x="556.261696" y="348.771145" style="fill: #a9a9a9; stroke: #a9a9a9"/>
     <use xlink:href="#mcc7e2e292f" x="559.897688" y="425.294742" style="fill: #a9a9a9; stroke: #a9a9a9"/>
     <use xlink:href="#mcc7e2e292f" x="563.41637" y="393.53458" style="fill: #a9a9a9; stroke: #a9a9a9"/>
     <use xlink:href="#mcc7e2e292f" x="566.825075" y="470.058177" style="fill: #a9a9a9; stroke: #a9a9a9"/>
     <use xlink:href="#mcc7e2e292f" x="570.130469" y="470.058177" style="fill: #a9a9a9; stroke: #a9a9a9"/>
     <use xlink:href="#mcc7e2e292f" x="573.338632" y="348.771145" style="fill: #a9a9a9; stroke: #a9a9a9"/>
     <use xlink:href="#mcc7e2e292f" x="582.433037" y="470.058177" style="fill: #a9a9a9; stroke: #a9a9a9"/>
     <use xlink:href="#mcc7e2e292f" x="585.303458" y="470.058177" style="fill: #a9a9a9; stroke: #a9a9a9"/>
     <use xlink:href="#mcc7e2e292f" x="588.100269" y="393.53458" style="fill: #a9a9a9; stroke: #a9a9a9"/>
     <use xlink:href="#mcc7e2e292f" x="596.084541" y="470.058177" style="fill: #a9a9a9; stroke: #a9a9a9"/>
     <use xlink:href="#mcc7e2e292f" x="603.523992" y="470.058177" style="fill: #a9a9a9; stroke: #a9a9a9"/>
     <use xlink:href="#mcc7e2e292f" x="605.895166" y="470.058177" style="fill: #a9a9a9; stroke: #a9a9a9"/>
     <use xlink:href="#mcc7e2e292f" x="614.895707" y="470.058177" style="fill: #a9a9a9; stroke: #a9a9a9"/>
     <use xlink:href="#mcc7e2e292f" x="617.034396" y="470.058177" style="fill: #a9a9a9; stroke: #a9a9a9"/>
     <use xlink:href="#mcc7e2e292f" x="621.189934" y="393.53458" style="fill: #a9a9a9; stroke: #a9a9a9"/>
     <use xlink:href="#mcc7e2e292f" x="623.209801" y="470.058177" style="fill: #a9a9a9; stroke: #a9a9a9"/>
     <use xlink:href="#mcc7e2e292f" x="636.389396" y="470.058177" style="fill: #a9a9a9; stroke: #a9a9a9"/>
     <use xlink:href="#mcc7e2e292f" x="638.148622" y="470.058177" style="fill: #a9a9a9; stroke: #a9a9a9"/>
     <use xlink:href="#mcc7e2e292f" x="639.879923" y="425.294742" style="fill: #a9a9a9; stroke: #a9a9a9"/>
     <use xlink:href="#mcc7e2e292f" x="641.584171" y="470.058177" style="fill: #a9a9a9; stroke: #a9a9a9"/>
     <use xlink:href="#mcc7e2e292f" x="643.2622" y="470.058177" style="fill: #a9a9a9; stroke: #a9a9a9"/>
     <use xlink:href="#mcc7e2e292f" x="648.146733" y="470.058177" style="fill: #a9a9a9; stroke: #a9a9a9"/>
     <use xlink:href="#mcc7e2e292f" x="652.821863" y="470.058177" style="fill: #a9a9a9; stroke: #a9a9a9"/>
     <use xlink:href="#mcc7e2e292f" x="657.304809" y="470.058177" style="fill: #a9a9a9; stroke: #a9a9a9"/>
     <use xlink:href="#mcc7e2e292f" x="660.194241" y="470.058177" style="fill: #a9a9a9; stroke: #a9a9a9"/>
     <use xlink:href="#mcc7e2e292f" x="661.61075" y="470.058177" style="fill: #a9a9a9; stroke: #a9a9a9"/>
     <use xlink:href="#mcc7e2e292f" x="664.389746" y="470.058177" style="fill: #a9a9a9; stroke: #a9a9a9"/>
     <use xlink:href="#mcc7e2e292f" x="665.753135" y="470.058177" style="fill: #a9a9a9; stroke: #a9a9a9"/>
     <use xlink:href="#mcc7e2e292f" x="676.086981" y="470.058177" style="fill: #a9a9a9; stroke: #a9a9a9"/>
     <use xlink:href="#mcc7e2e292f" x="687.763326" y="470.058177" style="fill: #a9a9a9; stroke: #a9a9a9"/>
     <use xlink:href="#mcc7e2e292f" x="704.180305" y="470.058177" style="fill: #a9a9a9; stroke: #a9a9a9"/>
     <use xlink:href="#mcc7e2e292f" x="724.935773" y="470.058177" style="fill: #a9a9a9; stroke: #a9a9a9"/>
    </g>
   </g>
   <g id="matplotlib.axis_1">
    <g id="xtick_1">
     <g id="line2d_1">
      <defs>
       <path id="ma084a1dcbe" d="M 0 0 
L 0 3.5 
" style="stroke: #000000; stroke-width: 0.8"/>
      </defs>
      <g>
       <use xlink:href="#ma084a1dcbe" x="111.526012" y="481.69" style="stroke: #000000; stroke-width: 0.8"/>
      </g>
     </g>
     <g id="text_1">
      <!-- $\mathdefault{10^{0}}$ -->
      <g transform="translate(85.126012 511.485313) scale(0.3 -0.3)">
       <defs>
        <path id="DejaVuSans-31" d="M 794 531 
L 1825 531 
L 1825 4091 
L 703 3866 
L 703 4441 
L 1819 4666 
L 2450 4666 
L 2450 531 
L 3481 531 
L 3481 0 
L 794 0 
L 794 531 
z
" transform="scale(0.015625)"/>
        <path id="DejaVuSans-30" d="M 2034 4250 
Q 1547 4250 1301 3770 
Q 1056 3291 1056 2328 
Q 1056 1369 1301 889 
Q 1547 409 2034 409 
Q 2525 409 2770 889 
Q 3016 1369 3016 2328 
Q 3016 3291 2770 3770 
Q 2525 4250 2034 4250 
z
M 2034 4750 
Q 2819 4750 3233 4129 
Q 3647 3509 3647 2328 
Q 3647 1150 3233 529 
Q 2819 -91 2034 -91 
Q 1250 -91 836 529 
Q 422 1150 422 2328 
Q 422 3509 836 4129 
Q 1250 4750 2034 4750 
z
" transform="scale(0.015625)"/>
       </defs>
       <use xlink:href="#DejaVuSans-31" transform="translate(0 0.765625)"/>
       <use xlink:href="#DejaVuSans-30" transform="translate(63.623047 0.765625)"/>
       <use xlink:href="#DejaVuSans-30" transform="translate(128.203125 39.046875) scale(0.7)"/>
      </g>
     </g>
    </g>
    <g id="xtick_2">
     <g id="line2d_2">
      <g>
       <use xlink:href="#ma084a1dcbe" x="362.66822" y="481.69" style="stroke: #000000; stroke-width: 0.8"/>
      </g>
     </g>
     <g id="text_2">
      <!-- $\mathdefault{10^{1}}$ -->
      <g transform="translate(336.26822 511.485313) scale(0.3 -0.3)">
       <use xlink:href="#DejaVuSans-31" transform="translate(0 0.684375)"/>
       <use xlink:href="#DejaVuSans-30" transform="translate(63.623047 0.684375)"/>
       <use xlink:href="#DejaVuSans-31" transform="translate(128.203125 38.965625) scale(0.7)"/>
      </g>
     </g>
    </g>
    <g id="xtick_3">
     <g id="line2d_3">
      <g>
       <use xlink:href="#ma084a1dcbe" x="613.810427" y="481.69" style="stroke: #000000; stroke-width: 0.8"/>
      </g>
     </g>
     <g id="text_3">
      <!-- $\mathdefault{10^{2}}$ -->
      <g transform="translate(587.410427 511.485313) scale(0.3 -0.3)">
       <defs>
        <path id="DejaVuSans-32" d="M 1228 531 
L 3431 531 
L 3431 0 
L 469 0 
L 469 531 
Q 828 903 1448 1529 
Q 2069 2156 2228 2338 
Q 2531 2678 2651 2914 
Q 2772 3150 2772 3378 
Q 2772 3750 2511 3984 
Q 2250 4219 1831 4219 
Q 1534 4219 1204 4116 
Q 875 4013 500 3803 
L 500 4441 
Q 881 4594 1212 4672 
Q 1544 4750 1819 4750 
Q 2544 4750 2975 4387 
Q 3406 4025 3406 3419 
Q 3406 3131 3298 2873 
Q 3191 2616 2906 2266 
Q 2828 2175 2409 1742 
Q 1991 1309 1228 531 
z
" transform="scale(0.015625)"/>
       </defs>
       <use xlink:href="#DejaVuSans-31" transform="translate(0 0.765625)"/>
       <use xlink:href="#DejaVuSans-30" transform="translate(63.623047 0.765625)"/>
       <use xlink:href="#DejaVuSans-32" transform="translate(128.203125 39.046875) scale(0.7)"/>
      </g>
     </g>
    </g>
    <g id="xtick_4">
     <g id="line2d_4">
      <defs>
       <path id="mfbbc97e815" d="M 0 0 
L 0 2 
" style="stroke: #000000; stroke-width: 0.6"/>
      </defs>
      <g>
       <use xlink:href="#mfbbc97e815" x="100.034375" y="481.69" style="stroke: #000000; stroke-width: 0.6"/>
      </g>
     </g>
    </g>
    <g id="xtick_5">
     <g id="line2d_5">
      <g>
       <use xlink:href="#mfbbc97e815" x="187.12735" y="481.69" style="stroke: #000000; stroke-width: 0.6"/>
      </g>
     </g>
    </g>
    <g id="xtick_6">
     <g id="line2d_6">
      <g>
       <use xlink:href="#mfbbc97e815" x="231.351297" y="481.69" style="stroke: #000000; stroke-width: 0.6"/>
      </g>
     </g>
    </g>
    <g id="xtick_7">
     <g id="line2d_7">
      <g>
       <use xlink:href="#mfbbc97e815" x="262.728688" y="481.69" style="stroke: #000000; stroke-width: 0.6"/>
      </g>
     </g>
    </g>
    <g id="xtick_8">
     <g id="line2d_8">
      <g>
       <use xlink:href="#mfbbc97e815" x="287.066882" y="481.69" style="stroke: #000000; stroke-width: 0.6"/>
      </g>
     </g>
    </g>
    <g id="xtick_9">
     <g id="line2d_9">
      <g>
       <use xlink:href="#mfbbc97e815" x="306.952635" y="481.69" style="stroke: #000000; stroke-width: 0.6"/>
      </g>
     </g>
    </g>
    <g id="xtick_10">
     <g id="line2d_10">
      <g>
       <use xlink:href="#mfbbc97e815" x="323.7658" y="481.69" style="stroke: #000000; stroke-width: 0.6"/>
      </g>
     </g>
    </g>
    <g id="xtick_11">
     <g id="line2d_11">
      <g>
       <use xlink:href="#mfbbc97e815" x="338.330025" y="481.69" style="stroke: #000000; stroke-width: 0.6"/>
      </g>
     </g>
    </g>
    <g id="xtick_12">
     <g id="line2d_12">
      <g>
       <use xlink:href="#mfbbc97e815" x="351.176583" y="481.69" style="stroke: #000000; stroke-width: 0.6"/>
      </g>
     </g>
    </g>
    <g id="xtick_13">
     <g id="line2d_13">
      <g>
       <use xlink:href="#mfbbc97e815" x="438.269557" y="481.69" style="stroke: #000000; stroke-width: 0.6"/>
      </g>
     </g>
    </g>
    <g id="xtick_14">
     <g id="line2d_14">
      <g>
       <use xlink:href="#mfbbc97e815" x="482.493505" y="481.69" style="stroke: #000000; stroke-width: 0.6"/>
      </g>
     </g>
    </g>
    <g id="xtick_15">
     <g id="line2d_15">
      <g>
       <use xlink:href="#mfbbc97e815" x="513.870895" y="481.69" style="stroke: #000000; stroke-width: 0.6"/>
      </g>
     </g>
    </g>
    <g id="xtick_16">
     <g id="line2d_16">
      <g>
       <use xlink:href="#mfbbc97e815" x="538.20909" y="481.69" style="stroke: #000000; stroke-width: 0.6"/>
      </g>
     </g>
    </g>
    <g id="xtick_17">
     <g id="line2d_17">
      <g>
       <use xlink:href="#mfbbc97e815" x="558.094843" y="481.69" style="stroke: #000000; stroke-width: 0.6"/>
      </g>
     </g>
    </g>
    <g id="xtick_18">
     <g id="line2d_18">
      <g>
       <use xlink:href="#mfbbc97e815" x="574.908007" y="481.69" style="stroke: #000000; stroke-width: 0.6"/>
      </g>
     </g>
    </g>
    <g id="xtick_19">
     <g id="line2d_19">
      <g>
       <use xlink:href="#mfbbc97e815" x="589.472233" y="481.69" style="stroke: #000000; stroke-width: 0.6"/>
      </g>
     </g>
    </g>
    <g id="xtick_20">
     <g id="line2d_20">
      <g>
       <use xlink:href="#mfbbc97e815" x="602.31879" y="481.69" style="stroke: #000000; stroke-width: 0.6"/>
      </g>
     </g>
    </g>
    <g id="text_4">
     <!-- $\mathrm{k}$ -->
     <g transform="translate(370.334375 544.519688) scale(0.3 -0.3)">
      <defs>
       <path id="DejaVuSans-6b" d="M 581 4863 
L 1159 4863 
L 1159 1991 
L 2875 3500 
L 3609 3500 
L 1753 1863 
L 3688 0 
L 2938 0 
L 1159 1709 
L 1159 0 
L 581 0 
L 581 4863 
z
" transform="scale(0.015625)"/>
      </defs>
      <use xlink:href="#DejaVuSans-6b" transform="translate(0 0.015625)"/>
     </g>
    </g>
   </g>
   <g id="matplotlib.axis_2">
    <g id="ytick_1">
     <g id="line2d_21">
      <defs>
       <path id="m6c761c96fc" d="M 0 0 
L -3.5 0 
" style="stroke: #000000; stroke-width: 0.8"/>
      </defs>
      <g>
       <use xlink:href="#m6c761c96fc" x="100.034375" y="470.058177" style="stroke: #000000; stroke-width: 0.8"/>
      </g>
     </g>
     <g id="text_5">
      <!-- $\mathdefault{10^{0}}$ -->
      <g transform="translate(40.234375 481.455833) scale(0.3 -0.3)">
       <use xlink:href="#DejaVuSans-31" transform="translate(0 0.765625)"/>
       <use xlink:href="#DejaVuSans-30" transform="translate(63.623047 0.765625)"/>
       <use xlink:href="#DejaVuSans-30" transform="translate(128.203125 39.046875) scale(0.7)"/>
      </g>
     </g>
    </g>
    <g id="ytick_2">
     <g id="line2d_22">
      <g>
       <use xlink:href="#m6c761c96fc" x="100.034375" y="215.85229" style="stroke: #000000; stroke-width: 0.8"/>
      </g>
     </g>
     <g id="text_6">
      <!-- $\mathdefault{10^{1}}$ -->
      <g transform="translate(40.234375 227.249946) scale(0.3 -0.3)">
       <use xlink:href="#DejaVuSans-31" transform="translate(0 0.684375)"/>
       <use xlink:href="#DejaVuSans-30" transform="translate(63.623047 0.684375)"/>
       <use xlink:href="#DejaVuSans-31" transform="translate(128.203125 38.965625) scale(0.7)"/>
      </g>
     </g>
    </g>
    <g id="ytick_3">
     <g id="line2d_23">
      <defs>
       <path id="m599c6664d4" d="M 0 0 
L -2 0 
" style="stroke: #000000; stroke-width: 0.6"/>
      </defs>
      <g>
       <use xlink:href="#m599c6664d4" x="100.034375" y="481.69" style="stroke: #000000; stroke-width: 0.6"/>
      </g>
     </g>
    </g>
    <g id="ytick_4">
     <g id="line2d_24">
      <g>
       <use xlink:href="#m599c6664d4" x="100.034375" y="393.53458" style="stroke: #000000; stroke-width: 0.6"/>
      </g>
     </g>
    </g>
    <g id="ytick_5">
     <g id="line2d_25">
      <g>
       <use xlink:href="#m599c6664d4" x="100.034375" y="348.771145" style="stroke: #000000; stroke-width: 0.6"/>
      </g>
     </g>
    </g>
    <g id="ytick_6">
     <g id="line2d_26">
      <g>
       <use xlink:href="#m599c6664d4" x="100.034375" y="317.010983" style="stroke: #000000; stroke-width: 0.6"/>
      </g>
     </g>
    </g>
    <g id="ytick_7">
     <g id="line2d_27">
      <g>
       <use xlink:href="#m599c6664d4" x="100.034375" y="292.375887" style="stroke: #000000; stroke-width: 0.6"/>
      </g>
     </g>
    </g>
    <g id="ytick_8">
     <g id="line2d_28">
      <g>
       <use xlink:href="#m599c6664d4" x="100.034375" y="272.247548" style="stroke: #000000; stroke-width: 0.6"/>
      </g>
     </g>
    </g>
    <g id="ytick_9">
     <g id="line2d_29">
      <g>
       <use xlink:href="#m599c6664d4" x="100.034375" y="255.22928" style="stroke: #000000; stroke-width: 0.6"/>
      </g>
     </g>
    </g>
    <g id="ytick_10">
     <g id="line2d_30">
      <g>
       <use xlink:href="#m599c6664d4" x="100.034375" y="240.487386" style="stroke: #000000; stroke-width: 0.6"/>
      </g>
     </g>
    </g>
    <g id="ytick_11">
     <g id="line2d_31">
      <g>
       <use xlink:href="#m599c6664d4" x="100.034375" y="227.484113" style="stroke: #000000; stroke-width: 0.6"/>
      </g>
     </g>
    </g>
    <g id="ytick_12">
     <g id="line2d_32">
      <g>
       <use xlink:href="#m599c6664d4" x="100.034375" y="139.328693" style="stroke: #000000; stroke-width: 0.6"/>
      </g>
     </g>
    </g>
    <g id="ytick_13">
     <g id="line2d_33">
      <g>
       <use xlink:href="#m599c6664d4" x="100.034375" y="94.565258" style="stroke: #000000; stroke-width: 0.6"/>
      </g>
     </g>
    </g>
    <g id="ytick_14">
     <g id="line2d_34">
      <g>
       <use xlink:href="#m599c6664d4" x="100.034375" y="62.805096" style="stroke: #000000; stroke-width: 0.6"/>
      </g>
     </g>
    </g>
    <g id="ytick_15">
     <g id="line2d_35">
      <g>
       <use xlink:href="#m599c6664d4" x="100.034375" y="38.17" style="stroke: #000000; stroke-width: 0.6"/>
      </g>
     </g>
    </g>
    <g id="text_7">
     <!-- $\mathrm{N}( \mathrm{k} )$ -->
     <g transform="translate(29.995312 291.58) rotate(-90) scale(0.3 -0.3)">
      <defs>
       <path id="DejaVuSans-4e" d="M 628 4666 
L 1478 4666 
L 3547 763 
L 3547 4666 
L 4159 4666 
L 4159 0 
L 3309 0 
L 1241 3903 
L 1241 0 
L 628 0 
L 628 4666 
z
" transform="scale(0.015625)"/>
       <path id="DejaVuSans-28" d="M 1984 4856 
Q 1566 4138 1362 3434 
Q 1159 2731 1159 2009 
Q 1159 1288 1364 580 
Q 1569 -128 1984 -844 
L 1484 -844 
Q 1016 -109 783 600 
Q 550 1309 550 2009 
Q 550 2706 781 3412 
Q 1013 4119 1484 4856 
L 1984 4856 
z
" transform="scale(0.015625)"/>
       <path id="DejaVuSans-29" d="M 513 4856 
L 1013 4856 
Q 1481 4119 1714 3412 
Q 1947 2706 1947 2009 
Q 1947 1309 1714 600 
Q 1481 -109 1013 -844 
L 513 -844 
Q 928 -128 1133 580 
Q 1338 1288 1338 2009 
Q 1338 2731 1133 3434 
Q 928 4138 513 4856 
z
" transform="scale(0.015625)"/>
      </defs>
      <use xlink:href="#DejaVuSans-4e" transform="translate(0 0.015625)"/>
      <use xlink:href="#DejaVuSans-28" transform="translate(74.804688 0.015625)"/>
      <use xlink:href="#DejaVuSans-6b" transform="translate(113.818359 0.015625)"/>
      <use xlink:href="#DejaVuSans-29" transform="translate(171.728516 0.015625)"/>
     </g>
    </g>
   </g>
   <g id="line2d_36">
    <path d="M 111.526012 80.345792 
L 136.640233 88.025426 
L 161.754454 97.801966 
L 186.868674 109.667157 
L 211.982895 123.438069 
L 237.097116 138.819027 
L 262.211337 155.4872 
L 287.325558 173.152472 
L 312.439778 191.579772 
L 337.553999 210.58881 
L 362.66822 230.044706 
L 387.782441 249.846987 
L 412.896661 269.920304 
L 438.010882 290.20753 
L 463.125103 310.664838 
L 488.239324 331.258227 
L 513.353544 351.961061 
L 538.467765 372.752292 
L 563.581986 393.615168 
L 588.696207 414.536278 
L 613.810427 435.50483 
L 638.924648 456.512639 
L 664.038869 481.596233 
" clip-path="url(#p9ed318fb36)" style="fill: none; stroke: #666666; stroke-width: 1.5; stroke-linecap: square"/>
   </g>
   <g id="line2d_37">
    <path d="M 111.526012 116.987497 
L 136.640233 124.333277 
L 161.754454 133.298589 
L 186.868674 143.818039 
L 211.982895 155.728295 
L 237.097116 168.818004 
L 262.211337 182.873881 
L 287.325558 197.706297 
L 312.439778 213.157962 
L 337.553999 229.103376 
L 362.66822 245.444125 
L 387.782441 262.103293 
L 412.896661 279.020521 
L 438.010882 296.148115 
L 463.125103 313.448092 
L 488.239324 330.88997 
L 513.353544 348.449115 
L 538.467765 366.105491 
L 563.581986 383.842713 
L 588.696207 401.647321 
L 613.810427 419.508208 
L 638.924648 437.416181 
L 664.038869 455.363605 
" clip-path="url(#p9ed318fb36)" style="fill: none; stroke: #a9a9a9; stroke-width: 1.5; stroke-linecap: square"/>
   </g>
   <g id="patch_3">
    <path d="M 100.034375 481.69 
L 100.034375 38.17 
" style="fill: none; stroke: #000000; stroke-width: 0.8; stroke-linejoin: miter; stroke-linecap: square"/>
   </g>
   <g id="patch_4">
    <path d="M 658.034375 481.69 
L 658.034375 38.17 
" style="fill: none; stroke: #000000; stroke-width: 0.8; stroke-linejoin: miter; stroke-linecap: square"/>
   </g>
   <g id="patch_5">
    <path d="M 100.034375 481.69 
L 658.034375 481.69 
" style="fill: none; stroke: #000000; stroke-width: 0.8; stroke-linejoin: miter; stroke-linecap: square"/>
   </g>
   <g id="patch_6">
    <path d="M 100.034375 38.17 
L 658.034375 38.17 
" style="fill: none; stroke: #000000; stroke-width: 0.8; stroke-linejoin: miter; stroke-linecap: square"/>
   </g>
   <g id="text_8">
    <!-- Fresno -->
    <g transform="translate(326.664375 31.515) scale(0.32 -0.32)">
     <defs>
      <path id="DejaVuSans-46" d="M 628 4666 
L 3309 4666 
L 3309 4134 
L 1259 4134 
L 1259 2759 
L 3109 2759 
L 3109 2228 
L 1259 2228 
L 1259 0 
L 628 0 
L 628 4666 
z
" transform="scale(0.015625)"/>
      <path id="DejaVuSans-72" d="M 2631 2963 
Q 2534 3019 2420 3045 
Q 2306 3072 2169 3072 
Q 1681 3072 1420 2755 
Q 1159 2438 1159 1844 
L 1159 0 
L 581 0 
L 581 3500 
L 1159 3500 
L 1159 2956 
Q 1341 3275 1631 3429 
Q 1922 3584 2338 3584 
Q 2397 3584 2469 3576 
Q 2541 3569 2628 3553 
L 2631 2963 
z
" transform="scale(0.015625)"/>
      <path id="DejaVuSans-65" d="M 3597 1894 
L 3597 1613 
L 953 1613 
Q 991 1019 1311 708 
Q 1631 397 2203 397 
Q 2534 397 2845 478 
Q 3156 559 3463 722 
L 3463 178 
Q 3153 47 2828 -22 
Q 2503 -91 2169 -91 
Q 1331 -91 842 396 
Q 353 884 353 1716 
Q 353 2575 817 3079 
Q 1281 3584 2069 3584 
Q 2775 3584 3186 3129 
Q 3597 2675 3597 1894 
z
M 3022 2063 
Q 3016 2534 2758 2815 
Q 2500 3097 2075 3097 
Q 1594 3097 1305 2825 
Q 1016 2553 972 2059 
L 3022 2063 
z
" transform="scale(0.015625)"/>
      <path id="DejaVuSans-73" d="M 2834 3397 
L 2834 2853 
Q 2591 2978 2328 3040 
Q 2066 3103 1784 3103 
Q 1356 3103 1142 2972 
Q 928 2841 928 2578 
Q 928 2378 1081 2264 
Q 1234 2150 1697 2047 
L 1894 2003 
Q 2506 1872 2764 1633 
Q 3022 1394 3022 966 
Q 3022 478 2636 193 
Q 2250 -91 1575 -91 
Q 1294 -91 989 -36 
Q 684 19 347 128 
L 347 722 
Q 666 556 975 473 
Q 1284 391 1588 391 
Q 1994 391 2212 530 
Q 2431 669 2431 922 
Q 2431 1156 2273 1281 
Q 2116 1406 1581 1522 
L 1381 1569 
Q 847 1681 609 1914 
Q 372 2147 372 2553 
Q 372 3047 722 3315 
Q 1072 3584 1716 3584 
Q 2034 3584 2315 3537 
Q 2597 3491 2834 3397 
z
" transform="scale(0.015625)"/>
      <path id="DejaVuSans-6e" d="M 3513 2113 
L 3513 0 
L 2938 0 
L 2938 2094 
Q 2938 2591 2744 2837 
Q 2550 3084 2163 3084 
Q 1697 3084 1428 2787 
Q 1159 2491 1159 1978 
L 1159 0 
L 581 0 
L 581 3500 
L 1159 3500 
L 1159 2956 
Q 1366 3272 1645 3428 
Q 1925 3584 2291 3584 
Q 2894 3584 3203 3211 
Q 3513 2838 3513 2113 
z
" transform="scale(0.015625)"/>
      <path id="DejaVuSans-6f" d="M 1959 3097 
Q 1497 3097 1228 2736 
Q 959 2375 959 1747 
Q 959 1119 1226 758 
Q 1494 397 1959 397 
Q 2419 397 2687 759 
Q 2956 1122 2956 1747 
Q 2956 2369 2687 2733 
Q 2419 3097 1959 3097 
z
M 1959 3584 
Q 2709 3584 3137 3096 
Q 3566 2609 3566 1747 
Q 3566 888 3137 398 
Q 2709 -91 1959 -91 
Q 1206 -91 779 398 
Q 353 888 353 1747 
Q 353 2609 779 3096 
Q 1206 3584 1959 3584 
z
" transform="scale(0.015625)"/>
     </defs>
     <use xlink:href="#DejaVuSans-46"/>
     <use xlink:href="#DejaVuSans-72" transform="translate(50.269531 0)"/>
     <use xlink:href="#DejaVuSans-65" transform="translate(89.132812 0)"/>
     <use xlink:href="#DejaVuSans-73" transform="translate(150.65625 0)"/>
     <use xlink:href="#DejaVuSans-6e" transform="translate(202.755859 0)"/>
     <use xlink:href="#DejaVuSans-6f" transform="translate(266.134766 0)"/>
    </g>
   </g>
   <g id="PathCollection_3">
    <defs>
     <path id="m3ff0a028ec" d="M 0 4.472136 
C 1.186024 4.472136 2.323632 4.000923 3.162278 3.162278 
C 4.000923 2.323632 4.472136 1.186024 4.472136 0 
C 4.472136 -1.186024 4.000923 -2.323632 3.162278 -3.162278 
C 2.323632 -4.000923 1.186024 -4.472136 0 -4.472136 
C -1.186024 -4.472136 -2.323632 -4.000923 -3.162278 -3.162278 
C -4.000923 -2.323632 -4.472136 -1.186024 -4.472136 0 
C -4.472136 1.186024 -4.000923 2.323632 -3.162278 3.162278 
C -2.323632 4.000923 -1.186024 4.472136 0 4.472136 
z
" style="stroke: #666666"/>
    </defs>
    <g clip-path="url(#p9ed318fb36)">
     <use xlink:href="#m3ff0a028ec" x="111.526012" y="71.785672" style="fill: #666666; stroke: #666666"/>
     <use xlink:href="#m3ff0a028ec" x="231.351297" y="175.787446" style="fill: #666666; stroke: #666666"/>
     <use xlink:href="#m3ff0a028ec" x="287.066882" y="142.833756" style="fill: #666666; stroke: #666666"/>
     <use xlink:href="#m3ff0a028ec" x="323.7658" y="215.85229" style="fill: #666666; stroke: #666666"/>
     <use xlink:href="#m3ff0a028ec" x="351.176583" y="175.787446" style="fill: #666666; stroke: #666666"/>
     <use xlink:href="#m3ff0a028ec" x="373.06367" y="196.879985" style="fill: #666666; stroke: #666666"/>
     <use xlink:href="#m3ff0a028ec" x="391.284205" y="222.977356" style="fill: #666666; stroke: #666666"/>
     <use xlink:href="#m3ff0a028ec" x="406.892167" y="257.218527" style="fill: #666666; stroke: #666666"/>
     <use xlink:href="#m3ff0a028ec" x="420.543671" y="238.77572" style="fill: #666666; stroke: #666666"/>
     <use xlink:href="#m3ff0a028ec" x="432.675015" y="257.218527" style="fill: #666666; stroke: #666666"/>
     <use xlink:href="#m3ff0a028ec" x="443.591085" y="344.264388" style="fill: #666666; stroke: #666666"/>
     <use xlink:href="#m3ff0a028ec" x="453.513347" y="247.612452" style="fill: #666666; stroke: #666666"/>
     <use xlink:href="#m3ff0a028ec" x="462.607752" y="292.375887" style="fill: #666666; stroke: #666666"/>
     <use xlink:href="#m3ff0a028ec" x="471.001868" y="307.117781" style="fill: #666666; stroke: #666666"/>
     <use xlink:href="#m3ff0a028ec" x="478.795874" y="267.740791" style="fill: #666666; stroke: #666666"/>
     <use xlink:href="#m3ff0a028ec" x="486.06988" y="257.218527" style="fill: #666666; stroke: #666666"/>
     <use xlink:href="#m3ff0a028ec" x="492.888955" y="292.375887" style="fill: #666666; stroke: #666666"/>
     <use xlink:href="#m3ff0a028ec" x="499.30667" y="368.899484" style="fill: #666666; stroke: #666666"/>
     <use xlink:href="#m3ff0a028ec" x="505.367655" y="344.264388" style="fill: #666666; stroke: #666666"/>
     <use xlink:href="#m3ff0a028ec" x="511.10949" y="307.117781" style="fill: #666666; stroke: #666666"/>
     <use xlink:href="#m3ff0a028ec" x="516.56411" y="307.117781" style="fill: #666666; stroke: #666666"/>
     <use xlink:href="#m3ff0a028ec" x="521.758886" y="267.740791" style="fill: #666666; stroke: #666666"/>
     <use xlink:href="#m3ff0a028ec" x="526.717453" y="324.136049" style="fill: #666666; stroke: #666666"/>
     <use xlink:href="#m3ff0a028ec" x="531.46036" y="344.264388" style="fill: #666666; stroke: #666666"/>
     <use xlink:href="#m3ff0a028ec" x="540.368956" y="324.136049" style="fill: #666666; stroke: #666666"/>
     <use xlink:href="#m3ff0a028ec" x="544.564461" y="445.423081" style="fill: #666666; stroke: #666666"/>
     <use xlink:href="#m3ff0a028ec" x="548.60454" y="445.423081" style="fill: #666666; stroke: #666666"/>
     <use xlink:href="#m3ff0a028ec" x="556.261696" y="400.659646" style="fill: #666666; stroke: #666666"/>
     <use xlink:href="#m3ff0a028ec" x="559.897688" y="445.423081" style="fill: #666666; stroke: #666666"/>
     <use xlink:href="#m3ff0a028ec" x="563.41637" y="445.423081" style="fill: #666666; stroke: #666666"/>
     <use xlink:href="#m3ff0a028ec" x="566.825075" y="445.423081" style="fill: #666666; stroke: #666666"/>
     <use xlink:href="#m3ff0a028ec" x="570.130469" y="445.423081" style="fill: #666666; stroke: #666666"/>
     <use xlink:href="#m3ff0a028ec" x="573.338632" y="400.659646" style="fill: #666666; stroke: #666666"/>
     <use xlink:href="#m3ff0a028ec" x="582.433037" y="445.423081" style="fill: #666666; stroke: #666666"/>
     <use xlink:href="#m3ff0a028ec" x="585.303458" y="445.423081" style="fill: #666666; stroke: #666666"/>
     <use xlink:href="#m3ff0a028ec" x="588.100269" y="445.423081" style="fill: #666666; stroke: #666666"/>
     <use xlink:href="#m3ff0a028ec" x="593.487521" y="445.423081" style="fill: #666666; stroke: #666666"/>
     <use xlink:href="#m3ff0a028ec" x="596.084541" y="368.899484" style="fill: #666666; stroke: #666666"/>
     <use xlink:href="#m3ff0a028ec" x="603.523992" y="368.899484" style="fill: #666666; stroke: #666666"/>
     <use xlink:href="#m3ff0a028ec" x="608.215885" y="445.423081" style="fill: #666666; stroke: #666666"/>
     <use xlink:href="#m3ff0a028ec" x="617.034396" y="445.423081" style="fill: #666666; stroke: #666666"/>
     <use xlink:href="#m3ff0a028ec" x="621.189934" y="445.423081" style="fill: #666666; stroke: #666666"/>
     <use xlink:href="#m3ff0a028ec" x="627.140665" y="445.423081" style="fill: #666666; stroke: #666666"/>
     <use xlink:href="#m3ff0a028ec" x="629.054217" y="445.423081" style="fill: #666666; stroke: #666666"/>
     <use xlink:href="#m3ff0a028ec" x="630.934775" y="445.423081" style="fill: #666666; stroke: #666666"/>
     <use xlink:href="#m3ff0a028ec" x="632.783458" y="445.423081" style="fill: #666666; stroke: #666666"/>
     <use xlink:href="#m3ff0a028ec" x="634.601328" y="445.423081" style="fill: #666666; stroke: #666666"/>
     <use xlink:href="#m3ff0a028ec" x="641.584171" y="445.423081" style="fill: #666666; stroke: #666666"/>
     <use xlink:href="#m3ff0a028ec" x="644.914802" y="445.423081" style="fill: #666666; stroke: #666666"/>
     <use xlink:href="#m3ff0a028ec" x="654.336744" y="445.423081" style="fill: #666666; stroke: #666666"/>
     <use xlink:href="#m3ff0a028ec" x="657.304809" y="445.423081" style="fill: #666666; stroke: #666666"/>
     <use xlink:href="#m3ff0a028ec" x="660.194241" y="445.423081" style="fill: #666666; stroke: #666666"/>
     <use xlink:href="#m3ff0a028ec" x="668.429825" y="445.423081" style="fill: #666666; stroke: #666666"/>
     <use xlink:href="#m3ff0a028ec" x="672.325585" y="445.423081" style="fill: #666666; stroke: #666666"/>
     <use xlink:href="#m3ff0a028ec" x="693.163918" y="445.423081" style="fill: #666666; stroke: #666666"/>
     <use xlink:href="#m3ff0a028ec" x="697.299756" y="445.423081" style="fill: #666666; stroke: #666666"/>
     <use xlink:href="#m3ff0a028ec" x="710.652438" y="445.423081" style="fill: #666666; stroke: #666666"/>
     <use xlink:href="#m3ff0a028ec" x="713.312806" y="445.423081" style="fill: #666666; stroke: #666666"/>
    </g>
   </g>
  </g>
 </g>
 <defs>
  <clipPath id="p9ed318fb36">
   <rect x="100.034375" y="38.17" width="558" height="443.52"/>
  </clipPath>
 </defs>
</svg>
