<?xml version="1.0" encoding="utf-8" standalone="no"?>
<!DOCTYPE svg PUBLIC "-//W3C//DTD SVG 1.1//EN"
  "http://www.w3.org/Graphics/SVG/1.1/DTD/svg11.dtd">
<svg xmlns:xlink="http://www.w3.org/1999/xlink" width="698.328125pt" height="557.95875pt" viewBox="0 0 698.328125 557.95875" xmlns="http://www.w3.org/2000/svg" version="1.1">
 <metadata>
  <rdf:RDF xmlns:dc="http://purl.org/dc/elements/1.1/" xmlns:cc="http://creativecommons.org/ns#" xmlns:rdf="http://www.w3.org/1999/02/22-rdf-syntax-ns#">
   <cc:Work>
    <dc:type rdf:resource="http://purl.org/dc/dcmitype/StillImage"/>
    <dc:date>2025-06-02T15:34:05.006304</dc:date>
    <dc:format>image/svg+xml</dc:format>
    <dc:creator>
     <cc:Agent>
      <dc:title>Matplotlib v3.10.3, https://matplotlib.org/</dc:title>
     </cc:Agent>
    </dc:creator>
   </cc:Work>
  </rdf:RDF>
 </metadata>
 <defs>
  <style type="text/css">*{stroke-linejoin: round; stroke-linecap: butt}</style>
 </defs>
 <g id="figure_1">
  <g id="patch_1">
   <path d="M 0 557.95875 
L 698.328125 557.95875 
L 698.328125 0 
L 0 0 
z
" style="fill: #ffffff"/>
  </g>
  <g id="axes_1">
   <g id="patch_2">
    <path d="M 104.496875 481.69 
L 662.496875 481.69 
L 662.496875 38.17 
L 104.496875 38.17 
z
" style="fill: #ffffff"/>
   </g>
   <g id="PathCollection_1">
    <defs>
     <path id="m3cfa689548" d="M 0 -4.472136 
L -4.472136 4.472136 
L 4.472136 4.472136 
z
" style="stroke: #a9a9a9"/>
    </defs>
    <g clip-path="url(#p6b56d2a192)">
     <use xlink:href="#m3cfa689548" x="111.887603" y="174.1828" style="fill: #a9a9a9; stroke: #a9a9a9"/>
     <use xlink:href="#m3cfa689548" x="119.278332" y="339.7636" style="fill: #a9a9a9; stroke: #a9a9a9"/>
     <use xlink:href="#m3cfa689548" x="126.66906" y="363.418" style="fill: #a9a9a9; stroke: #a9a9a9"/>
     <use xlink:href="#m3cfa689548" x="134.059789" y="412.2052" style="fill: #a9a9a9; stroke: #a9a9a9"/>
     <use xlink:href="#m3cfa689548" x="141.450517" y="416.6404" style="fill: #a9a9a9; stroke: #a9a9a9"/>
     <use xlink:href="#m3cfa689548" x="148.841246" y="435.8596" style="fill: #a9a9a9; stroke: #a9a9a9"/>
     <use xlink:href="#m3cfa689548" x="156.231974" y="435.8596" style="fill: #a9a9a9; stroke: #a9a9a9"/>
     <use xlink:href="#m3cfa689548" x="163.622703" y="440.2948" style="fill: #a9a9a9; stroke: #a9a9a9"/>
     <use xlink:href="#m3cfa689548" x="171.013431" y="432.9028" style="fill: #a9a9a9; stroke: #a9a9a9"/>
     <use xlink:href="#m3cfa689548" x="178.40416" y="443.2516" style="fill: #a9a9a9; stroke: #a9a9a9"/>
     <use xlink:href="#m3cfa689548" x="185.794888" y="444.73" style="fill: #a9a9a9; stroke: #a9a9a9"/>
     <use xlink:href="#m3cfa689548" x="193.185617" y="446.2084" style="fill: #a9a9a9; stroke: #a9a9a9"/>
     <use xlink:href="#m3cfa689548" x="200.576345" y="458.0356" style="fill: #a9a9a9; stroke: #a9a9a9"/>
     <use xlink:href="#m3cfa689548" x="207.967074" y="465.4276" style="fill: #a9a9a9; stroke: #a9a9a9"/>
     <use xlink:href="#m3cfa689548" x="215.357802" y="460.9924" style="fill: #a9a9a9; stroke: #a9a9a9"/>
     <use xlink:href="#m3cfa689548" x="222.748531" y="465.4276" style="fill: #a9a9a9; stroke: #a9a9a9"/>
     <use xlink:href="#m3cfa689548" x="230.139259" y="463.9492" style="fill: #a9a9a9; stroke: #a9a9a9"/>
     <use xlink:href="#m3cfa689548" x="237.529988" y="462.4708" style="fill: #a9a9a9; stroke: #a9a9a9"/>
     <use xlink:href="#m3cfa689548" x="244.920716" y="471.3412" style="fill: #a9a9a9; stroke: #a9a9a9"/>
     <use xlink:href="#m3cfa689548" x="252.311445" y="469.8628" style="fill: #a9a9a9; stroke: #a9a9a9"/>
     <use xlink:href="#m3cfa689548" x="259.702173" y="465.4276" style="fill: #a9a9a9; stroke: #a9a9a9"/>
     <use xlink:href="#m3cfa689548" x="267.092901" y="472.8196" style="fill: #a9a9a9; stroke: #a9a9a9"/>
     <use xlink:href="#m3cfa689548" x="274.48363" y="472.8196" style="fill: #a9a9a9; stroke: #a9a9a9"/>
     <use xlink:href="#m3cfa689548" x="281.874358" y="472.8196" style="fill: #a9a9a9; stroke: #a9a9a9"/>
     <use xlink:href="#m3cfa689548" x="289.265087" y="471.3412" style="fill: #a9a9a9; stroke: #a9a9a9"/>
     <use xlink:href="#m3cfa689548" x="296.655815" y="471.3412" style="fill: #a9a9a9; stroke: #a9a9a9"/>
     <use xlink:href="#m3cfa689548" x="311.437272" y="474.298" style="fill: #a9a9a9; stroke: #a9a9a9"/>
     <use xlink:href="#m3cfa689548" x="318.828001" y="475.7764" style="fill: #a9a9a9; stroke: #a9a9a9"/>
     <use xlink:href="#m3cfa689548" x="326.218729" y="472.8196" style="fill: #a9a9a9; stroke: #a9a9a9"/>
     <use xlink:href="#m3cfa689548" x="333.609458" y="474.298" style="fill: #a9a9a9; stroke: #a9a9a9"/>
     <use xlink:href="#m3cfa689548" x="341.000186" y="474.298" style="fill: #a9a9a9; stroke: #a9a9a9"/>
     <use xlink:href="#m3cfa689548" x="348.390915" y="475.7764" style="fill: #a9a9a9; stroke: #a9a9a9"/>
     <use xlink:href="#m3cfa689548" x="355.781643" y="478.7332" style="fill: #a9a9a9; stroke: #a9a9a9"/>
     <use xlink:href="#m3cfa689548" x="363.172372" y="475.7764" style="fill: #a9a9a9; stroke: #a9a9a9"/>
     <use xlink:href="#m3cfa689548" x="370.5631" y="475.7764" style="fill: #a9a9a9; stroke: #a9a9a9"/>
     <use xlink:href="#m3cfa689548" x="377.953829" y="477.2548" style="fill: #a9a9a9; stroke: #a9a9a9"/>
     <use xlink:href="#m3cfa689548" x="385.344557" y="475.7764" style="fill: #a9a9a9; stroke: #a9a9a9"/>
     <use xlink:href="#m3cfa689548" x="392.735286" y="477.2548" style="fill: #a9a9a9; stroke: #a9a9a9"/>
     <use xlink:href="#m3cfa689548" x="400.126014" y="475.7764" style="fill: #a9a9a9; stroke: #a9a9a9"/>
     <use xlink:href="#m3cfa689548" x="407.516743" y="475.7764" style="fill: #a9a9a9; stroke: #a9a9a9"/>
     <use xlink:href="#m3cfa689548" x="414.907471" y="472.8196" style="fill: #a9a9a9; stroke: #a9a9a9"/>
     <use xlink:href="#m3cfa689548" x="422.2982" y="477.2548" style="fill: #a9a9a9; stroke: #a9a9a9"/>
     <use xlink:href="#m3cfa689548" x="429.688928" y="477.2548" style="fill: #a9a9a9; stroke: #a9a9a9"/>
     <use xlink:href="#m3cfa689548" x="437.079656" y="478.7332" style="fill: #a9a9a9; stroke: #a9a9a9"/>
     <use xlink:href="#m3cfa689548" x="451.861113" y="472.8196" style="fill: #a9a9a9; stroke: #a9a9a9"/>
     <use xlink:href="#m3cfa689548" x="459.251842" y="478.7332" style="fill: #a9a9a9; stroke: #a9a9a9"/>
     <use xlink:href="#m3cfa689548" x="466.64257" y="475.7764" style="fill: #a9a9a9; stroke: #a9a9a9"/>
     <use xlink:href="#m3cfa689548" x="474.033299" y="474.298" style="fill: #a9a9a9; stroke: #a9a9a9"/>
     <use xlink:href="#m3cfa689548" x="481.424027" y="475.7764" style="fill: #a9a9a9; stroke: #a9a9a9"/>
     <use xlink:href="#m3cfa689548" x="488.814756" y="478.7332" style="fill: #a9a9a9; stroke: #a9a9a9"/>
     <use xlink:href="#m3cfa689548" x="496.205484" y="477.2548" style="fill: #a9a9a9; stroke: #a9a9a9"/>
     <use xlink:href="#m3cfa689548" x="503.596213" y="478.7332" style="fill: #a9a9a9; stroke: #a9a9a9"/>
     <use xlink:href="#m3cfa689548" x="547.940584" y="475.7764" style="fill: #a9a9a9; stroke: #a9a9a9"/>
     <use xlink:href="#m3cfa689548" x="555.331312" y="474.298" style="fill: #a9a9a9; stroke: #a9a9a9"/>
     <use xlink:href="#m3cfa689548" x="570.112769" y="477.2548" style="fill: #a9a9a9; stroke: #a9a9a9"/>
     <use xlink:href="#m3cfa689548" x="584.894226" y="477.2548" style="fill: #a9a9a9; stroke: #a9a9a9"/>
     <use xlink:href="#m3cfa689548" x="592.284954" y="478.7332" style="fill: #a9a9a9; stroke: #a9a9a9"/>
     <use xlink:href="#m3cfa689548" x="599.675683" y="478.7332" style="fill: #a9a9a9; stroke: #a9a9a9"/>
     <use xlink:href="#m3cfa689548" x="607.066411" y="478.7332" style="fill: #a9a9a9; stroke: #a9a9a9"/>
     <use xlink:href="#m3cfa689548" x="621.847868" y="478.7332" style="fill: #a9a9a9; stroke: #a9a9a9"/>
     <use xlink:href="#m3cfa689548" x="629.238597" y="478.7332" style="fill: #a9a9a9; stroke: #a9a9a9"/>
     <use xlink:href="#m3cfa689548" x="651.410782" y="478.7332" style="fill: #a9a9a9; stroke: #a9a9a9"/>
     <use xlink:href="#m3cfa689548" x="658.801511" y="475.7764" style="fill: #a9a9a9; stroke: #a9a9a9"/>
     <use xlink:href="#m3cfa689548" x="666.192239" y="478.7332" style="fill: #a9a9a9; stroke: #a9a9a9"/>
     <use xlink:href="#m3cfa689548" x="673.582968" y="478.7332" style="fill: #a9a9a9; stroke: #a9a9a9"/>
     <use xlink:href="#m3cfa689548" x="680.973696" y="478.7332" style="fill: #a9a9a9; stroke: #a9a9a9"/>
     <use xlink:href="#m3cfa689548" x="695.755153" y="478.7332" style="fill: #a9a9a9; stroke: #a9a9a9"/>
     <use xlink:href="#m3cfa689548" x="710.53661" y="478.7332" style="fill: #a9a9a9; stroke: #a9a9a9"/>
     <use xlink:href="#m3cfa689548" x="717.927339" y="478.7332" style="fill: #a9a9a9; stroke: #a9a9a9"/>
     <use xlink:href="#m3cfa689548" x="732.708796" y="478.7332" style="fill: #a9a9a9; stroke: #a9a9a9"/>
     <use xlink:href="#m3cfa689548" x="747.490252" y="478.7332" style="fill: #a9a9a9; stroke: #a9a9a9"/>
     <use xlink:href="#m3cfa689548" x="769.662438" y="478.7332" style="fill: #a9a9a9; stroke: #a9a9a9"/>
     <use xlink:href="#m3cfa689548" x="814.006809" y="478.7332" style="fill: #a9a9a9; stroke: #a9a9a9"/>
     <use xlink:href="#m3cfa689548" x="821.397537" y="475.7764" style="fill: #a9a9a9; stroke: #a9a9a9"/>
     <use xlink:href="#m3cfa689548" x="836.178994" y="478.7332" style="fill: #a9a9a9; stroke: #a9a9a9"/>
     <use xlink:href="#m3cfa689548" x="850.960451" y="478.7332" style="fill: #a9a9a9; stroke: #a9a9a9"/>
     <use xlink:href="#m3cfa689548" x="858.35118" y="478.7332" style="fill: #a9a9a9; stroke: #a9a9a9"/>
     <use xlink:href="#m3cfa689548" x="865.741908" y="478.7332" style="fill: #a9a9a9; stroke: #a9a9a9"/>
     <use xlink:href="#m3cfa689548" x="873.132637" y="478.7332" style="fill: #a9a9a9; stroke: #a9a9a9"/>
     <use xlink:href="#m3cfa689548" x="976.602835" y="475.7764" style="fill: #a9a9a9; stroke: #a9a9a9"/>
     <use xlink:href="#m3cfa689548" x="1080.073034" y="478.7332" style="fill: #a9a9a9; stroke: #a9a9a9"/>
    </g>
   </g>
   <g id="PathCollection_2">
    <defs>
     <path id="m1e70b0aacf" d="M -0 4.472136 
L 4.472136 -4.472136 
L -4.472136 -4.472136 
z
" style="stroke: #a9a9a9"/>
    </defs>
    <g clip-path="url(#p6b56d2a192)">
     <use xlink:href="#m1e70b0aacf" x="111.887603" y="172.7044" style="fill: #a9a9a9; stroke: #a9a9a9"/>
     <use xlink:href="#m1e70b0aacf" x="119.278332" y="339.7636" style="fill: #a9a9a9; stroke: #a9a9a9"/>
     <use xlink:href="#m1e70b0aacf" x="126.66906" y="378.202" style="fill: #a9a9a9; stroke: #a9a9a9"/>
     <use xlink:href="#m1e70b0aacf" x="134.059789" y="413.6836" style="fill: #a9a9a9; stroke: #a9a9a9"/>
     <use xlink:href="#m1e70b0aacf" x="141.450517" y="407.77" style="fill: #a9a9a9; stroke: #a9a9a9"/>
     <use xlink:href="#m1e70b0aacf" x="148.841246" y="421.0756" style="fill: #a9a9a9; stroke: #a9a9a9"/>
     <use xlink:href="#m1e70b0aacf" x="156.231974" y="437.338" style="fill: #a9a9a9; stroke: #a9a9a9"/>
     <use xlink:href="#m1e70b0aacf" x="163.622703" y="443.2516" style="fill: #a9a9a9; stroke: #a9a9a9"/>
     <use xlink:href="#m1e70b0aacf" x="171.013431" y="440.2948" style="fill: #a9a9a9; stroke: #a9a9a9"/>
     <use xlink:href="#m1e70b0aacf" x="178.40416" y="440.2948" style="fill: #a9a9a9; stroke: #a9a9a9"/>
     <use xlink:href="#m1e70b0aacf" x="185.794888" y="450.6436" style="fill: #a9a9a9; stroke: #a9a9a9"/>
     <use xlink:href="#m1e70b0aacf" x="193.185617" y="455.0788" style="fill: #a9a9a9; stroke: #a9a9a9"/>
     <use xlink:href="#m1e70b0aacf" x="200.576345" y="450.6436" style="fill: #a9a9a9; stroke: #a9a9a9"/>
     <use xlink:href="#m1e70b0aacf" x="207.967074" y="463.9492" style="fill: #a9a9a9; stroke: #a9a9a9"/>
     <use xlink:href="#m1e70b0aacf" x="215.357802" y="452.122" style="fill: #a9a9a9; stroke: #a9a9a9"/>
     <use xlink:href="#m1e70b0aacf" x="222.748531" y="460.9924" style="fill: #a9a9a9; stroke: #a9a9a9"/>
     <use xlink:href="#m1e70b0aacf" x="230.139259" y="469.8628" style="fill: #a9a9a9; stroke: #a9a9a9"/>
     <use xlink:href="#m1e70b0aacf" x="237.529988" y="465.4276" style="fill: #a9a9a9; stroke: #a9a9a9"/>
     <use xlink:href="#m1e70b0aacf" x="244.920716" y="474.298" style="fill: #a9a9a9; stroke: #a9a9a9"/>
     <use xlink:href="#m1e70b0aacf" x="252.311445" y="466.906" style="fill: #a9a9a9; stroke: #a9a9a9"/>
     <use xlink:href="#m1e70b0aacf" x="259.702173" y="465.4276" style="fill: #a9a9a9; stroke: #a9a9a9"/>
     <use xlink:href="#m1e70b0aacf" x="267.092901" y="468.3844" style="fill: #a9a9a9; stroke: #a9a9a9"/>
     <use xlink:href="#m1e70b0aacf" x="274.48363" y="466.906" style="fill: #a9a9a9; stroke: #a9a9a9"/>
     <use xlink:href="#m1e70b0aacf" x="281.874358" y="469.8628" style="fill: #a9a9a9; stroke: #a9a9a9"/>
     <use xlink:href="#m1e70b0aacf" x="289.265087" y="468.3844" style="fill: #a9a9a9; stroke: #a9a9a9"/>
     <use xlink:href="#m1e70b0aacf" x="296.655815" y="474.298" style="fill: #a9a9a9; stroke: #a9a9a9"/>
     <use xlink:href="#m1e70b0aacf" x="304.046544" y="474.298" style="fill: #a9a9a9; stroke: #a9a9a9"/>
     <use xlink:href="#m1e70b0aacf" x="311.437272" y="478.7332" style="fill: #a9a9a9; stroke: #a9a9a9"/>
     <use xlink:href="#m1e70b0aacf" x="318.828001" y="474.298" style="fill: #a9a9a9; stroke: #a9a9a9"/>
     <use xlink:href="#m1e70b0aacf" x="326.218729" y="471.3412" style="fill: #a9a9a9; stroke: #a9a9a9"/>
     <use xlink:href="#m1e70b0aacf" x="333.609458" y="474.298" style="fill: #a9a9a9; stroke: #a9a9a9"/>
     <use xlink:href="#m1e70b0aacf" x="341.000186" y="478.7332" style="fill: #a9a9a9; stroke: #a9a9a9"/>
     <use xlink:href="#m1e70b0aacf" x="348.390915" y="475.7764" style="fill: #a9a9a9; stroke: #a9a9a9"/>
     <use xlink:href="#m1e70b0aacf" x="355.781643" y="477.2548" style="fill: #a9a9a9; stroke: #a9a9a9"/>
     <use xlink:href="#m1e70b0aacf" x="363.172372" y="471.3412" style="fill: #a9a9a9; stroke: #a9a9a9"/>
     <use xlink:href="#m1e70b0aacf" x="370.5631" y="478.7332" style="fill: #a9a9a9; stroke: #a9a9a9"/>
     <use xlink:href="#m1e70b0aacf" x="377.953829" y="472.8196" style="fill: #a9a9a9; stroke: #a9a9a9"/>
     <use xlink:href="#m1e70b0aacf" x="385.344557" y="478.7332" style="fill: #a9a9a9; stroke: #a9a9a9"/>
     <use xlink:href="#m1e70b0aacf" x="392.735286" y="472.8196" style="fill: #a9a9a9; stroke: #a9a9a9"/>
     <use xlink:href="#m1e70b0aacf" x="400.126014" y="475.7764" style="fill: #a9a9a9; stroke: #a9a9a9"/>
     <use xlink:href="#m1e70b0aacf" x="407.516743" y="478.7332" style="fill: #a9a9a9; stroke: #a9a9a9"/>
     <use xlink:href="#m1e70b0aacf" x="414.907471" y="475.7764" style="fill: #a9a9a9; stroke: #a9a9a9"/>
     <use xlink:href="#m1e70b0aacf" x="422.2982" y="472.8196" style="fill: #a9a9a9; stroke: #a9a9a9"/>
     <use xlink:href="#m1e70b0aacf" x="429.688928" y="474.298" style="fill: #a9a9a9; stroke: #a9a9a9"/>
     <use xlink:href="#m1e70b0aacf" x="437.079656" y="478.7332" style="fill: #a9a9a9; stroke: #a9a9a9"/>
     <use xlink:href="#m1e70b0aacf" x="444.470385" y="477.2548" style="fill: #a9a9a9; stroke: #a9a9a9"/>
     <use xlink:href="#m1e70b0aacf" x="451.861113" y="477.2548" style="fill: #a9a9a9; stroke: #a9a9a9"/>
     <use xlink:href="#m1e70b0aacf" x="459.251842" y="474.298" style="fill: #a9a9a9; stroke: #a9a9a9"/>
     <use xlink:href="#m1e70b0aacf" x="466.64257" y="469.8628" style="fill: #a9a9a9; stroke: #a9a9a9"/>
     <use xlink:href="#m1e70b0aacf" x="474.033299" y="478.7332" style="fill: #a9a9a9; stroke: #a9a9a9"/>
     <use xlink:href="#m1e70b0aacf" x="481.424027" y="474.298" style="fill: #a9a9a9; stroke: #a9a9a9"/>
     <use xlink:href="#m1e70b0aacf" x="488.814756" y="477.2548" style="fill: #a9a9a9; stroke: #a9a9a9"/>
     <use xlink:href="#m1e70b0aacf" x="496.205484" y="477.2548" style="fill: #a9a9a9; stroke: #a9a9a9"/>
     <use xlink:href="#m1e70b0aacf" x="510.986941" y="475.7764" style="fill: #a9a9a9; stroke: #a9a9a9"/>
     <use xlink:href="#m1e70b0aacf" x="518.37767" y="475.7764" style="fill: #a9a9a9; stroke: #a9a9a9"/>
     <use xlink:href="#m1e70b0aacf" x="525.768398" y="478.7332" style="fill: #a9a9a9; stroke: #a9a9a9"/>
     <use xlink:href="#m1e70b0aacf" x="533.159127" y="478.7332" style="fill: #a9a9a9; stroke: #a9a9a9"/>
     <use xlink:href="#m1e70b0aacf" x="540.549855" y="478.7332" style="fill: #a9a9a9; stroke: #a9a9a9"/>
     <use xlink:href="#m1e70b0aacf" x="562.722041" y="477.2548" style="fill: #a9a9a9; stroke: #a9a9a9"/>
     <use xlink:href="#m1e70b0aacf" x="570.112769" y="478.7332" style="fill: #a9a9a9; stroke: #a9a9a9"/>
     <use xlink:href="#m1e70b0aacf" x="577.503498" y="478.7332" style="fill: #a9a9a9; stroke: #a9a9a9"/>
     <use xlink:href="#m1e70b0aacf" x="599.675683" y="478.7332" style="fill: #a9a9a9; stroke: #a9a9a9"/>
     <use xlink:href="#m1e70b0aacf" x="607.066411" y="478.7332" style="fill: #a9a9a9; stroke: #a9a9a9"/>
     <use xlink:href="#m1e70b0aacf" x="614.45714" y="478.7332" style="fill: #a9a9a9; stroke: #a9a9a9"/>
     <use xlink:href="#m1e70b0aacf" x="621.847868" y="478.7332" style="fill: #a9a9a9; stroke: #a9a9a9"/>
     <use xlink:href="#m1e70b0aacf" x="629.238597" y="475.7764" style="fill: #a9a9a9; stroke: #a9a9a9"/>
     <use xlink:href="#m1e70b0aacf" x="644.020054" y="475.7764" style="fill: #a9a9a9; stroke: #a9a9a9"/>
     <use xlink:href="#m1e70b0aacf" x="658.801511" y="478.7332" style="fill: #a9a9a9; stroke: #a9a9a9"/>
     <use xlink:href="#m1e70b0aacf" x="680.973696" y="478.7332" style="fill: #a9a9a9; stroke: #a9a9a9"/>
     <use xlink:href="#m1e70b0aacf" x="695.755153" y="478.7332" style="fill: #a9a9a9; stroke: #a9a9a9"/>
     <use xlink:href="#m1e70b0aacf" x="703.145882" y="478.7332" style="fill: #a9a9a9; stroke: #a9a9a9"/>
     <use xlink:href="#m1e70b0aacf" x="710.53661" y="478.7332" style="fill: #a9a9a9; stroke: #a9a9a9"/>
     <use xlink:href="#m1e70b0aacf" x="725.318067" y="478.7332" style="fill: #a9a9a9; stroke: #a9a9a9"/>
     <use xlink:href="#m1e70b0aacf" x="732.708796" y="478.7332" style="fill: #a9a9a9; stroke: #a9a9a9"/>
     <use xlink:href="#m1e70b0aacf" x="769.662438" y="478.7332" style="fill: #a9a9a9; stroke: #a9a9a9"/>
     <use xlink:href="#m1e70b0aacf" x="777.053166" y="478.7332" style="fill: #a9a9a9; stroke: #a9a9a9"/>
     <use xlink:href="#m1e70b0aacf" x="814.006809" y="478.7332" style="fill: #a9a9a9; stroke: #a9a9a9"/>
     <use xlink:href="#m1e70b0aacf" x="828.788266" y="478.7332" style="fill: #a9a9a9; stroke: #a9a9a9"/>
     <use xlink:href="#m1e70b0aacf" x="843.569723" y="478.7332" style="fill: #a9a9a9; stroke: #a9a9a9"/>
     <use xlink:href="#m1e70b0aacf" x="880.523365" y="478.7332" style="fill: #a9a9a9; stroke: #a9a9a9"/>
     <use xlink:href="#m1e70b0aacf" x="969.212107" y="478.7332" style="fill: #a9a9a9; stroke: #a9a9a9"/>
     <use xlink:href="#m1e70b0aacf" x="991.384292" y="478.7332" style="fill: #a9a9a9; stroke: #a9a9a9"/>
     <use xlink:href="#m1e70b0aacf" x="1102.245219" y="478.7332" style="fill: #a9a9a9; stroke: #a9a9a9"/>
     <use xlink:href="#m1e70b0aacf" x="1153.980319" y="478.7332" style="fill: #a9a9a9; stroke: #a9a9a9"/>
     <use xlink:href="#m1e70b0aacf" x="1168.761776" y="478.7332" style="fill: #a9a9a9; stroke: #a9a9a9"/>
    </g>
   </g>
   <g id="matplotlib.axis_1">
    <g id="xtick_1">
     <g id="line2d_1">
      <defs>
       <path id="m1621641bb7" d="M 0 0 
L 0 3.5 
" style="stroke: #000000; stroke-width: 0.8"/>
      </defs>
      <g>
       <use xlink:href="#m1621641bb7" x="108.192239" y="481.69" style="stroke: #000000; stroke-width: 0.8"/>
      </g>
     </g>
     <g id="text_1">
      <!-- 0 -->
      <g transform="translate(98.648489 511.485313) scale(0.3 -0.3)">
       <defs>
        <path id="DejaVuSans-30" d="M 2034 4250 
Q 1547 4250 1301 3770 
Q 1056 3291 1056 2328 
Q 1056 1369 1301 889 
Q 1547 409 2034 409 
Q 2525 409 2770 889 
Q 3016 1369 3016 2328 
Q 3016 3291 2770 3770 
Q 2525 4250 2034 4250 
z
M 2034 4750 
Q 2819 4750 3233 4129 
Q 3647 3509 3647 2328 
Q 3647 1150 3233 529 
Q 2819 -91 2034 -91 
Q 1250 -91 836 529 
Q 422 1150 422 2328 
Q 422 3509 836 4129 
Q 1250 4750 2034 4750 
z
" transform="scale(0.015625)"/>
       </defs>
       <use xlink:href="#DejaVuSans-30"/>
      </g>
     </g>
    </g>
    <g id="xtick_2">
     <g id="line2d_2">
      <g>
       <use xlink:href="#m1621641bb7" x="385.344557" y="481.69" style="stroke: #000000; stroke-width: 0.8"/>
      </g>
     </g>
     <g id="text_2">
      <!-- 75 -->
      <g transform="translate(366.257057 511.485313) scale(0.3 -0.3)">
       <defs>
        <path id="DejaVuSans-37" d="M 525 4666 
L 3525 4666 
L 3525 4397 
L 1831 0 
L 1172 0 
L 2766 4134 
L 525 4134 
L 525 4666 
z
" transform="scale(0.015625)"/>
        <path id="DejaVuSans-35" d="M 691 4666 
L 3169 4666 
L 3169 4134 
L 1269 4134 
L 1269 2991 
Q 1406 3038 1543 3061 
Q 1681 3084 1819 3084 
Q 2600 3084 3056 2656 
Q 3513 2228 3513 1497 
Q 3513 744 3044 326 
Q 2575 -91 1722 -91 
Q 1428 -91 1123 -41 
Q 819 9 494 109 
L 494 744 
Q 775 591 1075 516 
Q 1375 441 1709 441 
Q 2250 441 2565 725 
Q 2881 1009 2881 1497 
Q 2881 1984 2565 2268 
Q 2250 2553 1709 2553 
Q 1456 2553 1204 2497 
Q 953 2441 691 2322 
L 691 4666 
z
" transform="scale(0.015625)"/>
       </defs>
       <use xlink:href="#DejaVuSans-37"/>
       <use xlink:href="#DejaVuSans-35" transform="translate(63.623047 0)"/>
      </g>
     </g>
    </g>
    <g id="xtick_3">
     <g id="line2d_3">
      <g>
       <use xlink:href="#m1621641bb7" x="662.496875" y="481.69" style="stroke: #000000; stroke-width: 0.8"/>
      </g>
     </g>
     <g id="text_3">
      <!-- 150 -->
      <g transform="translate(633.865625 511.485313) scale(0.3 -0.3)">
       <defs>
        <path id="DejaVuSans-31" d="M 794 531 
L 1825 531 
L 1825 4091 
L 703 3866 
L 703 4441 
L 1819 4666 
L 2450 4666 
L 2450 531 
L 3481 531 
L 3481 0 
L 794 0 
L 794 531 
z
" transform="scale(0.015625)"/>
       </defs>
       <use xlink:href="#DejaVuSans-31"/>
       <use xlink:href="#DejaVuSans-35" transform="translate(63.623047 0)"/>
       <use xlink:href="#DejaVuSans-30" transform="translate(127.246094 0)"/>
      </g>
     </g>
    </g>
    <g id="text_4">
     <!-- $\mathrm{k}$ -->
     <g transform="translate(374.796875 544.519688) scale(0.3 -0.3)">
      <defs>
       <path id="DejaVuSans-6b" d="M 581 4863 
L 1159 4863 
L 1159 1991 
L 2875 3500 
L 3609 3500 
L 1753 1863 
L 3688 0 
L 2938 0 
L 1159 1709 
L 1159 0 
L 581 0 
L 581 4863 
z
" transform="scale(0.015625)"/>
      </defs>
      <use xlink:href="#DejaVuSans-6b" transform="translate(0 0.015625)"/>
     </g>
    </g>
   </g>
   <g id="matplotlib.axis_2">
    <g id="ytick_1">
     <g id="line2d_4">
      <defs>
       <path id="m05f120d380" d="M 0 0 
L -3.5 0 
" style="stroke: #000000; stroke-width: 0.8"/>
      </defs>
      <g>
       <use xlink:href="#m05f120d380" x="104.496875" y="481.69" style="stroke: #000000; stroke-width: 0.8"/>
      </g>
     </g>
     <g id="text_5">
      <!-- 0 -->
      <g transform="translate(78.409375 493.087656) scale(0.3 -0.3)">
       <use xlink:href="#DejaVuSans-30"/>
      </g>
     </g>
    </g>
    <g id="ytick_2">
     <g id="line2d_5">
      <g>
       <use xlink:href="#m05f120d380" x="104.496875" y="259.93" style="stroke: #000000; stroke-width: 0.8"/>
      </g>
     </g>
     <g id="text_6">
      <!-- 75 -->
      <g transform="translate(59.321875 271.327656) scale(0.3 -0.3)">
       <use xlink:href="#DejaVuSans-37"/>
       <use xlink:href="#DejaVuSans-35" transform="translate(63.623047 0)"/>
      </g>
     </g>
    </g>
    <g id="ytick_3">
     <g id="line2d_6">
      <g>
       <use xlink:href="#m05f120d380" x="104.496875" y="38.17" style="stroke: #000000; stroke-width: 0.8"/>
      </g>
     </g>
     <g id="text_7">
      <!-- 150 -->
      <g transform="translate(40.234375 49.567656) scale(0.3 -0.3)">
       <use xlink:href="#DejaVuSans-31"/>
       <use xlink:href="#DejaVuSans-35" transform="translate(63.623047 0)"/>
       <use xlink:href="#DejaVuSans-30" transform="translate(127.246094 0)"/>
      </g>
     </g>
    </g>
    <g id="text_8">
     <!-- $\mathrm{N}( \mathrm{k} )$ -->
     <g transform="translate(29.995312 291.58) rotate(-90) scale(0.3 -0.3)">
      <defs>
       <path id="DejaVuSans-4e" d="M 628 4666 
L 1478 4666 
L 3547 763 
L 3547 4666 
L 4159 4666 
L 4159 0 
L 3309 0 
L 1241 3903 
L 1241 0 
L 628 0 
L 628 4666 
z
" transform="scale(0.015625)"/>
       <path id="DejaVuSans-28" d="M 1984 4856 
Q 1566 4138 1362 3434 
Q 1159 2731 1159 2009 
Q 1159 1288 1364 580 
Q 1569 -128 1984 -844 
L 1484 -844 
Q 1016 -109 783 600 
Q 550 1309 550 2009 
Q 550 2706 781 3412 
Q 1013 4119 1484 4856 
L 1984 4856 
z
" transform="scale(0.015625)"/>
       <path id="DejaVuSans-29" d="M 513 4856 
L 1013 4856 
Q 1481 4119 1714 3412 
Q 1947 2706 1947 2009 
Q 1947 1309 1714 600 
Q 1481 -109 1013 -844 
L 513 -844 
Q 928 -128 1133 580 
Q 1338 1288 1338 2009 
Q 1338 2731 1133 3434 
Q 928 4138 513 4856 
z
" transform="scale(0.015625)"/>
      </defs>
      <use xlink:href="#DejaVuSans-4e" transform="translate(0 0.015625)"/>
      <use xlink:href="#DejaVuSans-28" transform="translate(74.804688 0.015625)"/>
      <use xlink:href="#DejaVuSans-6b" transform="translate(113.818359 0.015625)"/>
      <use xlink:href="#DejaVuSans-29" transform="translate(171.728516 0.015625)"/>
     </g>
    </g>
   </g>
   <g id="line2d_7">
    <path d="M 111.887603 115.385399 
L 112.844427 147.800461 
L 114.048997 186.9016 
L 115.56546 229.697574 
L 117.474575 272.138039 
L 119.878007 310.661525 
L 122.903749 343.453306 
L 126.712933 370.419979 
L 131.508411 392.298852 
L 137.545561 409.960877 
L 145.145882 424.181126 
L 154.714119 435.61017 
L 166.759815 444.78449 
L 181.924449 452.142286 
L 201.015592 458.039313 
L 225.049917 462.763223 
L 255.307339 466.545951 
L 293.399177 469.574132 
L 341.35396 471.997727 
L 401.725454 473.937102 
L 477.728663 475.488798 
L 573.411034 476.783184 
L 693.868002 480.328345 
" clip-path="url(#p6b56d2a192)" style="fill: none; stroke: #666666; stroke-width: 1.5; stroke-linecap: square"/>
   </g>
   <g id="line2d_8">
    <path d="M 111.887603 201.2641 
L 112.844427 221.014063 
L 114.048997 246.598105 
L 115.56546 276.305677 
L 117.474575 307.276302 
L 119.878007 336.560236 
L 122.903749 362.282488 
L 126.712933 383.94765 
L 131.508411 401.880029 
L 137.545561 416.624709 
L 145.145882 428.705855 
L 154.714119 438.580784 
L 166.759815 446.638207 
L 181.924449 453.204024 
L 201.015592 458.549049 
L 225.049917 462.896947 
L 255.307339 466.431642 
L 293.399177 469.303902 
L 341.35396 471.637025 
L 401.725454 473.531664 
L 477.728663 475.069876 
L 573.411034 476.318486 
L 693.868002 477.331872 
" clip-path="url(#p6b56d2a192)" style="fill: none; stroke: #a9a9a9; stroke-width: 1.5; stroke-linecap: square"/>
   </g>
   <g id="patch_3">
    <path d="M 104.496875 481.69 
L 104.496875 38.17 
" style="fill: none; stroke: #000000; stroke-width: 0.8; stroke-linejoin: miter; stroke-linecap: square"/>
   </g>
   <g id="patch_4">
    <path d="M 662.496875 481.69 
L 662.496875 38.17 
" style="fill: none; stroke: #000000; stroke-width: 0.8; stroke-linejoin: miter; stroke-linecap: square"/>
   </g>
   <g id="patch_5">
    <path d="M 104.496875 481.69 
L 662.496875 481.69 
" style="fill: none; stroke: #000000; stroke-width: 0.8; stroke-linejoin: miter; stroke-linecap: square"/>
   </g>
   <g id="patch_6">
    <path d="M 104.496875 38.17 
L 662.496875 38.17 
" style="fill: none; stroke: #000000; stroke-width: 0.8; stroke-linejoin: miter; stroke-linecap: square"/>
   </g>
   <g id="text_9">
    <!-- San Diego -->
    <g transform="translate(301.751875 31.515) scale(0.32 -0.32)">
     <defs>
      <path id="DejaVuSans-53" d="M 3425 4513 
L 3425 3897 
Q 3066 4069 2747 4153 
Q 2428 4238 2131 4238 
Q 1616 4238 1336 4038 
Q 1056 3838 1056 3469 
Q 1056 3159 1242 3001 
Q 1428 2844 1947 2747 
L 2328 2669 
Q 3034 2534 3370 2195 
Q 3706 1856 3706 1288 
Q 3706 609 3251 259 
Q 2797 -91 1919 -91 
Q 1588 -91 1214 -16 
Q 841 59 441 206 
L 441 856 
Q 825 641 1194 531 
Q 1563 422 1919 422 
Q 2459 422 2753 634 
Q 3047 847 3047 1241 
Q 3047 1584 2836 1778 
Q 2625 1972 2144 2069 
L 1759 2144 
Q 1053 2284 737 2584 
Q 422 2884 422 3419 
Q 422 4038 858 4394 
Q 1294 4750 2059 4750 
Q 2388 4750 2728 4690 
Q 3069 4631 3425 4513 
z
" transform="scale(0.015625)"/>
      <path id="DejaVuSans-61" d="M 2194 1759 
Q 1497 1759 1228 1600 
Q 959 1441 959 1056 
Q 959 750 1161 570 
Q 1363 391 1709 391 
Q 2188 391 2477 730 
Q 2766 1069 2766 1631 
L 2766 1759 
L 2194 1759 
z
M 3341 1997 
L 3341 0 
L 2766 0 
L 2766 531 
Q 2569 213 2275 61 
Q 1981 -91 1556 -91 
Q 1019 -91 701 211 
Q 384 513 384 1019 
Q 384 1609 779 1909 
Q 1175 2209 1959 2209 
L 2766 2209 
L 2766 2266 
Q 2766 2663 2505 2880 
Q 2244 3097 1772 3097 
Q 1472 3097 1187 3025 
Q 903 2953 641 2809 
L 641 3341 
Q 956 3463 1253 3523 
Q 1550 3584 1831 3584 
Q 2591 3584 2966 3190 
Q 3341 2797 3341 1997 
z
" transform="scale(0.015625)"/>
      <path id="DejaVuSans-6e" d="M 3513 2113 
L 3513 0 
L 2938 0 
L 2938 2094 
Q 2938 2591 2744 2837 
Q 2550 3084 2163 3084 
Q 1697 3084 1428 2787 
Q 1159 2491 1159 1978 
L 1159 0 
L 581 0 
L 581 3500 
L 1159 3500 
L 1159 2956 
Q 1366 3272 1645 3428 
Q 1925 3584 2291 3584 
Q 2894 3584 3203 3211 
Q 3513 2838 3513 2113 
z
" transform="scale(0.015625)"/>
      <path id="DejaVuSans-20" transform="scale(0.015625)"/>
      <path id="DejaVuSans-44" d="M 1259 4147 
L 1259 519 
L 2022 519 
Q 2988 519 3436 956 
Q 3884 1394 3884 2338 
Q 3884 3275 3436 3711 
Q 2988 4147 2022 4147 
L 1259 4147 
z
M 628 4666 
L 1925 4666 
Q 3281 4666 3915 4102 
Q 4550 3538 4550 2338 
Q 4550 1131 3912 565 
Q 3275 0 1925 0 
L 628 0 
L 628 4666 
z
" transform="scale(0.015625)"/>
      <path id="DejaVuSans-69" d="M 603 3500 
L 1178 3500 
L 1178 0 
L 603 0 
L 603 3500 
z
M 603 4863 
L 1178 4863 
L 1178 4134 
L 603 4134 
L 603 4863 
z
" transform="scale(0.015625)"/>
      <path id="DejaVuSans-65" d="M 3597 1894 
L 3597 1613 
L 953 1613 
Q 991 1019 1311 708 
Q 1631 397 2203 397 
Q 2534 397 2845 478 
Q 3156 559 3463 722 
L 3463 178 
Q 3153 47 2828 -22 
Q 2503 -91 2169 -91 
Q 1331 -91 842 396 
Q 353 884 353 1716 
Q 353 2575 817 3079 
Q 1281 3584 2069 3584 
Q 2775 3584 3186 3129 
Q 3597 2675 3597 1894 
z
M 3022 2063 
Q 3016 2534 2758 2815 
Q 2500 3097 2075 3097 
Q 1594 3097 1305 2825 
Q 1016 2553 972 2059 
L 3022 2063 
z
" transform="scale(0.015625)"/>
      <path id="DejaVuSans-67" d="M 2906 1791 
Q 2906 2416 2648 2759 
Q 2391 3103 1925 3103 
Q 1463 3103 1205 2759 
Q 947 2416 947 1791 
Q 947 1169 1205 825 
Q 1463 481 1925 481 
Q 2391 481 2648 825 
Q 2906 1169 2906 1791 
z
M 3481 434 
Q 3481 -459 3084 -895 
Q 2688 -1331 1869 -1331 
Q 1566 -1331 1297 -1286 
Q 1028 -1241 775 -1147 
L 775 -588 
Q 1028 -725 1275 -790 
Q 1522 -856 1778 -856 
Q 2344 -856 2625 -561 
Q 2906 -266 2906 331 
L 2906 616 
Q 2728 306 2450 153 
Q 2172 0 1784 0 
Q 1141 0 747 490 
Q 353 981 353 1791 
Q 353 2603 747 3093 
Q 1141 3584 1784 3584 
Q 2172 3584 2450 3431 
Q 2728 3278 2906 2969 
L 2906 3500 
L 3481 3500 
L 3481 434 
z
" transform="scale(0.015625)"/>
      <path id="DejaVuSans-6f" d="M 1959 3097 
Q 1497 3097 1228 2736 
Q 959 2375 959 1747 
Q 959 1119 1226 758 
Q 1494 397 1959 397 
Q 2419 397 2687 759 
Q 2956 1122 2956 1747 
Q 2956 2369 2687 2733 
Q 2419 3097 1959 3097 
z
M 1959 3584 
Q 2709 3584 3137 3096 
Q 3566 2609 3566 1747 
Q 3566 888 3137 398 
Q 2709 -91 1959 -91 
Q 1206 -91 779 398 
Q 353 888 353 1747 
Q 353 2609 779 3096 
Q 1206 3584 1959 3584 
z
" transform="scale(0.015625)"/>
     </defs>
     <use xlink:href="#DejaVuSans-53"/>
     <use xlink:href="#DejaVuSans-61" transform="translate(63.476562 0)"/>
     <use xlink:href="#DejaVuSans-6e" transform="translate(124.755859 0)"/>
     <use xlink:href="#DejaVuSans-20" transform="translate(188.134766 0)"/>
     <use xlink:href="#DejaVuSans-44" transform="translate(219.921875 0)"/>
     <use xlink:href="#DejaVuSans-69" transform="translate(296.923828 0)"/>
     <use xlink:href="#DejaVuSans-65" transform="translate(324.707031 0)"/>
     <use xlink:href="#DejaVuSans-67" transform="translate(386.230469 0)"/>
     <use xlink:href="#DejaVuSans-6f" transform="translate(449.707031 0)"/>
    </g>
   </g>
   <g id="PathCollection_3">
    <defs>
     <path id="mecf976fdbe" d="M 0 4.472136 
C 1.186024 4.472136 2.323632 4.000923 3.162278 3.162278 
C 4.000923 2.323632 4.472136 1.186024 4.472136 0 
C 4.472136 -1.186024 4.000923 -2.323632 3.162278 -3.162278 
C 2.323632 -4.000923 1.186024 -4.472136 0 -4.472136 
C -1.186024 -4.472136 -2.323632 -4.000923 -3.162278 -3.162278 
C -4.000923 -2.323632 -4.472136 -1.186024 -4.472136 0 
C -4.472136 1.186024 -4.000923 2.323632 -3.162278 3.162278 
C -2.323632 4.000923 -1.186024 4.472136 0 4.472136 
z
" style="stroke: #666666"/>
    </defs>
    <g clip-path="url(#p6b56d2a192)">
     <use xlink:href="#mecf976fdbe" x="111.887603" y="84.37" style="fill: #666666; stroke: #666666"/>
     <use xlink:href="#mecf976fdbe" x="119.278332" y="282.106" style="fill: #666666; stroke: #666666"/>
     <use xlink:href="#mecf976fdbe" x="126.66906" y="348.634" style="fill: #666666; stroke: #666666"/>
     <use xlink:href="#mecf976fdbe" x="134.059789" y="370.81" style="fill: #666666; stroke: #666666"/>
     <use xlink:href="#mecf976fdbe" x="141.450517" y="409.618" style="fill: #666666; stroke: #666666"/>
     <use xlink:href="#mecf976fdbe" x="148.841246" y="413.314" style="fill: #666666; stroke: #666666"/>
     <use xlink:href="#mecf976fdbe" x="156.231974" y="424.402" style="fill: #666666; stroke: #666666"/>
     <use xlink:href="#mecf976fdbe" x="163.622703" y="429.946" style="fill: #666666; stroke: #666666"/>
     <use xlink:href="#mecf976fdbe" x="171.013431" y="437.338" style="fill: #666666; stroke: #666666"/>
     <use xlink:href="#mecf976fdbe" x="178.40416" y="428.098" style="fill: #666666; stroke: #666666"/>
     <use xlink:href="#mecf976fdbe" x="185.794888" y="435.49" style="fill: #666666; stroke: #666666"/>
     <use xlink:href="#mecf976fdbe" x="193.185617" y="448.426" style="fill: #666666; stroke: #666666"/>
     <use xlink:href="#mecf976fdbe" x="200.576345" y="442.882" style="fill: #666666; stroke: #666666"/>
     <use xlink:href="#mecf976fdbe" x="207.967074" y="450.274" style="fill: #666666; stroke: #666666"/>
     <use xlink:href="#mecf976fdbe" x="215.357802" y="452.122" style="fill: #666666; stroke: #666666"/>
     <use xlink:href="#mecf976fdbe" x="222.748531" y="457.666" style="fill: #666666; stroke: #666666"/>
     <use xlink:href="#mecf976fdbe" x="230.139259" y="465.058" style="fill: #666666; stroke: #666666"/>
     <use xlink:href="#mecf976fdbe" x="237.529988" y="470.602" style="fill: #666666; stroke: #666666"/>
     <use xlink:href="#mecf976fdbe" x="244.920716" y="457.666" style="fill: #666666; stroke: #666666"/>
     <use xlink:href="#mecf976fdbe" x="252.311445" y="466.906" style="fill: #666666; stroke: #666666"/>
     <use xlink:href="#mecf976fdbe" x="259.702173" y="470.602" style="fill: #666666; stroke: #666666"/>
     <use xlink:href="#mecf976fdbe" x="267.092901" y="474.298" style="fill: #666666; stroke: #666666"/>
     <use xlink:href="#mecf976fdbe" x="274.48363" y="468.754" style="fill: #666666; stroke: #666666"/>
     <use xlink:href="#mecf976fdbe" x="281.874358" y="468.754" style="fill: #666666; stroke: #666666"/>
     <use xlink:href="#mecf976fdbe" x="289.265087" y="476.146" style="fill: #666666; stroke: #666666"/>
     <use xlink:href="#mecf976fdbe" x="296.655815" y="476.146" style="fill: #666666; stroke: #666666"/>
     <use xlink:href="#mecf976fdbe" x="304.046544" y="472.45" style="fill: #666666; stroke: #666666"/>
     <use xlink:href="#mecf976fdbe" x="311.437272" y="468.754" style="fill: #666666; stroke: #666666"/>
     <use xlink:href="#mecf976fdbe" x="318.828001" y="470.602" style="fill: #666666; stroke: #666666"/>
     <use xlink:href="#mecf976fdbe" x="326.218729" y="474.298" style="fill: #666666; stroke: #666666"/>
     <use xlink:href="#mecf976fdbe" x="333.609458" y="474.298" style="fill: #666666; stroke: #666666"/>
     <use xlink:href="#mecf976fdbe" x="341.000186" y="474.298" style="fill: #666666; stroke: #666666"/>
     <use xlink:href="#mecf976fdbe" x="348.390915" y="477.994" style="fill: #666666; stroke: #666666"/>
     <use xlink:href="#mecf976fdbe" x="355.781643" y="474.298" style="fill: #666666; stroke: #666666"/>
     <use xlink:href="#mecf976fdbe" x="363.172372" y="474.298" style="fill: #666666; stroke: #666666"/>
     <use xlink:href="#mecf976fdbe" x="370.5631" y="477.994" style="fill: #666666; stroke: #666666"/>
     <use xlink:href="#mecf976fdbe" x="377.953829" y="474.298" style="fill: #666666; stroke: #666666"/>
     <use xlink:href="#mecf976fdbe" x="385.344557" y="477.994" style="fill: #666666; stroke: #666666"/>
     <use xlink:href="#mecf976fdbe" x="392.735286" y="477.994" style="fill: #666666; stroke: #666666"/>
     <use xlink:href="#mecf976fdbe" x="400.126014" y="474.298" style="fill: #666666; stroke: #666666"/>
     <use xlink:href="#mecf976fdbe" x="407.516743" y="476.146" style="fill: #666666; stroke: #666666"/>
     <use xlink:href="#mecf976fdbe" x="414.907471" y="470.602" style="fill: #666666; stroke: #666666"/>
     <use xlink:href="#mecf976fdbe" x="422.2982" y="474.298" style="fill: #666666; stroke: #666666"/>
     <use xlink:href="#mecf976fdbe" x="429.688928" y="474.298" style="fill: #666666; stroke: #666666"/>
     <use xlink:href="#mecf976fdbe" x="437.079656" y="474.298" style="fill: #666666; stroke: #666666"/>
     <use xlink:href="#mecf976fdbe" x="444.470385" y="474.298" style="fill: #666666; stroke: #666666"/>
     <use xlink:href="#mecf976fdbe" x="451.861113" y="476.146" style="fill: #666666; stroke: #666666"/>
     <use xlink:href="#mecf976fdbe" x="459.251842" y="477.994" style="fill: #666666; stroke: #666666"/>
     <use xlink:href="#mecf976fdbe" x="466.64257" y="476.146" style="fill: #666666; stroke: #666666"/>
     <use xlink:href="#mecf976fdbe" x="474.033299" y="477.994" style="fill: #666666; stroke: #666666"/>
     <use xlink:href="#mecf976fdbe" x="481.424027" y="470.602" style="fill: #666666; stroke: #666666"/>
     <use xlink:href="#mecf976fdbe" x="488.814756" y="470.602" style="fill: #666666; stroke: #666666"/>
     <use xlink:href="#mecf976fdbe" x="503.596213" y="477.994" style="fill: #666666; stroke: #666666"/>
     <use xlink:href="#mecf976fdbe" x="518.37767" y="476.146" style="fill: #666666; stroke: #666666"/>
     <use xlink:href="#mecf976fdbe" x="525.768398" y="470.602" style="fill: #666666; stroke: #666666"/>
     <use xlink:href="#mecf976fdbe" x="533.159127" y="477.994" style="fill: #666666; stroke: #666666"/>
     <use xlink:href="#mecf976fdbe" x="540.549855" y="477.994" style="fill: #666666; stroke: #666666"/>
     <use xlink:href="#mecf976fdbe" x="547.940584" y="477.994" style="fill: #666666; stroke: #666666"/>
     <use xlink:href="#mecf976fdbe" x="555.331312" y="477.994" style="fill: #666666; stroke: #666666"/>
     <use xlink:href="#mecf976fdbe" x="562.722041" y="474.298" style="fill: #666666; stroke: #666666"/>
     <use xlink:href="#mecf976fdbe" x="570.112769" y="477.994" style="fill: #666666; stroke: #666666"/>
     <use xlink:href="#mecf976fdbe" x="577.503498" y="476.146" style="fill: #666666; stroke: #666666"/>
     <use xlink:href="#mecf976fdbe" x="584.894226" y="477.994" style="fill: #666666; stroke: #666666"/>
     <use xlink:href="#mecf976fdbe" x="592.284954" y="474.298" style="fill: #666666; stroke: #666666"/>
     <use xlink:href="#mecf976fdbe" x="599.675683" y="474.298" style="fill: #666666; stroke: #666666"/>
     <use xlink:href="#mecf976fdbe" x="621.847868" y="477.994" style="fill: #666666; stroke: #666666"/>
     <use xlink:href="#mecf976fdbe" x="629.238597" y="477.994" style="fill: #666666; stroke: #666666"/>
     <use xlink:href="#mecf976fdbe" x="644.020054" y="477.994" style="fill: #666666; stroke: #666666"/>
     <use xlink:href="#mecf976fdbe" x="651.410782" y="477.994" style="fill: #666666; stroke: #666666"/>
     <use xlink:href="#mecf976fdbe" x="658.801511" y="477.994" style="fill: #666666; stroke: #666666"/>
     <use xlink:href="#mecf976fdbe" x="680.973696" y="477.994" style="fill: #666666; stroke: #666666"/>
     <use xlink:href="#mecf976fdbe" x="688.364425" y="477.994" style="fill: #666666; stroke: #666666"/>
     <use xlink:href="#mecf976fdbe" x="695.755153" y="477.994" style="fill: #666666; stroke: #666666"/>
     <use xlink:href="#mecf976fdbe" x="725.318067" y="477.994" style="fill: #666666; stroke: #666666"/>
     <use xlink:href="#mecf976fdbe" x="732.708796" y="477.994" style="fill: #666666; stroke: #666666"/>
     <use xlink:href="#mecf976fdbe" x="754.880981" y="477.994" style="fill: #666666; stroke: #666666"/>
     <use xlink:href="#mecf976fdbe" x="769.662438" y="477.994" style="fill: #666666; stroke: #666666"/>
     <use xlink:href="#mecf976fdbe" x="791.834623" y="477.994" style="fill: #666666; stroke: #666666"/>
     <use xlink:href="#mecf976fdbe" x="814.006809" y="477.994" style="fill: #666666; stroke: #666666"/>
     <use xlink:href="#mecf976fdbe" x="843.569723" y="477.994" style="fill: #666666; stroke: #666666"/>
     <use xlink:href="#mecf976fdbe" x="969.212107" y="477.994" style="fill: #666666; stroke: #666666"/>
     <use xlink:href="#mecf976fdbe" x="983.993564" y="477.994" style="fill: #666666; stroke: #666666"/>
     <use xlink:href="#mecf976fdbe" x="1057.900849" y="477.994" style="fill: #666666; stroke: #666666"/>
     <use xlink:href="#mecf976fdbe" x="1087.463762" y="477.994" style="fill: #666666; stroke: #666666"/>
    </g>
   </g>
  </g>
 </g>
 <defs>
  <clipPath id="p6b56d2a192">
   <rect x="104.496875" y="38.17" width="558" height="443.52"/>
  </clipPath>
 </defs>
</svg>
