<?xml version="1.0" encoding="utf-8" standalone="no"?>
<!DOCTYPE svg PUBLIC "-//W3C//DTD SVG 1.1//EN"
  "http://www.w3.org/Graphics/SVG/1.1/DTD/svg11.dtd">
<svg xmlns:xlink="http://www.w3.org/1999/xlink" width="665.234375pt" height="557.95875pt" viewBox="0 0 665.234375 557.95875" xmlns="http://www.w3.org/2000/svg" version="1.1">
 <metadata>
  <rdf:RDF xmlns:dc="http://purl.org/dc/elements/1.1/" xmlns:cc="http://creativecommons.org/ns#" xmlns:rdf="http://www.w3.org/1999/02/22-rdf-syntax-ns#">
   <cc:Work>
    <dc:type rdf:resource="http://purl.org/dc/dcmitype/StillImage"/>
    <dc:date>2025-06-02T15:34:05.363394</dc:date>
    <dc:format>image/svg+xml</dc:format>
    <dc:creator>
     <cc:Agent>
      <dc:title>Matplotlib v3.10.3, https://matplotlib.org/</dc:title>
     </cc:Agent>
    </dc:creator>
   </cc:Work>
  </rdf:RDF>
 </metadata>
 <defs>
  <style type="text/css">*{stroke-linejoin: round; stroke-linecap: butt}</style>
 </defs>
 <g id="figure_1">
  <g id="patch_1">
   <path d="M 0 557.95875 
L 665.234375 557.95875 
L 665.234375 0 
L 0 0 
z
" style="fill: #ffffff"/>
  </g>
  <g id="axes_1">
   <g id="patch_2">
    <path d="M 100.034375 481.69 
L 658.034375 481.69 
L 658.034375 38.17 
L 100.034375 38.17 
z
" style="fill: #ffffff"/>
   </g>
   <g id="PathCollection_1">
    <defs>
     <path id="m71d9a2b98c" d="M 0 -4.472136 
L -4.472136 4.472136 
L 4.472136 4.472136 
z
" style="stroke: #a9a9a9"/>
    </defs>
    <g clip-path="url(#pffb341429b)">
     <use xlink:href="#m71d9a2b98c" x="111.526012" y="91.842605" style="fill: #a9a9a9; stroke: #a9a9a9"/>
     <use xlink:href="#m71d9a2b98c" x="231.351297" y="155.304045" style="fill: #a9a9a9; stroke: #a9a9a9"/>
     <use xlink:href="#m71d9a2b98c" x="287.066882" y="170.26853" style="fill: #a9a9a9; stroke: #a9a9a9"/>
     <use xlink:href="#m71d9a2b98c" x="323.7658" y="213.923794" style="fill: #a9a9a9; stroke: #a9a9a9"/>
     <use xlink:href="#m71d9a2b98c" x="351.176583" y="219.337455" style="fill: #a9a9a9; stroke: #a9a9a9"/>
     <use xlink:href="#m71d9a2b98c" x="373.06367" y="248.081171" style="fill: #a9a9a9; stroke: #a9a9a9"/>
     <use xlink:href="#m71d9a2b98c" x="391.284205" y="248.081171" style="fill: #a9a9a9; stroke: #a9a9a9"/>
     <use xlink:href="#m71d9a2b98c" x="406.892167" y="256.435233" style="fill: #a9a9a9; stroke: #a9a9a9"/>
     <use xlink:href="#m71d9a2b98c" x="420.543671" y="242.949661" style="fill: #a9a9a9; stroke: #a9a9a9"/>
     <use xlink:href="#m71d9a2b98c" x="432.675015" y="262.517825" style="fill: #a9a9a9; stroke: #a9a9a9"/>
     <use xlink:href="#m71d9a2b98c" x="443.591085" y="265.73696" style="fill: #a9a9a9; stroke: #a9a9a9"/>
     <use xlink:href="#m71d9a2b98c" x="453.513347" y="269.087525" style="fill: #a9a9a9; stroke: #a9a9a9"/>
     <use xlink:href="#m71d9a2b98c" x="462.607752" y="302.367059" style="fill: #a9a9a9; stroke: #a9a9a9"/>
     <use xlink:href="#m71d9a2b98c" x="471.001868" y="333.120935" style="fill: #a9a9a9; stroke: #a9a9a9"/>
     <use xlink:href="#m71d9a2b98c" x="478.795874" y="313.326973" style="fill: #a9a9a9; stroke: #a9a9a9"/>
     <use xlink:href="#m71d9a2b98c" x="486.06988" y="333.120935" style="fill: #a9a9a9; stroke: #a9a9a9"/>
     <use xlink:href="#m71d9a2b98c" x="492.888955" y="325.979265" style="fill: #a9a9a9; stroke: #a9a9a9"/>
     <use xlink:href="#m71d9a2b98c" x="499.30667" y="319.409565" style="fill: #a9a9a9; stroke: #a9a9a9"/>
     <use xlink:href="#m71d9a2b98c" x="505.367655" y="370.218713" style="fill: #a9a9a9; stroke: #a9a9a9"/>
     <use xlink:href="#m71d9a2b98c" x="511.10949" y="359.258799" style="fill: #a9a9a9; stroke: #a9a9a9"/>
     <use xlink:href="#m71d9a2b98c" x="516.56411" y="333.120935" style="fill: #a9a9a9; stroke: #a9a9a9"/>
     <use xlink:href="#m71d9a2b98c" x="521.758886" y="382.871005" style="fill: #a9a9a9; stroke: #a9a9a9"/>
     <use xlink:href="#m71d9a2b98c" x="526.717453" y="382.871005" style="fill: #a9a9a9; stroke: #a9a9a9"/>
     <use xlink:href="#m71d9a2b98c" x="531.46036" y="382.871005" style="fill: #a9a9a9; stroke: #a9a9a9"/>
     <use xlink:href="#m71d9a2b98c" x="536.005587" y="370.218713" style="fill: #a9a9a9; stroke: #a9a9a9"/>
     <use xlink:href="#m71d9a2b98c" x="540.368956" y="370.218713" style="fill: #a9a9a9; stroke: #a9a9a9"/>
     <use xlink:href="#m71d9a2b98c" x="548.60454" y="397.83549" style="fill: #a9a9a9; stroke: #a9a9a9"/>
     <use xlink:href="#m71d9a2b98c" x="552.5003" y="416.150539" style="fill: #a9a9a9; stroke: #a9a9a9"/>
     <use xlink:href="#m71d9a2b98c" x="556.261696" y="382.871005" style="fill: #a9a9a9; stroke: #a9a9a9"/>
     <use xlink:href="#m71d9a2b98c" x="559.897688" y="397.83549" style="fill: #a9a9a9; stroke: #a9a9a9"/>
     <use xlink:href="#m71d9a2b98c" x="563.41637" y="397.83549" style="fill: #a9a9a9; stroke: #a9a9a9"/>
     <use xlink:href="#m71d9a2b98c" x="566.825075" y="416.150539" style="fill: #a9a9a9; stroke: #a9a9a9"/>
     <use xlink:href="#m71d9a2b98c" x="570.130469" y="473.04228" style="fill: #a9a9a9; stroke: #a9a9a9"/>
     <use xlink:href="#m71d9a2b98c" x="573.338632" y="416.150539" style="fill: #a9a9a9; stroke: #a9a9a9"/>
     <use xlink:href="#m71d9a2b98c" x="576.455121" y="416.150539" style="fill: #a9a9a9; stroke: #a9a9a9"/>
     <use xlink:href="#m71d9a2b98c" x="579.485029" y="439.762745" style="fill: #a9a9a9; stroke: #a9a9a9"/>
     <use xlink:href="#m71d9a2b98c" x="582.433037" y="416.150539" style="fill: #a9a9a9; stroke: #a9a9a9"/>
     <use xlink:href="#m71d9a2b98c" x="585.303458" y="439.762745" style="fill: #a9a9a9; stroke: #a9a9a9"/>
     <use xlink:href="#m71d9a2b98c" x="588.100269" y="416.150539" style="fill: #a9a9a9; stroke: #a9a9a9"/>
     <use xlink:href="#m71d9a2b98c" x="590.827153" y="416.150539" style="fill: #a9a9a9; stroke: #a9a9a9"/>
     <use xlink:href="#m71d9a2b98c" x="593.487521" y="382.871005" style="fill: #a9a9a9; stroke: #a9a9a9"/>
     <use xlink:href="#m71d9a2b98c" x="596.084541" y="439.762745" style="fill: #a9a9a9; stroke: #a9a9a9"/>
     <use xlink:href="#m71d9a2b98c" x="598.621159" y="439.762745" style="fill: #a9a9a9; stroke: #a9a9a9"/>
     <use xlink:href="#m71d9a2b98c" x="601.100122" y="473.04228" style="fill: #a9a9a9; stroke: #a9a9a9"/>
     <use xlink:href="#m71d9a2b98c" x="605.895166" y="382.871005" style="fill: #a9a9a9; stroke: #a9a9a9"/>
     <use xlink:href="#m71d9a2b98c" x="608.215885" y="473.04228" style="fill: #a9a9a9; stroke: #a9a9a9"/>
     <use xlink:href="#m71d9a2b98c" x="610.488252" y="416.150539" style="fill: #a9a9a9; stroke: #a9a9a9"/>
     <use xlink:href="#m71d9a2b98c" x="612.714241" y="397.83549" style="fill: #a9a9a9; stroke: #a9a9a9"/>
     <use xlink:href="#m71d9a2b98c" x="614.895707" y="416.150539" style="fill: #a9a9a9; stroke: #a9a9a9"/>
     <use xlink:href="#m71d9a2b98c" x="617.034396" y="473.04228" style="fill: #a9a9a9; stroke: #a9a9a9"/>
     <use xlink:href="#m71d9a2b98c" x="619.131955" y="439.762745" style="fill: #a9a9a9; stroke: #a9a9a9"/>
     <use xlink:href="#m71d9a2b98c" x="621.189934" y="473.04228" style="fill: #a9a9a9; stroke: #a9a9a9"/>
     <use xlink:href="#m71d9a2b98c" x="632.783458" y="416.150539" style="fill: #a9a9a9; stroke: #a9a9a9"/>
     <use xlink:href="#m71d9a2b98c" x="634.601328" y="397.83549" style="fill: #a9a9a9; stroke: #a9a9a9"/>
     <use xlink:href="#m71d9a2b98c" x="638.148622" y="439.762745" style="fill: #a9a9a9; stroke: #a9a9a9"/>
     <use xlink:href="#m71d9a2b98c" x="641.584171" y="439.762745" style="fill: #a9a9a9; stroke: #a9a9a9"/>
     <use xlink:href="#m71d9a2b98c" x="643.2622" y="473.04228" style="fill: #a9a9a9; stroke: #a9a9a9"/>
     <use xlink:href="#m71d9a2b98c" x="644.914802" y="473.04228" style="fill: #a9a9a9; stroke: #a9a9a9"/>
     <use xlink:href="#m71d9a2b98c" x="646.542738" y="473.04228" style="fill: #a9a9a9; stroke: #a9a9a9"/>
     <use xlink:href="#m71d9a2b98c" x="649.72748" y="473.04228" style="fill: #a9a9a9; stroke: #a9a9a9"/>
     <use xlink:href="#m71d9a2b98c" x="651.285645" y="473.04228" style="fill: #a9a9a9; stroke: #a9a9a9"/>
     <use xlink:href="#m71d9a2b98c" x="655.830872" y="473.04228" style="fill: #a9a9a9; stroke: #a9a9a9"/>
     <use xlink:href="#m71d9a2b98c" x="657.304809" y="416.150539" style="fill: #a9a9a9; stroke: #a9a9a9"/>
     <use xlink:href="#m71d9a2b98c" x="658.759093" y="473.04228" style="fill: #a9a9a9; stroke: #a9a9a9"/>
     <use xlink:href="#m71d9a2b98c" x="660.194241" y="473.04228" style="fill: #a9a9a9; stroke: #a9a9a9"/>
     <use xlink:href="#m71d9a2b98c" x="661.61075" y="473.04228" style="fill: #a9a9a9; stroke: #a9a9a9"/>
     <use xlink:href="#m71d9a2b98c" x="664.389746" y="473.04228" style="fill: #a9a9a9; stroke: #a9a9a9"/>
     <use xlink:href="#m71d9a2b98c" x="667.099691" y="473.04228" style="fill: #a9a9a9; stroke: #a9a9a9"/>
     <use xlink:href="#m71d9a2b98c" x="668.429825" y="473.04228" style="fill: #a9a9a9; stroke: #a9a9a9"/>
     <use xlink:href="#m71d9a2b98c" x="671.042398" y="473.04228" style="fill: #a9a9a9; stroke: #a9a9a9"/>
     <use xlink:href="#m71d9a2b98c" x="673.593851" y="473.04228" style="fill: #a9a9a9; stroke: #a9a9a9"/>
     <use xlink:href="#m71d9a2b98c" x="677.312496" y="473.04228" style="fill: #a9a9a9; stroke: #a9a9a9"/>
     <use xlink:href="#m71d9a2b98c" x="684.389768" y="473.04228" style="fill: #a9a9a9; stroke: #a9a9a9"/>
     <use xlink:href="#m71d9a2b98c" x="685.52592" y="416.150539" style="fill: #a9a9a9; stroke: #a9a9a9"/>
     <use xlink:href="#m71d9a2b98c" x="687.763326" y="473.04228" style="fill: #a9a9a9; stroke: #a9a9a9"/>
     <use xlink:href="#m71d9a2b98c" x="689.955755" y="473.04228" style="fill: #a9a9a9; stroke: #a9a9a9"/>
     <use xlink:href="#m71d9a2b98c" x="691.035661" y="473.04228" style="fill: #a9a9a9; stroke: #a9a9a9"/>
     <use xlink:href="#m71d9a2b98c" x="692.10498" y="473.04228" style="fill: #a9a9a9; stroke: #a9a9a9"/>
     <use xlink:href="#m71d9a2b98c" x="693.163918" y="473.04228" style="fill: #a9a9a9; stroke: #a9a9a9"/>
     <use xlink:href="#m71d9a2b98c" x="707.00123" y="416.150539" style="fill: #a9a9a9; stroke: #a9a9a9"/>
     <use xlink:href="#m71d9a2b98c" x="719.279041" y="473.04228" style="fill: #a9a9a9; stroke: #a9a9a9"/>
    </g>
   </g>
   <g id="PathCollection_2">
    <defs>
     <path id="m924d877a34" d="M -0 4.472136 
L 4.472136 -4.472136 
L -4.472136 -4.472136 
z
" style="stroke: #a9a9a9"/>
    </defs>
    <g clip-path="url(#pffb341429b)">
     <use xlink:href="#m924d877a34" x="111.526012" y="91.448947" style="fill: #a9a9a9; stroke: #a9a9a9"/>
     <use xlink:href="#m924d877a34" x="231.351297" y="155.304045" style="fill: #a9a9a9; stroke: #a9a9a9"/>
     <use xlink:href="#m924d877a34" x="287.066882" y="181.228443" style="fill: #a9a9a9; stroke: #a9a9a9"/>
     <use xlink:href="#m924d877a34" x="323.7658" y="215.688969" style="fill: #a9a9a9; stroke: #a9a9a9"/>
     <use xlink:href="#m924d877a34" x="351.176583" y="208.84522" style="fill: #a9a9a9; stroke: #a9a9a9"/>
     <use xlink:href="#m924d877a34" x="373.06367" y="225.133564" style="fill: #a9a9a9; stroke: #a9a9a9"/>
     <use xlink:href="#m924d877a34" x="391.284205" y="250.772475" style="fill: #a9a9a9; stroke: #a9a9a9"/>
     <use xlink:href="#m924d877a34" x="406.892167" y="262.517825" style="fill: #a9a9a9; stroke: #a9a9a9"/>
     <use xlink:href="#m924d877a34" x="420.543671" y="256.435233" style="fill: #a9a9a9; stroke: #a9a9a9"/>
     <use xlink:href="#m924d877a34" x="432.675015" y="256.435233" style="fill: #a9a9a9; stroke: #a9a9a9"/>
     <use xlink:href="#m924d877a34" x="443.591085" y="280.047438" style="fill: #a9a9a9; stroke: #a9a9a9"/>
     <use xlink:href="#m924d877a34" x="453.513347" y="292.69973" style="fill: #a9a9a9; stroke: #a9a9a9"/>
     <use xlink:href="#m924d877a34" x="462.607752" y="280.047438" style="fill: #a9a9a9; stroke: #a9a9a9"/>
     <use xlink:href="#m924d877a34" x="471.001868" y="325.979265" style="fill: #a9a9a9; stroke: #a9a9a9"/>
     <use xlink:href="#m924d877a34" x="478.795874" y="284.05201" style="fill: #a9a9a9; stroke: #a9a9a9"/>
     <use xlink:href="#m924d877a34" x="486.06988" y="313.326973" style="fill: #a9a9a9; stroke: #a9a9a9"/>
     <use xlink:href="#m924d877a34" x="492.888955" y="359.258799" style="fill: #a9a9a9; stroke: #a9a9a9"/>
     <use xlink:href="#m924d877a34" x="499.30667" y="333.120935" style="fill: #a9a9a9; stroke: #a9a9a9"/>
     <use xlink:href="#m924d877a34" x="505.367655" y="397.83549" style="fill: #a9a9a9; stroke: #a9a9a9"/>
     <use xlink:href="#m924d877a34" x="511.10949" y="340.94375" style="fill: #a9a9a9; stroke: #a9a9a9"/>
     <use xlink:href="#m924d877a34" x="516.56411" y="333.120935" style="fill: #a9a9a9; stroke: #a9a9a9"/>
     <use xlink:href="#m924d877a34" x="521.758886" y="349.59147" style="fill: #a9a9a9; stroke: #a9a9a9"/>
     <use xlink:href="#m924d877a34" x="526.717453" y="340.94375" style="fill: #a9a9a9; stroke: #a9a9a9"/>
     <use xlink:href="#m924d877a34" x="531.46036" y="359.258799" style="fill: #a9a9a9; stroke: #a9a9a9"/>
     <use xlink:href="#m924d877a34" x="536.005587" y="349.59147" style="fill: #a9a9a9; stroke: #a9a9a9"/>
     <use xlink:href="#m924d877a34" x="540.368956" y="397.83549" style="fill: #a9a9a9; stroke: #a9a9a9"/>
     <use xlink:href="#m924d877a34" x="544.564461" y="397.83549" style="fill: #a9a9a9; stroke: #a9a9a9"/>
     <use xlink:href="#m924d877a34" x="548.60454" y="473.04228" style="fill: #a9a9a9; stroke: #a9a9a9"/>
     <use xlink:href="#m924d877a34" x="552.5003" y="397.83549" style="fill: #a9a9a9; stroke: #a9a9a9"/>
     <use xlink:href="#m924d877a34" x="556.261696" y="370.218713" style="fill: #a9a9a9; stroke: #a9a9a9"/>
     <use xlink:href="#m924d877a34" x="559.897688" y="397.83549" style="fill: #a9a9a9; stroke: #a9a9a9"/>
     <use xlink:href="#m924d877a34" x="563.41637" y="473.04228" style="fill: #a9a9a9; stroke: #a9a9a9"/>
     <use xlink:href="#m924d877a34" x="566.825075" y="416.150539" style="fill: #a9a9a9; stroke: #a9a9a9"/>
     <use xlink:href="#m924d877a34" x="570.130469" y="439.762745" style="fill: #a9a9a9; stroke: #a9a9a9"/>
     <use xlink:href="#m924d877a34" x="573.338632" y="370.218713" style="fill: #a9a9a9; stroke: #a9a9a9"/>
     <use xlink:href="#m924d877a34" x="576.455121" y="473.04228" style="fill: #a9a9a9; stroke: #a9a9a9"/>
     <use xlink:href="#m924d877a34" x="579.485029" y="382.871005" style="fill: #a9a9a9; stroke: #a9a9a9"/>
     <use xlink:href="#m924d877a34" x="582.433037" y="473.04228" style="fill: #a9a9a9; stroke: #a9a9a9"/>
     <use xlink:href="#m924d877a34" x="585.303458" y="382.871005" style="fill: #a9a9a9; stroke: #a9a9a9"/>
     <use xlink:href="#m924d877a34" x="588.100269" y="416.150539" style="fill: #a9a9a9; stroke: #a9a9a9"/>
     <use xlink:href="#m924d877a34" x="590.827153" y="473.04228" style="fill: #a9a9a9; stroke: #a9a9a9"/>
     <use xlink:href="#m924d877a34" x="593.487521" y="416.150539" style="fill: #a9a9a9; stroke: #a9a9a9"/>
     <use xlink:href="#m924d877a34" x="596.084541" y="382.871005" style="fill: #a9a9a9; stroke: #a9a9a9"/>
     <use xlink:href="#m924d877a34" x="598.621159" y="397.83549" style="fill: #a9a9a9; stroke: #a9a9a9"/>
     <use xlink:href="#m924d877a34" x="601.100122" y="473.04228" style="fill: #a9a9a9; stroke: #a9a9a9"/>
     <use xlink:href="#m924d877a34" x="603.523992" y="439.762745" style="fill: #a9a9a9; stroke: #a9a9a9"/>
     <use xlink:href="#m924d877a34" x="605.895166" y="439.762745" style="fill: #a9a9a9; stroke: #a9a9a9"/>
     <use xlink:href="#m924d877a34" x="608.215885" y="397.83549" style="fill: #a9a9a9; stroke: #a9a9a9"/>
     <use xlink:href="#m924d877a34" x="610.488252" y="359.258799" style="fill: #a9a9a9; stroke: #a9a9a9"/>
     <use xlink:href="#m924d877a34" x="612.714241" y="473.04228" style="fill: #a9a9a9; stroke: #a9a9a9"/>
     <use xlink:href="#m924d877a34" x="614.895707" y="397.83549" style="fill: #a9a9a9; stroke: #a9a9a9"/>
     <use xlink:href="#m924d877a34" x="617.034396" y="439.762745" style="fill: #a9a9a9; stroke: #a9a9a9"/>
     <use xlink:href="#m924d877a34" x="619.131955" y="439.762745" style="fill: #a9a9a9; stroke: #a9a9a9"/>
     <use xlink:href="#m924d877a34" x="623.209801" y="416.150539" style="fill: #a9a9a9; stroke: #a9a9a9"/>
     <use xlink:href="#m924d877a34" x="625.19294" y="416.150539" style="fill: #a9a9a9; stroke: #a9a9a9"/>
     <use xlink:href="#m924d877a34" x="627.140665" y="473.04228" style="fill: #a9a9a9; stroke: #a9a9a9"/>
     <use xlink:href="#m924d877a34" x="629.054217" y="473.04228" style="fill: #a9a9a9; stroke: #a9a9a9"/>
     <use xlink:href="#m924d877a34" x="630.934775" y="473.04228" style="fill: #a9a9a9; stroke: #a9a9a9"/>
     <use xlink:href="#m924d877a34" x="636.389396" y="439.762745" style="fill: #a9a9a9; stroke: #a9a9a9"/>
     <use xlink:href="#m924d877a34" x="638.148622" y="473.04228" style="fill: #a9a9a9; stroke: #a9a9a9"/>
     <use xlink:href="#m924d877a34" x="639.879923" y="473.04228" style="fill: #a9a9a9; stroke: #a9a9a9"/>
     <use xlink:href="#m924d877a34" x="644.914802" y="473.04228" style="fill: #a9a9a9; stroke: #a9a9a9"/>
     <use xlink:href="#m924d877a34" x="646.542738" y="473.04228" style="fill: #a9a9a9; stroke: #a9a9a9"/>
     <use xlink:href="#m924d877a34" x="648.146733" y="473.04228" style="fill: #a9a9a9; stroke: #a9a9a9"/>
     <use xlink:href="#m924d877a34" x="649.72748" y="473.04228" style="fill: #a9a9a9; stroke: #a9a9a9"/>
     <use xlink:href="#m924d877a34" x="651.285645" y="416.150539" style="fill: #a9a9a9; stroke: #a9a9a9"/>
     <use xlink:href="#m924d877a34" x="654.336744" y="416.150539" style="fill: #a9a9a9; stroke: #a9a9a9"/>
     <use xlink:href="#m924d877a34" x="657.304809" y="473.04228" style="fill: #a9a9a9; stroke: #a9a9a9"/>
     <use xlink:href="#m924d877a34" x="661.61075" y="473.04228" style="fill: #a9a9a9; stroke: #a9a9a9"/>
     <use xlink:href="#m924d877a34" x="664.389746" y="473.04228" style="fill: #a9a9a9; stroke: #a9a9a9"/>
     <use xlink:href="#m924d877a34" x="665.753135" y="473.04228" style="fill: #a9a9a9; stroke: #a9a9a9"/>
     <use xlink:href="#m924d877a34" x="667.099691" y="473.04228" style="fill: #a9a9a9; stroke: #a9a9a9"/>
     <use xlink:href="#m924d877a34" x="669.743934" y="473.04228" style="fill: #a9a9a9; stroke: #a9a9a9"/>
     <use xlink:href="#m924d877a34" x="671.042398" y="473.04228" style="fill: #a9a9a9; stroke: #a9a9a9"/>
     <use xlink:href="#m924d877a34" x="677.312496" y="473.04228" style="fill: #a9a9a9; stroke: #a9a9a9"/>
     <use xlink:href="#m924d877a34" x="678.524394" y="473.04228" style="fill: #a9a9a9; stroke: #a9a9a9"/>
     <use xlink:href="#m924d877a34" x="684.389768" y="473.04228" style="fill: #a9a9a9; stroke: #a9a9a9"/>
     <use xlink:href="#m924d877a34" x="686.65036" y="473.04228" style="fill: #a9a9a9; stroke: #a9a9a9"/>
     <use xlink:href="#m924d877a34" x="688.865049" y="473.04228" style="fill: #a9a9a9; stroke: #a9a9a9"/>
     <use xlink:href="#m924d877a34" x="694.212673" y="473.04228" style="fill: #a9a9a9; stroke: #a9a9a9"/>
     <use xlink:href="#m924d877a34" x="706.069004" y="473.04228" style="fill: #a9a9a9; stroke: #a9a9a9"/>
     <use xlink:href="#m924d877a34" x="708.842112" y="473.04228" style="fill: #a9a9a9; stroke: #a9a9a9"/>
     <use xlink:href="#m924d877a34" x="721.739364" y="473.04228" style="fill: #a9a9a9; stroke: #a9a9a9"/>
     <use xlink:href="#m924d877a34" x="727.27307" y="473.04228" style="fill: #a9a9a9; stroke: #a9a9a9"/>
     <use xlink:href="#m924d877a34" x="728.803898" y="473.04228" style="fill: #a9a9a9; stroke: #a9a9a9"/>
    </g>
   </g>
   <g id="matplotlib.axis_1">
    <g id="xtick_1">
     <g id="line2d_1">
      <defs>
       <path id="m138dcf0bc8" d="M 0 0 
L 0 3.5 
" style="stroke: #000000; stroke-width: 0.8"/>
      </defs>
      <g>
       <use xlink:href="#m138dcf0bc8" x="111.526012" y="481.69" style="stroke: #000000; stroke-width: 0.8"/>
      </g>
     </g>
     <g id="text_1">
      <!-- $\mathdefault{10^{0}}$ -->
      <g transform="translate(85.126012 511.485313) scale(0.3 -0.3)">
       <defs>
        <path id="DejaVuSans-31" d="M 794 531 
L 1825 531 
L 1825 4091 
L 703 3866 
L 703 4441 
L 1819 4666 
L 2450 4666 
L 2450 531 
L 3481 531 
L 3481 0 
L 794 0 
L 794 531 
z
" transform="scale(0.015625)"/>
        <path id="DejaVuSans-30" d="M 2034 4250 
Q 1547 4250 1301 3770 
Q 1056 3291 1056 2328 
Q 1056 1369 1301 889 
Q 1547 409 2034 409 
Q 2525 409 2770 889 
Q 3016 1369 3016 2328 
Q 3016 3291 2770 3770 
Q 2525 4250 2034 4250 
z
M 2034 4750 
Q 2819 4750 3233 4129 
Q 3647 3509 3647 2328 
Q 3647 1150 3233 529 
Q 2819 -91 2034 -91 
Q 1250 -91 836 529 
Q 422 1150 422 2328 
Q 422 3509 836 4129 
Q 1250 4750 2034 4750 
z
" transform="scale(0.015625)"/>
       </defs>
       <use xlink:href="#DejaVuSans-31" transform="translate(0 0.765625)"/>
       <use xlink:href="#DejaVuSans-30" transform="translate(63.623047 0.765625)"/>
       <use xlink:href="#DejaVuSans-30" transform="translate(128.203125 39.046875) scale(0.7)"/>
      </g>
     </g>
    </g>
    <g id="xtick_2">
     <g id="line2d_2">
      <g>
       <use xlink:href="#m138dcf0bc8" x="362.66822" y="481.69" style="stroke: #000000; stroke-width: 0.8"/>
      </g>
     </g>
     <g id="text_2">
      <!-- $\mathdefault{10^{1}}$ -->
      <g transform="translate(336.26822 511.485313) scale(0.3 -0.3)">
       <use xlink:href="#DejaVuSans-31" transform="translate(0 0.684375)"/>
       <use xlink:href="#DejaVuSans-30" transform="translate(63.623047 0.684375)"/>
       <use xlink:href="#DejaVuSans-31" transform="translate(128.203125 38.965625) scale(0.7)"/>
      </g>
     </g>
    </g>
    <g id="xtick_3">
     <g id="line2d_3">
      <g>
       <use xlink:href="#m138dcf0bc8" x="613.810427" y="481.69" style="stroke: #000000; stroke-width: 0.8"/>
      </g>
     </g>
     <g id="text_3">
      <!-- $\mathdefault{10^{2}}$ -->
      <g transform="translate(587.410427 511.485313) scale(0.3 -0.3)">
       <defs>
        <path id="DejaVuSans-32" d="M 1228 531 
L 3431 531 
L 3431 0 
L 469 0 
L 469 531 
Q 828 903 1448 1529 
Q 2069 2156 2228 2338 
Q 2531 2678 2651 2914 
Q 2772 3150 2772 3378 
Q 2772 3750 2511 3984 
Q 2250 4219 1831 4219 
Q 1534 4219 1204 4116 
Q 875 4013 500 3803 
L 500 4441 
Q 881 4594 1212 4672 
Q 1544 4750 1819 4750 
Q 2544 4750 2975 4387 
Q 3406 4025 3406 3419 
Q 3406 3131 3298 2873 
Q 3191 2616 2906 2266 
Q 2828 2175 2409 1742 
Q 1991 1309 1228 531 
z
" transform="scale(0.015625)"/>
       </defs>
       <use xlink:href="#DejaVuSans-31" transform="translate(0 0.765625)"/>
       <use xlink:href="#DejaVuSans-30" transform="translate(63.623047 0.765625)"/>
       <use xlink:href="#DejaVuSans-32" transform="translate(128.203125 39.046875) scale(0.7)"/>
      </g>
     </g>
    </g>
    <g id="xtick_4">
     <g id="line2d_4">
      <defs>
       <path id="md36dc8043f" d="M 0 0 
L 0 2 
" style="stroke: #000000; stroke-width: 0.6"/>
      </defs>
      <g>
       <use xlink:href="#md36dc8043f" x="100.034375" y="481.69" style="stroke: #000000; stroke-width: 0.6"/>
      </g>
     </g>
    </g>
    <g id="xtick_5">
     <g id="line2d_5">
      <g>
       <use xlink:href="#md36dc8043f" x="187.12735" y="481.69" style="stroke: #000000; stroke-width: 0.6"/>
      </g>
     </g>
    </g>
    <g id="xtick_6">
     <g id="line2d_6">
      <g>
       <use xlink:href="#md36dc8043f" x="231.351297" y="481.69" style="stroke: #000000; stroke-width: 0.6"/>
      </g>
     </g>
    </g>
    <g id="xtick_7">
     <g id="line2d_7">
      <g>
       <use xlink:href="#md36dc8043f" x="262.728688" y="481.69" style="stroke: #000000; stroke-width: 0.6"/>
      </g>
     </g>
    </g>
    <g id="xtick_8">
     <g id="line2d_8">
      <g>
       <use xlink:href="#md36dc8043f" x="287.066882" y="481.69" style="stroke: #000000; stroke-width: 0.6"/>
      </g>
     </g>
    </g>
    <g id="xtick_9">
     <g id="line2d_9">
      <g>
       <use xlink:href="#md36dc8043f" x="306.952635" y="481.69" style="stroke: #000000; stroke-width: 0.6"/>
      </g>
     </g>
    </g>
    <g id="xtick_10">
     <g id="line2d_10">
      <g>
       <use xlink:href="#md36dc8043f" x="323.7658" y="481.69" style="stroke: #000000; stroke-width: 0.6"/>
      </g>
     </g>
    </g>
    <g id="xtick_11">
     <g id="line2d_11">
      <g>
       <use xlink:href="#md36dc8043f" x="338.330025" y="481.69" style="stroke: #000000; stroke-width: 0.6"/>
      </g>
     </g>
    </g>
    <g id="xtick_12">
     <g id="line2d_12">
      <g>
       <use xlink:href="#md36dc8043f" x="351.176583" y="481.69" style="stroke: #000000; stroke-width: 0.6"/>
      </g>
     </g>
    </g>
    <g id="xtick_13">
     <g id="line2d_13">
      <g>
       <use xlink:href="#md36dc8043f" x="438.269557" y="481.69" style="stroke: #000000; stroke-width: 0.6"/>
      </g>
     </g>
    </g>
    <g id="xtick_14">
     <g id="line2d_14">
      <g>
       <use xlink:href="#md36dc8043f" x="482.493505" y="481.69" style="stroke: #000000; stroke-width: 0.6"/>
      </g>
     </g>
    </g>
    <g id="xtick_15">
     <g id="line2d_15">
      <g>
       <use xlink:href="#md36dc8043f" x="513.870895" y="481.69" style="stroke: #000000; stroke-width: 0.6"/>
      </g>
     </g>
    </g>
    <g id="xtick_16">
     <g id="line2d_16">
      <g>
       <use xlink:href="#md36dc8043f" x="538.20909" y="481.69" style="stroke: #000000; stroke-width: 0.6"/>
      </g>
     </g>
    </g>
    <g id="xtick_17">
     <g id="line2d_17">
      <g>
       <use xlink:href="#md36dc8043f" x="558.094843" y="481.69" style="stroke: #000000; stroke-width: 0.6"/>
      </g>
     </g>
    </g>
    <g id="xtick_18">
     <g id="line2d_18">
      <g>
       <use xlink:href="#md36dc8043f" x="574.908007" y="481.69" style="stroke: #000000; stroke-width: 0.6"/>
      </g>
     </g>
    </g>
    <g id="xtick_19">
     <g id="line2d_19">
      <g>
       <use xlink:href="#md36dc8043f" x="589.472233" y="481.69" style="stroke: #000000; stroke-width: 0.6"/>
      </g>
     </g>
    </g>
    <g id="xtick_20">
     <g id="line2d_20">
      <g>
       <use xlink:href="#md36dc8043f" x="602.31879" y="481.69" style="stroke: #000000; stroke-width: 0.6"/>
      </g>
     </g>
    </g>
    <g id="text_4">
     <!-- $\mathrm{k}$ -->
     <g transform="translate(370.334375 544.519688) scale(0.3 -0.3)">
      <defs>
       <path id="DejaVuSans-6b" d="M 581 4863 
L 1159 4863 
L 1159 1991 
L 2875 3500 
L 3609 3500 
L 1753 1863 
L 3688 0 
L 2938 0 
L 1159 1709 
L 1159 0 
L 581 0 
L 581 4863 
z
" transform="scale(0.015625)"/>
      </defs>
      <use xlink:href="#DejaVuSans-6b" transform="translate(0 0.015625)"/>
     </g>
    </g>
   </g>
   <g id="matplotlib.axis_2">
    <g id="ytick_1">
     <g id="line2d_21">
      <defs>
       <path id="md87b08236d" d="M 0 0 
L -3.5 0 
" style="stroke: #000000; stroke-width: 0.8"/>
      </defs>
      <g>
       <use xlink:href="#md87b08236d" x="100.034375" y="473.04228" style="stroke: #000000; stroke-width: 0.8"/>
      </g>
     </g>
     <g id="text_5">
      <!-- $\mathdefault{10^{0}}$ -->
      <g transform="translate(40.234375 484.439936) scale(0.3 -0.3)">
       <use xlink:href="#DejaVuSans-31" transform="translate(0 0.765625)"/>
       <use xlink:href="#DejaVuSans-30" transform="translate(63.623047 0.765625)"/>
       <use xlink:href="#DejaVuSans-30" transform="translate(128.203125 39.046875) scale(0.7)"/>
      </g>
     </g>
    </g>
    <g id="ytick_2">
     <g id="line2d_22">
      <g>
       <use xlink:href="#md87b08236d" x="100.034375" y="284.05201" style="stroke: #000000; stroke-width: 0.8"/>
      </g>
     </g>
     <g id="text_6">
      <!-- $\mathdefault{10^{1}}$ -->
      <g transform="translate(40.234375 295.449666) scale(0.3 -0.3)">
       <use xlink:href="#DejaVuSans-31" transform="translate(0 0.684375)"/>
       <use xlink:href="#DejaVuSans-30" transform="translate(63.623047 0.684375)"/>
       <use xlink:href="#DejaVuSans-31" transform="translate(128.203125 38.965625) scale(0.7)"/>
      </g>
     </g>
    </g>
    <g id="ytick_3">
     <g id="line2d_23">
      <g>
       <use xlink:href="#md87b08236d" x="100.034375" y="95.06174" style="stroke: #000000; stroke-width: 0.8"/>
      </g>
     </g>
     <g id="text_7">
      <!-- $\mathdefault{10^{2}}$ -->
      <g transform="translate(40.234375 106.459396) scale(0.3 -0.3)">
       <use xlink:href="#DejaVuSans-31" transform="translate(0 0.765625)"/>
       <use xlink:href="#DejaVuSans-30" transform="translate(63.623047 0.765625)"/>
       <use xlink:href="#DejaVuSans-32" transform="translate(128.203125 39.046875) scale(0.7)"/>
      </g>
     </g>
    </g>
    <g id="ytick_4">
     <g id="line2d_24">
      <defs>
       <path id="m056d974d95" d="M 0 0 
L -2 0 
" style="stroke: #000000; stroke-width: 0.6"/>
      </defs>
      <g>
       <use xlink:href="#m056d974d95" x="100.034375" y="481.69" style="stroke: #000000; stroke-width: 0.6"/>
      </g>
     </g>
    </g>
    <g id="ytick_5">
     <g id="line2d_25">
      <g>
       <use xlink:href="#m056d974d95" x="100.034375" y="416.150539" style="stroke: #000000; stroke-width: 0.6"/>
      </g>
     </g>
    </g>
    <g id="ytick_6">
     <g id="line2d_26">
      <g>
       <use xlink:href="#m056d974d95" x="100.034375" y="382.871005" style="stroke: #000000; stroke-width: 0.6"/>
      </g>
     </g>
    </g>
    <g id="ytick_7">
     <g id="line2d_27">
      <g>
       <use xlink:href="#m056d974d95" x="100.034375" y="359.258799" style="stroke: #000000; stroke-width: 0.6"/>
      </g>
     </g>
    </g>
    <g id="ytick_8">
     <g id="line2d_28">
      <g>
       <use xlink:href="#m056d974d95" x="100.034375" y="340.94375" style="stroke: #000000; stroke-width: 0.6"/>
      </g>
     </g>
    </g>
    <g id="ytick_9">
     <g id="line2d_29">
      <g>
       <use xlink:href="#m056d974d95" x="100.034375" y="325.979265" style="stroke: #000000; stroke-width: 0.6"/>
      </g>
     </g>
    </g>
    <g id="ytick_10">
     <g id="line2d_30">
      <g>
       <use xlink:href="#m056d974d95" x="100.034375" y="313.326973" style="stroke: #000000; stroke-width: 0.6"/>
      </g>
     </g>
    </g>
    <g id="ytick_11">
     <g id="line2d_31">
      <g>
       <use xlink:href="#m056d974d95" x="100.034375" y="302.367059" style="stroke: #000000; stroke-width: 0.6"/>
      </g>
     </g>
    </g>
    <g id="ytick_12">
     <g id="line2d_32">
      <g>
       <use xlink:href="#m056d974d95" x="100.034375" y="292.69973" style="stroke: #000000; stroke-width: 0.6"/>
      </g>
     </g>
    </g>
    <g id="ytick_13">
     <g id="line2d_33">
      <g>
       <use xlink:href="#m056d974d95" x="100.034375" y="227.16027" style="stroke: #000000; stroke-width: 0.6"/>
      </g>
     </g>
    </g>
    <g id="ytick_14">
     <g id="line2d_34">
      <g>
       <use xlink:href="#m056d974d95" x="100.034375" y="193.880735" style="stroke: #000000; stroke-width: 0.6"/>
      </g>
     </g>
    </g>
    <g id="ytick_15">
     <g id="line2d_35">
      <g>
       <use xlink:href="#m056d974d95" x="100.034375" y="170.26853" style="stroke: #000000; stroke-width: 0.6"/>
      </g>
     </g>
    </g>
    <g id="ytick_16">
     <g id="line2d_36">
      <g>
       <use xlink:href="#m056d974d95" x="100.034375" y="151.95348" style="stroke: #000000; stroke-width: 0.6"/>
      </g>
     </g>
    </g>
    <g id="ytick_17">
     <g id="line2d_37">
      <g>
       <use xlink:href="#m056d974d95" x="100.034375" y="136.988995" style="stroke: #000000; stroke-width: 0.6"/>
      </g>
     </g>
    </g>
    <g id="ytick_18">
     <g id="line2d_38">
      <g>
       <use xlink:href="#m056d974d95" x="100.034375" y="124.336703" style="stroke: #000000; stroke-width: 0.6"/>
      </g>
     </g>
    </g>
    <g id="ytick_19">
     <g id="line2d_39">
      <g>
       <use xlink:href="#m056d974d95" x="100.034375" y="113.37679" style="stroke: #000000; stroke-width: 0.6"/>
      </g>
     </g>
    </g>
    <g id="ytick_20">
     <g id="line2d_40">
      <g>
       <use xlink:href="#m056d974d95" x="100.034375" y="103.709461" style="stroke: #000000; stroke-width: 0.6"/>
      </g>
     </g>
    </g>
    <g id="ytick_21">
     <g id="line2d_41">
      <g>
       <use xlink:href="#m056d974d95" x="100.034375" y="38.17" style="stroke: #000000; stroke-width: 0.6"/>
      </g>
     </g>
    </g>
    <g id="text_8">
     <!-- $\mathrm{N}( \mathrm{k} )$ -->
     <g transform="translate(29.995312 291.58) rotate(-90) scale(0.3 -0.3)">
      <defs>
       <path id="DejaVuSans-4e" d="M 628 4666 
L 1478 4666 
L 3547 763 
L 3547 4666 
L 4159 4666 
L 4159 0 
L 3309 0 
L 1241 3903 
L 1241 0 
L 628 0 
L 628 4666 
z
" transform="scale(0.015625)"/>
       <path id="DejaVuSans-28" d="M 1984 4856 
Q 1566 4138 1362 3434 
Q 1159 2731 1159 2009 
Q 1159 1288 1364 580 
Q 1569 -128 1984 -844 
L 1484 -844 
Q 1016 -109 783 600 
Q 550 1309 550 2009 
Q 550 2706 781 3412 
Q 1013 4119 1484 4856 
L 1984 4856 
z
" transform="scale(0.015625)"/>
       <path id="DejaVuSans-29" d="M 513 4856 
L 1013 4856 
Q 1481 4119 1714 3412 
Q 1947 2706 1947 2009 
Q 1947 1309 1714 600 
Q 1481 -109 1013 -844 
L 513 -844 
Q 928 -128 1133 580 
Q 1338 1288 1338 2009 
Q 1338 2731 1133 3434 
Q 928 4138 513 4856 
z
" transform="scale(0.015625)"/>
      </defs>
      <use xlink:href="#DejaVuSans-4e" transform="translate(0 0.015625)"/>
      <use xlink:href="#DejaVuSans-28" transform="translate(74.804688 0.015625)"/>
      <use xlink:href="#DejaVuSans-6b" transform="translate(113.818359 0.015625)"/>
      <use xlink:href="#DejaVuSans-29" transform="translate(171.728516 0.015625)"/>
     </g>
    </g>
   </g>
   <g id="line2d_42">
    <path d="M 111.526012 77.481785 
L 136.640233 85.086671 
L 161.754454 95.309612 
L 186.868674 108.184178 
L 211.982895 123.321497 
L 237.097116 139.994843 
L 262.211337 157.466064 
L 287.325558 175.277484 
L 312.439778 193.24737 
L 337.553999 211.31465 
L 362.66822 229.450281 
L 387.782441 247.635679 
L 412.896661 265.858056 
L 438.010882 284.108341 
L 463.125103 302.379943 
L 488.239324 320.667983 
L 513.353544 338.968793 
L 538.467765 357.27958 
L 563.581986 375.5982 
L 588.696207 393.922991 
L 613.810427 412.252816 
L 638.924648 431.468603 
L 664.038869 536.685675 
" clip-path="url(#pffb341429b)" style="fill: none; stroke: #666666; stroke-width: 1.5; stroke-linecap: square"/>
   </g>
   <g id="line2d_43">
    <path d="M 111.526012 99.409239 
L 136.640233 105.403478 
L 161.754454 113.882202 
L 186.868674 124.970331 
L 211.982895 138.386127 
L 237.097116 153.472105 
L 262.211337 169.484275 
L 287.325558 185.916766 
L 312.439778 202.552752 
L 337.553999 219.317659 
L 362.66822 236.176242 
L 387.782441 253.105199 
L 412.896661 270.087842 
L 438.010882 287.111922 
L 463.125103 304.168276 
L 488.239324 321.249947 
L 513.353544 338.351591 
L 538.467765 355.469062 
L 563.581986 372.599119 
L 588.696207 389.739215 
L 613.810427 406.887334 
L 638.924648 424.041878 
L 664.038869 441.201574 
" clip-path="url(#pffb341429b)" style="fill: none; stroke: #a9a9a9; stroke-width: 1.5; stroke-linecap: square"/>
   </g>
   <g id="patch_3">
    <path d="M 100.034375 481.69 
L 100.034375 38.17 
" style="fill: none; stroke: #000000; stroke-width: 0.8; stroke-linejoin: miter; stroke-linecap: square"/>
   </g>
   <g id="patch_4">
    <path d="M 658.034375 481.69 
L 658.034375 38.17 
" style="fill: none; stroke: #000000; stroke-width: 0.8; stroke-linejoin: miter; stroke-linecap: square"/>
   </g>
   <g id="patch_5">
    <path d="M 100.034375 481.69 
L 658.034375 481.69 
" style="fill: none; stroke: #000000; stroke-width: 0.8; stroke-linejoin: miter; stroke-linecap: square"/>
   </g>
   <g id="patch_6">
    <path d="M 100.034375 38.17 
L 658.034375 38.17 
" style="fill: none; stroke: #000000; stroke-width: 0.8; stroke-linejoin: miter; stroke-linecap: square"/>
   </g>
   <g id="text_9">
    <!-- San Diego -->
    <g transform="translate(297.289375 31.515) scale(0.32 -0.32)">
     <defs>
      <path id="DejaVuSans-53" d="M 3425 4513 
L 3425 3897 
Q 3066 4069 2747 4153 
Q 2428 4238 2131 4238 
Q 1616 4238 1336 4038 
Q 1056 3838 1056 3469 
Q 1056 3159 1242 3001 
Q 1428 2844 1947 2747 
L 2328 2669 
Q 3034 2534 3370 2195 
Q 3706 1856 3706 1288 
Q 3706 609 3251 259 
Q 2797 -91 1919 -91 
Q 1588 -91 1214 -16 
Q 841 59 441 206 
L 441 856 
Q 825 641 1194 531 
Q 1563 422 1919 422 
Q 2459 422 2753 634 
Q 3047 847 3047 1241 
Q 3047 1584 2836 1778 
Q 2625 1972 2144 2069 
L 1759 2144 
Q 1053 2284 737 2584 
Q 422 2884 422 3419 
Q 422 4038 858 4394 
Q 1294 4750 2059 4750 
Q 2388 4750 2728 4690 
Q 3069 4631 3425 4513 
z
" transform="scale(0.015625)"/>
      <path id="DejaVuSans-61" d="M 2194 1759 
Q 1497 1759 1228 1600 
Q 959 1441 959 1056 
Q 959 750 1161 570 
Q 1363 391 1709 391 
Q 2188 391 2477 730 
Q 2766 1069 2766 1631 
L 2766 1759 
L 2194 1759 
z
M 3341 1997 
L 3341 0 
L 2766 0 
L 2766 531 
Q 2569 213 2275 61 
Q 1981 -91 1556 -91 
Q 1019 -91 701 211 
Q 384 513 384 1019 
Q 384 1609 779 1909 
Q 1175 2209 1959 2209 
L 2766 2209 
L 2766 2266 
Q 2766 2663 2505 2880 
Q 2244 3097 1772 3097 
Q 1472 3097 1187 3025 
Q 903 2953 641 2809 
L 641 3341 
Q 956 3463 1253 3523 
Q 1550 3584 1831 3584 
Q 2591 3584 2966 3190 
Q 3341 2797 3341 1997 
z
" transform="scale(0.015625)"/>
      <path id="DejaVuSans-6e" d="M 3513 2113 
L 3513 0 
L 2938 0 
L 2938 2094 
Q 2938 2591 2744 2837 
Q 2550 3084 2163 3084 
Q 1697 3084 1428 2787 
Q 1159 2491 1159 1978 
L 1159 0 
L 581 0 
L 581 3500 
L 1159 3500 
L 1159 2956 
Q 1366 3272 1645 3428 
Q 1925 3584 2291 3584 
Q 2894 3584 3203 3211 
Q 3513 2838 3513 2113 
z
" transform="scale(0.015625)"/>
      <path id="DejaVuSans-20" transform="scale(0.015625)"/>
      <path id="DejaVuSans-44" d="M 1259 4147 
L 1259 519 
L 2022 519 
Q 2988 519 3436 956 
Q 3884 1394 3884 2338 
Q 3884 3275 3436 3711 
Q 2988 4147 2022 4147 
L 1259 4147 
z
M 628 4666 
L 1925 4666 
Q 3281 4666 3915 4102 
Q 4550 3538 4550 2338 
Q 4550 1131 3912 565 
Q 3275 0 1925 0 
L 628 0 
L 628 4666 
z
" transform="scale(0.015625)"/>
      <path id="DejaVuSans-69" d="M 603 3500 
L 1178 3500 
L 1178 0 
L 603 0 
L 603 3500 
z
M 603 4863 
L 1178 4863 
L 1178 4134 
L 603 4134 
L 603 4863 
z
" transform="scale(0.015625)"/>
      <path id="DejaVuSans-65" d="M 3597 1894 
L 3597 1613 
L 953 1613 
Q 991 1019 1311 708 
Q 1631 397 2203 397 
Q 2534 397 2845 478 
Q 3156 559 3463 722 
L 3463 178 
Q 3153 47 2828 -22 
Q 2503 -91 2169 -91 
Q 1331 -91 842 396 
Q 353 884 353 1716 
Q 353 2575 817 3079 
Q 1281 3584 2069 3584 
Q 2775 3584 3186 3129 
Q 3597 2675 3597 1894 
z
M 3022 2063 
Q 3016 2534 2758 2815 
Q 2500 3097 2075 3097 
Q 1594 3097 1305 2825 
Q 1016 2553 972 2059 
L 3022 2063 
z
" transform="scale(0.015625)"/>
      <path id="DejaVuSans-67" d="M 2906 1791 
Q 2906 2416 2648 2759 
Q 2391 3103 1925 3103 
Q 1463 3103 1205 2759 
Q 947 2416 947 1791 
Q 947 1169 1205 825 
Q 1463 481 1925 481 
Q 2391 481 2648 825 
Q 2906 1169 2906 1791 
z
M 3481 434 
Q 3481 -459 3084 -895 
Q 2688 -1331 1869 -1331 
Q 1566 -1331 1297 -1286 
Q 1028 -1241 775 -1147 
L 775 -588 
Q 1028 -725 1275 -790 
Q 1522 -856 1778 -856 
Q 2344 -856 2625 -561 
Q 2906 -266 2906 331 
L 2906 616 
Q 2728 306 2450 153 
Q 2172 0 1784 0 
Q 1141 0 747 490 
Q 353 981 353 1791 
Q 353 2603 747 3093 
Q 1141 3584 1784 3584 
Q 2172 3584 2450 3431 
Q 2728 3278 2906 2969 
L 2906 3500 
L 3481 3500 
L 3481 434 
z
" transform="scale(0.015625)"/>
      <path id="DejaVuSans-6f" d="M 1959 3097 
Q 1497 3097 1228 2736 
Q 959 2375 959 1747 
Q 959 1119 1226 758 
Q 1494 397 1959 397 
Q 2419 397 2687 759 
Q 2956 1122 2956 1747 
Q 2956 2369 2687 2733 
Q 2419 3097 1959 3097 
z
M 1959 3584 
Q 2709 3584 3137 3096 
Q 3566 2609 3566 1747 
Q 3566 888 3137 398 
Q 2709 -91 1959 -91 
Q 1206 -91 779 398 
Q 353 888 353 1747 
Q 353 2609 779 3096 
Q 1206 3584 1959 3584 
z
" transform="scale(0.015625)"/>
     </defs>
     <use xlink:href="#DejaVuSans-53"/>
     <use xlink:href="#DejaVuSans-61" transform="translate(63.476562 0)"/>
     <use xlink:href="#DejaVuSans-6e" transform="translate(124.755859 0)"/>
     <use xlink:href="#DejaVuSans-20" transform="translate(188.134766 0)"/>
     <use xlink:href="#DejaVuSans-44" transform="translate(219.921875 0)"/>
     <use xlink:href="#DejaVuSans-69" transform="translate(296.923828 0)"/>
     <use xlink:href="#DejaVuSans-65" transform="translate(324.707031 0)"/>
     <use xlink:href="#DejaVuSans-67" transform="translate(386.230469 0)"/>
     <use xlink:href="#DejaVuSans-6f" transform="translate(449.707031 0)"/>
    </g>
   </g>
   <g id="PathCollection_3">
    <defs>
     <path id="m85a07c0c50" d="M 0 4.472136 
C 1.186024 4.472136 2.323632 4.000923 3.162278 3.162278 
C 4.000923 2.323632 4.472136 1.186024 4.472136 0 
C 4.472136 -1.186024 4.000923 -2.323632 3.162278 -3.162278 
C 2.323632 -4.000923 1.186024 -4.472136 0 -4.472136 
C -1.186024 -4.472136 -2.323632 -4.000923 -3.162278 -3.162278 
C -4.000923 -2.323632 -4.472136 -1.186024 -4.472136 0 
C -4.472136 1.186024 -4.000923 2.323632 -3.162278 3.162278 
C -2.323632 4.000923 -1.186024 4.472136 0 4.472136 
z
" style="stroke: #666666"/>
    </defs>
    <g clip-path="url(#pffb341429b)">
     <use xlink:href="#m85a07c0c50" x="111.526012" y="70.810796" style="fill: #666666; stroke: #666666"/>
     <use xlink:href="#m85a07c0c50" x="231.351297" y="127.321666" style="fill: #666666; stroke: #666666"/>
     <use xlink:href="#m85a07c0c50" x="287.066882" y="160.601201" style="fill: #666666; stroke: #666666"/>
     <use xlink:href="#m85a07c0c50" x="323.7658" y="175.565686" style="fill: #666666; stroke: #666666"/>
     <use xlink:href="#m85a07c0c50" x="351.176583" y="210.923241" style="fill: #666666; stroke: #666666"/>
     <use xlink:href="#m85a07c0c50" x="373.06367" y="215.244103" style="fill: #666666; stroke: #666666"/>
     <use xlink:href="#m85a07c0c50" x="391.284205" y="229.766121" style="fill: #666666; stroke: #666666"/>
     <use xlink:href="#m85a07c0c50" x="406.892167" y="238.120183" style="fill: #666666; stroke: #666666"/>
     <use xlink:href="#m85a07c0c50" x="420.543671" y="250.772475" style="fill: #666666; stroke: #666666"/>
     <use xlink:href="#m85a07c0c50" x="432.675015" y="235.239978" style="fill: #666666; stroke: #666666"/>
     <use xlink:href="#m85a07c0c50" x="443.591085" y="247.421911" style="fill: #666666; stroke: #666666"/>
     <use xlink:href="#m85a07c0c50" x="453.513347" y="274.384681" style="fill: #666666; stroke: #666666"/>
     <use xlink:href="#m85a07c0c50" x="462.607752" y="261.732389" style="fill: #666666; stroke: #666666"/>
     <use xlink:href="#m85a07c0c50" x="471.001868" y="279.076097" style="fill: #666666; stroke: #666666"/>
     <use xlink:href="#m85a07c0c50" x="478.795874" y="284.05201" style="fill: #666666; stroke: #666666"/>
     <use xlink:href="#m85a07c0c50" x="486.06988" y="301.094515" style="fill: #666666; stroke: #666666"/>
     <use xlink:href="#m85a07c0c50" x="492.888955" y="331.276421" style="fill: #666666; stroke: #666666"/>
     <use xlink:href="#m85a07c0c50" x="499.30667" y="364.555955" style="fill: #666666; stroke: #666666"/>
     <use xlink:href="#m85a07c0c50" x="505.367655" y="301.094515" style="fill: #666666; stroke: #666666"/>
     <use xlink:href="#m85a07c0c50" x="511.10949" y="340.94375" style="fill: #666666; stroke: #666666"/>
     <use xlink:href="#m85a07c0c50" x="516.56411" y="364.555955" style="fill: #666666; stroke: #666666"/>
     <use xlink:href="#m85a07c0c50" x="521.758886" y="397.83549" style="fill: #666666; stroke: #666666"/>
     <use xlink:href="#m85a07c0c50" x="526.717453" y="351.903664" style="fill: #666666; stroke: #666666"/>
     <use xlink:href="#m85a07c0c50" x="531.46036" y="351.903664" style="fill: #666666; stroke: #666666"/>
     <use xlink:href="#m85a07c0c50" x="536.005587" y="421.447695" style="fill: #666666; stroke: #666666"/>
     <use xlink:href="#m85a07c0c50" x="540.368956" y="421.447695" style="fill: #666666; stroke: #666666"/>
     <use xlink:href="#m85a07c0c50" x="544.564461" y="379.52044" style="fill: #666666; stroke: #666666"/>
     <use xlink:href="#m85a07c0c50" x="548.60454" y="351.903664" style="fill: #666666; stroke: #666666"/>
     <use xlink:href="#m85a07c0c50" x="552.5003" y="364.555955" style="fill: #666666; stroke: #666666"/>
     <use xlink:href="#m85a07c0c50" x="556.261696" y="397.83549" style="fill: #666666; stroke: #666666"/>
     <use xlink:href="#m85a07c0c50" x="559.897688" y="397.83549" style="fill: #666666; stroke: #666666"/>
     <use xlink:href="#m85a07c0c50" x="563.41637" y="397.83549" style="fill: #666666; stroke: #666666"/>
     <use xlink:href="#m85a07c0c50" x="566.825075" y="454.72723" style="fill: #666666; stroke: #666666"/>
     <use xlink:href="#m85a07c0c50" x="570.130469" y="397.83549" style="fill: #666666; stroke: #666666"/>
     <use xlink:href="#m85a07c0c50" x="573.338632" y="397.83549" style="fill: #666666; stroke: #666666"/>
     <use xlink:href="#m85a07c0c50" x="576.455121" y="454.72723" style="fill: #666666; stroke: #666666"/>
     <use xlink:href="#m85a07c0c50" x="579.485029" y="397.83549" style="fill: #666666; stroke: #666666"/>
     <use xlink:href="#m85a07c0c50" x="582.433037" y="454.72723" style="fill: #666666; stroke: #666666"/>
     <use xlink:href="#m85a07c0c50" x="585.303458" y="454.72723" style="fill: #666666; stroke: #666666"/>
     <use xlink:href="#m85a07c0c50" x="588.100269" y="397.83549" style="fill: #666666; stroke: #666666"/>
     <use xlink:href="#m85a07c0c50" x="590.827153" y="421.447695" style="fill: #666666; stroke: #666666"/>
     <use xlink:href="#m85a07c0c50" x="593.487521" y="364.555955" style="fill: #666666; stroke: #666666"/>
     <use xlink:href="#m85a07c0c50" x="596.084541" y="397.83549" style="fill: #666666; stroke: #666666"/>
     <use xlink:href="#m85a07c0c50" x="598.621159" y="397.83549" style="fill: #666666; stroke: #666666"/>
     <use xlink:href="#m85a07c0c50" x="601.100122" y="397.83549" style="fill: #666666; stroke: #666666"/>
     <use xlink:href="#m85a07c0c50" x="603.523992" y="397.83549" style="fill: #666666; stroke: #666666"/>
     <use xlink:href="#m85a07c0c50" x="605.895166" y="421.447695" style="fill: #666666; stroke: #666666"/>
     <use xlink:href="#m85a07c0c50" x="608.215885" y="454.72723" style="fill: #666666; stroke: #666666"/>
     <use xlink:href="#m85a07c0c50" x="610.488252" y="421.447695" style="fill: #666666; stroke: #666666"/>
     <use xlink:href="#m85a07c0c50" x="612.714241" y="454.72723" style="fill: #666666; stroke: #666666"/>
     <use xlink:href="#m85a07c0c50" x="614.895707" y="364.555955" style="fill: #666666; stroke: #666666"/>
     <use xlink:href="#m85a07c0c50" x="617.034396" y="364.555955" style="fill: #666666; stroke: #666666"/>
     <use xlink:href="#m85a07c0c50" x="621.189934" y="454.72723" style="fill: #666666; stroke: #666666"/>
     <use xlink:href="#m85a07c0c50" x="625.19294" y="421.447695" style="fill: #666666; stroke: #666666"/>
     <use xlink:href="#m85a07c0c50" x="627.140665" y="364.555955" style="fill: #666666; stroke: #666666"/>
     <use xlink:href="#m85a07c0c50" x="629.054217" y="454.72723" style="fill: #666666; stroke: #666666"/>
     <use xlink:href="#m85a07c0c50" x="630.934775" y="454.72723" style="fill: #666666; stroke: #666666"/>
     <use xlink:href="#m85a07c0c50" x="632.783458" y="454.72723" style="fill: #666666; stroke: #666666"/>
     <use xlink:href="#m85a07c0c50" x="634.601328" y="454.72723" style="fill: #666666; stroke: #666666"/>
     <use xlink:href="#m85a07c0c50" x="636.389396" y="397.83549" style="fill: #666666; stroke: #666666"/>
     <use xlink:href="#m85a07c0c50" x="638.148622" y="454.72723" style="fill: #666666; stroke: #666666"/>
     <use xlink:href="#m85a07c0c50" x="639.879923" y="421.447695" style="fill: #666666; stroke: #666666"/>
     <use xlink:href="#m85a07c0c50" x="641.584171" y="454.72723" style="fill: #666666; stroke: #666666"/>
     <use xlink:href="#m85a07c0c50" x="643.2622" y="397.83549" style="fill: #666666; stroke: #666666"/>
     <use xlink:href="#m85a07c0c50" x="644.914802" y="397.83549" style="fill: #666666; stroke: #666666"/>
     <use xlink:href="#m85a07c0c50" x="649.72748" y="454.72723" style="fill: #666666; stroke: #666666"/>
     <use xlink:href="#m85a07c0c50" x="651.285645" y="454.72723" style="fill: #666666; stroke: #666666"/>
     <use xlink:href="#m85a07c0c50" x="654.336744" y="454.72723" style="fill: #666666; stroke: #666666"/>
     <use xlink:href="#m85a07c0c50" x="655.830872" y="454.72723" style="fill: #666666; stroke: #666666"/>
     <use xlink:href="#m85a07c0c50" x="657.304809" y="454.72723" style="fill: #666666; stroke: #666666"/>
     <use xlink:href="#m85a07c0c50" x="661.61075" y="454.72723" style="fill: #666666; stroke: #666666"/>
     <use xlink:href="#m85a07c0c50" x="663.009099" y="454.72723" style="fill: #666666; stroke: #666666"/>
     <use xlink:href="#m85a07c0c50" x="664.389746" y="454.72723" style="fill: #666666; stroke: #666666"/>
     <use xlink:href="#m85a07c0c50" x="669.743934" y="454.72723" style="fill: #666666; stroke: #666666"/>
     <use xlink:href="#m85a07c0c50" x="671.042398" y="454.72723" style="fill: #666666; stroke: #666666"/>
     <use xlink:href="#m85a07c0c50" x="674.84754" y="454.72723" style="fill: #666666; stroke: #666666"/>
     <use xlink:href="#m85a07c0c50" x="677.312496" y="454.72723" style="fill: #666666; stroke: #666666"/>
     <use xlink:href="#m85a07c0c50" x="680.908525" y="454.72723" style="fill: #666666; stroke: #666666"/>
     <use xlink:href="#m85a07c0c50" x="684.389768" y="454.72723" style="fill: #666666; stroke: #666666"/>
     <use xlink:href="#m85a07c0c50" x="688.865049" y="454.72723" style="fill: #666666; stroke: #666666"/>
     <use xlink:href="#m85a07c0c50" x="706.069004" y="454.72723" style="fill: #666666; stroke: #666666"/>
     <use xlink:href="#m85a07c0c50" x="707.925554" y="454.72723" style="fill: #666666; stroke: #666666"/>
     <use xlink:href="#m85a07c0c50" x="716.761937" y="454.72723" style="fill: #666666; stroke: #666666"/>
     <use xlink:href="#m85a07c0c50" x="720.105331" y="454.72723" style="fill: #666666; stroke: #666666"/>
    </g>
   </g>
  </g>
 </g>
 <defs>
  <clipPath id="pffb341429b">
   <rect x="100.034375" y="38.17" width="558" height="443.52"/>
  </clipPath>
 </defs>
</svg>
