<?xml version="1.0" encoding="utf-8" standalone="no"?>
<!DOCTYPE svg PUBLIC "-//W3C//DTD SVG 1.1//EN"
  "http://www.w3.org/Graphics/SVG/1.1/DTD/svg11.dtd">
<svg xmlns:xlink="http://www.w3.org/1999/xlink" width="669.6875pt" height="557.95875pt" viewBox="0 0 669.6875 557.95875" xmlns="http://www.w3.org/2000/svg" version="1.1">
 <metadata>
  <rdf:RDF xmlns:dc="http://purl.org/dc/elements/1.1/" xmlns:cc="http://creativecommons.org/ns#" xmlns:rdf="http://www.w3.org/1999/02/22-rdf-syntax-ns#">
   <cc:Work>
    <dc:type rdf:resource="http://purl.org/dc/dcmitype/StillImage"/>
    <dc:date>2025-06-03T18:32:33.152547</dc:date>
    <dc:format>image/svg+xml</dc:format>
    <dc:creator>
     <cc:Agent>
      <dc:title>Matplotlib v3.10.3, https://matplotlib.org/</dc:title>
     </cc:Agent>
    </dc:creator>
   </cc:Work>
  </rdf:RDF>
 </metadata>
 <defs>
  <style type="text/css">*{stroke-linejoin: round; stroke-linecap: butt}</style>
 </defs>
 <g id="figure_1">
  <g id="patch_1">
   <path d="M 0 557.95875 
L 669.6875 557.95875 
L 669.6875 0 
L 0 0 
z
" style="fill: #ffffff"/>
  </g>
  <g id="axes_1">
   <g id="patch_2">
    <path d="M 94.94375 481.69 
L 652.94375 481.69 
L 652.94375 38.17 
L 94.94375 38.17 
z
" style="fill: #ffffff"/>
   </g>
   <g id="PathCollection_1">
    <defs>
     <path id="m104d729017" d="M 0 -4.472136 
L -4.472136 4.472136 
L 4.472136 4.472136 
z
" style="stroke: #a9a9a9"/>
    </defs>
    <g clip-path="url(#p629bbf5563)">
     <use xlink:href="#m104d729017" x="100.52375" y="464.509168" style="fill: #a9a9a9; stroke: #a9a9a9"/>
     <use xlink:href="#m104d729017" x="111.68375" y="464.509168" style="fill: #a9a9a9; stroke: #a9a9a9"/>
     <use xlink:href="#m104d729017" x="122.84375" y="472.993529" style="fill: #a9a9a9; stroke: #a9a9a9"/>
     <use xlink:href="#m104d729017" x="134.00375" y="464.509168" style="fill: #a9a9a9; stroke: #a9a9a9"/>
     <use xlink:href="#m104d729017" x="145.16375" y="472.993529" style="fill: #a9a9a9; stroke: #a9a9a9"/>
     <use xlink:href="#m104d729017" x="156.32375" y="472.993529" style="fill: #a9a9a9; stroke: #a9a9a9"/>
     <use xlink:href="#m104d729017" x="167.48375" y="464.509168" style="fill: #a9a9a9; stroke: #a9a9a9"/>
     <use xlink:href="#m104d729017" x="178.64375" y="472.993529" style="fill: #a9a9a9; stroke: #a9a9a9"/>
     <use xlink:href="#m104d729017" x="189.80375" y="456.024806" style="fill: #a9a9a9; stroke: #a9a9a9"/>
     <use xlink:href="#m104d729017" x="200.96375" y="447.540445" style="fill: #a9a9a9; stroke: #a9a9a9"/>
     <use xlink:href="#m104d729017" x="212.12375" y="464.509168" style="fill: #a9a9a9; stroke: #a9a9a9"/>
     <use xlink:href="#m104d729017" x="223.28375" y="472.993529" style="fill: #a9a9a9; stroke: #a9a9a9"/>
     <use xlink:href="#m104d729017" x="234.44375" y="439.056083" style="fill: #a9a9a9; stroke: #a9a9a9"/>
     <use xlink:href="#m104d729017" x="245.60375" y="472.993529" style="fill: #a9a9a9; stroke: #a9a9a9"/>
     <use xlink:href="#m104d729017" x="256.76375" y="456.024806" style="fill: #a9a9a9; stroke: #a9a9a9"/>
     <use xlink:href="#m104d729017" x="267.92375" y="456.024806" style="fill: #a9a9a9; stroke: #a9a9a9"/>
     <use xlink:href="#m104d729017" x="279.08375" y="439.056083" style="fill: #a9a9a9; stroke: #a9a9a9"/>
     <use xlink:href="#m104d729017" x="290.24375" y="456.024806" style="fill: #a9a9a9; stroke: #a9a9a9"/>
     <use xlink:href="#m104d729017" x="301.40375" y="464.509168" style="fill: #a9a9a9; stroke: #a9a9a9"/>
     <use xlink:href="#m104d729017" x="312.56375" y="439.056083" style="fill: #a9a9a9; stroke: #a9a9a9"/>
     <use xlink:href="#m104d729017" x="323.72375" y="413.602999" style="fill: #a9a9a9; stroke: #a9a9a9"/>
     <use xlink:href="#m104d729017" x="334.88375" y="430.571722" style="fill: #a9a9a9; stroke: #a9a9a9"/>
     <use xlink:href="#m104d729017" x="346.04375" y="430.571722" style="fill: #a9a9a9; stroke: #a9a9a9"/>
     <use xlink:href="#m104d729017" x="357.20375" y="362.696829" style="fill: #a9a9a9; stroke: #a9a9a9"/>
     <use xlink:href="#m104d729017" x="368.36375" y="303.306298" style="fill: #a9a9a9; stroke: #a9a9a9"/>
     <use xlink:href="#m104d729017" x="379.52375" y="167.556514" style="fill: #a9a9a9; stroke: #a9a9a9"/>
     <use xlink:href="#m104d729017" x="390.68375" y="226.947044" style="fill: #a9a9a9; stroke: #a9a9a9"/>
     <use xlink:href="#m104d729017" x="401.84375" y="260.884491" style="fill: #a9a9a9; stroke: #a9a9a9"/>
     <use xlink:href="#m104d729017" x="413.00375" y="371.181191" style="fill: #a9a9a9; stroke: #a9a9a9"/>
     <use xlink:href="#m104d729017" x="424.16375" y="311.79066" style="fill: #a9a9a9; stroke: #a9a9a9"/>
     <use xlink:href="#m104d729017" x="435.32375" y="379.665552" style="fill: #a9a9a9; stroke: #a9a9a9"/>
     <use xlink:href="#m104d729017" x="446.48375" y="396.634275" style="fill: #a9a9a9; stroke: #a9a9a9"/>
     <use xlink:href="#m104d729017" x="457.64375" y="422.08736" style="fill: #a9a9a9; stroke: #a9a9a9"/>
     <use xlink:href="#m104d729017" x="468.80375" y="413.602999" style="fill: #a9a9a9; stroke: #a9a9a9"/>
     <use xlink:href="#m104d729017" x="479.96375" y="456.024806" style="fill: #a9a9a9; stroke: #a9a9a9"/>
     <use xlink:href="#m104d729017" x="491.12375" y="456.024806" style="fill: #a9a9a9; stroke: #a9a9a9"/>
     <use xlink:href="#m104d729017" x="502.28375" y="447.540445" style="fill: #a9a9a9; stroke: #a9a9a9"/>
     <use xlink:href="#m104d729017" x="513.44375" y="456.024806" style="fill: #a9a9a9; stroke: #a9a9a9"/>
     <use xlink:href="#m104d729017" x="524.60375" y="464.509168" style="fill: #a9a9a9; stroke: #a9a9a9"/>
     <use xlink:href="#m104d729017" x="535.76375" y="472.993529" style="fill: #a9a9a9; stroke: #a9a9a9"/>
     <use xlink:href="#m104d729017" x="546.92375" y="464.509168" style="fill: #a9a9a9; stroke: #a9a9a9"/>
     <use xlink:href="#m104d729017" x="558.08375" y="472.993529" style="fill: #a9a9a9; stroke: #a9a9a9"/>
     <use xlink:href="#m104d729017" x="569.24375" y="472.993529" style="fill: #a9a9a9; stroke: #a9a9a9"/>
     <use xlink:href="#m104d729017" x="580.40375" y="472.993529" style="fill: #a9a9a9; stroke: #a9a9a9"/>
     <use xlink:href="#m104d729017" x="591.56375" y="472.993529" style="fill: #a9a9a9; stroke: #a9a9a9"/>
     <use xlink:href="#m104d729017" x="602.72375" y="472.993529" style="fill: #a9a9a9; stroke: #a9a9a9"/>
     <use xlink:href="#m104d729017" x="613.88375" y="464.509168" style="fill: #a9a9a9; stroke: #a9a9a9"/>
     <use xlink:href="#m104d729017" x="625.04375" y="472.993529" style="fill: #a9a9a9; stroke: #a9a9a9"/>
     <use xlink:href="#m104d729017" x="636.20375" y="464.509168" style="fill: #a9a9a9; stroke: #a9a9a9"/>
     <use xlink:href="#m104d729017" x="647.36375" y="472.993529" style="fill: #a9a9a9; stroke: #a9a9a9"/>
    </g>
   </g>
   <g id="PathCollection_2">
    <defs>
     <path id="mf483e522a7" d="M -0 4.472136 
L 4.472136 -4.472136 
L -4.472136 -4.472136 
z
" style="stroke: #a9a9a9"/>
    </defs>
    <g clip-path="url(#p629bbf5563)">
     <use xlink:href="#mf483e522a7" x="100.52375" y="472.993529" style="fill: #a9a9a9; stroke: #a9a9a9"/>
     <use xlink:href="#mf483e522a7" x="111.68375" y="472.993529" style="fill: #a9a9a9; stroke: #a9a9a9"/>
     <use xlink:href="#mf483e522a7" x="122.84375" y="472.993529" style="fill: #a9a9a9; stroke: #a9a9a9"/>
     <use xlink:href="#mf483e522a7" x="134.00375" y="455.955546" style="fill: #a9a9a9; stroke: #a9a9a9"/>
     <use xlink:href="#mf483e522a7" x="145.16375" y="472.993529" style="fill: #a9a9a9; stroke: #a9a9a9"/>
     <use xlink:href="#mf483e522a7" x="156.32375" y="472.993529" style="fill: #a9a9a9; stroke: #a9a9a9"/>
     <use xlink:href="#mf483e522a7" x="167.48375" y="455.955546" style="fill: #a9a9a9; stroke: #a9a9a9"/>
     <use xlink:href="#mf483e522a7" x="178.64375" y="464.474538" style="fill: #a9a9a9; stroke: #a9a9a9"/>
     <use xlink:href="#mf483e522a7" x="189.80375" y="455.955546" style="fill: #a9a9a9; stroke: #a9a9a9"/>
     <use xlink:href="#mf483e522a7" x="200.96375" y="464.474538" style="fill: #a9a9a9; stroke: #a9a9a9"/>
     <use xlink:href="#mf483e522a7" x="212.12375" y="472.993529" style="fill: #a9a9a9; stroke: #a9a9a9"/>
     <use xlink:href="#mf483e522a7" x="223.28375" y="455.955546" style="fill: #a9a9a9; stroke: #a9a9a9"/>
     <use xlink:href="#mf483e522a7" x="234.44375" y="455.955546" style="fill: #a9a9a9; stroke: #a9a9a9"/>
     <use xlink:href="#mf483e522a7" x="245.60375" y="455.955546" style="fill: #a9a9a9; stroke: #a9a9a9"/>
     <use xlink:href="#mf483e522a7" x="256.76375" y="447.436555" style="fill: #a9a9a9; stroke: #a9a9a9"/>
     <use xlink:href="#mf483e522a7" x="267.92375" y="455.955546" style="fill: #a9a9a9; stroke: #a9a9a9"/>
     <use xlink:href="#mf483e522a7" x="279.08375" y="464.474538" style="fill: #a9a9a9; stroke: #a9a9a9"/>
     <use xlink:href="#mf483e522a7" x="290.24375" y="455.955546" style="fill: #a9a9a9; stroke: #a9a9a9"/>
     <use xlink:href="#mf483e522a7" x="301.40375" y="464.474538" style="fill: #a9a9a9; stroke: #a9a9a9"/>
     <use xlink:href="#mf483e522a7" x="312.56375" y="438.917563" style="fill: #a9a9a9; stroke: #a9a9a9"/>
     <use xlink:href="#mf483e522a7" x="323.72375" y="430.398571" style="fill: #a9a9a9; stroke: #a9a9a9"/>
     <use xlink:href="#mf483e522a7" x="334.88375" y="379.284622" style="fill: #a9a9a9; stroke: #a9a9a9"/>
     <use xlink:href="#mf483e522a7" x="346.04375" y="404.841597" style="fill: #a9a9a9; stroke: #a9a9a9"/>
     <use xlink:href="#mf483e522a7" x="357.20375" y="370.76563" style="fill: #a9a9a9; stroke: #a9a9a9"/>
     <use xlink:href="#mf483e522a7" x="368.36375" y="328.170672" style="fill: #a9a9a9; stroke: #a9a9a9"/>
     <use xlink:href="#mf483e522a7" x="379.52375" y="166.309832" style="fill: #a9a9a9; stroke: #a9a9a9"/>
     <use xlink:href="#mf483e522a7" x="390.68375" y="345.208655" style="fill: #a9a9a9; stroke: #a9a9a9"/>
     <use xlink:href="#mf483e522a7" x="401.84375" y="174.828824" style="fill: #a9a9a9; stroke: #a9a9a9"/>
     <use xlink:href="#mf483e522a7" x="413.00375" y="311.132689" style="fill: #a9a9a9; stroke: #a9a9a9"/>
     <use xlink:href="#mf483e522a7" x="424.16375" y="379.284622" style="fill: #a9a9a9; stroke: #a9a9a9"/>
     <use xlink:href="#mf483e522a7" x="435.32375" y="353.727647" style="fill: #a9a9a9; stroke: #a9a9a9"/>
     <use xlink:href="#mf483e522a7" x="446.48375" y="362.246639" style="fill: #a9a9a9; stroke: #a9a9a9"/>
     <use xlink:href="#mf483e522a7" x="457.64375" y="447.436555" style="fill: #a9a9a9; stroke: #a9a9a9"/>
     <use xlink:href="#mf483e522a7" x="468.80375" y="438.917563" style="fill: #a9a9a9; stroke: #a9a9a9"/>
     <use xlink:href="#mf483e522a7" x="479.96375" y="455.955546" style="fill: #a9a9a9; stroke: #a9a9a9"/>
     <use xlink:href="#mf483e522a7" x="491.12375" y="447.436555" style="fill: #a9a9a9; stroke: #a9a9a9"/>
     <use xlink:href="#mf483e522a7" x="502.28375" y="438.917563" style="fill: #a9a9a9; stroke: #a9a9a9"/>
     <use xlink:href="#mf483e522a7" x="513.44375" y="455.955546" style="fill: #a9a9a9; stroke: #a9a9a9"/>
     <use xlink:href="#mf483e522a7" x="524.60375" y="464.474538" style="fill: #a9a9a9; stroke: #a9a9a9"/>
     <use xlink:href="#mf483e522a7" x="535.76375" y="464.474538" style="fill: #a9a9a9; stroke: #a9a9a9"/>
     <use xlink:href="#mf483e522a7" x="546.92375" y="472.993529" style="fill: #a9a9a9; stroke: #a9a9a9"/>
     <use xlink:href="#mf483e522a7" x="558.08375" y="472.993529" style="fill: #a9a9a9; stroke: #a9a9a9"/>
     <use xlink:href="#mf483e522a7" x="569.24375" y="472.993529" style="fill: #a9a9a9; stroke: #a9a9a9"/>
     <use xlink:href="#mf483e522a7" x="580.40375" y="464.474538" style="fill: #a9a9a9; stroke: #a9a9a9"/>
     <use xlink:href="#mf483e522a7" x="591.56375" y="472.993529" style="fill: #a9a9a9; stroke: #a9a9a9"/>
     <use xlink:href="#mf483e522a7" x="602.72375" y="472.993529" style="fill: #a9a9a9; stroke: #a9a9a9"/>
     <use xlink:href="#mf483e522a7" x="613.88375" y="472.993529" style="fill: #a9a9a9; stroke: #a9a9a9"/>
     <use xlink:href="#mf483e522a7" x="625.04375" y="464.474538" style="fill: #a9a9a9; stroke: #a9a9a9"/>
     <use xlink:href="#mf483e522a7" x="636.20375" y="472.993529" style="fill: #a9a9a9; stroke: #a9a9a9"/>
     <use xlink:href="#mf483e522a7" x="647.36375" y="472.993529" style="fill: #a9a9a9; stroke: #a9a9a9"/>
    </g>
   </g>
   <g id="matplotlib.axis_1">
    <g id="xtick_1">
     <g id="line2d_1">
      <defs>
       <path id="mecffc8c074" d="M 0 0 
L 0 3.5 
" style="stroke: #000000; stroke-width: 0.8"/>
      </defs>
      <g>
       <use xlink:href="#mecffc8c074" x="94.94375" y="481.69" style="stroke: #000000; stroke-width: 0.8"/>
      </g>
     </g>
     <g id="text_1">
      <!-- −1 -->
      <g transform="translate(72.830469 511.485313) scale(0.3 -0.3)">
       <defs>
        <path id="DejaVuSans-2212" d="M 678 2272 
L 4684 2272 
L 4684 1741 
L 678 1741 
L 678 2272 
z
" transform="scale(0.015625)"/>
        <path id="DejaVuSans-31" d="M 794 531 
L 1825 531 
L 1825 4091 
L 703 3866 
L 703 4441 
L 1819 4666 
L 2450 4666 
L 2450 531 
L 3481 531 
L 3481 0 
L 794 0 
L 794 531 
z
" transform="scale(0.015625)"/>
       </defs>
       <use xlink:href="#DejaVuSans-2212"/>
       <use xlink:href="#DejaVuSans-31" transform="translate(83.789062 0)"/>
      </g>
     </g>
    </g>
    <g id="xtick_2">
     <g id="line2d_2">
      <g>
       <use xlink:href="#mecffc8c074" x="373.94375" y="481.69" style="stroke: #000000; stroke-width: 0.8"/>
      </g>
     </g>
     <g id="text_2">
      <!-- 0 -->
      <g transform="translate(364.4 511.485313) scale(0.3 -0.3)">
       <defs>
        <path id="DejaVuSans-30" d="M 2034 4250 
Q 1547 4250 1301 3770 
Q 1056 3291 1056 2328 
Q 1056 1369 1301 889 
Q 1547 409 2034 409 
Q 2525 409 2770 889 
Q 3016 1369 3016 2328 
Q 3016 3291 2770 3770 
Q 2525 4250 2034 4250 
z
M 2034 4750 
Q 2819 4750 3233 4129 
Q 3647 3509 3647 2328 
Q 3647 1150 3233 529 
Q 2819 -91 2034 -91 
Q 1250 -91 836 529 
Q 422 1150 422 2328 
Q 422 3509 836 4129 
Q 1250 4750 2034 4750 
z
" transform="scale(0.015625)"/>
       </defs>
       <use xlink:href="#DejaVuSans-30"/>
      </g>
     </g>
    </g>
    <g id="xtick_3">
     <g id="line2d_3">
      <g>
       <use xlink:href="#mecffc8c074" x="652.94375" y="481.69" style="stroke: #000000; stroke-width: 0.8"/>
      </g>
     </g>
     <g id="text_3">
      <!-- 1 -->
      <g transform="translate(643.4 511.485313) scale(0.3 -0.3)">
       <use xlink:href="#DejaVuSans-31"/>
      </g>
     </g>
    </g>
    <g id="text_4">
     <!-- $\mathrm{x}'$ -->
     <g transform="translate(361.49375 544.519688) scale(0.3 -0.3)">
      <defs>
       <path id="DejaVuSans-78" d="M 3513 3500 
L 2247 1797 
L 3578 0 
L 2900 0 
L 1881 1375 
L 863 0 
L 184 0 
L 1544 1831 
L 300 3500 
L 978 3500 
L 1906 2253 
L 2834 3500 
L 3513 3500 
z
" transform="scale(0.015625)"/>
       <path id="Cmsy10-30" d="M 225 347 
Q 184 359 184 409 
L 966 3316 
Q 1003 3434 1093 3506 
Q 1184 3578 1300 3578 
Q 1450 3578 1564 3479 
Q 1678 3381 1678 3231 
Q 1678 3166 1644 3084 
L 488 319 
Q 466 275 428 275 
Q 394 275 320 306 
Q 247 338 225 347 
z
" transform="scale(0.015625)"/>
      </defs>
      <use xlink:href="#DejaVuSans-78" transform="translate(0 0.584375)"/>
      <use xlink:href="#Cmsy10-30" transform="translate(60.136719 38.865625) scale(0.7)"/>
     </g>
    </g>
   </g>
   <g id="matplotlib.axis_2">
    <g id="ytick_1">
     <g id="line2d_4">
      <defs>
       <path id="mc28e73b5a2" d="M 0 0 
L -3.5 0 
" style="stroke: #000000; stroke-width: 0.8"/>
      </defs>
      <g>
       <use xlink:href="#mc28e73b5a2" x="94.94375" y="472.993529" style="stroke: #000000; stroke-width: 0.8"/>
      </g>
     </g>
     <g id="text_5">
      <!-- 0.0 -->
      <g transform="translate(40.234375 484.391186) scale(0.3 -0.3)">
       <defs>
        <path id="DejaVuSans-2e" d="M 684 794 
L 1344 794 
L 1344 0 
L 684 0 
L 684 794 
z
" transform="scale(0.015625)"/>
       </defs>
       <use xlink:href="#DejaVuSans-30"/>
       <use xlink:href="#DejaVuSans-2e" transform="translate(63.623047 0)"/>
       <use xlink:href="#DejaVuSans-30" transform="translate(95.410156 0)"/>
      </g>
     </g>
    </g>
    <g id="ytick_2">
     <g id="line2d_5">
      <g>
       <use xlink:href="#mc28e73b5a2" x="94.94375" y="255.581765" style="stroke: #000000; stroke-width: 0.8"/>
      </g>
     </g>
     <g id="text_6">
      <!-- 2.5 -->
      <g transform="translate(40.234375 266.979421) scale(0.3 -0.3)">
       <defs>
        <path id="DejaVuSans-32" d="M 1228 531 
L 3431 531 
L 3431 0 
L 469 0 
L 469 531 
Q 828 903 1448 1529 
Q 2069 2156 2228 2338 
Q 2531 2678 2651 2914 
Q 2772 3150 2772 3378 
Q 2772 3750 2511 3984 
Q 2250 4219 1831 4219 
Q 1534 4219 1204 4116 
Q 875 4013 500 3803 
L 500 4441 
Q 881 4594 1212 4672 
Q 1544 4750 1819 4750 
Q 2544 4750 2975 4387 
Q 3406 4025 3406 3419 
Q 3406 3131 3298 2873 
Q 3191 2616 2906 2266 
Q 2828 2175 2409 1742 
Q 1991 1309 1228 531 
z
" transform="scale(0.015625)"/>
        <path id="DejaVuSans-35" d="M 691 4666 
L 3169 4666 
L 3169 4134 
L 1269 4134 
L 1269 2991 
Q 1406 3038 1543 3061 
Q 1681 3084 1819 3084 
Q 2600 3084 3056 2656 
Q 3513 2228 3513 1497 
Q 3513 744 3044 326 
Q 2575 -91 1722 -91 
Q 1428 -91 1123 -41 
Q 819 9 494 109 
L 494 744 
Q 775 591 1075 516 
Q 1375 441 1709 441 
Q 2250 441 2565 725 
Q 2881 1009 2881 1497 
Q 2881 1984 2565 2268 
Q 2250 2553 1709 2553 
Q 1456 2553 1204 2497 
Q 953 2441 691 2322 
L 691 4666 
z
" transform="scale(0.015625)"/>
       </defs>
       <use xlink:href="#DejaVuSans-32"/>
       <use xlink:href="#DejaVuSans-2e" transform="translate(63.623047 0)"/>
       <use xlink:href="#DejaVuSans-35" transform="translate(95.410156 0)"/>
      </g>
     </g>
    </g>
    <g id="ytick_3">
     <g id="line2d_6">
      <g>
       <use xlink:href="#mc28e73b5a2" x="94.94375" y="38.17" style="stroke: #000000; stroke-width: 0.8"/>
      </g>
     </g>
     <g id="text_7">
      <!-- 5.0 -->
      <g transform="translate(40.234375 49.567656) scale(0.3 -0.3)">
       <use xlink:href="#DejaVuSans-35"/>
       <use xlink:href="#DejaVuSans-2e" transform="translate(63.623047 0)"/>
       <use xlink:href="#DejaVuSans-30" transform="translate(95.410156 0)"/>
      </g>
     </g>
    </g>
    <g id="text_8">
     <!-- $\mathrm{P}( \mathrm{x}^{\prime} )$ -->
     <g transform="translate(29.995313 293.08) rotate(-90) scale(0.3 -0.3)">
      <defs>
       <path id="DejaVuSans-50" d="M 1259 4147 
L 1259 2394 
L 2053 2394 
Q 2494 2394 2734 2622 
Q 2975 2850 2975 3272 
Q 2975 3691 2734 3919 
Q 2494 4147 2053 4147 
L 1259 4147 
z
M 628 4666 
L 2053 4666 
Q 2838 4666 3239 4311 
Q 3641 3956 3641 3272 
Q 3641 2581 3239 2228 
Q 2838 1875 2053 1875 
L 1259 1875 
L 1259 0 
L 628 0 
L 628 4666 
z
" transform="scale(0.015625)"/>
       <path id="DejaVuSans-28" d="M 1984 4856 
Q 1566 4138 1362 3434 
Q 1159 2731 1159 2009 
Q 1159 1288 1364 580 
Q 1569 -128 1984 -844 
L 1484 -844 
Q 1016 -109 783 600 
Q 550 1309 550 2009 
Q 550 2706 781 3412 
Q 1013 4119 1484 4856 
L 1984 4856 
z
" transform="scale(0.015625)"/>
       <path id="DejaVuSans-29" d="M 513 4856 
L 1013 4856 
Q 1481 4119 1714 3412 
Q 1947 2706 1947 2009 
Q 1947 1309 1714 600 
Q 1481 -109 1013 -844 
L 513 -844 
Q 928 -128 1133 580 
Q 1338 1288 1338 2009 
Q 1338 2731 1133 3434 
Q 928 4138 513 4856 
z
" transform="scale(0.015625)"/>
      </defs>
      <use xlink:href="#DejaVuSans-50" transform="translate(0 0.584375)"/>
      <use xlink:href="#DejaVuSans-28" transform="translate(60.302734 0.584375)"/>
      <use xlink:href="#DejaVuSans-78" transform="translate(99.316406 0.584375)"/>
      <use xlink:href="#Cmsy10-30" transform="translate(159.453125 38.865625) scale(0.7)"/>
      <use xlink:href="#DejaVuSans-29" transform="translate(181.430664 0.584375)"/>
     </g>
    </g>
   </g>
   <g id="line2d_7">
    <path d="M 94.94375 472.993529 
L 283.54775 472.885382 
L 291.08075 472.645658 
L 296.10275 472.27247 
L 300.00875 471.757103 
L 303.07775 471.136545 
L 305.86775 470.340389 
L 308.37875 469.374161 
L 310.61075 468.263394 
L 312.56375 467.053762 
L 314.51675 465.579778 
L 316.46975 463.795826 
L 318.14375 461.981879 
L 319.81775 459.868652 
L 321.49175 457.419254 
L 323.16575 454.594697 
L 324.83975 451.354266 
L 326.51375 447.655986 
L 328.18775 443.457214 
L 329.86175 438.715335 
L 331.81475 432.441093 
L 333.76775 425.307766 
L 335.72075 417.257848 
L 337.67375 408.241903 
L 339.62675 398.221214 
L 341.85875 385.507008 
L 344.09075 371.436496 
L 346.60175 354.013712 
L 349.11275 334.988903 
L 351.90275 312.159392 
L 355.25075 282.849652 
L 360.27275 236.585603 
L 365.85275 185.666643 
L 368.92175 159.789412 
L 371.15375 142.63172 
L 373.10675 129.085719 
L 375.05975 117.14348 
L 376.73375 108.337736 
L 378.12875 102.094753 
L 379.52375 96.907442 
L 380.63975 93.549552 
L 381.75575 90.917147 
L 382.59275 89.428401 
L 383.42975 88.361461 
L 384.26675 87.719873 
L 384.82475 87.529568 
L 385.38275 87.529568 
L 385.94075 87.719873 
L 386.49875 88.100203 
L 387.33575 89.025683 
L 388.17275 90.374307 
L 389.00975 92.141598 
L 390.12575 95.138942 
L 391.24175 98.852471 
L 392.63675 104.468205 
L 394.03175 111.118273 
L 395.70575 120.379651 
L 397.37975 130.92768 
L 399.33275 144.684976 
L 401.56475 162.043293 
L 404.35475 185.666643 
L 407.98175 218.456149 
L 417.18875 302.593053 
L 420.25775 328.315696 
L 423.04775 349.920116 
L 425.55875 367.708638 
L 427.79075 382.116303 
L 430.02275 395.169698 
L 432.25475 406.872639 
L 434.20775 416.030032 
L 436.16075 424.215148 
L 438.11375 431.476057 
L 440.06675 437.869266 
L 442.01975 443.457214 
L 443.97275 448.305967 
L 445.64675 451.924987 
L 447.32075 455.093219 
L 448.99475 457.852463 
L 450.66875 460.243178 
L 452.62175 462.618025 
L 454.57475 464.601459 
L 456.52775 466.246669 
L 458.48075 467.602059 
L 460.43375 468.711147 
L 462.66575 469.726464 
L 465.17675 470.606611 
L 467.96675 471.329055 
L 471.03575 471.889787 
L 474.66275 472.32725 
L 479.40575 472.659855 
L 485.82275 472.869842 
L 496.98275 472.974684 
L 536.60075 472.993525 
L 652.94375 472.993529 
L 652.94375 472.993529 
" clip-path="url(#p629bbf5563)" style="fill: none; stroke: #666666; stroke-width: 1.5; stroke-linecap: square"/>
   </g>
   <g id="line2d_8">
    <path d="M 94.94375 472.993529 
L 257.87975 472.88277 
L 268.20275 472.634688 
L 274.89875 472.262431 
L 279.92075 471.779078 
L 284.10575 471.171371 
L 287.73275 470.436069 
L 291.08075 469.532677 
L 294.14975 468.4667 
L 296.93975 467.257155 
L 299.45075 465.936566 
L 301.96175 464.360656 
L 304.19375 462.715364 
L 306.42575 460.81077 
L 308.65775 458.617282 
L 310.88975 456.104091 
L 313.12175 453.239546 
L 315.35375 449.991617 
L 317.58575 446.328442 
L 319.81775 442.218966 
L 322.04975 437.633667 
L 324.28175 432.545343 
L 326.51375 426.929987 
L 329.02475 419.958146 
L 331.53575 412.27361 
L 334.04675 403.865568 
L 336.83675 393.675988 
L 339.62675 382.614265 
L 342.69575 369.49006 
L 346.04375 354.134464 
L 349.94975 335.071507 
L 354.97175 309.30941 
L 364.73675 258.878186 
L 368.36375 241.487681 
L 371.15375 229.110561 
L 373.66475 218.919426 
L 375.89675 210.745001 
L 377.84975 204.358111 
L 379.80275 198.750451 
L 381.47675 194.605798 
L 383.15075 191.104111 
L 384.54575 188.695865 
L 385.94075 186.764401 
L 387.05675 185.569292 
L 388.17275 184.689708 
L 389.28875 184.128572 
L 390.12575 183.917864 
L 390.96275 183.887751 
L 391.79975 184.038287 
L 392.63675 184.369192 
L 393.75275 185.089852 
L 394.86875 186.127629 
L 395.98475 187.47908 
L 397.10075 189.139733 
L 398.49575 191.641928 
L 399.89075 194.605798 
L 401.56475 198.750451 
L 403.23875 203.507956 
L 405.19175 209.787141 
L 407.14475 216.793295 
L 409.37675 225.605195 
L 411.88775 236.416986 
L 414.95675 250.696411 
L 418.58375 268.690335 
L 424.44275 299.097202 
L 431.41775 335.071507 
L 435.60275 355.451891 
L 438.95075 370.722548 
L 442.01975 383.758666 
L 444.80975 394.734689 
L 447.59975 404.83561 
L 450.11075 413.163072 
L 452.62175 420.767691 
L 455.13275 427.661453 
L 457.64375 433.865958 
L 459.87575 438.826135 
L 462.10775 443.289824 
L 464.33975 447.284883 
L 466.57175 450.841293 
L 468.80375 453.990372 
L 471.03575 456.764082 
L 473.26775 459.194405 
L 475.49975 461.312823 
L 477.73175 463.149872 
L 480.24275 464.916575 
L 482.75375 466.403371 
L 485.26475 467.646641 
L 488.05475 468.782842 
L 491.12375 469.781743 
L 494.47175 470.626046 
L 498.09875 471.31129 
L 502.28375 471.875831 
L 507.30575 472.323195 
L 513.72275 472.65596 
L 522.65075 472.871262 
L 537.71675 472.974779 
L 591.28475 472.993525 
L 652.94375 472.993529 
L 652.94375 472.993529 
" clip-path="url(#p629bbf5563)" style="fill: none; stroke: #a9a9a9; stroke-width: 1.5; stroke-linecap: square"/>
   </g>
   <g id="patch_3">
    <path d="M 94.94375 481.69 
L 94.94375 38.17 
" style="fill: none; stroke: #000000; stroke-width: 0.8; stroke-linejoin: miter; stroke-linecap: square"/>
   </g>
   <g id="patch_4">
    <path d="M 652.94375 481.69 
L 652.94375 38.17 
" style="fill: none; stroke: #000000; stroke-width: 0.8; stroke-linejoin: miter; stroke-linecap: square"/>
   </g>
   <g id="patch_5">
    <path d="M 94.94375 481.69 
L 652.94375 481.69 
" style="fill: none; stroke: #000000; stroke-width: 0.8; stroke-linejoin: miter; stroke-linecap: square"/>
   </g>
   <g id="patch_6">
    <path d="M 94.94375 38.17 
L 652.94375 38.17 
" style="fill: none; stroke: #000000; stroke-width: 0.8; stroke-linejoin: miter; stroke-linecap: square"/>
   </g>
   <g id="text_9">
    <!-- Hollywood -->
    <g transform="translate(290.93875 31.515) scale(0.32 -0.32)">
     <defs>
      <path id="DejaVuSans-48" d="M 628 4666 
L 1259 4666 
L 1259 2753 
L 3553 2753 
L 3553 4666 
L 4184 4666 
L 4184 0 
L 3553 0 
L 3553 2222 
L 1259 2222 
L 1259 0 
L 628 0 
L 628 4666 
z
" transform="scale(0.015625)"/>
      <path id="DejaVuSans-6f" d="M 1959 3097 
Q 1497 3097 1228 2736 
Q 959 2375 959 1747 
Q 959 1119 1226 758 
Q 1494 397 1959 397 
Q 2419 397 2687 759 
Q 2956 1122 2956 1747 
Q 2956 2369 2687 2733 
Q 2419 3097 1959 3097 
z
M 1959 3584 
Q 2709 3584 3137 3096 
Q 3566 2609 3566 1747 
Q 3566 888 3137 398 
Q 2709 -91 1959 -91 
Q 1206 -91 779 398 
Q 353 888 353 1747 
Q 353 2609 779 3096 
Q 1206 3584 1959 3584 
z
" transform="scale(0.015625)"/>
      <path id="DejaVuSans-6c" d="M 603 4863 
L 1178 4863 
L 1178 0 
L 603 0 
L 603 4863 
z
" transform="scale(0.015625)"/>
      <path id="DejaVuSans-79" d="M 2059 -325 
Q 1816 -950 1584 -1140 
Q 1353 -1331 966 -1331 
L 506 -1331 
L 506 -850 
L 844 -850 
Q 1081 -850 1212 -737 
Q 1344 -625 1503 -206 
L 1606 56 
L 191 3500 
L 800 3500 
L 1894 763 
L 2988 3500 
L 3597 3500 
L 2059 -325 
z
" transform="scale(0.015625)"/>
      <path id="DejaVuSans-77" d="M 269 3500 
L 844 3500 
L 1563 769 
L 2278 3500 
L 2956 3500 
L 3675 769 
L 4391 3500 
L 4966 3500 
L 4050 0 
L 3372 0 
L 2619 2869 
L 1863 0 
L 1184 0 
L 269 3500 
z
" transform="scale(0.015625)"/>
      <path id="DejaVuSans-64" d="M 2906 2969 
L 2906 4863 
L 3481 4863 
L 3481 0 
L 2906 0 
L 2906 525 
Q 2725 213 2448 61 
Q 2172 -91 1784 -91 
Q 1150 -91 751 415 
Q 353 922 353 1747 
Q 353 2572 751 3078 
Q 1150 3584 1784 3584 
Q 2172 3584 2448 3432 
Q 2725 3281 2906 2969 
z
M 947 1747 
Q 947 1113 1208 752 
Q 1469 391 1925 391 
Q 2381 391 2643 752 
Q 2906 1113 2906 1747 
Q 2906 2381 2643 2742 
Q 2381 3103 1925 3103 
Q 1469 3103 1208 2742 
Q 947 2381 947 1747 
z
" transform="scale(0.015625)"/>
     </defs>
     <use xlink:href="#DejaVuSans-48"/>
     <use xlink:href="#DejaVuSans-6f" transform="translate(75.195312 0)"/>
     <use xlink:href="#DejaVuSans-6c" transform="translate(136.376953 0)"/>
     <use xlink:href="#DejaVuSans-6c" transform="translate(164.160156 0)"/>
     <use xlink:href="#DejaVuSans-79" transform="translate(191.943359 0)"/>
     <use xlink:href="#DejaVuSans-77" transform="translate(251.123047 0)"/>
     <use xlink:href="#DejaVuSans-6f" transform="translate(332.910156 0)"/>
     <use xlink:href="#DejaVuSans-6f" transform="translate(394.091797 0)"/>
     <use xlink:href="#DejaVuSans-64" transform="translate(455.273438 0)"/>
    </g>
   </g>
   <g id="PathCollection_3">
    <defs>
     <path id="m9954ea926f" d="M 0 4.472136 
C 1.186024 4.472136 2.323632 4.000923 3.162278 3.162278 
C 4.000923 2.323632 4.472136 1.186024 4.472136 0 
C 4.472136 -1.186024 4.000923 -2.323632 3.162278 -3.162278 
C 2.323632 -4.000923 1.186024 -4.472136 0 -4.472136 
C -1.186024 -4.472136 -2.323632 -4.000923 -3.162278 -3.162278 
C -4.000923 -2.323632 -4.472136 -1.186024 -4.472136 0 
C -4.472136 1.186024 -4.000923 2.323632 -3.162278 3.162278 
C -2.323632 4.000923 -1.186024 4.472136 0 4.472136 
z
" style="stroke: #666666"/>
    </defs>
    <g clip-path="url(#p629bbf5563)">
     <use xlink:href="#m9954ea926f" x="100.52375" y="472.993529" style="fill: #666666; stroke: #666666"/>
     <use xlink:href="#m9954ea926f" x="111.68375" y="472.993529" style="fill: #666666; stroke: #666666"/>
     <use xlink:href="#m9954ea926f" x="122.84375" y="472.993529" style="fill: #666666; stroke: #666666"/>
     <use xlink:href="#m9954ea926f" x="134.00375" y="464.474538" style="fill: #666666; stroke: #666666"/>
     <use xlink:href="#m9954ea926f" x="145.16375" y="464.474538" style="fill: #666666; stroke: #666666"/>
     <use xlink:href="#m9954ea926f" x="156.32375" y="472.993529" style="fill: #666666; stroke: #666666"/>
     <use xlink:href="#m9954ea926f" x="167.48375" y="472.993529" style="fill: #666666; stroke: #666666"/>
     <use xlink:href="#m9954ea926f" x="178.64375" y="464.474538" style="fill: #666666; stroke: #666666"/>
     <use xlink:href="#m9954ea926f" x="189.80375" y="455.955546" style="fill: #666666; stroke: #666666"/>
     <use xlink:href="#m9954ea926f" x="200.96375" y="464.474538" style="fill: #666666; stroke: #666666"/>
     <use xlink:href="#m9954ea926f" x="212.12375" y="455.955546" style="fill: #666666; stroke: #666666"/>
     <use xlink:href="#m9954ea926f" x="223.28375" y="455.955546" style="fill: #666666; stroke: #666666"/>
     <use xlink:href="#m9954ea926f" x="234.44375" y="455.955546" style="fill: #666666; stroke: #666666"/>
     <use xlink:href="#m9954ea926f" x="245.60375" y="455.955546" style="fill: #666666; stroke: #666666"/>
     <use xlink:href="#m9954ea926f" x="256.76375" y="472.993529" style="fill: #666666; stroke: #666666"/>
     <use xlink:href="#m9954ea926f" x="267.92375" y="438.917563" style="fill: #666666; stroke: #666666"/>
     <use xlink:href="#m9954ea926f" x="279.08375" y="447.436555" style="fill: #666666; stroke: #666666"/>
     <use xlink:href="#m9954ea926f" x="290.24375" y="455.955546" style="fill: #666666; stroke: #666666"/>
     <use xlink:href="#m9954ea926f" x="301.40375" y="472.993529" style="fill: #666666; stroke: #666666"/>
     <use xlink:href="#m9954ea926f" x="312.56375" y="430.398571" style="fill: #666666; stroke: #666666"/>
     <use xlink:href="#m9954ea926f" x="323.72375" y="413.360588" style="fill: #666666; stroke: #666666"/>
     <use xlink:href="#m9954ea926f" x="334.88375" y="430.398571" style="fill: #666666; stroke: #666666"/>
     <use xlink:href="#m9954ea926f" x="346.04375" y="404.841597" style="fill: #666666; stroke: #666666"/>
     <use xlink:href="#m9954ea926f" x="357.20375" y="379.284622" style="fill: #666666; stroke: #666666"/>
     <use xlink:href="#m9954ea926f" x="368.36375" y="345.208655" style="fill: #666666; stroke: #666666"/>
     <use xlink:href="#m9954ea926f" x="379.52375" y="106.676891" style="fill: #666666; stroke: #666666"/>
     <use xlink:href="#m9954ea926f" x="390.68375" y="268.537731" style="fill: #666666; stroke: #666666"/>
     <use xlink:href="#m9954ea926f" x="401.84375" y="234.461765" style="fill: #666666; stroke: #666666"/>
     <use xlink:href="#m9954ea926f" x="413.00375" y="319.651681" style="fill: #666666; stroke: #666666"/>
     <use xlink:href="#m9954ea926f" x="424.16375" y="353.727647" style="fill: #666666; stroke: #666666"/>
     <use xlink:href="#m9954ea926f" x="435.32375" y="387.803613" style="fill: #666666; stroke: #666666"/>
     <use xlink:href="#m9954ea926f" x="446.48375" y="370.76563" style="fill: #666666; stroke: #666666"/>
     <use xlink:href="#m9954ea926f" x="457.64375" y="438.917563" style="fill: #666666; stroke: #666666"/>
     <use xlink:href="#m9954ea926f" x="468.80375" y="447.436555" style="fill: #666666; stroke: #666666"/>
     <use xlink:href="#m9954ea926f" x="479.96375" y="438.917563" style="fill: #666666; stroke: #666666"/>
     <use xlink:href="#m9954ea926f" x="491.12375" y="455.955546" style="fill: #666666; stroke: #666666"/>
     <use xlink:href="#m9954ea926f" x="502.28375" y="447.436555" style="fill: #666666; stroke: #666666"/>
     <use xlink:href="#m9954ea926f" x="513.44375" y="472.993529" style="fill: #666666; stroke: #666666"/>
     <use xlink:href="#m9954ea926f" x="524.60375" y="455.955546" style="fill: #666666; stroke: #666666"/>
     <use xlink:href="#m9954ea926f" x="535.76375" y="455.955546" style="fill: #666666; stroke: #666666"/>
     <use xlink:href="#m9954ea926f" x="546.92375" y="472.993529" style="fill: #666666; stroke: #666666"/>
     <use xlink:href="#m9954ea926f" x="558.08375" y="472.993529" style="fill: #666666; stroke: #666666"/>
     <use xlink:href="#m9954ea926f" x="569.24375" y="464.474538" style="fill: #666666; stroke: #666666"/>
     <use xlink:href="#m9954ea926f" x="580.40375" y="472.993529" style="fill: #666666; stroke: #666666"/>
     <use xlink:href="#m9954ea926f" x="591.56375" y="472.993529" style="fill: #666666; stroke: #666666"/>
     <use xlink:href="#m9954ea926f" x="602.72375" y="472.993529" style="fill: #666666; stroke: #666666"/>
     <use xlink:href="#m9954ea926f" x="613.88375" y="472.993529" style="fill: #666666; stroke: #666666"/>
     <use xlink:href="#m9954ea926f" x="625.04375" y="464.474538" style="fill: #666666; stroke: #666666"/>
     <use xlink:href="#m9954ea926f" x="636.20375" y="472.993529" style="fill: #666666; stroke: #666666"/>
     <use xlink:href="#m9954ea926f" x="647.36375" y="472.993529" style="fill: #666666; stroke: #666666"/>
    </g>
   </g>
  </g>
 </g>
 <defs>
  <clipPath id="p629bbf5563">
   <rect x="94.94375" y="38.17" width="558" height="443.52"/>
  </clipPath>
 </defs>
</svg>
